<?xml version="1.0" encoding="UTF-8" standalone="no"?>
<!DOCTYPE svg PUBLIC "-//W3C//DTD SVG 1.1//EN"
 "http://www.w3.org/Graphics/SVG/1.1/DTD/svg11.dtd">
<!-- Generated by graphviz version 2.48.0 (20210717.1556)
 -->
<!-- Title: ppht/accumulator.hpp Pages: 1 -->
<svg width="1163pt" height="192pt"
 viewBox="0.00 0.00 1162.76 192.00" xmlns="http://www.w3.org/2000/svg" xmlns:xlink="http://www.w3.org/1999/xlink">
<g id="graph0" class="graph" transform="scale(1 1) rotate(0) translate(4 188)">
<title>ppht/accumulator.hpp</title>
<polygon fill="white" stroke="transparent" points="-4,4 -4,-188 1158.76,-188 1158.76,4 -4,4"/>
<!-- Node1 -->
<g id="node1" class="node">
<title>Node1</title>
<g id="a_node1"><a xlink:title=" ">
<polygon fill="#bfbfbf" stroke="black" points="517.33,-165.5 517.33,-183.5 628.95,-183.5 628.95,-165.5 517.33,-165.5"/>
<text text-anchor="middle" x="573.14" y="-171.5" font-family="Helvetica,sans-Serif" font-size="10.00">ppht/accumulator.hpp</text>
</a>
</g>
</g>
<!-- Node2 -->
<g id="node2" class="node">
<title>Node2</title>
<g id="a_node2"><a xlink:href="parameters_8hpp.html" target="_top" xlink:title=" ">
<polygon fill="white" stroke="black" points="0,-110.5 0,-128.5 108.28,-128.5 108.28,-110.5 0,-110.5"/>
<text text-anchor="middle" x="54.14" y="-116.5" font-family="Helvetica,sans-Serif" font-size="10.00">ppht/parameters.hpp</text>
</a>
</g>
</g>
<!-- Node1&#45;&gt;Node2 -->
<g id="edge1" class="edge">
<title>Node1&#45;&gt;Node2</title>
<path fill="none" stroke="midnightblue" d="M517.19,-168.45C431.9,-160.65 264.25,-144.89 122.14,-129 120.88,-128.86 119.6,-128.71 118.31,-128.57"/>
<polygon fill="midnightblue" stroke="midnightblue" points="118.65,-125.08 108.32,-127.4 117.84,-132.04 118.65,-125.08"/>
</g>
<!-- Node3 -->
<g id="node3" class="node">
<title>Node3</title>
<g id="a_node3"><a xlink:title=" ">
<polygon fill="white" stroke="#bfbfbf" points="113.69,-55.5 113.69,-73.5 158.59,-73.5 158.59,-55.5 113.69,-55.5"/>
<text text-anchor="middle" x="136.14" y="-61.5" font-family="Helvetica,sans-Serif" font-size="10.00">cstdint</text>
</a>
</g>
</g>
<!-- Node1&#45;&gt;Node3 -->
<g id="edge22" class="edge">
<title>Node1&#45;&gt;Node3</title>
<path fill="none" stroke="midnightblue" d="M517.09,-170.95C409.54,-165.58 182.44,-151.67 155.14,-129 142.01,-118.09 137.72,-98.51 136.43,-83.96"/>
<polygon fill="midnightblue" stroke="midnightblue" points="139.91,-83.45 135.93,-73.64 132.92,-83.79 139.91,-83.45"/>
</g>
<!-- Node4 -->
<g id="node4" class="node">
<title>Node4</title>
<g id="a_node4"><a xlink:href="raster_8hpp.html" target="_top" xlink:title=" ">
<polygon fill="white" stroke="black" points="163.78,-110.5 163.78,-128.5 246.5,-128.5 246.5,-110.5 163.78,-110.5"/>
<text text-anchor="middle" x="205.14" y="-116.5" font-family="Helvetica,sans-Serif" font-size="10.00">ppht/raster.hpp</text>
</a>
</g>
</g>
<!-- Node1&#45;&gt;Node4 -->
<g id="edge3" class="edge">
<title>Node1&#45;&gt;Node4</title>
<path fill="none" stroke="midnightblue" d="M517.13,-165.75C454.49,-157.02 349.99,-142.33 260.14,-129 259.04,-128.84 257.93,-128.67 256.81,-128.5"/>
<polygon fill="midnightblue" stroke="midnightblue" points="256.99,-124.99 246.58,-126.96 255.94,-131.91 256.99,-124.99"/>
</g>
<!-- Node5 -->
<g id="node5" class="node">
<title>Node5</title>
<g id="a_node5"><a xlink:title=" ">
<polygon fill="white" stroke="#bfbfbf" points="184.08,-55.5 184.08,-73.5 236.2,-73.5 236.2,-55.5 184.08,-55.5"/>
<text text-anchor="middle" x="210.14" y="-61.5" font-family="Helvetica,sans-Serif" font-size="10.00">memory</text>
</a>
</g>
</g>
<!-- Node1&#45;&gt;Node5 -->
<g id="edge25" class="edge">
<title>Node1&#45;&gt;Node5</title>
<path fill="none" stroke="midnightblue" d="M517.09,-171.96C460.02,-168.69 369.97,-158.76 298.14,-129 270.27,-117.46 242.85,-95.52 226.21,-80.7"/>
<polygon fill="midnightblue" stroke="midnightblue" points="228.28,-77.86 218.54,-73.69 223.56,-83.02 228.28,-77.86"/>
</g>
<!-- Node6 -->
<g id="node6" class="node">
<title>Node6</title>
<g id="a_node6"><a xlink:href="trig_8hpp.html" target="_top" xlink:title=" ">
<polygon fill="white" stroke="black" points="340.34,-110.5 340.34,-128.5 411.94,-128.5 411.94,-110.5 340.34,-110.5"/>
<text text-anchor="middle" x="376.14" y="-116.5" font-family="Helvetica,sans-Serif" font-size="10.00">ppht/trig.hpp</text>
</a>
</g>
</g>
<!-- Node1&#45;&gt;Node6 -->
<g id="edge5" class="edge">
<title>Node1&#45;&gt;Node6</title>
<path fill="none" stroke="midnightblue" d="M543.22,-165.45C509.28,-156.32 453.76,-141.38 416.13,-131.26"/>
<polygon fill="midnightblue" stroke="midnightblue" points="416.58,-127.76 406.02,-128.54 414.77,-134.52 416.58,-127.76"/>
</g>
<!-- Node7 -->
<g id="node7" class="node">
<title>Node7</title>
<g id="a_node7"><a xlink:href="types_8hpp.html" target="_top" xlink:title=" ">
<polygon fill="white" stroke="black" points="394.34,-55.5 394.34,-73.5 475.94,-73.5 475.94,-55.5 394.34,-55.5"/>
<text text-anchor="middle" x="435.14" y="-61.5" font-family="Helvetica,sans-Serif" font-size="10.00">ppht/types.hpp</text>
</a>
</g>
</g>
<!-- Node1&#45;&gt;Node7 -->
<g id="edge17" class="edge">
<title>Node1&#45;&gt;Node7</title>
<path fill="none" stroke="midnightblue" d="M555.8,-165.47C539.36,-157.44 514.39,-144.12 495.14,-129 477.14,-114.85 459.51,-95.31 448.07,-81.66"/>
<polygon fill="midnightblue" stroke="midnightblue" points="450.55,-79.17 441.5,-73.65 445.14,-83.6 450.55,-79.17"/>
</g>
<!-- Node9 -->
<g id="node9" class="node">
<title>Node9</title>
<g id="a_node9"><a xlink:title=" ">
<polygon fill="white" stroke="#bfbfbf" points="280.52,-0.5 280.52,-18.5 323.76,-18.5 323.76,-0.5 280.52,-0.5"/>
<text text-anchor="middle" x="302.14" y="-6.5" font-family="Helvetica,sans-Serif" font-size="10.00">cmath</text>
</a>
</g>
</g>
<!-- Node1&#45;&gt;Node9 -->
<g id="edge20" class="edge">
<title>Node1&#45;&gt;Node9</title>
<path fill="none" stroke="midnightblue" d="M517.13,-169.42C454.73,-163.83 358.95,-151.77 331.14,-129 301.59,-104.81 299.28,-55.9 300.5,-29.1"/>
<polygon fill="midnightblue" stroke="midnightblue" points="304.01,-29.02 301.19,-18.81 297.03,-28.55 304.01,-29.02"/>
</g>
<!-- Node11 -->
<g id="node11" class="node">
<title>Node11</title>
<g id="a_node11"><a xlink:title=" ">
<polygon fill="white" stroke="#bfbfbf" points="484.75,-0.5 484.75,-18.5 523.53,-18.5 523.53,-0.5 484.75,-0.5"/>
<text text-anchor="middle" x="504.14" y="-6.5" font-family="Helvetica,sans-Serif" font-size="10.00">utility</text>
</a>
</g>
</g>
<!-- Node1&#45;&gt;Node11 -->
<g id="edge31" class="edge">
<title>Node1&#45;&gt;Node11</title>
<path fill="none" stroke="midnightblue" d="M562.2,-165.42C547.45,-153.5 524.23,-130.39 535.14,-110 548.75,-84.57 575.53,-99.43 589.14,-74 593.12,-66.55 593.51,-62.22 589.14,-55 577.1,-35.1 552.9,-23.67 533.39,-17.39"/>
<polygon fill="midnightblue" stroke="midnightblue" points="534.28,-14 523.7,-14.56 532.32,-20.72 534.28,-14"/>
</g>
<!-- Node12 -->
<g id="node12" class="node">
<title>Node12</title>
<g id="a_node12"><a xlink:title=" ">
<polygon fill="white" stroke="#bfbfbf" points="532.02,-55.5 532.02,-73.5 580.26,-73.5 580.26,-55.5 532.02,-55.5"/>
<text text-anchor="middle" x="556.14" y="-61.5" font-family="Helvetica,sans-Serif" font-size="10.00">cassert</text>
</a>
</g>
</g>
<!-- Node1&#45;&gt;Node12 -->
<g id="edge19" class="edge">
<title>Node1&#45;&gt;Node12</title>
<path fill="none" stroke="midnightblue" d="M549.04,-165.49C532.6,-158.62 512.07,-146.95 502.14,-129 491.43,-109.65 512.75,-90.78 531.67,-78.71"/>
<polygon fill="midnightblue" stroke="midnightblue" points="533.57,-81.65 540.34,-73.51 529.97,-75.65 533.57,-81.65"/>
</g>
<!-- Node14 -->
<g id="node14" class="node">
<title>Node14</title>
<g id="a_node14"><a xlink:title=" ">
<polygon fill="white" stroke="#bfbfbf" points="544.58,-110.5 544.58,-128.5 601.7,-128.5 601.7,-110.5 544.58,-110.5"/>
<text text-anchor="middle" x="573.14" y="-116.5" font-family="Helvetica,sans-Serif" font-size="10.00">algorithm</text>
</a>
</g>
</g>
<!-- Node1&#45;&gt;Node14 -->
<g id="edge18" class="edge">
<title>Node1&#45;&gt;Node14</title>
<path fill="none" stroke="midnightblue" d="M573.14,-165.22C573.14,-158.18 573.14,-147.81 573.14,-138.83"/>
<polygon fill="midnightblue" stroke="midnightblue" points="576.64,-138.55 573.14,-128.55 569.64,-138.55 576.64,-138.55"/>
</g>
<!-- Node15 -->
<g id="node15" class="node">
<title>Node15</title>
<g id="a_node15"><a xlink:title=" ">
<polygon fill="white" stroke="#bfbfbf" points="620.02,-110.5 620.02,-128.5 668.26,-128.5 668.26,-110.5 620.02,-110.5"/>
<text text-anchor="middle" x="644.14" y="-116.5" font-family="Helvetica,sans-Serif" font-size="10.00">cstddef</text>
</a>
</g>
</g>
<!-- Node1&#45;&gt;Node15 -->
<g id="edge21" class="edge">
<title>Node1&#45;&gt;Node15</title>
<path fill="none" stroke="midnightblue" d="M583.92,-165.45C594.77,-157.36 611.72,-144.7 624.87,-134.88"/>
<polygon fill="midnightblue" stroke="midnightblue" points="627.34,-137.41 633.26,-128.63 623.15,-131.8 627.34,-137.41"/>
</g>
<!-- Node16 -->
<g id="node16" class="node">
<title>Node16</title>
<g id="a_node16"><a xlink:title=" ">
<polygon fill="white" stroke="#bfbfbf" points="685.97,-110.5 685.97,-128.5 730.31,-128.5 730.31,-110.5 685.97,-110.5"/>
<text text-anchor="middle" x="708.14" y="-116.5" font-family="Helvetica,sans-Serif" font-size="10.00">cstdlib</text>
</a>
</g>
</g>
<!-- Node1&#45;&gt;Node16 -->
<g id="edge23" class="edge">
<title>Node1&#45;&gt;Node16</title>
<path fill="none" stroke="midnightblue" d="M593.64,-165.45C616.04,-156.66 652.15,-142.48 677.83,-132.4"/>
<polygon fill="midnightblue" stroke="midnightblue" points="679.41,-135.54 687.44,-128.63 676.86,-129.02 679.41,-135.54"/>
</g>
<!-- Node17 -->
<g id="node17" class="node">
<title>Node17</title>
<g id="a_node17"><a xlink:title=" ">
<polygon fill="white" stroke="#bfbfbf" points="748.75,-110.5 748.75,-128.5 787.53,-128.5 787.53,-110.5 748.75,-110.5"/>
<text text-anchor="middle" x="768.14" y="-116.5" font-family="Helvetica,sans-Serif" font-size="10.00">limits</text>
</a>
</g>
</g>
<!-- Node1&#45;&gt;Node17 -->
<g id="edge24" class="edge">
<title>Node1&#45;&gt;Node17</title>
<path fill="none" stroke="midnightblue" d="M604.1,-165.43C635.53,-157.19 685.83,-143.86 738.62,-129.09"/>
<polygon fill="midnightblue" stroke="midnightblue" points="739.82,-132.39 748.5,-126.32 737.93,-125.65 739.82,-132.39"/>
</g>
<!-- Node18 -->
<g id="node18" class="node">
<title>Node18</title>
<g id="a_node18"><a xlink:title=" ">
<polygon fill="white" stroke="#bfbfbf" points="805.19,-110.5 805.19,-128.5 855.09,-128.5 855.09,-110.5 805.19,-110.5"/>
<text text-anchor="middle" x="830.14" y="-116.5" font-family="Helvetica,sans-Serif" font-size="10.00">random</text>
</a>
</g>
</g>
<!-- Node1&#45;&gt;Node18 -->
<g id="edge26" class="edge">
<title>Node1&#45;&gt;Node18</title>
<path fill="none" stroke="midnightblue" d="M616.44,-165.5C659.35,-157.42 727.2,-144.28 794.93,-129.19"/>
<polygon fill="midnightblue" stroke="midnightblue" points="795.93,-132.55 804.92,-126.95 794.4,-125.72 795.93,-132.55"/>
</g>
<!-- Node19 -->
<g id="node19" class="node">
<title>Node19</title>
<g id="a_node19"><a xlink:title=" ">
<polygon fill="white" stroke="#bfbfbf" points="873.47,-110.5 873.47,-128.5 902.81,-128.5 902.81,-110.5 873.47,-110.5"/>
<text text-anchor="middle" x="888.14" y="-116.5" font-family="Helvetica,sans-Serif" font-size="10.00">set</text>
</a>
</g>
</g>
<!-- Node1&#45;&gt;Node19 -->
<g id="edge27" class="edge">
<title>Node1&#45;&gt;Node19</title>
<path fill="none" stroke="midnightblue" d="M629,-168.12C685.92,-161.94 776.73,-150.12 863.55,-128.7"/>
<polygon fill="midnightblue" stroke="midnightblue" points="864.45,-132.08 873.29,-126.25 862.74,-125.29 864.45,-132.08"/>
</g>
<!-- Node20 -->
<g id="node20" class="node">
<title>Node20</title>
<g id="a_node20"><a xlink:title=" ">
<polygon fill="white" stroke="#bfbfbf" points="920.74,-110.5 920.74,-128.5 979.54,-128.5 979.54,-110.5 920.74,-110.5"/>
<text text-anchor="middle" x="950.14" y="-116.5" font-family="Helvetica,sans-Serif" font-size="10.00">stdexcept</text>
</a>
</g>
</g>
<!-- Node1&#45;&gt;Node20 -->
<g id="edge28" class="edge">
<title>Node1&#45;&gt;Node20</title>
<path fill="none" stroke="midnightblue" d="M629.16,-167.7C694.47,-160.6 805.84,-147.4 910.62,-129.13"/>
<polygon fill="midnightblue" stroke="midnightblue" points="911.49,-132.53 920.73,-127.35 910.28,-125.64 911.49,-132.53"/>
</g>
<!-- Node21 -->
<g id="node21" class="node">
<title>Node21</title>
<g id="a_node21"><a xlink:title=" ">
<polygon fill="white" stroke="#bfbfbf" points="997.91,-110.5 997.91,-128.5 1038.37,-128.5 1038.37,-110.5 997.91,-110.5"/>
<text text-anchor="middle" x="1018.14" y="-116.5" font-family="Helvetica,sans-Serif" font-size="10.00">string</text>
</a>
</g>
</g>
<!-- Node1&#45;&gt;Node21 -->
<g id="edge29" class="edge">
<title>Node1&#45;&gt;Node21</title>
<path fill="none" stroke="midnightblue" d="M628.96,-170.52C707.11,-165.69 853.61,-154.23 987.56,-128.76"/>
<polygon fill="midnightblue" stroke="midnightblue" points="988.44,-132.15 997.59,-126.82 987.11,-125.28 988.44,-132.15"/>
</g>
<!-- Node22 -->
<g id="node22" class="node">
<title>Node22</title>
<g id="a_node22"><a xlink:title=" ">
<polygon fill="white" stroke="#bfbfbf" points="1056.3,-110.5 1056.3,-128.5 1093.98,-128.5 1093.98,-110.5 1056.3,-110.5"/>
<text text-anchor="middle" x="1075.14" y="-116.5" font-family="Helvetica,sans-Serif" font-size="10.00">tuple</text>
</a>
</g>
</g>
<!-- Node1&#45;&gt;Node22 -->
<g id="edge30" class="edge">
<title>Node1&#45;&gt;Node22</title>
<path fill="none" stroke="midnightblue" d="M629.12,-171.88C716.42,-168.57 890.24,-158.78 1046.06,-128.79"/>
<polygon fill="midnightblue" stroke="midnightblue" points="1047.15,-132.14 1056.29,-126.78 1045.81,-125.27 1047.15,-132.14"/>
</g>
<!-- Node23 -->
<g id="node23" class="node">
<title>Node23</title>
<g id="a_node23"><a xlink:title=" ">
<polygon fill="white" stroke="#bfbfbf" points="1111.52,-110.5 1111.52,-128.5 1154.76,-128.5 1154.76,-110.5 1111.52,-110.5"/>
<text text-anchor="middle" x="1133.14" y="-116.5" font-family="Helvetica,sans-Serif" font-size="10.00">vector</text>
</a>
</g>
</g>
<!-- Node1&#45;&gt;Node23 -->
<g id="edge32" class="edge">
<title>Node1&#45;&gt;Node23</title>
<path fill="none" stroke="midnightblue" d="M629.31,-172.32C724.77,-169.56 924.75,-160.41 1101.31,-129.02"/>
<polygon fill="midnightblue" stroke="midnightblue" points="1102.08,-132.44 1111.3,-127.21 1100.84,-125.55 1102.08,-132.44"/>
</g>
<!-- Node2&#45;&gt;Node3 -->
<g id="edge2" class="edge">
<title>Node2&#45;&gt;Node3</title>
<path fill="none" stroke="midnightblue" d="M66.59,-110.45C79.36,-102.2 99.45,-89.22 114.76,-79.32"/>
<polygon fill="midnightblue" stroke="midnightblue" points="117.07,-81.99 123.57,-73.63 113.27,-76.11 117.07,-81.99"/>
</g>
<!-- Node4&#45;&gt;Node5 -->
<g id="edge4" class="edge">
<title>Node4&#45;&gt;Node5</title>
<path fill="none" stroke="midnightblue" d="M205.92,-110.22C206.59,-103.1 207.59,-92.58 208.44,-83.53"/>
<polygon fill="midnightblue" stroke="midnightblue" points="211.93,-83.83 209.38,-73.55 204.96,-83.18 211.93,-83.83"/>
</g>
<!-- Node6&#45;&gt;Node3 -->
<g id="edge13" class="edge">
<title>Node6&#45;&gt;Node3</title>
<path fill="none" stroke="midnightblue" d="M340.21,-110.57C293.72,-100.3 213.41,-82.56 168.65,-72.68"/>
<polygon fill="midnightblue" stroke="midnightblue" points="169.13,-69.2 158.61,-70.46 167.62,-76.04 169.13,-69.2"/>
</g>
<!-- Node6&#45;&gt;Node5 -->
<g id="edge15" class="edge">
<title>Node6&#45;&gt;Node5</title>
<path fill="none" stroke="midnightblue" d="M350.93,-110.45C322.69,-101.44 276.74,-86.77 245.06,-76.65"/>
<polygon fill="midnightblue" stroke="midnightblue" points="245.91,-73.25 235.32,-73.54 243.78,-79.91 245.91,-73.25"/>
</g>
<!-- Node6&#45;&gt;Node7 -->
<g id="edge6" class="edge">
<title>Node6&#45;&gt;Node7</title>
<path fill="none" stroke="midnightblue" d="M385.1,-110.45C393.94,-102.51 407.66,-90.19 418.5,-80.45"/>
<polygon fill="midnightblue" stroke="midnightblue" points="420.99,-82.91 426.09,-73.63 416.32,-77.7 420.99,-82.91"/>
</g>
<!-- Node6&#45;&gt;Node9 -->
<g id="edge12" class="edge">
<title>Node6&#45;&gt;Node9</title>
<path fill="none" stroke="midnightblue" d="M361.92,-110.42C349.44,-102.62 331.67,-89.71 321.14,-74 311.93,-60.26 307.07,-41.93 304.58,-28.49"/>
<polygon fill="midnightblue" stroke="midnightblue" points="308.03,-27.9 303.01,-18.57 301.12,-29 308.03,-27.9"/>
</g>
<!-- Node6&#45;&gt;Node11 -->
<g id="edge16" class="edge">
<title>Node6&#45;&gt;Node11</title>
<path fill="none" stroke="midnightblue" d="M412.18,-112.17C435.99,-106.19 466.18,-94.89 485.14,-74 496.38,-61.62 500.98,-42.83 502.86,-28.9"/>
<polygon fill="midnightblue" stroke="midnightblue" points="506.38,-28.89 503.88,-18.59 499.41,-28.2 506.38,-28.89"/>
</g>
<!-- Node6&#45;&gt;Node12 -->
<g id="edge11" class="edge">
<title>Node6&#45;&gt;Node12</title>
<path fill="none" stroke="midnightblue" d="M403.48,-110.45C435.34,-101.07 488.02,-85.56 522.4,-75.43"/>
<polygon fill="midnightblue" stroke="midnightblue" points="523.41,-78.79 532.01,-72.6 521.43,-72.07 523.41,-78.79"/>
</g>
<!-- Node13 -->
<g id="node13" class="node">
<title>Node13</title>
<g id="a_node13"><a xlink:title=" ">
<polygon fill="white" stroke="#bfbfbf" points="329.85,-55.5 329.85,-73.5 376.43,-73.5 376.43,-55.5 329.85,-55.5"/>
<text text-anchor="middle" x="353.14" y="-61.5" font-family="Helvetica,sans-Serif" font-size="10.00">math.h</text>
</a>
</g>
</g>
<!-- Node6&#45;&gt;Node13 -->
<g id="edge14" class="edge">
<title>Node6&#45;&gt;Node13</title>
<path fill="none" stroke="midnightblue" d="M372.55,-110.22C369.39,-102.94 364.69,-92.11 360.71,-82.93"/>
<polygon fill="midnightblue" stroke="midnightblue" points="363.83,-81.33 356.63,-73.55 357.4,-84.12 363.83,-81.33"/>
</g>
<!-- Node8 -->
<g id="node8" class="node">
<title>Node8</title>
<g id="a_node8"><a xlink:title=" ">
<polygon fill="white" stroke="#bfbfbf" points="421.75,-0.5 421.75,-18.5 460.53,-18.5 460.53,-0.5 421.75,-0.5"/>
<text text-anchor="middle" x="441.14" y="-6.5" font-family="Helvetica,sans-Serif" font-size="10.00">array</text>
</a>
</g>
</g>
<!-- Node7&#45;&gt;Node8 -->
<g id="edge7" class="edge">
<title>Node7&#45;&gt;Node8</title>
<path fill="none" stroke="midnightblue" d="M436.08,-55.22C436.88,-48.1 438.07,-37.58 439.1,-28.53"/>
<polygon fill="midnightblue" stroke="midnightblue" points="442.58,-28.88 440.23,-18.55 435.63,-28.09 442.58,-28.88"/>
</g>
<!-- Node7&#45;&gt;Node9 -->
<g id="edge8" class="edge">
<title>Node7&#45;&gt;Node9</title>
<path fill="none" stroke="midnightblue" d="M414.94,-55.45C392.87,-46.66 357.3,-32.48 332,-22.4"/>
<polygon fill="midnightblue" stroke="midnightblue" points="333.12,-19.08 322.53,-18.63 330.52,-25.58 333.12,-19.08"/>
</g>
<!-- Node10 -->
<g id="node10" class="node">
<title>Node10</title>
<g id="a_node10"><a xlink:title=" ">
<polygon fill="white" stroke="#bfbfbf" points="348.97,-0.5 348.97,-18.5 403.31,-18.5 403.31,-0.5 348.97,-0.5"/>
<text text-anchor="middle" x="376.14" y="-6.5" font-family="Helvetica,sans-Serif" font-size="10.00">iostream</text>
</a>
</g>
</g>
<!-- Node7&#45;&gt;Node10 -->
<g id="edge9" class="edge">
<title>Node7&#45;&gt;Node10</title>
<path fill="none" stroke="midnightblue" d="M426.18,-55.45C417.34,-47.51 403.62,-35.19 392.78,-25.45"/>
<polygon fill="midnightblue" stroke="midnightblue" points="394.96,-22.7 385.19,-18.63 390.29,-27.91 394.96,-22.7"/>
</g>
<!-- Node7&#45;&gt;Node11 -->
<g id="edge10" class="edge">
<title>Node7&#45;&gt;Node11</title>
<path fill="none" stroke="midnightblue" d="M445.62,-55.45C456.16,-47.36 472.63,-34.7 485.42,-24.88"/>
<polygon fill="midnightblue" stroke="midnightblue" points="487.76,-27.49 493.56,-18.63 483.5,-21.94 487.76,-27.49"/>
</g>
</g>
</svg>
