<?xml version="1.0" encoding="UTF-8" standalone="no"?>
<!DOCTYPE svg PUBLIC "-//W3C//DTD SVG 1.1//EN"
 "http://www.w3.org/Graphics/SVG/1.1/DTD/svg11.dtd">
<!-- Generated by graphviz version 2.40.1 (20161225.0304)
 -->
<!-- Title: ppht/accumulator.hpp Pages: 1 -->
<svg width="1139pt" height="192pt"
 viewBox="0.00 0.00 1138.87 192.00" xmlns="http://www.w3.org/2000/svg" xmlns:xlink="http://www.w3.org/1999/xlink">
<g id="graph0" class="graph" transform="scale(1 1) rotate(0) translate(4 188)">
<title>ppht/accumulator.hpp</title>
<polygon fill="#ffffff" stroke="transparent" points="-4,4 -4,-188 1134.8696,-188 1134.8696,4 -4,4"/>
<!-- Node0 -->
<g id="node1" class="node">
<title>Node0</title>
<polygon fill="#bfbfbf" stroke="#000000" points="493.4413,-165.5 493.4413,-183.5 605.0663,-183.5 605.0663,-165.5 493.4413,-165.5"/>
<text text-anchor="middle" x="549.2538" y="-171.5" font-family="Helvetica,sans-Serif" font-size="10.00" fill="#000000">ppht/accumulator.hpp</text>
</g>
<!-- Node1 -->
<g id="node2" class="node">
<title>Node1</title>
<g id="a_node2"><a xlink:href="parameters_8hpp.html" target="_top" xlink:title="ppht/parameters.hpp">
<polygon fill="#ffffff" stroke="#000000" points="14.1137,-110.5 14.1137,-128.5 122.394,-128.5 122.394,-110.5 14.1137,-110.5"/>
<text text-anchor="middle" x="68.2538" y="-116.5" font-family="Helvetica,sans-Serif" font-size="10.00" fill="#000000">ppht/parameters.hpp</text>
</a>
</g>
</g>
<!-- Node0&#45;&gt;Node1 -->
<g id="edge1" class="edge">
<title>Node0&#45;&gt;Node1</title>
<path fill="none" stroke="#191970" d="M493.4146,-168.8687C413.9845,-160.7399 263.8433,-144.9373 136.2538,-129 134.9897,-128.8421 133.7126,-128.6808 132.4258,-128.5167"/>
<polygon fill="#191970" stroke="#191970" points="132.7942,-125.0352 122.4255,-127.2128 131.889,-131.9765 132.7942,-125.0352"/>
</g>
<!-- Node2 -->
<g id="node3" class="node">
<title>Node2</title>
<polygon fill="#ffffff" stroke="#bfbfbf" points="45.8032,-55.5 45.8032,-73.5 90.7045,-73.5 90.7045,-55.5 45.8032,-55.5"/>
<text text-anchor="middle" x="68.2538" y="-61.5" font-family="Helvetica,sans-Serif" font-size="10.00" fill="#000000">cstdint</text>
</g>
<!-- Node0&#45;&gt;Node2 -->
<g id="edge21" class="edge">
<title>Node0&#45;&gt;Node2</title>
<path fill="none" stroke="#191970" d="M493.1448,-174.0087C360.8035,-172.2679 37.816,-164.3994 5.2538,-129 -11.2115,-111.1 15.5171,-91.1685 39.0732,-78.2652"/>
<polygon fill="#191970" stroke="#191970" points="40.928,-81.2454 48.1779,-73.5195 37.6924,-75.0381 40.928,-81.2454"/>
</g>
<!-- Node3 -->
<g id="node4" class="node">
<title>Node3</title>
<g id="a_node4"><a xlink:href="raster_8hpp.html" target="_top" xlink:title="ppht/raster.hpp">
<polygon fill="#ffffff" stroke="#000000" points="177.8945,-110.5 177.8945,-128.5 260.6132,-128.5 260.6132,-110.5 177.8945,-110.5"/>
<text text-anchor="middle" x="219.2538" y="-116.5" font-family="Helvetica,sans-Serif" font-size="10.00" fill="#000000">ppht/raster.hpp</text>
</a>
</g>
</g>
<!-- Node0&#45;&gt;Node3 -->
<g id="edge3" class="edge">
<title>Node0&#45;&gt;Node3</title>
<path fill="none" stroke="#191970" d="M493.9282,-165.464C438.3815,-156.3642 350.359,-141.8685 274.2538,-129 273.1551,-128.8142 272.0441,-128.6259 270.9241,-128.4358"/>
<polygon fill="#191970" stroke="#191970" points="271.1385,-124.9219 260.6922,-126.6898 269.9609,-131.8221 271.1385,-124.9219"/>
</g>
<!-- Node4 -->
<g id="node5" class="node">
<title>Node4</title>
<polygon fill="#ffffff" stroke="#bfbfbf" points="120.1972,-55.5 120.1972,-73.5 172.3105,-73.5 172.3105,-55.5 120.1972,-55.5"/>
<text text-anchor="middle" x="146.2538" y="-61.5" font-family="Helvetica,sans-Serif" font-size="10.00" fill="#000000">memory</text>
</g>
<!-- Node0&#45;&gt;Node4 -->
<g id="edge24" class="edge">
<title>Node0&#45;&gt;Node4</title>
<path fill="none" stroke="#191970" d="M493.3864,-171.044C393.8962,-164.4204 194.081,-148.8201 169.2538,-129 155.6309,-118.1245 150.0681,-98.548 147.8014,-83.8051"/>
<polygon fill="#191970" stroke="#191970" points="151.2581,-83.2289 146.6316,-73.6976 144.3046,-84.0337 151.2581,-83.2289"/>
</g>
<!-- Node5 -->
<g id="node6" class="node">
<title>Node5</title>
<g id="a_node6"><a xlink:href="trig_8hpp.html" target="_top" xlink:title="ppht/trig.hpp">
<polygon fill="#ffffff" stroke="#000000" points="316.456,-110.5 316.456,-128.5 388.0517,-128.5 388.0517,-110.5 316.456,-110.5"/>
<text text-anchor="middle" x="352.2538" y="-116.5" font-family="Helvetica,sans-Serif" font-size="10.00" fill="#000000">ppht/trig.hpp</text>
</a>
</g>
</g>
<!-- Node0&#45;&gt;Node5 -->
<g id="edge5" class="edge">
<title>Node0&#45;&gt;Node5</title>
<path fill="none" stroke="#191970" d="M516.7233,-165.4179C483.2593,-156.0751 430.9944,-141.4834 394.3867,-131.263"/>
<polygon fill="#191970" stroke="#191970" points="395.0781,-127.8222 384.5053,-128.5042 393.1958,-134.5644 395.0781,-127.8222"/>
</g>
<!-- Node6 -->
<g id="node7" class="node">
<title>Node6</title>
<g id="a_node7"><a xlink:href="types_8hpp.html" target="_top" xlink:title="ppht/types.hpp">
<polygon fill="#ffffff" stroke="#000000" points="190.4511,-55.5 190.4511,-73.5 272.0566,-73.5 272.0566,-55.5 190.4511,-55.5"/>
<text text-anchor="middle" x="231.2538" y="-61.5" font-family="Helvetica,sans-Serif" font-size="10.00" fill="#000000">ppht/types.hpp</text>
</a>
</g>
</g>
<!-- Node0&#45;&gt;Node6 -->
<g id="edge16" class="edge">
<title>Node0&#45;&gt;Node6</title>
<path fill="none" stroke="#191970" d="M493.2536,-167.3572C432.3638,-158.9979 339.4287,-144.3359 307.2538,-129 283.0009,-117.44 260.2131,-96.1795 246.0331,-81.2356"/>
<polygon fill="#191970" stroke="#191970" points="248.4327,-78.6744 239.0863,-73.685 243.2813,-83.4139 248.4327,-78.6744"/>
</g>
<!-- Node9 -->
<g id="node10" class="node">
<title>Node9</title>
<polygon fill="#ffffff" stroke="#bfbfbf" points="280.8622,-.5 280.8622,-18.5 319.6454,-18.5 319.6454,-.5 280.8622,-.5"/>
<text text-anchor="middle" x="300.2538" y="-6.5" font-family="Helvetica,sans-Serif" font-size="10.00" fill="#000000">utility</text>
</g>
<!-- Node0&#45;&gt;Node9 -->
<g id="edge30" class="edge">
<title>Node0&#45;&gt;Node9</title>
<path fill="none" stroke="#191970" d="M538.1756,-165.3548C528.9837,-156.9895 516.5873,-143.7064 511.2538,-129 500.0409,-98.0816 531.9138,-80.5899 511.2538,-55 488.7904,-27.1763 382.5487,-15.55 329.9294,-11.4345"/>
<polygon fill="#191970" stroke="#191970" points="330.0939,-7.9372 319.8625,-10.688 329.5762,-14.918 330.0939,-7.9372"/>
</g>
<!-- Node10 -->
<g id="node11" class="node">
<title>Node10</title>
<polygon fill="#ffffff" stroke="#bfbfbf" points="392.1381,-55.5 392.1381,-73.5 440.3696,-73.5 440.3696,-55.5 392.1381,-55.5"/>
<text text-anchor="middle" x="416.2538" y="-61.5" font-family="Helvetica,sans-Serif" font-size="10.00" fill="#000000">cassert</text>
</g>
<!-- Node0&#45;&gt;Node10 -->
<g id="edge18" class="edge">
<title>Node0&#45;&gt;Node10</title>
<path fill="none" stroke="#191970" d="M528.248,-165.4322C511.0324,-157.3872 486.6033,-144.5198 468.2538,-129 452.1921,-115.4152 437.5109,-96.3011 427.8749,-82.4091"/>
<polygon fill="#191970" stroke="#191970" points="430.5408,-80.1015 422.0549,-73.758 424.7328,-84.0088 430.5408,-80.1015"/>
</g>
<!-- Node11 -->
<g id="node12" class="node">
<title>Node11</title>
<polygon fill="#ffffff" stroke="#bfbfbf" points="458.6381,-55.5 458.6381,-73.5 501.8696,-73.5 501.8696,-55.5 458.6381,-55.5"/>
<text text-anchor="middle" x="480.2538" y="-61.5" font-family="Helvetica,sans-Serif" font-size="10.00" fill="#000000">cmath</text>
</g>
<!-- Node0&#45;&gt;Node11 -->
<g id="edge19" class="edge">
<title>Node0&#45;&gt;Node11</title>
<path fill="none" stroke="#191970" d="M523.3751,-165.3954C507.2483,-158.2187 487.8073,-146.4692 478.2538,-129 470.6946,-115.1773 472.0436,-97.0779 474.7951,-83.5713"/>
<polygon fill="#191970" stroke="#191970" points="478.2823,-84.0472 477.2713,-73.5007 471.4847,-82.3757 478.2823,-84.0472"/>
</g>
<!-- Node13 -->
<g id="node14" class="node">
<title>Node13</title>
<polygon fill="#ffffff" stroke="#bfbfbf" points="520.6899,-110.5 520.6899,-128.5 577.8178,-128.5 577.8178,-110.5 520.6899,-110.5"/>
<text text-anchor="middle" x="549.2538" y="-116.5" font-family="Helvetica,sans-Serif" font-size="10.00" fill="#000000">algorithm</text>
</g>
<!-- Node0&#45;&gt;Node13 -->
<g id="edge17" class="edge">
<title>Node0&#45;&gt;Node13</title>
<path fill="none" stroke="#191970" d="M549.2538,-165.4179C549.2538,-158.2164 549.2538,-147.8962 549.2538,-138.8632"/>
<polygon fill="#191970" stroke="#191970" points="552.7539,-138.7794 549.2538,-128.7795 545.7539,-138.7795 552.7539,-138.7794"/>
</g>
<!-- Node14 -->
<g id="node15" class="node">
<title>Node14</title>
<polygon fill="#ffffff" stroke="#bfbfbf" points="596.1332,-110.5 596.1332,-128.5 644.3744,-128.5 644.3744,-110.5 596.1332,-110.5"/>
<text text-anchor="middle" x="620.2538" y="-116.5" font-family="Helvetica,sans-Serif" font-size="10.00" fill="#000000">cstddef</text>
</g>
<!-- Node0&#45;&gt;Node14 -->
<g id="edge20" class="edge">
<title>Node0&#45;&gt;Node14</title>
<path fill="none" stroke="#191970" d="M560.978,-165.4179C571.6026,-157.1876 587.4855,-144.8839 600.1369,-135.0836"/>
<polygon fill="#191970" stroke="#191970" points="602.5128,-137.6704 608.2749,-128.7795 598.226,-132.1365 602.5128,-137.6704"/>
</g>
<!-- Node15 -->
<g id="node16" class="node">
<title>Node15</title>
<polygon fill="#ffffff" stroke="#bfbfbf" points="662.0815,-110.5 662.0815,-128.5 706.4262,-128.5 706.4262,-110.5 662.0815,-110.5"/>
<text text-anchor="middle" x="684.2538" y="-116.5" font-family="Helvetica,sans-Serif" font-size="10.00" fill="#000000">cstdlib</text>
</g>
<!-- Node0&#45;&gt;Node15 -->
<g id="edge22" class="edge">
<title>Node0&#45;&gt;Node15</title>
<path fill="none" stroke="#191970" d="M571.5463,-165.4179C593.6284,-156.4215 627.6568,-142.5581 652.5481,-132.4172"/>
<polygon fill="#191970" stroke="#191970" points="653.9878,-135.61 661.9282,-128.5956 651.3467,-129.1273 653.9878,-135.61"/>
</g>
<!-- Node16 -->
<g id="node17" class="node">
<title>Node16</title>
<polygon fill="#ffffff" stroke="#bfbfbf" points="724.8671,-110.5 724.8671,-128.5 763.6406,-128.5 763.6406,-110.5 724.8671,-110.5"/>
<text text-anchor="middle" x="744.2538" y="-116.5" font-family="Helvetica,sans-Serif" font-size="10.00" fill="#000000">limits</text>
</g>
<!-- Node0&#45;&gt;Node16 -->
<g id="edge23" class="edge">
<title>Node0&#45;&gt;Node16</title>
<path fill="none" stroke="#191970" d="M584.0505,-165.4938C615.6968,-157.1854 663.8999,-144.2387 714.7736,-129.0364"/>
<polygon fill="#191970" stroke="#191970" points="716.0711,-132.3012 724.6395,-126.0696 714.0552,-125.5977 716.0711,-132.3012"/>
</g>
<!-- Node17 -->
<g id="node18" class="node">
<title>Node17</title>
<polygon fill="#ffffff" stroke="#bfbfbf" points="781.3007,-110.5 781.3007,-128.5 831.207,-128.5 831.207,-110.5 781.3007,-110.5"/>
<text text-anchor="middle" x="806.2538" y="-116.5" font-family="Helvetica,sans-Serif" font-size="10.00" fill="#000000">random</text>
</g>
<!-- Node0&#45;&gt;Node17 -->
<g id="edge25" class="edge">
<title>Node0&#45;&gt;Node17</title>
<path fill="none" stroke="#191970" d="M598.6365,-165.4698C641.7595,-157.349 706.235,-144.6421 771.0702,-129.1618"/>
<polygon fill="#191970" stroke="#191970" points="772.1531,-132.5011 781.0551,-126.7561 770.5135,-125.6959 772.1531,-132.5011"/>
</g>
<!-- Node18 -->
<g id="node19" class="node">
<title>Node18</title>
<polygon fill="#ffffff" stroke="#bfbfbf" points="849.5839,-110.5 849.5839,-128.5 878.9238,-128.5 878.9238,-110.5 849.5839,-110.5"/>
<text text-anchor="middle" x="864.2538" y="-116.5" font-family="Helvetica,sans-Serif" font-size="10.00" fill="#000000">set</text>
</g>
<!-- Node0&#45;&gt;Node18 -->
<g id="edge26" class="edge">
<title>Node0&#45;&gt;Node18</title>
<path fill="none" stroke="#191970" d="M605.2695,-169.4666C662.3014,-163.5125 753.2184,-151.7349 839.7391,-128.6014"/>
<polygon fill="#191970" stroke="#191970" points="840.7231,-131.961 849.4489,-125.9516 838.8802,-125.2079 840.7231,-131.961"/>
</g>
<!-- Node19 -->
<g id="node20" class="node">
<title>Node19</title>
<polygon fill="#ffffff" stroke="#bfbfbf" points="896.8525,-110.5 896.8525,-128.5 955.6552,-128.5 955.6552,-110.5 896.8525,-110.5"/>
<text text-anchor="middle" x="926.2538" y="-116.5" font-family="Helvetica,sans-Serif" font-size="10.00" fill="#000000">stdexcept</text>
</g>
<!-- Node0&#45;&gt;Node19 -->
<g id="edge27" class="edge">
<title>Node0&#45;&gt;Node19</title>
<path fill="none" stroke="#191970" d="M605.3503,-168.91C670.726,-161.9633 782.1604,-148.7866 886.3904,-129.1996"/>
<polygon fill="#191970" stroke="#191970" points="887.2839,-132.5925 896.4529,-127.2841 885.9748,-125.716 887.2839,-132.5925"/>
</g>
<!-- Node20 -->
<g id="node21" class="node">
<title>Node20</title>
<polygon fill="#ffffff" stroke="#bfbfbf" points="974.0273,-110.5 974.0273,-128.5 1014.4804,-128.5 1014.4804,-110.5 974.0273,-110.5"/>
<text text-anchor="middle" x="994.2538" y="-116.5" font-family="Helvetica,sans-Serif" font-size="10.00" fill="#000000">string</text>
</g>
<!-- Node0&#45;&gt;Node20 -->
<g id="edge28" class="edge">
<title>Node0&#45;&gt;Node20</title>
<path fill="none" stroke="#191970" d="M605.185,-171.8775C683.4587,-167.4363 830.1037,-156.3078 963.7333,-128.6887"/>
<polygon fill="#191970" stroke="#191970" points="964.6744,-132.0675 973.7399,-126.5841 963.2336,-125.2173 964.6744,-132.0675"/>
</g>
<!-- Node21 -->
<g id="node22" class="node">
<title>Node21</title>
<polygon fill="#ffffff" stroke="#bfbfbf" points="1032.4116,-110.5 1032.4116,-128.5 1070.0961,-128.5 1070.0961,-110.5 1032.4116,-110.5"/>
<text text-anchor="middle" x="1051.2538" y="-116.5" font-family="Helvetica,sans-Serif" font-size="10.00" fill="#000000">tuple</text>
</g>
<!-- Node0&#45;&gt;Node21 -->
<g id="edge29" class="edge">
<title>Node0&#45;&gt;Node21</title>
<path fill="none" stroke="#191970" d="M605.3523,-173.3013C692.8059,-170.52 866.8433,-161.3243 1021.9504,-128.8123"/>
<polygon fill="#191970" stroke="#191970" points="1023.0899,-132.148 1032.1385,-126.6369 1021.6281,-125.3023 1023.0899,-132.148"/>
</g>
<!-- Node22 -->
<g id="node23" class="node">
<title>Node22</title>
<polygon fill="#ffffff" stroke="#bfbfbf" points="1087.6381,-110.5 1087.6381,-128.5 1130.8696,-128.5 1130.8696,-110.5 1087.6381,-110.5"/>
<text text-anchor="middle" x="1109.2538" y="-116.5" font-family="Helvetica,sans-Serif" font-size="10.00" fill="#000000">vector</text>
</g>
<!-- Node0&#45;&gt;Node22 -->
<g id="edge31" class="edge">
<title>Node0&#45;&gt;Node22</title>
<path fill="none" stroke="#191970" d="M605.1761,-171.2692C718.4744,-164.475 972.6101,-147.9112 1077.4759,-128.9247"/>
<polygon fill="#191970" stroke="#191970" points="1078.2791,-132.3346 1087.4446,-127.0202 1076.9654,-125.459 1078.2791,-132.3346"/>
</g>
<!-- Node1&#45;&gt;Node2 -->
<g id="edge2" class="edge">
<title>Node1&#45;&gt;Node2</title>
<path fill="none" stroke="#191970" d="M68.2538,-110.4179C68.2538,-103.2164 68.2538,-92.8962 68.2538,-83.8632"/>
<polygon fill="#191970" stroke="#191970" points="71.7539,-83.7794 68.2538,-73.7795 64.7539,-83.7795 71.7539,-83.7794"/>
</g>
<!-- Node3&#45;&gt;Node4 -->
<g id="edge4" class="edge">
<title>Node3&#45;&gt;Node4</title>
<path fill="none" stroke="#191970" d="M207.1994,-110.4179C196.1705,-102.1084 179.6307,-89.6469 166.5632,-79.8015"/>
<polygon fill="#191970" stroke="#191970" points="168.6632,-77.0016 158.5702,-73.7795 164.4509,-82.5924 168.6632,-77.0016"/>
</g>
<!-- Node5&#45;&gt;Node2 -->
<g id="edge12" class="edge">
<title>Node5&#45;&gt;Node2</title>
<path fill="none" stroke="#191970" d="M316.2551,-113.0614C269.0874,-104.5432 183.8354,-88.8656 111.2538,-74 107.8553,-73.3039 104.3107,-72.5562 100.7784,-71.7969"/>
<polygon fill="#191970" stroke="#191970" points="101.5047,-68.3731 90.9883,-69.66 100.0119,-75.2121 101.5047,-68.3731"/>
</g>
<!-- Node5&#45;&gt;Node4 -->
<g id="edge14" class="edge">
<title>Node5&#45;&gt;Node4</title>
<path fill="none" stroke="#191970" d="M318.1741,-110.4855C285.6747,-101.8772 235.0892,-88.4477 182.4685,-74.318"/>
<polygon fill="#191970" stroke="#191970" points="183.189,-70.8875 172.6233,-71.6725 181.3725,-77.6477 183.189,-70.8875"/>
</g>
<!-- Node5&#45;&gt;Node6 -->
<g id="edge6" class="edge">
<title>Node5&#45;&gt;Node6</title>
<path fill="none" stroke="#191970" d="M332.2731,-110.4179C312.7438,-101.5409 282.7894,-87.9253 260.5643,-77.823"/>
<polygon fill="#191970" stroke="#191970" points="261.8162,-74.5474 251.2642,-73.5956 258.9196,-80.92 261.8162,-74.5474"/>
</g>
<!-- Node5&#45;&gt;Node9 -->
<g id="edge15" class="edge">
<title>Node5&#45;&gt;Node9</title>
<path fill="none" stroke="#191970" d="M344.1563,-110.3492C336.7556,-101.5683 325.9707,-87.6608 319.2538,-74 312.0909,-59.4321 307.1034,-41.6584 304.0416,-28.4606"/>
<polygon fill="#191970" stroke="#191970" points="307.4489,-27.6574 301.9171,-18.6214 300.6066,-29.1349 307.4489,-27.6574"/>
</g>
<!-- Node5&#45;&gt;Node10 -->
<g id="edge10" class="edge">
<title>Node5&#45;&gt;Node10</title>
<path fill="none" stroke="#191970" d="M362.8221,-110.4179C372.3071,-102.2667 386.4413,-90.1201 397.7905,-80.3669"/>
<polygon fill="#191970" stroke="#191970" points="400.1529,-82.9516 405.4559,-73.7795 395.5905,-77.6427 400.1529,-82.9516"/>
</g>
<!-- Node5&#45;&gt;Node11 -->
<g id="edge11" class="edge">
<title>Node5&#45;&gt;Node11</title>
<path fill="none" stroke="#191970" d="M373.3904,-110.4179C394.2349,-101.4613 426.3061,-87.6806 449.8783,-77.552"/>
<polygon fill="#191970" stroke="#191970" points="451.2799,-80.7592 459.0858,-73.5956 448.5163,-74.3278 451.2799,-80.7592"/>
</g>
<!-- Node12 -->
<g id="node13" class="node">
<title>Node12</title>
<polygon fill="#ffffff" stroke="#bfbfbf" points="327.9682,-55.5 327.9682,-73.5 374.5395,-73.5 374.5395,-55.5 327.9682,-55.5"/>
<text text-anchor="middle" x="351.2538" y="-61.5" font-family="Helvetica,sans-Serif" font-size="10.00" fill="#000000">math.h</text>
</g>
<!-- Node5&#45;&gt;Node12 -->
<g id="edge13" class="edge">
<title>Node5&#45;&gt;Node12</title>
<path fill="none" stroke="#191970" d="M352.0887,-110.4179C351.9578,-103.2164 351.7701,-92.8962 351.6059,-83.8632"/>
<polygon fill="#191970" stroke="#191970" points="355.1039,-83.7141 351.4226,-73.7795 348.105,-83.8415 355.1039,-83.7141"/>
</g>
<!-- Node7 -->
<g id="node8" class="node">
<title>Node7</title>
<polygon fill="#ffffff" stroke="#bfbfbf" points="217.8622,-.5 217.8622,-18.5 256.6454,-18.5 256.6454,-.5 217.8622,-.5"/>
<text text-anchor="middle" x="237.2538" y="-6.5" font-family="Helvetica,sans-Serif" font-size="10.00" fill="#000000">array</text>
</g>
<!-- Node6&#45;&gt;Node7 -->
<g id="edge7" class="edge">
<title>Node6&#45;&gt;Node7</title>
<path fill="none" stroke="#191970" d="M232.2446,-55.4179C233.0302,-48.2164 234.1561,-37.8962 235.1415,-28.8632"/>
<polygon fill="#191970" stroke="#191970" points="238.6363,-29.1001 236.2415,-18.7795 231.6776,-28.3409 238.6363,-29.1001"/>
</g>
<!-- Node8 -->
<g id="node9" class="node">
<title>Node8</title>
<polygon fill="#ffffff" stroke="#bfbfbf" points="145.0815,-.5 145.0815,-18.5 199.4262,-18.5 199.4262,-.5 145.0815,-.5"/>
<text text-anchor="middle" x="172.2538" y="-6.5" font-family="Helvetica,sans-Serif" font-size="10.00" fill="#000000">iostream</text>
</g>
<!-- Node6&#45;&gt;Node8 -->
<g id="edge8" class="edge">
<title>Node6&#45;&gt;Node8</title>
<path fill="none" stroke="#191970" d="M221.5112,-55.4179C212.8521,-47.3458 199.9899,-35.3556 189.5802,-25.6517"/>
<polygon fill="#191970" stroke="#191970" points="191.9094,-23.0381 182.2082,-18.7795 187.1363,-28.1584 191.9094,-23.0381"/>
</g>
<!-- Node6&#45;&gt;Node9 -->
<g id="edge9" class="edge">
<title>Node6&#45;&gt;Node9</title>
<path fill="none" stroke="#191970" d="M242.6478,-55.4179C252.9731,-47.1876 268.4086,-34.8839 280.7036,-25.0836"/>
<polygon fill="#191970" stroke="#191970" points="282.9742,-27.7495 288.6123,-18.7795 278.611,-22.2757 282.9742,-27.7495"/>
</g>
</g>
</svg>
