<?xml version="1.0" encoding="UTF-8" standalone="no"?>
<!DOCTYPE svg PUBLIC "-//W3C//DTD SVG 1.1//EN"
 "http://www.w3.org/Graphics/SVG/1.1/DTD/svg11.dtd">
<!-- Generated by graphviz version 2.40.1 (20161225.0304)
 -->
<!-- Title: ppht/accumulator.hpp Pages: 1 -->
<svg width="1163pt" height="192pt"
 viewBox="0.00 0.00 1162.76 192.00" xmlns="http://www.w3.org/2000/svg" xmlns:xlink="http://www.w3.org/1999/xlink">
<g id="graph0" class="graph" transform="scale(1 1) rotate(0) translate(4 188)">
<title>ppht/accumulator.hpp</title>
<polygon fill="#ffffff" stroke="transparent" points="-4,4 -4,-188 1158.7559,-188 1158.7559,4 -4,4"/>
<!-- Node0 -->
<g id="node1" class="node">
<title>Node0</title>
<polygon fill="#bfbfbf" stroke="#000000" points="517.3276,-165.5 517.3276,-183.5 628.9526,-183.5 628.9526,-165.5 517.3276,-165.5"/>
<text text-anchor="middle" x="573.1401" y="-171.5" font-family="Helvetica,sans-Serif" font-size="10.00" fill="#000000">ppht/accumulator.hpp</text>
</g>
<!-- Node1 -->
<g id="node2" class="node">
<title>Node1</title>
<g id="a_node2"><a xlink:href="parameters_8hpp.html" target="_top" xlink:title="ppht/parameters.hpp">
<polygon fill="#ffffff" stroke="#000000" points="0,-110.5 0,-128.5 108.2803,-128.5 108.2803,-110.5 0,-110.5"/>
<text text-anchor="middle" x="54.1401" y="-116.5" font-family="Helvetica,sans-Serif" font-size="10.00" fill="#000000">ppht/parameters.hpp</text>
</a>
</g>
</g>
<!-- Node0&#45;&gt;Node1 -->
<g id="edge1" class="edge">
<title>Node0&#45;&gt;Node1</title>
<path fill="none" stroke="#191970" d="M517.168,-169.5471C431.8394,-161.8398 264.1472,-146.0766 122.1401,-129 120.8753,-128.8479 119.5975,-128.6919 118.3101,-128.5327"/>
<polygon fill="#191970" stroke="#191970" points="118.6686,-125.0502 108.3063,-127.2577 117.7836,-131.994 118.6686,-125.0502"/>
</g>
<!-- Node2 -->
<g id="node3" class="node">
<title>Node2</title>
<polygon fill="#ffffff" stroke="#bfbfbf" points="113.6895,-55.5 113.6895,-73.5 158.5908,-73.5 158.5908,-55.5 113.6895,-55.5"/>
<text text-anchor="middle" x="136.1401" y="-61.5" font-family="Helvetica,sans-Serif" font-size="10.00" fill="#000000">cstdint</text>
</g>
<!-- Node0&#45;&gt;Node2 -->
<g id="edge22" class="edge">
<title>Node0&#45;&gt;Node2</title>
<path fill="none" stroke="#191970" d="M517.0741,-171.8259C409.5117,-166.204 182.3712,-151.7682 155.1401,-129 142.0088,-118.0208 137.6866,-98.4593 136.3904,-83.7483"/>
<polygon fill="#191970" stroke="#191970" points="139.8816,-83.4821 135.8931,-73.6667 132.8901,-83.827 139.8816,-83.4821"/>
</g>
<!-- Node3 -->
<g id="node4" class="node">
<title>Node3</title>
<g id="a_node4"><a xlink:href="raster_8hpp.html" target="_top" xlink:title="ppht/raster.hpp">
<polygon fill="#ffffff" stroke="#000000" points="163.7808,-110.5 163.7808,-128.5 246.4995,-128.5 246.4995,-110.5 163.7808,-110.5"/>
<text text-anchor="middle" x="205.1401" y="-116.5" font-family="Helvetica,sans-Serif" font-size="10.00" fill="#000000">ppht/raster.hpp</text>
</a>
</g>
</g>
<!-- Node0&#45;&gt;Node3 -->
<g id="edge3" class="edge">
<title>Node0&#45;&gt;Node3</title>
<path fill="none" stroke="#191970" d="M517.0962,-166.8124C454.4126,-158.1071 349.8909,-143.272 260.1401,-129 259.0396,-128.825 257.927,-128.6465 256.8055,-128.4653"/>
<polygon fill="#191970" stroke="#191970" points="257.0004,-124.9503 246.5642,-126.7769 255.8616,-131.857 257.0004,-124.9503"/>
</g>
<!-- Node4 -->
<g id="node5" class="node">
<title>Node4</title>
<polygon fill="#ffffff" stroke="#bfbfbf" points="184.0835,-55.5 184.0835,-73.5 236.1968,-73.5 236.1968,-55.5 184.0835,-55.5"/>
<text text-anchor="middle" x="210.1401" y="-61.5" font-family="Helvetica,sans-Serif" font-size="10.00" fill="#000000">memory</text>
</g>
<!-- Node0&#45;&gt;Node4 -->
<g id="edge25" class="edge">
<title>Node0&#45;&gt;Node4</title>
<path fill="none" stroke="#191970" d="M517.0325,-168.3368C448.4226,-160.2613 336.6679,-145.2092 298.1401,-129 270.7828,-117.4903 243.9477,-95.907 227.2442,-80.8932"/>
<polygon fill="#191970" stroke="#191970" points="229.2056,-77.9404 219.4837,-73.7289 224.4573,-83.0838 229.2056,-77.9404"/>
</g>
<!-- Node5 -->
<g id="node6" class="node">
<title>Node5</title>
<g id="a_node6"><a xlink:href="trig_8hpp.html" target="_top" xlink:title="ppht/trig.hpp">
<polygon fill="#ffffff" stroke="#000000" points="340.3423,-110.5 340.3423,-128.5 411.938,-128.5 411.938,-110.5 340.3423,-110.5"/>
<text text-anchor="middle" x="376.1401" y="-116.5" font-family="Helvetica,sans-Serif" font-size="10.00" fill="#000000">ppht/trig.hpp</text>
</a>
</g>
</g>
<!-- Node0&#45;&gt;Node5 -->
<g id="edge5" class="edge">
<title>Node0&#45;&gt;Node5</title>
<path fill="none" stroke="#191970" d="M540.6096,-165.4179C507.1456,-156.0751 454.8807,-141.4834 418.273,-131.263"/>
<polygon fill="#191970" stroke="#191970" points="418.9644,-127.8222 408.3916,-128.5042 417.0821,-134.5644 418.9644,-127.8222"/>
</g>
<!-- Node6 -->
<g id="node7" class="node">
<title>Node6</title>
<g id="a_node7"><a xlink:href="types_8hpp.html" target="_top" xlink:title="ppht/types.hpp">
<polygon fill="#ffffff" stroke="#000000" points="394.3374,-55.5 394.3374,-73.5 475.9429,-73.5 475.9429,-55.5 394.3374,-55.5"/>
<text text-anchor="middle" x="435.1401" y="-61.5" font-family="Helvetica,sans-Serif" font-size="10.00" fill="#000000">ppht/types.hpp</text>
</a>
</g>
</g>
<!-- Node0&#45;&gt;Node6 -->
<g id="edge17" class="edge">
<title>Node0&#45;&gt;Node6</title>
<path fill="none" stroke="#191970" d="M554.1929,-165.4444C537.7562,-157.1364 513.7469,-143.8872 495.1401,-129 477.3393,-114.7576 459.9257,-95.2328 448.4838,-81.406"/>
<polygon fill="#191970" stroke="#191970" points="451.1974,-79.1955 442.1811,-73.6315 445.7597,-83.6037 451.1974,-79.1955"/>
</g>
<!-- Node8 -->
<g id="node9" class="node">
<title>Node8</title>
<polygon fill="#ffffff" stroke="#bfbfbf" points="280.5244,-.5 280.5244,-18.5 323.7559,-18.5 323.7559,-.5 280.5244,-.5"/>
<text text-anchor="middle" x="302.1401" y="-6.5" font-family="Helvetica,sans-Serif" font-size="10.00" fill="#000000">cmath</text>
</g>
<!-- Node0&#45;&gt;Node8 -->
<g id="edge20" class="edge">
<title>Node0&#45;&gt;Node8</title>
<path fill="none" stroke="#191970" d="M517.1244,-170.1771C454.7163,-164.3104 358.921,-151.8385 331.1401,-129 301.5588,-104.6814 299.194,-55.7727 300.4286,-28.673"/>
<polygon fill="#191970" stroke="#191970" points="303.9318,-28.7413 301.1092,-18.5294 296.9475,-28.2726 303.9318,-28.7413"/>
</g>
<!-- Node10 -->
<g id="node11" class="node">
<title>Node10</title>
<polygon fill="#ffffff" stroke="#bfbfbf" points="484.7485,-.5 484.7485,-18.5 523.5317,-18.5 523.5317,-.5 484.7485,-.5"/>
<text text-anchor="middle" x="504.1401" y="-6.5" font-family="Helvetica,sans-Serif" font-size="10.00" fill="#000000">utility</text>
</g>
<!-- Node0&#45;&gt;Node10 -->
<g id="edge31" class="edge">
<title>Node0&#45;&gt;Node10</title>
<path fill="none" stroke="#191970" d="M561.1645,-165.4488C546.3552,-153.0912 524.3467,-130.1677 535.1401,-110 548.7506,-84.5686 575.5297,-99.4314 589.1401,-74 593.1247,-66.5547 593.4792,-62.2444 589.1401,-55 577.1286,-34.9462 552.926,-23.2313 533.4082,-16.7252"/>
<polygon fill="#191970" stroke="#191970" points="534.3037,-13.3394 523.7181,-13.7811 532.2688,-20.0371 534.3037,-13.3394"/>
</g>
<!-- Node11 -->
<g id="node12" class="node">
<title>Node11</title>
<polygon fill="#ffffff" stroke="#bfbfbf" points="532.0244,-55.5 532.0244,-73.5 580.2559,-73.5 580.2559,-55.5 532.0244,-55.5"/>
<text text-anchor="middle" x="556.1401" y="-61.5" font-family="Helvetica,sans-Serif" font-size="10.00" fill="#000000">cassert</text>
</g>
<!-- Node0&#45;&gt;Node11 -->
<g id="edge19" class="edge">
<title>Node0&#45;&gt;Node11</title>
<path fill="none" stroke="#191970" d="M547.2614,-165.3954C531.1346,-158.2187 511.6936,-146.4692 502.1401,-129 491.7354,-109.9742 511.5672,-91.3199 530.0604,-79.0068"/>
<polygon fill="#191970" stroke="#191970" points="531.9951,-81.9251 538.6207,-73.6575 528.2855,-75.9888 531.9951,-81.9251"/>
</g>
<!-- Node13 -->
<g id="node14" class="node">
<title>Node13</title>
<polygon fill="#ffffff" stroke="#bfbfbf" points="544.5762,-110.5 544.5762,-128.5 601.7041,-128.5 601.7041,-110.5 544.5762,-110.5"/>
<text text-anchor="middle" x="573.1401" y="-116.5" font-family="Helvetica,sans-Serif" font-size="10.00" fill="#000000">algorithm</text>
</g>
<!-- Node0&#45;&gt;Node13 -->
<g id="edge18" class="edge">
<title>Node0&#45;&gt;Node13</title>
<path fill="none" stroke="#191970" d="M573.1401,-165.4179C573.1401,-158.2164 573.1401,-147.8962 573.1401,-138.8632"/>
<polygon fill="#191970" stroke="#191970" points="576.6402,-138.7794 573.1401,-128.7795 569.6402,-138.7795 576.6402,-138.7794"/>
</g>
<!-- Node14 -->
<g id="node15" class="node">
<title>Node14</title>
<polygon fill="#ffffff" stroke="#bfbfbf" points="620.0195,-110.5 620.0195,-128.5 668.2607,-128.5 668.2607,-110.5 620.0195,-110.5"/>
<text text-anchor="middle" x="644.1401" y="-116.5" font-family="Helvetica,sans-Serif" font-size="10.00" fill="#000000">cstddef</text>
</g>
<!-- Node0&#45;&gt;Node14 -->
<g id="edge21" class="edge">
<title>Node0&#45;&gt;Node14</title>
<path fill="none" stroke="#191970" d="M584.8643,-165.4179C595.4889,-157.1876 611.3718,-144.8839 624.0232,-135.0836"/>
<polygon fill="#191970" stroke="#191970" points="626.3991,-137.6704 632.1612,-128.7795 622.1123,-132.1365 626.3991,-137.6704"/>
</g>
<!-- Node15 -->
<g id="node16" class="node">
<title>Node15</title>
<polygon fill="#ffffff" stroke="#bfbfbf" points="685.9678,-110.5 685.9678,-128.5 730.3125,-128.5 730.3125,-110.5 685.9678,-110.5"/>
<text text-anchor="middle" x="708.1401" y="-116.5" font-family="Helvetica,sans-Serif" font-size="10.00" fill="#000000">cstdlib</text>
</g>
<!-- Node0&#45;&gt;Node15 -->
<g id="edge23" class="edge">
<title>Node0&#45;&gt;Node15</title>
<path fill="none" stroke="#191970" d="M595.4326,-165.4179C617.5147,-156.4215 651.5431,-142.5581 676.4344,-132.4172"/>
<polygon fill="#191970" stroke="#191970" points="677.8741,-135.61 685.8145,-128.5956 675.233,-129.1273 677.8741,-135.61"/>
</g>
<!-- Node16 -->
<g id="node17" class="node">
<title>Node16</title>
<polygon fill="#ffffff" stroke="#bfbfbf" points="748.7534,-110.5 748.7534,-128.5 787.5269,-128.5 787.5269,-110.5 748.7534,-110.5"/>
<text text-anchor="middle" x="768.1401" y="-116.5" font-family="Helvetica,sans-Serif" font-size="10.00" fill="#000000">limits</text>
</g>
<!-- Node0&#45;&gt;Node16 -->
<g id="edge24" class="edge">
<title>Node0&#45;&gt;Node16</title>
<path fill="none" stroke="#191970" d="M607.9368,-165.4938C639.5831,-157.1854 687.7862,-144.2387 738.6599,-129.0364"/>
<polygon fill="#191970" stroke="#191970" points="739.9573,-132.3012 748.5258,-126.0696 737.9415,-125.5977 739.9573,-132.3012"/>
</g>
<!-- Node17 -->
<g id="node18" class="node">
<title>Node17</title>
<polygon fill="#ffffff" stroke="#bfbfbf" points="805.187,-110.5 805.187,-128.5 855.0933,-128.5 855.0933,-110.5 805.187,-110.5"/>
<text text-anchor="middle" x="830.1401" y="-116.5" font-family="Helvetica,sans-Serif" font-size="10.00" fill="#000000">random</text>
</g>
<!-- Node0&#45;&gt;Node17 -->
<g id="edge26" class="edge">
<title>Node0&#45;&gt;Node17</title>
<path fill="none" stroke="#191970" d="M622.5228,-165.4698C665.6458,-157.349 730.1213,-144.6421 794.9565,-129.1618"/>
<polygon fill="#191970" stroke="#191970" points="796.0394,-132.5011 804.9414,-126.7561 794.3998,-125.6959 796.0394,-132.5011"/>
</g>
<!-- Node18 -->
<g id="node19" class="node">
<title>Node18</title>
<polygon fill="#ffffff" stroke="#bfbfbf" points="873.4702,-110.5 873.4702,-128.5 902.8101,-128.5 902.8101,-110.5 873.4702,-110.5"/>
<text text-anchor="middle" x="888.1401" y="-116.5" font-family="Helvetica,sans-Serif" font-size="10.00" fill="#000000">set</text>
</g>
<!-- Node0&#45;&gt;Node18 -->
<g id="edge27" class="edge">
<title>Node0&#45;&gt;Node18</title>
<path fill="none" stroke="#191970" d="M629.1558,-169.4666C686.1877,-163.5125 777.1047,-151.7349 863.6254,-128.6014"/>
<polygon fill="#191970" stroke="#191970" points="864.6094,-131.961 873.3352,-125.9516 862.7665,-125.2079 864.6094,-131.961"/>
</g>
<!-- Node19 -->
<g id="node20" class="node">
<title>Node19</title>
<polygon fill="#ffffff" stroke="#bfbfbf" points="920.7388,-110.5 920.7388,-128.5 979.5415,-128.5 979.5415,-110.5 920.7388,-110.5"/>
<text text-anchor="middle" x="950.1401" y="-116.5" font-family="Helvetica,sans-Serif" font-size="10.00" fill="#000000">stdexcept</text>
</g>
<!-- Node0&#45;&gt;Node19 -->
<g id="edge28" class="edge">
<title>Node0&#45;&gt;Node19</title>
<path fill="none" stroke="#191970" d="M629.2366,-168.91C694.6123,-161.9633 806.0467,-148.7866 910.2767,-129.1996"/>
<polygon fill="#191970" stroke="#191970" points="911.1702,-132.5925 920.3392,-127.2841 909.8611,-125.716 911.1702,-132.5925"/>
</g>
<!-- Node20 -->
<g id="node21" class="node">
<title>Node20</title>
<polygon fill="#ffffff" stroke="#bfbfbf" points="997.9136,-110.5 997.9136,-128.5 1038.3667,-128.5 1038.3667,-110.5 997.9136,-110.5"/>
<text text-anchor="middle" x="1018.1401" y="-116.5" font-family="Helvetica,sans-Serif" font-size="10.00" fill="#000000">string</text>
</g>
<!-- Node0&#45;&gt;Node20 -->
<g id="edge29" class="edge">
<title>Node0&#45;&gt;Node20</title>
<path fill="none" stroke="#191970" d="M629.0713,-171.8775C707.345,-167.4363 853.99,-156.3078 987.6196,-128.6887"/>
<polygon fill="#191970" stroke="#191970" points="988.5607,-132.0675 997.6262,-126.5841 987.1199,-125.2173 988.5607,-132.0675"/>
</g>
<!-- Node21 -->
<g id="node22" class="node">
<title>Node21</title>
<polygon fill="#ffffff" stroke="#bfbfbf" points="1056.2979,-110.5 1056.2979,-128.5 1093.9824,-128.5 1093.9824,-110.5 1056.2979,-110.5"/>
<text text-anchor="middle" x="1075.1401" y="-116.5" font-family="Helvetica,sans-Serif" font-size="10.00" fill="#000000">tuple</text>
</g>
<!-- Node0&#45;&gt;Node21 -->
<g id="edge30" class="edge">
<title>Node0&#45;&gt;Node21</title>
<path fill="none" stroke="#191970" d="M629.2386,-173.3013C716.6922,-170.52 890.7296,-161.3243 1045.8367,-128.8123"/>
<polygon fill="#191970" stroke="#191970" points="1046.9762,-132.148 1056.0248,-126.6369 1045.5144,-125.3023 1046.9762,-132.148"/>
</g>
<!-- Node22 -->
<g id="node23" class="node">
<title>Node22</title>
<polygon fill="#ffffff" stroke="#bfbfbf" points="1111.5244,-110.5 1111.5244,-128.5 1154.7559,-128.5 1154.7559,-110.5 1111.5244,-110.5"/>
<text text-anchor="middle" x="1133.1401" y="-116.5" font-family="Helvetica,sans-Serif" font-size="10.00" fill="#000000">vector</text>
</g>
<!-- Node0&#45;&gt;Node22 -->
<g id="edge32" class="edge">
<title>Node0&#45;&gt;Node22</title>
<path fill="none" stroke="#191970" d="M629.0624,-171.2692C742.3607,-164.475 996.4964,-147.9112 1101.3622,-128.9247"/>
<polygon fill="#191970" stroke="#191970" points="1102.1654,-132.3346 1111.3309,-127.0202 1100.8517,-125.459 1102.1654,-132.3346"/>
</g>
<!-- Node1&#45;&gt;Node2 -->
<g id="edge2" class="edge">
<title>Node1&#45;&gt;Node2</title>
<path fill="none" stroke="#191970" d="M67.6808,-110.4179C80.2627,-101.9788 99.2297,-89.257 114.0112,-79.3426"/>
<polygon fill="#191970" stroke="#191970" points="116.2241,-82.0727 122.5794,-73.5956 112.3248,-76.2593 116.2241,-82.0727"/>
</g>
<!-- Node3&#45;&gt;Node4 -->
<g id="edge4" class="edge">
<title>Node3&#45;&gt;Node4</title>
<path fill="none" stroke="#191970" d="M205.9658,-110.4179C206.6205,-103.2164 207.5587,-92.8962 208.3798,-83.8632"/>
<polygon fill="#191970" stroke="#191970" points="211.8767,-84.0553 209.2965,-73.7795 204.9055,-83.4215 211.8767,-84.0553"/>
</g>
<!-- Node5&#45;&gt;Node2 -->
<g id="edge13" class="edge">
<title>Node5&#45;&gt;Node2</title>
<path fill="none" stroke="#191970" d="M340.1535,-111.5395C299.9026,-102.5925 232.7841,-87.5442 175.1401,-74 172.9904,-73.4949 170.7754,-72.9693 168.5441,-72.436"/>
<polygon fill="#191970" stroke="#191970" points="169.3519,-69.0305 158.81,-70.0884 167.7107,-75.8354 169.3519,-69.0305"/>
</g>
<!-- Node5&#45;&gt;Node4 -->
<g id="edge15" class="edge">
<title>Node5&#45;&gt;Node4</title>
<path fill="none" stroke="#191970" d="M348.7286,-110.4179C320.5596,-101.0848 276.5811,-86.5136 245.7386,-76.2947"/>
<polygon fill="#191970" stroke="#191970" points="246.8165,-72.9647 236.2231,-73.142 244.6148,-79.6095 246.8165,-72.9647"/>
</g>
<!-- Node5&#45;&gt;Node6 -->
<g id="edge6" class="edge">
<title>Node5&#45;&gt;Node6</title>
<path fill="none" stroke="#191970" d="M385.8828,-110.4179C394.5419,-102.3458 407.4041,-90.3556 417.8138,-80.6517"/>
<polygon fill="#191970" stroke="#191970" points="420.2577,-83.1584 425.1858,-73.7795 415.4845,-78.0381 420.2577,-83.1584"/>
</g>
<!-- Node5&#45;&gt;Node8 -->
<g id="edge12" class="edge">
<title>Node5&#45;&gt;Node8</title>
<path fill="none" stroke="#191970" d="M360.4248,-110.2136C348.043,-102.1258 331.2383,-89.3107 321.1401,-74 312.1018,-60.2961 307.26,-42.185 304.7317,-28.6437"/>
<polygon fill="#191970" stroke="#191970" points="308.1508,-27.8601 303.1106,-18.5409 301.2392,-28.9691 308.1508,-27.8601"/>
</g>
<!-- Node5&#45;&gt;Node10 -->
<g id="edge16" class="edge">
<title>Node5&#45;&gt;Node10</title>
<path fill="none" stroke="#191970" d="M411.967,-112.9076C435.8322,-106.7295 466.1811,-95.1464 485.1401,-74 496.3312,-61.5178 500.9457,-42.7423 502.8403,-28.6624"/>
<polygon fill="#191970" stroke="#191970" points="506.3353,-28.8864 503.8504,-18.5871 499.3702,-28.1881 506.3353,-28.8864"/>
</g>
<!-- Node5&#45;&gt;Node11 -->
<g id="edge11" class="edge">
<title>Node5&#45;&gt;Node11</title>
<path fill="none" stroke="#191970" d="M405.8635,-110.4179C437.8073,-100.6573 488.5005,-85.1677 522.0424,-74.9187"/>
<polygon fill="#191970" stroke="#191970" points="523.3209,-78.1879 531.8616,-71.9184 521.2753,-71.4935 523.3209,-78.1879"/>
</g>
<!-- Node12 -->
<g id="node13" class="node">
<title>Node12</title>
<polygon fill="#ffffff" stroke="#bfbfbf" points="329.8545,-55.5 329.8545,-73.5 376.4258,-73.5 376.4258,-55.5 329.8545,-55.5"/>
<text text-anchor="middle" x="353.1401" y="-61.5" font-family="Helvetica,sans-Serif" font-size="10.00" fill="#000000">math.h</text>
</g>
<!-- Node5&#45;&gt;Node12 -->
<g id="edge14" class="edge">
<title>Node5&#45;&gt;Node12</title>
<path fill="none" stroke="#191970" d="M372.3422,-110.4179C369.2644,-103.0581 364.8246,-92.441 360.9892,-83.2695"/>
<polygon fill="#191970" stroke="#191970" points="364.1078,-81.6549 357.0206,-73.7795 357.6497,-84.3556 364.1078,-81.6549"/>
</g>
<!-- Node7 -->
<g id="node8" class="node">
<title>Node7</title>
<polygon fill="#ffffff" stroke="#bfbfbf" points="421.7485,-.5 421.7485,-18.5 460.5317,-18.5 460.5317,-.5 421.7485,-.5"/>
<text text-anchor="middle" x="441.1401" y="-6.5" font-family="Helvetica,sans-Serif" font-size="10.00" fill="#000000">array</text>
</g>
<!-- Node6&#45;&gt;Node7 -->
<g id="edge7" class="edge">
<title>Node6&#45;&gt;Node7</title>
<path fill="none" stroke="#191970" d="M436.1309,-55.4179C436.9165,-48.2164 438.0424,-37.8962 439.0278,-28.8632"/>
<polygon fill="#191970" stroke="#191970" points="442.5226,-29.1001 440.1278,-18.7795 435.5639,-28.3409 442.5226,-29.1001"/>
</g>
<!-- Node6&#45;&gt;Node8 -->
<g id="edge8" class="edge">
<title>Node6&#45;&gt;Node8</title>
<path fill="none" stroke="#191970" d="M413.1779,-55.4179C391.423,-46.4215 357.8987,-32.5581 333.3762,-22.4172"/>
<polygon fill="#191970" stroke="#191970" points="334.7136,-19.1828 324.135,-18.5956 332.0385,-25.6515 334.7136,-19.1828"/>
</g>
<!-- Node9 -->
<g id="node10" class="node">
<title>Node9</title>
<polygon fill="#ffffff" stroke="#bfbfbf" points="348.9678,-.5 348.9678,-18.5 403.3125,-18.5 403.3125,-.5 348.9678,-.5"/>
<text text-anchor="middle" x="376.1401" y="-6.5" font-family="Helvetica,sans-Serif" font-size="10.00" fill="#000000">iostream</text>
</g>
<!-- Node6&#45;&gt;Node9 -->
<g id="edge9" class="edge">
<title>Node6&#45;&gt;Node9</title>
<path fill="none" stroke="#191970" d="M425.3975,-55.4179C416.7384,-47.3458 403.8762,-35.3556 393.4665,-25.6517"/>
<polygon fill="#191970" stroke="#191970" points="395.7957,-23.0381 386.0945,-18.7795 391.0226,-28.1584 395.7957,-23.0381"/>
</g>
<!-- Node6&#45;&gt;Node10 -->
<g id="edge10" class="edge">
<title>Node6&#45;&gt;Node10</title>
<path fill="none" stroke="#191970" d="M446.5341,-55.4179C456.8594,-47.1876 472.2949,-34.8839 484.5899,-25.0836"/>
<polygon fill="#191970" stroke="#191970" points="486.8605,-27.7495 492.4986,-18.7795 482.4973,-22.2757 486.8605,-27.7495"/>
</g>
</g>
</svg>
