<?xml version="1.0" encoding="UTF-8" standalone="no"?>
<!DOCTYPE svg PUBLIC "-//W3C//DTD SVG 1.1//EN"
 "http://www.w3.org/Graphics/SVG/1.1/DTD/svg11.dtd">
<!-- Generated by graphviz version 2.40.1 (20161225.0304)
 -->
<!-- Title: ppht/channel.hpp Pages: 1 -->
<svg width="101pt" height="137pt"
 viewBox="0.00 0.00 100.73 137.00" xmlns="http://www.w3.org/2000/svg" xmlns:xlink="http://www.w3.org/1999/xlink">
<g id="graph0" class="graph" transform="scale(1 1) rotate(0) translate(4 133)">
<title>ppht/channel.hpp</title>
<polygon fill="#ffffff" stroke="transparent" points="-4,4 -4,-133 96.7334,-133 96.7334,4 -4,4"/>
<!-- Node8 -->
<g id="node1" class="node">
<title>Node8</title>
<polygon fill="#bfbfbf" stroke="#000000" points="0,-110.5 0,-128.5 92.7334,-128.5 92.7334,-110.5 0,-110.5"/>
<text text-anchor="middle" x="46.3667" y="-116.5" font-family="Helvetica,sans-Serif" font-size="10.00" fill="#000000">ppht/channel.hpp</text>
</g>
<!-- Node9 -->
<g id="node2" class="node">
<title>Node9</title>
<g id="a_node2"><a xlink:href="state_8hpp.html" target="_top" xlink:title="ppht/state.hpp">
<polygon fill="#ffffff" stroke="#000000" points="6.6748,-55.5 6.6748,-73.5 86.0586,-73.5 86.0586,-55.5 6.6748,-55.5"/>
<text text-anchor="middle" x="46.3667" y="-61.5" font-family="Helvetica,sans-Serif" font-size="10.00" fill="#000000">ppht/state.hpp</text>
</a>
</g>
</g>
<!-- Node8&#45;&gt;Node9 -->
<g id="edge1" class="edge">
<title>Node8&#45;&gt;Node9</title>
<path fill="none" stroke="#191970" d="M46.3667,-100.383C46.3667,-91.3738 46.3667,-81.0373 46.3667,-73.7795"/>
<polygon fill="#191970" stroke="#191970" points="42.8668,-100.4178 46.3667,-110.4179 49.8668,-100.4179 42.8668,-100.4178"/>
</g>
<!-- Node10 -->
<g id="node3" class="node">
<title>Node10</title>
<g id="a_node3"><a xlink:href="ppht_8hpp.html" target="_top" xlink:title="ppht.hpp">
<polygon fill="#ffffff" stroke="#000000" points="18.9038,-.5 18.9038,-18.5 73.8296,-18.5 73.8296,-.5 18.9038,-.5"/>
<text text-anchor="middle" x="46.3667" y="-6.5" font-family="Helvetica,sans-Serif" font-size="10.00" fill="#000000">ppht.hpp</text>
</a>
</g>
</g>
<!-- Node9&#45;&gt;Node10 -->
<g id="edge2" class="edge">
<title>Node9&#45;&gt;Node10</title>
<path fill="none" stroke="#191970" d="M46.3667,-45.383C46.3667,-36.3738 46.3667,-26.0373 46.3667,-18.7795"/>
<polygon fill="#191970" stroke="#191970" points="42.8668,-45.4178 46.3667,-55.4179 49.8668,-45.4179 42.8668,-45.4178"/>
</g>
</g>
</svg>
