<?xml version="1.0" encoding="UTF-8" standalone="no"?>
<!DOCTYPE svg PUBLIC "-//W3C//DTD SVG 1.1//EN"
 "http://www.w3.org/Graphics/SVG/1.1/DTD/svg11.dtd">
<!-- Generated by graphviz version 2.40.1 (20161225.0304)
 -->
<!-- Title: ppht/channel.hpp Pages: 1 -->
<svg width="331pt" height="137pt"
 viewBox="0.00 0.00 331.45 137.00" xmlns="http://www.w3.org/2000/svg" xmlns:xlink="http://www.w3.org/1999/xlink">
<g id="graph0" class="graph" transform="scale(1 1) rotate(0) translate(4 133)">
<title>ppht/channel.hpp</title>
<polygon fill="#ffffff" stroke="transparent" points="-4,4 -4,-133 327.4482,-133 327.4482,4 -4,4"/>
<!-- Node0 -->
<g id="node1" class="node">
<title>Node0</title>
<polygon fill="#bfbfbf" stroke="#000000" points="151.0249,-110.5 151.0249,-128.5 243.7583,-128.5 243.7583,-110.5 151.0249,-110.5"/>
<text text-anchor="middle" x="197.3916" y="-116.5" font-family="Helvetica,sans-Serif" font-size="10.00" fill="#000000">ppht/channel.hpp</text>
</g>
<!-- Node1 -->
<g id="node2" class="node">
<title>Node1</title>
<g id="a_node2"><a xlink:href="types_8hpp.html" target="_top" xlink:title="ppht/types.hpp">
<polygon fill="#ffffff" stroke="#000000" points="43.5889,-55.5 43.5889,-73.5 125.1943,-73.5 125.1943,-55.5 43.5889,-55.5"/>
<text text-anchor="middle" x="84.3916" y="-61.5" font-family="Helvetica,sans-Serif" font-size="10.00" fill="#000000">ppht/types.hpp</text>
</a>
</g>
</g>
<!-- Node0&#45;&gt;Node1 -->
<g id="edge1" class="edge">
<title>Node0&#45;&gt;Node1</title>
<path fill="none" stroke="#191970" d="M178.7319,-110.4179C160.6574,-101.6205 133.0208,-88.1691 112.3244,-78.0956"/>
<polygon fill="#191970" stroke="#191970" points="113.6022,-74.825 103.079,-73.5956 110.5387,-81.1191 113.6022,-74.825"/>
</g>
<!-- Node5 -->
<g id="node6" class="node">
<title>Node5</title>
<polygon fill="#ffffff" stroke="#bfbfbf" points="143.2192,-55.5 143.2192,-73.5 187.564,-73.5 187.564,-55.5 143.2192,-55.5"/>
<text text-anchor="middle" x="165.3916" y="-61.5" font-family="Helvetica,sans-Serif" font-size="10.00" fill="#000000">cstdlib</text>
</g>
<!-- Node0&#45;&gt;Node5 -->
<g id="edge5" class="edge">
<title>Node0&#45;&gt;Node5</title>
<path fill="none" stroke="#191970" d="M192.1075,-110.4179C187.7333,-102.8998 181.3816,-91.9829 175.969,-82.6799"/>
<polygon fill="#191970" stroke="#191970" points="178.8448,-80.6628 170.7906,-73.7795 172.7943,-84.1831 178.8448,-80.6628"/>
</g>
<!-- Node6 -->
<g id="node7" class="node">
<title>Node6</title>
<polygon fill="#ffffff" stroke="#bfbfbf" points="205.8301,-55.5 205.8301,-73.5 252.9531,-73.5 252.9531,-55.5 205.8301,-55.5"/>
<text text-anchor="middle" x="229.3916" y="-61.5" font-family="Helvetica,sans-Serif" font-size="10.00" fill="#000000">iterator</text>
</g>
<!-- Node0&#45;&gt;Node6 -->
<g id="edge6" class="edge">
<title>Node0&#45;&gt;Node6</title>
<path fill="none" stroke="#191970" d="M202.6758,-110.4179C207.0499,-102.8998 213.4016,-91.9829 218.8142,-82.6799"/>
<polygon fill="#191970" stroke="#191970" points="221.9889,-84.1831 223.9926,-73.7795 215.9384,-80.6628 221.9889,-84.1831"/>
</g>
<!-- Node7 -->
<g id="node8" class="node">
<title>Node7</title>
<polygon fill="#ffffff" stroke="#bfbfbf" points="271.335,-55.5 271.335,-73.5 323.4482,-73.5 323.4482,-55.5 271.335,-55.5"/>
<text text-anchor="middle" x="297.3916" y="-61.5" font-family="Helvetica,sans-Serif" font-size="10.00" fill="#000000">memory</text>
</g>
<!-- Node0&#45;&gt;Node7 -->
<g id="edge7" class="edge">
<title>Node0&#45;&gt;Node7</title>
<path fill="none" stroke="#191970" d="M213.9046,-110.4179C229.6827,-101.7399 253.6944,-88.5334 271.9231,-78.5077"/>
<polygon fill="#191970" stroke="#191970" points="273.7787,-81.4816 280.8541,-73.5956 270.4052,-75.3481 273.7787,-81.4816"/>
</g>
<!-- Node2 -->
<g id="node3" class="node">
<title>Node2</title>
<polygon fill="#ffffff" stroke="#bfbfbf" points="0,-.5 0,-18.5 38.7832,-18.5 38.7832,-.5 0,-.5"/>
<text text-anchor="middle" x="19.3916" y="-6.5" font-family="Helvetica,sans-Serif" font-size="10.00" fill="#000000">array</text>
</g>
<!-- Node1&#45;&gt;Node2 -->
<g id="edge2" class="edge">
<title>Node1&#45;&gt;Node2</title>
<path fill="none" stroke="#191970" d="M73.6582,-55.4179C64.025,-47.2667 49.6699,-35.1201 38.1434,-25.3669"/>
<polygon fill="#191970" stroke="#191970" points="40.2529,-22.5671 30.3582,-18.7795 35.7313,-27.9108 40.2529,-22.5671"/>
</g>
<!-- Node3 -->
<g id="node4" class="node">
<title>Node3</title>
<polygon fill="#ffffff" stroke="#bfbfbf" points="57.2192,-.5 57.2192,-18.5 111.564,-18.5 111.564,-.5 57.2192,-.5"/>
<text text-anchor="middle" x="84.3916" y="-6.5" font-family="Helvetica,sans-Serif" font-size="10.00" fill="#000000">iostream</text>
</g>
<!-- Node1&#45;&gt;Node3 -->
<g id="edge3" class="edge">
<title>Node1&#45;&gt;Node3</title>
<path fill="none" stroke="#191970" d="M84.3916,-55.4179C84.3916,-48.2164 84.3916,-37.8962 84.3916,-28.8632"/>
<polygon fill="#191970" stroke="#191970" points="87.8917,-28.7794 84.3916,-18.7795 80.8917,-28.7795 87.8917,-28.7794"/>
</g>
<!-- Node4 -->
<g id="node5" class="node">
<title>Node4</title>
<polygon fill="#ffffff" stroke="#bfbfbf" points="130,-.5 130,-18.5 168.7832,-18.5 168.7832,-.5 130,-.5"/>
<text text-anchor="middle" x="149.3916" y="-6.5" font-family="Helvetica,sans-Serif" font-size="10.00" fill="#000000">utility</text>
</g>
<!-- Node1&#45;&gt;Node4 -->
<g id="edge4" class="edge">
<title>Node1&#45;&gt;Node4</title>
<path fill="none" stroke="#191970" d="M95.125,-55.4179C104.7582,-47.2667 119.1133,-35.1201 130.6398,-25.3669"/>
<polygon fill="#191970" stroke="#191970" points="133.0519,-27.9108 138.425,-18.7795 128.5303,-22.5671 133.0519,-27.9108"/>
</g>
</g>
</svg>
