<?xml version="1.0" encoding="UTF-8" standalone="no"?>
<!DOCTYPE svg PUBLIC "-//W3C//DTD SVG 1.1//EN"
 "http://www.w3.org/Graphics/SVG/1.1/DTD/svg11.dtd">
<!-- Generated by graphviz version 2.48.0 (20210717.1556)
 -->
<!-- Title: ppht/channel.hpp Pages: 1 -->
<svg width="358pt" height="137pt"
 viewBox="0.00 0.00 358.45 137.00" xmlns="http://www.w3.org/2000/svg" xmlns:xlink="http://www.w3.org/1999/xlink">
<g id="graph0" class="graph" transform="scale(1 1) rotate(0) translate(4 133)">
<title>ppht/channel.hpp</title>
<polygon fill="white" stroke="transparent" points="-4,4 -4,-133 354.45,-133 354.45,4 -4,4"/>
<!-- Node1 -->
<g id="node1" class="node">
<title>Node1</title>
<g id="a_node1"><a xlink:title=" ">
<polygon fill="#bfbfbf" stroke="black" points="178.02,-110.5 178.02,-128.5 270.76,-128.5 270.76,-110.5 178.02,-110.5"/>
<text text-anchor="middle" x="224.39" y="-116.5" font-family="Helvetica,sans-Serif" font-size="10.00">ppht/channel.hpp</text>
</a>
</g>
</g>
<!-- Node2 -->
<g id="node2" class="node">
<title>Node2</title>
<g id="a_node2"><a xlink:href="types_8hpp.html" target="_top" xlink:title=" ">
<polygon fill="white" stroke="black" points="70.59,-55.5 70.59,-73.5 152.19,-73.5 152.19,-55.5 70.59,-55.5"/>
<text text-anchor="middle" x="111.39" y="-61.5" font-family="Helvetica,sans-Serif" font-size="10.00">ppht/types.hpp</text>
</a>
</g>
</g>
<!-- Node1&#45;&gt;Node2 -->
<g id="edge1" class="edge">
<title>Node1&#45;&gt;Node2</title>
<path fill="none" stroke="midnightblue" d="M207.23,-110.45C188.81,-101.81 159.32,-87.98 137.91,-77.94"/>
<polygon fill="midnightblue" stroke="midnightblue" points="139.26,-74.7 128.72,-73.63 136.28,-81.04 139.26,-74.7"/>
</g>
<!-- Node7 -->
<g id="node7" class="node">
<title>Node7</title>
<g id="a_node7"><a xlink:title=" ">
<polygon fill="white" stroke="#bfbfbf" points="170.22,-55.5 170.22,-73.5 214.56,-73.5 214.56,-55.5 170.22,-55.5"/>
<text text-anchor="middle" x="192.39" y="-61.5" font-family="Helvetica,sans-Serif" font-size="10.00">cstdlib</text>
</a>
</g>
</g>
<!-- Node1&#45;&gt;Node7 -->
<g id="edge6" class="edge">
<title>Node1&#45;&gt;Node7</title>
<path fill="none" stroke="midnightblue" d="M219.39,-110.22C214.9,-102.79 208.18,-91.65 202.56,-82.34"/>
<polygon fill="midnightblue" stroke="midnightblue" points="205.42,-80.3 197.25,-73.55 199.42,-83.92 205.42,-80.3"/>
</g>
<!-- Node8 -->
<g id="node8" class="node">
<title>Node8</title>
<g id="a_node8"><a xlink:title=" ">
<polygon fill="white" stroke="#bfbfbf" points="232.83,-55.5 232.83,-73.5 279.95,-73.5 279.95,-55.5 232.83,-55.5"/>
<text text-anchor="middle" x="256.39" y="-61.5" font-family="Helvetica,sans-Serif" font-size="10.00">iterator</text>
</a>
</g>
</g>
<!-- Node1&#45;&gt;Node8 -->
<g id="edge7" class="edge">
<title>Node1&#45;&gt;Node8</title>
<path fill="none" stroke="midnightblue" d="M229.39,-110.22C233.88,-102.79 240.61,-91.65 246.22,-82.34"/>
<polygon fill="midnightblue" stroke="midnightblue" points="249.36,-83.92 251.53,-73.55 243.37,-80.3 249.36,-83.92"/>
</g>
<!-- Node9 -->
<g id="node9" class="node">
<title>Node9</title>
<g id="a_node9"><a xlink:title=" ">
<polygon fill="white" stroke="#bfbfbf" points="298.33,-55.5 298.33,-73.5 350.45,-73.5 350.45,-55.5 298.33,-55.5"/>
<text text-anchor="middle" x="324.39" y="-61.5" font-family="Helvetica,sans-Serif" font-size="10.00">memory</text>
</a>
</g>
</g>
<!-- Node1&#45;&gt;Node9 -->
<g id="edge8" class="edge">
<title>Node1&#45;&gt;Node9</title>
<path fill="none" stroke="midnightblue" d="M239.58,-110.45C255.66,-101.93 281.27,-88.35 300.15,-78.35"/>
<polygon fill="midnightblue" stroke="midnightblue" points="301.86,-81.4 309.06,-73.63 298.59,-75.22 301.86,-81.4"/>
</g>
<!-- Node3 -->
<g id="node3" class="node">
<title>Node3</title>
<g id="a_node3"><a xlink:title=" ">
<polygon fill="white" stroke="#bfbfbf" points="0,-0.5 0,-18.5 38.78,-18.5 38.78,-0.5 0,-0.5"/>
<text text-anchor="middle" x="19.39" y="-6.5" font-family="Helvetica,sans-Serif" font-size="10.00">array</text>
</a>
</g>
</g>
<!-- Node2&#45;&gt;Node3 -->
<g id="edge2" class="edge">
<title>Node2&#45;&gt;Node3</title>
<path fill="none" stroke="midnightblue" d="M97.42,-55.45C82.83,-47.05 59.71,-33.72 42.41,-23.76"/>
<polygon fill="midnightblue" stroke="midnightblue" points="43.91,-20.58 33.5,-18.63 40.41,-26.65 43.91,-20.58"/>
</g>
<!-- Node4 -->
<g id="node4" class="node">
<title>Node4</title>
<g id="a_node4"><a xlink:title=" ">
<polygon fill="white" stroke="#bfbfbf" points="56.78,-0.5 56.78,-18.5 100.01,-18.5 100.01,-0.5 56.78,-0.5"/>
<text text-anchor="middle" x="78.39" y="-6.5" font-family="Helvetica,sans-Serif" font-size="10.00">cmath</text>
</a>
</g>
</g>
<!-- Node2&#45;&gt;Node4 -->
<g id="edge3" class="edge">
<title>Node2&#45;&gt;Node4</title>
<path fill="none" stroke="midnightblue" d="M106.24,-55.22C101.56,-47.71 94.52,-36.41 88.7,-27.05"/>
<polygon fill="midnightblue" stroke="midnightblue" points="91.66,-25.19 83.4,-18.55 85.72,-28.89 91.66,-25.19"/>
</g>
<!-- Node5 -->
<g id="node5" class="node">
<title>Node5</title>
<g id="a_node5"><a xlink:title=" ">
<polygon fill="white" stroke="#bfbfbf" points="118.22,-0.5 118.22,-18.5 172.56,-18.5 172.56,-0.5 118.22,-0.5"/>
<text text-anchor="middle" x="145.39" y="-6.5" font-family="Helvetica,sans-Serif" font-size="10.00">iostream</text>
</a>
</g>
</g>
<!-- Node2&#45;&gt;Node5 -->
<g id="edge4" class="edge">
<title>Node2&#45;&gt;Node5</title>
<path fill="none" stroke="midnightblue" d="M116.7,-55.22C121.52,-47.71 128.77,-36.41 134.77,-27.05"/>
<polygon fill="midnightblue" stroke="midnightblue" points="137.77,-28.86 140.23,-18.55 131.88,-25.08 137.77,-28.86"/>
</g>
<!-- Node6 -->
<g id="node6" class="node">
<title>Node6</title>
<g id="a_node6"><a xlink:title=" ">
<polygon fill="white" stroke="#bfbfbf" points="191,-0.5 191,-18.5 229.78,-18.5 229.78,-0.5 191,-0.5"/>
<text text-anchor="middle" x="210.39" y="-6.5" font-family="Helvetica,sans-Serif" font-size="10.00">utility</text>
</a>
</g>
</g>
<!-- Node2&#45;&gt;Node6 -->
<g id="edge5" class="edge">
<title>Node2&#45;&gt;Node6</title>
<path fill="none" stroke="midnightblue" d="M126.43,-55.45C142.35,-46.93 167.7,-33.35 186.39,-23.35"/>
<polygon fill="midnightblue" stroke="midnightblue" points="188.05,-26.43 195.21,-18.63 184.75,-20.26 188.05,-26.43"/>
</g>
</g>
</svg>
