<?xml version="1.0" encoding="UTF-8" standalone="no"?>
<!DOCTYPE svg PUBLIC "-//W3C//DTD SVG 1.1//EN"
 "http://www.w3.org/Graphics/SVG/1.1/DTD/svg11.dtd">
<!-- Generated by graphviz version 2.48.0 (20210717.1556)
 -->
<!-- Title: ppht::point_set Pages: 1 -->
<svg width="101pt" height="158pt"
 viewBox="0.00 0.00 101.19 158.00" xmlns="http://www.w3.org/2000/svg" xmlns:xlink="http://www.w3.org/1999/xlink">
<g id="graph0" class="graph" transform="scale(1 1) rotate(0) translate(4 154)">
<title>ppht::point_set</title>
<polygon fill="white" stroke="transparent" points="-4,4 -4,-154 97.19,-154 97.19,4 -4,4"/>
<!-- Node1 -->
<g id="node1" class="node">
<title>Node1</title>
<g id="a_node1"><a xlink:title="A collection of points surrounding a line segment.">
<polygon fill="#bfbfbf" stroke="black" points="5.69,-0.5 5.69,-18.5 87.3,-18.5 87.3,-0.5 5.69,-0.5"/>
<text text-anchor="middle" x="46.5" y="-6.5" font-family="Helvetica,sans-Serif" font-size="10.00">ppht::point_set</text>
</a>
</g>
</g>
<!-- Node2 -->
<g id="node2" class="node">
<title>Node2</title>
<g id="a_node2"><a xlink:href="classppht_1_1segment__t.html" target="_top" xlink:title=" ">
<polygon fill="white" stroke="black" points="2.64,-65.5 2.64,-83.5 90.35,-83.5 90.35,-65.5 2.64,-65.5"/>
<text text-anchor="middle" x="46.5" y="-71.5" font-family="Helvetica,sans-Serif" font-size="10.00">ppht::segment_t</text>
</a>
</g>
</g>
<!-- Node2&#45;&gt;Node1 -->
<g id="edge1" class="edge">
<title>Node2&#45;&gt;Node1</title>
<path fill="none" stroke="#9a32cd" stroke-dasharray="5,2" d="M46.5,-54.91C46.5,-42.81 46.5,-27.65 46.5,-18.54"/>
<polygon fill="#9a32cd" stroke="#9a32cd" points="43,-55.26 46.5,-65.26 50,-55.26 43,-55.26"/>
<text text-anchor="middle" x="69.84" y="-39" font-family="Helvetica,sans-Serif" font-size="10.00"> _segment</text>
</g>
<!-- Node3 -->
<g id="node3" class="node">
<title>Node3</title>
<g id="a_node3"><a xlink:title=" ">
<polygon fill="white" stroke="#bfbfbf" points="0,-121.5 0,-149.5 92.99,-149.5 92.99,-121.5 0,-121.5"/>
<text text-anchor="start" x="8" y="-137.5" font-family="Helvetica,sans-Serif" font-size="10.00">std::pair&lt; point_t,</text>
<text text-anchor="middle" x="46.5" y="-127.5" font-family="Helvetica,sans-Serif" font-size="10.00"> point_t &gt;</text>
</a>
</g>
</g>
<!-- Node3&#45;&gt;Node2 -->
<g id="edge2" class="edge">
<title>Node3&#45;&gt;Node2</title>
<path fill="none" stroke="midnightblue" d="M46.5,-111.39C46.5,-101.59 46.5,-90.82 46.5,-83.65"/>
<polygon fill="midnightblue" stroke="midnightblue" points="43,-111.41 46.5,-121.41 50,-111.41 43,-111.41"/>
</g>
</g>
</svg>
