<?xml version="1.0" encoding="UTF-8" standalone="no"?>
<!DOCTYPE svg PUBLIC "-//W3C//DTD SVG 1.1//EN"
 "http://www.w3.org/Graphics/SVG/1.1/DTD/svg11.dtd">
<!-- Generated by graphviz version 2.40.1 (20161225.0304)
 -->
<!-- Title: ppht::channel::iterator Pages: 1 -->
<svg width="121pt" height="158pt"
 viewBox="0.00 0.00 120.73 158.00" xmlns="http://www.w3.org/2000/svg" xmlns:xlink="http://www.w3.org/1999/xlink">
<g id="graph0" class="graph" transform="scale(1 1) rotate(0) translate(4 154)">
<title>ppht::channel::iterator</title>
<polygon fill="#ffffff" stroke="transparent" points="-4,4 -4,-154 116.7285,-154 116.7285,4 -4,4"/>
<!-- Node1 -->
<g id="node1" class="node">
<title>Node1</title>
<polygon fill="#bfbfbf" stroke="#000000" points="0,-.5 0,-18.5 112.7285,-18.5 112.7285,-.5 0,-.5"/>
<text text-anchor="middle" x="56.3643" y="-6.5" font-family="Helvetica,sans-Serif" font-size="10.00" fill="#000000">ppht::channel::iterator</text>
</g>
<!-- Node2 -->
<g id="node2" class="node">
<title>Node2</title>
<g id="a_node2"><a xlink:href="classppht_1_1segment__t.html" target="_top" xlink:title="ppht::segment_t">
<polygon fill="#ffffff" stroke="#000000" points="12.5073,-65.5 12.5073,-83.5 100.2212,-83.5 100.2212,-65.5 12.5073,-65.5"/>
<text text-anchor="middle" x="56.3643" y="-71.5" font-family="Helvetica,sans-Serif" font-size="10.00" fill="#000000">ppht::segment_t</text>
</a>
</g>
</g>
<!-- Node2&#45;&gt;Node1 -->
<g id="edge1" class="edge">
<title>Node2&#45;&gt;Node1</title>
<path fill="none" stroke="#9a32cd" stroke-dasharray="5,2" d="M56.3643,-55.1265C56.3643,-43.1522 56.3643,-28.3205 56.3643,-18.8821"/>
<polygon fill="#9a32cd" stroke="#9a32cd" points="52.8644,-55.462 56.3643,-65.462 59.8644,-55.4621 52.8644,-55.462"/>
<text text-anchor="middle" x="79.7114" y="-39" font-family="Helvetica,sans-Serif" font-size="10.00" fill="#000000"> _segment</text>
</g>
<!-- Node3 -->
<g id="node3" class="node">
<title>Node3</title>
<polygon fill="#ffffff" stroke="#bfbfbf" points="9.8682,-121.5 9.8682,-149.5 102.8604,-149.5 102.8604,-121.5 9.8682,-121.5"/>
<text text-anchor="start" x="17.8682" y="-137.5" font-family="Helvetica,sans-Serif" font-size="10.00" fill="#000000">std::pair&lt; point_t,</text>
<text text-anchor="middle" x="56.3643" y="-127.5" font-family="Helvetica,sans-Serif" font-size="10.00" fill="#000000"> point_t &gt;</text>
</g>
<!-- Node3&#45;&gt;Node2 -->
<g id="edge2" class="edge">
<title>Node3&#45;&gt;Node2</title>
<path fill="none" stroke="#191970" d="M56.3643,-111.1001C56.3643,-101.5157 56.3643,-91.0935 56.3643,-83.831"/>
<polygon fill="#191970" stroke="#191970" points="52.8644,-111.352 56.3643,-121.3521 59.8644,-111.3521 52.8644,-111.352"/>
</g>
</g>
</svg>
