<?xml version="1.0" encoding="UTF-8" standalone="no"?>
<!DOCTYPE svg PUBLIC "-//W3C//DTD SVG 1.1//EN"
 "http://www.w3.org/Graphics/SVG/1.1/DTD/svg11.dtd">
<!-- Generated by graphviz version 2.40.1 (20161225.0304)
 -->
<!-- Title: ppht::point_set Pages: 1 -->
<svg width="101pt" height="158pt"
 viewBox="0.00 0.00 101.19 158.00" xmlns="http://www.w3.org/2000/svg" xmlns:xlink="http://www.w3.org/1999/xlink">
<g id="graph0" class="graph" transform="scale(1 1) rotate(0) translate(4 154)">
<title>ppht::point_set</title>
<polygon fill="#ffffff" stroke="transparent" points="-4,4 -4,-154 97.1904,-154 97.1904,4 -4,4"/>
<!-- Node1 -->
<g id="node1" class="node">
<title>Node1</title>
<polygon fill="#bfbfbf" stroke="#000000" points="5.6934,-.5 5.6934,-18.5 87.2988,-18.5 87.2988,-.5 5.6934,-.5"/>
<text text-anchor="middle" x="46.4961" y="-6.5" font-family="Helvetica,sans-Serif" font-size="10.00" fill="#000000">ppht::point_set</text>
</g>
<!-- Node2 -->
<g id="node2" class="node">
<title>Node2</title>
<g id="a_node2"><a xlink:href="classppht_1_1segment__t.html" target="_top" xlink:title="ppht::segment_t">
<polygon fill="#ffffff" stroke="#000000" points="2.6392,-65.5 2.6392,-83.5 90.353,-83.5 90.353,-65.5 2.6392,-65.5"/>
<text text-anchor="middle" x="46.4961" y="-71.5" font-family="Helvetica,sans-Serif" font-size="10.00" fill="#000000">ppht::segment_t</text>
</a>
</g>
</g>
<!-- Node2&#45;&gt;Node1 -->
<g id="edge1" class="edge">
<title>Node2&#45;&gt;Node1</title>
<path fill="none" stroke="#9a32cd" stroke-dasharray="5,2" d="M46.4961,-55.1265C46.4961,-43.1522 46.4961,-28.3205 46.4961,-18.8821"/>
<polygon fill="#9a32cd" stroke="#9a32cd" points="42.9962,-55.462 46.4961,-65.462 49.9962,-55.4621 42.9962,-55.462"/>
<text text-anchor="middle" x="69.8433" y="-39" font-family="Helvetica,sans-Serif" font-size="10.00" fill="#000000"> _segment</text>
</g>
<!-- Node3 -->
<g id="node3" class="node">
<title>Node3</title>
<polygon fill="#ffffff" stroke="#bfbfbf" points="0,-121.5 0,-149.5 92.9922,-149.5 92.9922,-121.5 0,-121.5"/>
<text text-anchor="start" x="8" y="-137.5" font-family="Helvetica,sans-Serif" font-size="10.00" fill="#000000">std::pair&lt; point_t,</text>
<text text-anchor="middle" x="46.4961" y="-127.5" font-family="Helvetica,sans-Serif" font-size="10.00" fill="#000000"> point_t &gt;</text>
</g>
<!-- Node3&#45;&gt;Node2 -->
<g id="edge2" class="edge">
<title>Node3&#45;&gt;Node2</title>
<path fill="none" stroke="#191970" d="M46.4961,-111.1001C46.4961,-101.5157 46.4961,-91.0935 46.4961,-83.831"/>
<polygon fill="#191970" stroke="#191970" points="42.9962,-111.352 46.4961,-121.3521 49.9962,-111.3521 42.9962,-111.352"/>
</g>
</g>
</svg>
