<?xml version="1.0" encoding="UTF-8" standalone="no"?>
<!DOCTYPE svg PUBLIC "-//W3C//DTD SVG 1.1//EN"
 "http://www.w3.org/Graphics/SVG/1.1/DTD/svg11.dtd">
<!-- Generated by graphviz version 2.48.0 (20210717.1556)
 -->
<!-- Title: ppht::channel::bresenham_scanner&lt; Major &gt; Pages: 1 -->
<svg width="231pt" height="178pt"
 viewBox="0.00 0.00 231.06 178.00" xmlns="http://www.w3.org/2000/svg" xmlns:xlink="http://www.w3.org/1999/xlink">
<g id="graph0" class="graph" transform="scale(1 1) rotate(0) translate(4 174)">
<title>ppht::channel::bresenham_scanner&lt; Major &gt;</title>
<polygon fill="white" stroke="transparent" points="-4,4 -4,-174 227.06,-174 227.06,4 -4,4"/>
<!-- Node1 -->
<g id="node1" class="node">
<title>Node1</title>
<g id="a_node1"><a xlink:title="A general Bresenham&#45;Murphy thick line scanner.">
<polygon fill="#bfbfbf" stroke="black" points="28.77,-0.5 28.77,-28.5 160.41,-28.5 160.41,-0.5 28.77,-0.5"/>
<text text-anchor="start" x="36.77" y="-16.5" font-family="Helvetica,sans-Serif" font-size="10.00">ppht::channel::bresenham</text>
<text text-anchor="middle" x="94.59" y="-6.5" font-family="Helvetica,sans-Serif" font-size="10.00">_scanner&lt; Major &gt;</text>
</a>
</g>
</g>
<!-- Node2 -->
<g id="node2" class="node">
<title>Node2</title>
<g id="a_node2"><a xlink:href="classppht_1_1channel_1_1scanner.html" target="_top" xlink:title="An interface used to advance the iterator.">
<polygon fill="white" stroke="black" points="0,-95.5 0,-113.5 117.18,-113.5 117.18,-95.5 0,-95.5"/>
<text text-anchor="middle" x="58.59" y="-101.5" font-family="Helvetica,sans-Serif" font-size="10.00">ppht::channel::scanner</text>
</a>
</g>
</g>
<!-- Node2&#45;&gt;Node1 -->
<g id="edge1" class="edge">
<title>Node2&#45;&gt;Node1</title>
<path fill="none" stroke="midnightblue" d="M65.7,-86.12C72.61,-69.24 82.94,-43.99 89.19,-28.7"/>
<polygon fill="midnightblue" stroke="midnightblue" points="62.46,-84.8 61.91,-95.38 68.94,-87.45 62.46,-84.8"/>
</g>
<!-- Node3 -->
<g id="node3" class="node">
<title>Node3</title>
<g id="a_node3"><a xlink:href="structppht_1_1point__t.html" target="_top" xlink:title="A basic integral point.">
<polygon fill="white" stroke="black" points="135.07,-95.5 135.07,-113.5 206.11,-113.5 206.11,-95.5 135.07,-95.5"/>
<text text-anchor="middle" x="170.59" y="-101.5" font-family="Helvetica,sans-Serif" font-size="10.00">ppht::point_t</text>
</a>
</g>
</g>
<!-- Node3&#45;&gt;Node1 -->
<g id="edge2" class="edge">
<title>Node3&#45;&gt;Node1</title>
<path fill="none" stroke="#9a32cd" stroke-dasharray="5,2" d="M156.8,-87.53C142.24,-70.67 119.57,-44.42 105.99,-28.7"/>
<polygon fill="#9a32cd" stroke="#9a32cd" points="154.39,-90.1 163.58,-95.38 159.69,-85.52 154.39,-90.1"/>
<text text-anchor="middle" x="170.61" y="-69" font-family="Helvetica,sans-Serif" font-size="10.00"> _delta</text>
<text text-anchor="middle" x="170.61" y="-59" font-family="Helvetica,sans-Serif" font-size="10.00">_perp_step</text>
<text text-anchor="middle" x="170.61" y="-49" font-family="Helvetica,sans-Serif" font-size="10.00">_step</text>
</g>
<!-- Node4 -->
<g id="node4" class="node">
<title>Node4</title>
<g id="a_node4"><a xlink:title=" ">
<polygon fill="white" stroke="#bfbfbf" points="118.12,-151.5 118.12,-169.5 223.06,-169.5 223.06,-151.5 118.12,-151.5"/>
<text text-anchor="middle" x="170.59" y="-157.5" font-family="Helvetica,sans-Serif" font-size="10.00">std::array&lt; long, 2 &gt;</text>
</a>
</g>
</g>
<!-- Node4&#45;&gt;Node3 -->
<g id="edge3" class="edge">
<title>Node4&#45;&gt;Node3</title>
<path fill="none" stroke="midnightblue" d="M170.59,-140.83C170.59,-131.58 170.59,-120.88 170.59,-113.7"/>
<polygon fill="midnightblue" stroke="midnightblue" points="167.09,-141.06 170.59,-151.06 174.09,-141.06 167.09,-141.06"/>
</g>
</g>
</svg>
