<?xml version="1.0" encoding="UTF-8" standalone="no"?>
<!DOCTYPE svg PUBLIC "-//W3C//DTD SVG 1.1//EN"
 "http://www.w3.org/Graphics/SVG/1.1/DTD/svg11.dtd">
<!-- Generated by graphviz version 2.40.1 (20161225.0304)
 -->
<!-- Title: ppht::accumulator&lt; Count, Raster &gt; Pages: 1 -->
<svg width="109pt" height="102pt"
 viewBox="0.00 0.00 109.33 102.00" xmlns="http://www.w3.org/2000/svg" xmlns:xlink="http://www.w3.org/1999/xlink">
<g id="graph0" class="graph" transform="scale(1 1) rotate(0) translate(4 98)">
<title>ppht::accumulator&lt; Count, Raster &gt;</title>
<polygon fill="#ffffff" stroke="transparent" points="-4,4 -4,-98 105.3271,-98 105.3271,4 -4,4"/>
<!-- Node1 -->
<g id="node1" class="node">
<title>Node1</title>
<polygon fill="#bfbfbf" stroke="#000000" points="0,-.5 0,-28.5 101.3271,-28.5 101.3271,-.5 0,-.5"/>
<text text-anchor="start" x="8" y="-16.5" font-family="Helvetica,sans-Serif" font-size="10.00" fill="#000000">ppht::accumulator&lt;</text>
<text text-anchor="middle" x="50.6636" y="-6.5" font-family="Helvetica,sans-Serif" font-size="10.00" fill="#000000"> Count, Raster &gt;</text>
</g>
<!-- Node2 -->
<g id="node2" class="node">
<title>Node2</title>
<g id="a_node2"><a xlink:href="classppht_1_1trig__table.html" target="_top" xlink:title="A precomputed table of sine and cosine values. ">
<polygon fill="#ffffff" stroke="#000000" points="9.585,-75.5 9.585,-93.5 91.7422,-93.5 91.7422,-75.5 9.585,-75.5"/>
<text text-anchor="middle" x="50.6636" y="-81.5" font-family="Helvetica,sans-Serif" font-size="10.00" fill="#000000">ppht::trig_table</text>
</a>
</g>
</g>
<!-- Node2&#45;&gt;Node1 -->
<g id="edge1" class="edge">
<title>Node2&#45;&gt;Node1</title>
<path fill="none" stroke="#9a32cd" stroke-dasharray="5,2" d="M50.6636,-65.0243C50.6636,-53.5169 50.6636,-39.2016 50.6636,-28.7499"/>
<polygon fill="#9a32cd" stroke="#9a32cd" points="47.1637,-65.3487 50.6636,-75.3487 54.1637,-65.3488 47.1637,-65.3487"/>
<text text-anchor="middle" x="61.7793" y="-49" font-family="Helvetica,sans-Serif" font-size="10.00" fill="#000000"> _trig</text>
</g>
</g>
</svg>
