<?xml version="1.0" encoding="UTF-8" standalone="no"?>
<!DOCTYPE svg PUBLIC "-//W3C//DTD SVG 1.1//EN"
 "http://www.w3.org/Graphics/SVG/1.1/DTD/svg11.dtd">
<!-- Generated by graphviz version 2.48.0 (20210717.1556)
 -->
<!-- Title: ppht::channel::iterator Pages: 1 -->
<svg width="121pt" height="158pt"
 viewBox="0.00 0.00 120.73 158.00" xmlns="http://www.w3.org/2000/svg" xmlns:xlink="http://www.w3.org/1999/xlink">
<g id="graph0" class="graph" transform="scale(1 1) rotate(0) translate(4 154)">
<title>ppht::channel::iterator</title>
<polygon fill="white" stroke="transparent" points="-4,4 -4,-154 116.73,-154 116.73,4 -4,4"/>
<!-- Node1 -->
<g id="node1" class="node">
<title>Node1</title>
<g id="a_node1"><a xlink:title="A forward iterator wrapping a scanner.">
<polygon fill="#bfbfbf" stroke="black" points="0,-0.5 0,-18.5 112.73,-18.5 112.73,-0.5 0,-0.5"/>
<text text-anchor="middle" x="56.36" y="-6.5" font-family="Helvetica,sans-Serif" font-size="10.00">ppht::channel::iterator</text>
</a>
</g>
</g>
<!-- Node2 -->
<g id="node2" class="node">
<title>Node2</title>
<g id="a_node2"><a xlink:href="classppht_1_1segment__t.html" target="_top" xlink:title=" ">
<polygon fill="white" stroke="black" points="12.51,-65.5 12.51,-83.5 100.22,-83.5 100.22,-65.5 12.51,-65.5"/>
<text text-anchor="middle" x="56.36" y="-71.5" font-family="Helvetica,sans-Serif" font-size="10.00">ppht::segment_t</text>
</a>
</g>
</g>
<!-- Node2&#45;&gt;Node1 -->
<g id="edge1" class="edge">
<title>Node2&#45;&gt;Node1</title>
<path fill="none" stroke="#9a32cd" stroke-dasharray="5,2" d="M56.36,-54.91C56.36,-42.81 56.36,-27.65 56.36,-18.54"/>
<polygon fill="#9a32cd" stroke="#9a32cd" points="52.86,-55.26 56.36,-65.26 59.86,-55.26 52.86,-55.26"/>
<text text-anchor="middle" x="79.71" y="-39" font-family="Helvetica,sans-Serif" font-size="10.00"> _segment</text>
</g>
<!-- Node3 -->
<g id="node3" class="node">
<title>Node3</title>
<g id="a_node3"><a xlink:title=" ">
<polygon fill="white" stroke="#bfbfbf" points="9.87,-121.5 9.87,-149.5 102.86,-149.5 102.86,-121.5 9.87,-121.5"/>
<text text-anchor="start" x="17.87" y="-137.5" font-family="Helvetica,sans-Serif" font-size="10.00">std::pair&lt; point_t,</text>
<text text-anchor="middle" x="56.36" y="-127.5" font-family="Helvetica,sans-Serif" font-size="10.00"> point_t &gt;</text>
</a>
</g>
</g>
<!-- Node3&#45;&gt;Node2 -->
<g id="edge2" class="edge">
<title>Node3&#45;&gt;Node2</title>
<path fill="none" stroke="midnightblue" d="M56.36,-111.39C56.36,-101.59 56.36,-90.82 56.36,-83.65"/>
<polygon fill="midnightblue" stroke="midnightblue" points="52.86,-111.41 56.36,-121.41 59.86,-111.41 52.86,-111.41"/>
</g>
</g>
</svg>
