<?xml version="1.0" encoding="UTF-8" standalone="no"?>
<!DOCTYPE svg PUBLIC "-//W3C//DTD SVG 1.1//EN"
 "http://www.w3.org/Graphics/SVG/1.1/DTD/svg11.dtd">
<!-- Generated by graphviz version 2.48.0 (20210717.1556)
 -->
<!-- Title: ppht::channel::scanner Pages: 1 -->
<svg width="260pt" height="92pt"
 viewBox="0.00 0.00 259.90 92.00" xmlns="http://www.w3.org/2000/svg" xmlns:xlink="http://www.w3.org/1999/xlink">
<g id="graph0" class="graph" transform="scale(1 1) rotate(0) translate(4 88)">
<title>ppht::channel::scanner</title>
<polygon fill="white" stroke="transparent" points="-4,4 -4,-88 255.9,-88 255.9,4 -4,4"/>
<!-- Node1 -->
<g id="node1" class="node">
<title>Node1</title>
<g id="a_node1"><a xlink:title="An interface used to advance the iterator.">
<polygon fill="#bfbfbf" stroke="black" points="59.5,-65.5 59.5,-83.5 176.68,-83.5 176.68,-65.5 59.5,-65.5"/>
<text text-anchor="middle" x="118.09" y="-71.5" font-family="Helvetica,sans-Serif" font-size="10.00">ppht::channel::scanner</text>
</a>
</g>
</g>
<!-- Node2 -->
<g id="node2" class="node">
<title>Node2</title>
<g id="a_node2"><a xlink:href="classppht_1_1channel_1_1axial__scanner.html" target="_top" xlink:title="A scanner optimized for axial lines.">
<polygon fill="white" stroke="black" points="0,-0.5 0,-28.5 102.17,-28.5 102.17,-0.5 0,-0.5"/>
<text text-anchor="start" x="8" y="-16.5" font-family="Helvetica,sans-Serif" font-size="10.00">ppht::channel::axial</text>
<text text-anchor="middle" x="51.09" y="-6.5" font-family="Helvetica,sans-Serif" font-size="10.00">_scanner&lt; Major &gt;</text>
</a>
</g>
</g>
<!-- Node1&#45;&gt;Node2 -->
<g id="edge1" class="edge">
<title>Node1&#45;&gt;Node2</title>
<path fill="none" stroke="midnightblue" d="M100.93,-58.65C90.22,-49.38 76.55,-37.55 66.24,-28.62"/>
<polygon fill="midnightblue" stroke="midnightblue" points="98.92,-61.54 108.77,-65.44 103.5,-56.24 98.92,-61.54"/>
</g>
<!-- Node3 -->
<g id="node3" class="node">
<title>Node3</title>
<g id="a_node3"><a xlink:href="classppht_1_1channel_1_1bresenham__scanner.html" target="_top" xlink:title="A general Bresenham&#45;Murphy thick line scanner.">
<polygon fill="white" stroke="black" points="120.27,-0.5 120.27,-28.5 251.9,-28.5 251.9,-0.5 120.27,-0.5"/>
<text text-anchor="start" x="128.27" y="-16.5" font-family="Helvetica,sans-Serif" font-size="10.00">ppht::channel::bresenham</text>
<text text-anchor="middle" x="186.09" y="-6.5" font-family="Helvetica,sans-Serif" font-size="10.00">_scanner&lt; Major &gt;</text>
</a>
</g>
</g>
<!-- Node1&#45;&gt;Node3 -->
<g id="edge2" class="edge">
<title>Node1&#45;&gt;Node3</title>
<path fill="none" stroke="midnightblue" d="M135.17,-58.93C146.09,-49.61 160.13,-37.64 170.7,-28.62"/>
<polygon fill="midnightblue" stroke="midnightblue" points="132.88,-56.28 127.54,-65.44 137.42,-61.61 132.88,-56.28"/>
</g>
</g>
</svg>
