<?xml version="1.0" encoding="UTF-8" standalone="no"?>
<!DOCTYPE svg PUBLIC "-//W3C//DTD SVG 1.1//EN"
 "http://www.w3.org/Graphics/SVG/1.1/DTD/svg11.dtd">
<!-- Generated by graphviz version 2.48.0 (20210717.1556)
 -->
<!-- Title: Graphical Class Hierarchy Pages: 1 -->
<svg width="253pt" height="84pt"
 viewBox="0.00 0.00 252.78 84.00" xmlns="http://www.w3.org/2000/svg" xmlns:xlink="http://www.w3.org/1999/xlink">
<g id="graph0" class="graph" transform="scale(1 1) rotate(0) translate(4 80)">
<title>Graphical Class Hierarchy</title>
<polygon fill="white" stroke="transparent" points="-4,4 -4,-80 248.78,-80 248.78,4 -4,4"/>
<!-- Node0 -->
<g id="node1" class="node">
<title>Node0</title>
<g id="a_node1"><a xlink:href="structppht_1_1scanner.html" target="_top" xlink:title="A class for tracking the state required to advance a point along a segment.">
<polygon fill="white" stroke="black" points="0,-28.5 0,-46.5 76.6,-46.5 76.6,-28.5 0,-28.5"/>
<text text-anchor="middle" x="38.3" y="-34.5" font-family="Helvetica,sans-Serif" font-size="10.00">ppht::scanner</text>
</a>
</g>
</g>
<!-- Node1 -->
<g id="node2" class="node">
<title>Node1</title>
<g id="a_node2"><a xlink:href="structppht_1_1axis__scanner.html" target="_top" xlink:title="A scanner optimized for lines parallel to an axis.">
<polygon fill="white" stroke="black" points="128.72,-47.5 128.72,-75.5 228.66,-75.5 228.66,-47.5 128.72,-47.5"/>
<text text-anchor="start" x="136.72" y="-63.5" font-family="Helvetica,sans-Serif" font-size="10.00">ppht::axis_scanner</text>
<text text-anchor="middle" x="178.69" y="-53.5" font-family="Helvetica,sans-Serif" font-size="10.00">&lt; Ind &gt;</text>
</a>
</g>
</g>
<!-- Node0&#45;&gt;Node1 -->
<g id="edge1" class="edge">
<title>Node0&#45;&gt;Node1</title>
<path fill="none" stroke="midnightblue" d="M86.77,-45.73C100.24,-48.07 114.93,-50.62 128.5,-52.97"/>
<polygon fill="midnightblue" stroke="midnightblue" points="87.2,-42.26 76.75,-43.99 86,-49.15 87.2,-42.26"/>
</g>
<!-- Node2 -->
<g id="node3" class="node">
<title>Node2</title>
<g id="a_node3"><a xlink:href="structppht_1_1bresenham__scanner.html" target="_top" xlink:title="A scanner based on Bresenham&#39;s line algorithm.">
<polygon fill="white" stroke="black" points="112.6,-0.5 112.6,-28.5 244.78,-28.5 244.78,-0.5 112.6,-0.5"/>
<text text-anchor="start" x="120.6" y="-16.5" font-family="Helvetica,sans-Serif" font-size="10.00">ppht::bresenham_scanner</text>
<text text-anchor="middle" x="178.69" y="-6.5" font-family="Helvetica,sans-Serif" font-size="10.00">&lt; Ind, Increment &gt;</text>
</a>
</g>
</g>
<!-- Node0&#45;&gt;Node2 -->
<g id="edge2" class="edge">
<title>Node0&#45;&gt;Node2</title>
<path fill="none" stroke="midnightblue" d="M86.64,-29.63C94.96,-28.25 103.76,-26.79 112.48,-25.34"/>
<polygon fill="midnightblue" stroke="midnightblue" points="86.04,-26.18 76.75,-31.28 87.19,-33.09 86.04,-26.18"/>
</g>
</g>
</svg>
