<?xml version="1.0" encoding="UTF-8" standalone="no"?>
<!DOCTYPE svg PUBLIC "-//W3C//DTD SVG 1.1//EN"
 "http://www.w3.org/Graphics/SVG/1.1/DTD/svg11.dtd">
<!-- Generated by graphviz version 2.40.1 (20161225.0304)
 -->
<!-- Title: Graphical Class Hierarchy Pages: 1 -->
<svg width="253pt" height="84pt"
 viewBox="0.00 0.00 252.78 84.00" xmlns="http://www.w3.org/2000/svg" xmlns:xlink="http://www.w3.org/1999/xlink">
<g id="graph0" class="graph" transform="scale(1 1) rotate(0) translate(4 80)">
<title>Graphical Class Hierarchy</title>
<polygon fill="#ffffff" stroke="transparent" points="-4,4 -4,-80 248.7822,-80 248.7822,4 -4,4"/>
<!-- Node0 -->
<g id="node1" class="node">
<title>Node0</title>
<g id="a_node1"><a xlink:href="structppht_1_1scanner.html" target="_top" xlink:title="A class for tracking the state required to advance a point along a segment. ">
<polygon fill="#ffffff" stroke="#000000" points="0,-28.5 0,-46.5 76.5957,-46.5 76.5957,-28.5 0,-28.5"/>
<text text-anchor="middle" x="38.2979" y="-34.5" font-family="Helvetica,sans-Serif" font-size="10.00" fill="#000000">ppht::scanner</text>
</a>
</g>
</g>
<!-- Node1 -->
<g id="node2" class="node">
<title>Node1</title>
<g id="a_node2"><a xlink:href="structppht_1_1axis__scanner.html" target="_top" xlink:title="A scanner optimized for lines parallel to an axis. ">
<polygon fill="#ffffff" stroke="#000000" points="128.7188,-47.5 128.7188,-75.5 228.6592,-75.5 228.6592,-47.5 128.7188,-47.5"/>
<text text-anchor="start" x="136.7188" y="-63.5" font-family="Helvetica,sans-Serif" font-size="10.00" fill="#000000">ppht::axis_scanner</text>
<text text-anchor="middle" x="178.689" y="-53.5" font-family="Helvetica,sans-Serif" font-size="10.00" fill="#000000">&lt; Ind &gt;</text>
</a>
</g>
</g>
<!-- Node0&#45;&gt;Node1 -->
<g id="edge1" class="edge">
<title>Node0&#45;&gt;Node1</title>
<path fill="none" stroke="#191970" d="M86.7148,-45.7769C100.2167,-48.0851 114.9117,-50.5972 128.5125,-52.9223"/>
<polygon fill="#191970" stroke="#191970" points="87.1071,-42.2933 76.6603,-44.0581 85.9275,-49.1932 87.1071,-42.2933"/>
</g>
<!-- Node2 -->
<g id="node3" class="node">
<title>Node2</title>
<g id="a_node3"><a xlink:href="structppht_1_1bresenham__scanner.html" target="_top" xlink:title="A scanner based on Bresenham&#39;s line algorithm. ">
<polygon fill="#ffffff" stroke="#000000" points="112.5957,-.5 112.5957,-28.5 244.7822,-28.5 244.7822,-.5 112.5957,-.5"/>
<text text-anchor="start" x="120.5957" y="-16.5" font-family="Helvetica,sans-Serif" font-size="10.00" fill="#000000">ppht::bresenham_scanner</text>
<text text-anchor="middle" x="178.689" y="-6.5" font-family="Helvetica,sans-Serif" font-size="10.00" fill="#000000">&lt; Ind, Increment &gt;</text>
</a>
</g>
</g>
<!-- Node0&#45;&gt;Node2 -->
<g id="edge2" class="edge">
<title>Node0&#45;&gt;Node2</title>
<path fill="none" stroke="#191970" d="M86.608,-29.5854C94.9811,-28.2137 103.8158,-26.7663 112.5658,-25.3328"/>
<polygon fill="#191970" stroke="#191970" points="85.9629,-26.1444 76.6603,-31.2151 87.0947,-33.0523 85.9629,-26.1444"/>
</g>
</g>
</svg>
