<?xml version="1.0" encoding="UTF-8" standalone="no"?>
<!DOCTYPE svg PUBLIC "-//W3C//DTD SVG 1.1//EN"
 "http://www.w3.org/Graphics/SVG/1.1/DTD/svg11.dtd">
<!-- Generated by graphviz version 2.40.1 (20161225.0304)
 -->
<!-- Title: ppht/kd&#45;search.hpp Pages: 1 -->
<svg width="120pt" height="137pt"
 viewBox="0.00 0.00 119.62 137.00" xmlns="http://www.w3.org/2000/svg" xmlns:xlink="http://www.w3.org/1999/xlink">
<g id="graph0" class="graph" transform="scale(1 1) rotate(0) translate(4 133)">
<title>ppht/kd&#45;search.hpp</title>
<polygon fill="#ffffff" stroke="transparent" points="-4,4 -4,-133 115.6201,-133 115.6201,4 -4,4"/>
<!-- Node6 -->
<g id="node1" class="node">
<title>Node6</title>
<polygon fill="#bfbfbf" stroke="#000000" points="5.0049,-110.5 5.0049,-128.5 106.6152,-128.5 106.6152,-110.5 5.0049,-110.5"/>
<text text-anchor="middle" x="55.8101" y="-116.5" font-family="Helvetica,sans-Serif" font-size="10.00" fill="#000000">ppht/kd&#45;search.hpp</text>
</g>
<!-- Node7 -->
<g id="node2" class="node">
<title>Node7</title>
<g id="a_node2"><a xlink:href="postprocess_8hpp.html" target="_top" xlink:title="ppht/postprocess.hpp">
<polygon fill="#ffffff" stroke="#000000" points="0,-55.5 0,-73.5 111.6201,-73.5 111.6201,-55.5 0,-55.5"/>
<text text-anchor="middle" x="55.8101" y="-61.5" font-family="Helvetica,sans-Serif" font-size="10.00" fill="#000000">ppht/postprocess.hpp</text>
</a>
</g>
</g>
<!-- Node6&#45;&gt;Node7 -->
<g id="edge1" class="edge">
<title>Node6&#45;&gt;Node7</title>
<path fill="none" stroke="#191970" d="M55.8101,-100.383C55.8101,-91.3738 55.8101,-81.0373 55.8101,-73.7795"/>
<polygon fill="#191970" stroke="#191970" points="52.3102,-100.4178 55.8101,-110.4179 59.3102,-100.4179 52.3102,-100.4178"/>
</g>
<!-- Node8 -->
<g id="node3" class="node">
<title>Node8</title>
<g id="a_node3"><a xlink:href="ppht_8hpp.html" target="_top" xlink:title="ppht.hpp">
<polygon fill="#ffffff" stroke="#000000" points="28.3472,-.5 28.3472,-18.5 83.2729,-18.5 83.2729,-.5 28.3472,-.5"/>
<text text-anchor="middle" x="55.8101" y="-6.5" font-family="Helvetica,sans-Serif" font-size="10.00" fill="#000000">ppht.hpp</text>
</a>
</g>
</g>
<!-- Node7&#45;&gt;Node8 -->
<g id="edge2" class="edge">
<title>Node7&#45;&gt;Node8</title>
<path fill="none" stroke="#191970" d="M55.8101,-45.383C55.8101,-36.3738 55.8101,-26.0373 55.8101,-18.7795"/>
<polygon fill="#191970" stroke="#191970" points="52.3102,-45.4178 55.8101,-55.4179 59.3102,-45.4179 52.3102,-45.4178"/>
</g>
</g>
</svg>
