<?xml version="1.0" encoding="UTF-8" standalone="no"?>
<!DOCTYPE svg PUBLIC "-//W3C//DTD SVG 1.1//EN"
 "http://www.w3.org/Graphics/SVG/1.1/DTD/svg11.dtd">
<!-- Generated by graphviz version 2.40.1 (20161225.0304)
 -->
<!-- Title: ppht/parameters.hpp Pages: 1 -->
<svg width="160pt" height="137pt"
 viewBox="0.00 0.00 159.95 137.00" xmlns="http://www.w3.org/2000/svg" xmlns:xlink="http://www.w3.org/1999/xlink">
<g id="graph0" class="graph" transform="scale(1 1) rotate(0) translate(4 133)">
<title>ppht/parameters.hpp</title>
<polygon fill="#ffffff" stroke="transparent" points="-4,4 -4,-133 155.9526,-133 155.9526,4 -4,4"/>
<!-- Node2 -->
<g id="node1" class="node">
<title>Node2</title>
<polygon fill="#bfbfbf" stroke="#000000" points="43.6724,-110.5 43.6724,-128.5 151.9526,-128.5 151.9526,-110.5 43.6724,-110.5"/>
<text text-anchor="middle" x="97.8125" y="-116.5" font-family="Helvetica,sans-Serif" font-size="10.00" fill="#000000">ppht/parameters.hpp</text>
</g>
<!-- Node3 -->
<g id="node2" class="node">
<title>Node3</title>
<g id="a_node2"><a xlink:href="accumulator_8hpp.html" target="_top" xlink:title="ppht/accumulator.hpp">
<polygon fill="#ffffff" stroke="#000000" points="0,-55.5 0,-73.5 111.625,-73.5 111.625,-55.5 0,-55.5"/>
<text text-anchor="middle" x="55.8125" y="-61.5" font-family="Helvetica,sans-Serif" font-size="10.00" fill="#000000">ppht/accumulator.hpp</text>
</a>
</g>
</g>
<!-- Node2&#45;&gt;Node3 -->
<g id="edge1" class="edge">
<title>Node2&#45;&gt;Node3</title>
<path fill="none" stroke="#191970" d="M84.7822,-102.4365C77.5626,-92.9823 68.8674,-81.5956 62.8986,-73.7795"/>
<polygon fill="#191970" stroke="#191970" points="82.0262,-104.5944 90.8771,-110.4179 87.5896,-100.346 82.0262,-104.5944"/>
</g>
<!-- Node4 -->
<g id="node3" class="node">
<title>Node4</title>
<g id="a_node3"><a xlink:href="ppht_8hpp.html" target="_top" xlink:title="ppht.hpp">
<polygon fill="#ffffff" stroke="#000000" points="70.3496,-.5 70.3496,-18.5 125.2754,-18.5 125.2754,-.5 70.3496,-.5"/>
<text text-anchor="middle" x="97.8125" y="-6.5" font-family="Helvetica,sans-Serif" font-size="10.00" fill="#000000">ppht.hpp</text>
</a>
</g>
</g>
<!-- Node2&#45;&gt;Node4 -->
<g id="edge3" class="edge">
<title>Node2&#45;&gt;Node4</title>
<path fill="none" stroke="#191970" d="M110.2891,-101.3751C117.5695,-88.6216 124.635,-71.0349 120.8125,-55 117.6106,-41.5685 109.7703,-27.6108 104.1336,-18.7558"/>
<polygon fill="#191970" stroke="#191970" points="107.1818,-99.7434 104.8566,-110.08 113.1203,-103.4495 107.1818,-99.7434"/>
</g>
<!-- Node3&#45;&gt;Node4 -->
<g id="edge2" class="edge">
<title>Node3&#45;&gt;Node4</title>
<path fill="none" stroke="#191970" d="M68.8428,-47.4365C76.0624,-37.9823 84.7576,-26.5956 90.7264,-18.7795"/>
<polygon fill="#191970" stroke="#191970" points="66.0354,-45.346 62.7479,-55.4179 71.5988,-49.5944 66.0354,-45.346"/>
</g>
</g>
</svg>
