<?xml version="1.0" encoding="UTF-8" standalone="no"?>
<!DOCTYPE svg PUBLIC "-//W3C//DTD SVG 1.1//EN"
 "http://www.w3.org/Graphics/SVG/1.1/DTD/svg11.dtd">
<!-- Generated by graphviz version 2.48.0 (20210717.1556)
 -->
<!-- Title: ppht/parameters.hpp Pages: 1 -->
<svg width="160pt" height="137pt"
 viewBox="0.00 0.00 159.95 137.00" xmlns="http://www.w3.org/2000/svg" xmlns:xlink="http://www.w3.org/1999/xlink">
<g id="graph0" class="graph" transform="scale(1 1) rotate(0) translate(4 133)">
<title>ppht/parameters.hpp</title>
<polygon fill="white" stroke="transparent" points="-4,4 -4,-133 155.95,-133 155.95,4 -4,4"/>
<!-- Node1 -->
<g id="node1" class="node">
<title>Node1</title>
<g id="a_node1"><a xlink:title=" ">
<polygon fill="#bfbfbf" stroke="black" points="0,-110.5 0,-128.5 108.28,-128.5 108.28,-110.5 0,-110.5"/>
<text text-anchor="middle" x="54.14" y="-116.5" font-family="Helvetica,sans-Serif" font-size="10.00">ppht/parameters.hpp</text>
</a>
</g>
</g>
<!-- Node2 -->
<g id="node2" class="node">
<title>Node2</title>
<g id="a_node2"><a xlink:href="ppht_8hpp.html" target="_top" xlink:title=" ">
<polygon fill="white" stroke="black" points="26.68,-0.5 26.68,-18.5 81.6,-18.5 81.6,-0.5 26.68,-0.5"/>
<text text-anchor="middle" x="54.14" y="-6.5" font-family="Helvetica,sans-Serif" font-size="10.00">ppht.hpp</text>
</a>
</g>
</g>
<!-- Node1&#45;&gt;Node2 -->
<g id="edge1" class="edge">
<title>Node1&#45;&gt;Node2</title>
<path fill="none" stroke="midnightblue" d="M43.07,-101.75C38.4,-93.71 33.51,-83.73 31.14,-74 26.15,-53.49 39.55,-30.43 47.94,-18.54"/>
<polygon fill="midnightblue" stroke="midnightblue" points="40.21,-103.79 48.46,-110.44 46.16,-100.1 40.21,-103.79"/>
</g>
<!-- Node3 -->
<g id="node3" class="node">
<title>Node3</title>
<g id="a_node3"><a xlink:href="accumulator_8hpp.html" target="_top" xlink:title=" ">
<polygon fill="white" stroke="black" points="40.33,-55.5 40.33,-73.5 151.95,-73.5 151.95,-55.5 40.33,-55.5"/>
<text text-anchor="middle" x="96.14" y="-61.5" font-family="Helvetica,sans-Serif" font-size="10.00">ppht/accumulator.hpp</text>
</a>
</g>
</g>
<!-- Node1&#45;&gt;Node3 -->
<g id="edge2" class="edge">
<title>Node1&#45;&gt;Node3</title>
<path fill="none" stroke="midnightblue" d="M67.02,-102.24C74.56,-92.73 83.75,-81.14 89.76,-73.55"/>
<polygon fill="midnightblue" stroke="midnightblue" points="64.17,-100.21 60.7,-110.22 69.66,-104.56 64.17,-100.21"/>
</g>
<!-- Node3&#45;&gt;Node2 -->
<g id="edge3" class="edge">
<title>Node3&#45;&gt;Node2</title>
<path fill="none" stroke="midnightblue" d="M83.26,-47.24C75.72,-37.73 66.53,-26.14 60.52,-18.55"/>
<polygon fill="midnightblue" stroke="midnightblue" points="80.62,-49.56 89.58,-55.22 86.11,-45.21 80.62,-49.56"/>
</g>
</g>
</svg>
