<?xml version="1.0" encoding="UTF-8" standalone="no"?>
<!DOCTYPE svg PUBLIC "-//W3C//DTD SVG 1.1//EN"
 "http://www.w3.org/Graphics/SVG/1.1/DTD/svg11.dtd">
<!-- Generated by graphviz version 2.40.1 (20161225.0304)
 -->
<!-- Title: ppht/point_set.hpp Pages: 1 -->
<svg width="131pt" height="137pt"
 viewBox="0.00 0.00 130.84 137.00" xmlns="http://www.w3.org/2000/svg" xmlns:xlink="http://www.w3.org/1999/xlink">
<g id="graph0" class="graph" transform="scale(1 1) rotate(0) translate(4 133)">
<title>ppht/point_set.hpp</title>
<polygon fill="#ffffff" stroke="transparent" points="-4,4 -4,-133 126.8369,-133 126.8369,4 -4,4"/>
<!-- Node6 -->
<g id="node1" class="node">
<title>Node6</title>
<polygon fill="#bfbfbf" stroke="#000000" points="24.5469,-110.5 24.5469,-128.5 122.8369,-128.5 122.8369,-110.5 24.5469,-110.5"/>
<text text-anchor="middle" x="73.6919" y="-116.5" font-family="Helvetica,sans-Serif" font-size="10.00" fill="#000000">ppht/point_set.hpp</text>
</g>
<!-- Node7 -->
<g id="node2" class="node">
<title>Node7</title>
<g id="a_node2"><a xlink:href="state_8hpp.html" target="_top" xlink:title="ppht/state.hpp">
<polygon fill="#ffffff" stroke="#000000" points="0,-55.5 0,-73.5 79.3838,-73.5 79.3838,-55.5 0,-55.5"/>
<text text-anchor="middle" x="39.6919" y="-61.5" font-family="Helvetica,sans-Serif" font-size="10.00" fill="#000000">ppht/state.hpp</text>
</a>
</g>
</g>
<!-- Node6&#45;&gt;Node7 -->
<g id="edge1" class="edge">
<title>Node6&#45;&gt;Node7</title>
<path fill="none" stroke="#191970" d="M62.7843,-101.8553C57.0127,-92.519 50.1615,-81.4361 45.4283,-73.7795"/>
<polygon fill="#191970" stroke="#191970" points="59.8421,-103.7523 68.0775,-110.4179 65.7963,-100.0715 59.8421,-103.7523"/>
</g>
<!-- Node8 -->
<g id="node3" class="node">
<title>Node8</title>
<g id="a_node3"><a xlink:href="ppht_8hpp.html" target="_top" xlink:title="ppht.hpp">
<polygon fill="#ffffff" stroke="#000000" points="46.229,-.5 46.229,-18.5 101.1548,-18.5 101.1548,-.5 46.229,-.5"/>
<text text-anchor="middle" x="73.6919" y="-6.5" font-family="Helvetica,sans-Serif" font-size="10.00" fill="#000000">ppht.hpp</text>
</a>
</g>
</g>
<!-- Node6&#45;&gt;Node8 -->
<g id="edge3" class="edge">
<title>Node6&#45;&gt;Node8</title>
<path fill="none" stroke="#191970" d="M81.9696,-100.8666C86.685,-88.057 91.1983,-70.6081 88.6919,-55 86.6082,-42.0246 81.3828,-27.7338 77.6874,-18.6939"/>
<polygon fill="#191970" stroke="#191970" points="78.6211,-99.8108 78.1108,-110.3933 85.1091,-102.4388 78.6211,-99.8108"/>
</g>
<!-- Node7&#45;&gt;Node8 -->
<g id="edge2" class="edge">
<title>Node7&#45;&gt;Node8</title>
<path fill="none" stroke="#191970" d="M50.5995,-46.8553C56.3711,-37.519 63.2223,-26.4361 67.9555,-18.7795"/>
<polygon fill="#191970" stroke="#191970" points="47.5875,-45.0715 45.3063,-55.4179 53.5417,-48.7523 47.5875,-45.0715"/>
</g>
</g>
</svg>
