<?xml version="1.0" encoding="UTF-8" standalone="no"?>
<!DOCTYPE svg PUBLIC "-//W3C//DTD SVG 1.1//EN"
 "http://www.w3.org/Graphics/SVG/1.1/DTD/svg11.dtd">
<!-- Generated by graphviz version 2.48.0 (20210717.1556)
 -->
<!-- Title: ppht/point_set.hpp Pages: 1 -->
<svg width="131pt" height="137pt"
 viewBox="0.00 0.00 130.84 137.00" xmlns="http://www.w3.org/2000/svg" xmlns:xlink="http://www.w3.org/1999/xlink">
<g id="graph0" class="graph" transform="scale(1 1) rotate(0) translate(4 133)">
<title>ppht/point_set.hpp</title>
<polygon fill="white" stroke="transparent" points="-4,4 -4,-133 126.84,-133 126.84,4 -4,4"/>
<!-- Node1 -->
<g id="node1" class="node">
<title>Node1</title>
<g id="a_node1"><a xlink:title=" ">
<polygon fill="#bfbfbf" stroke="black" points="0,-110.5 0,-128.5 98.29,-128.5 98.29,-110.5 0,-110.5"/>
<text text-anchor="middle" x="49.15" y="-116.5" font-family="Helvetica,sans-Serif" font-size="10.00">ppht/point_set.hpp</text>
</a>
</g>
</g>
<!-- Node2 -->
<g id="node2" class="node">
<title>Node2</title>
<g id="a_node2"><a xlink:href="ppht_8hpp.html" target="_top" xlink:title=" ">
<polygon fill="white" stroke="black" points="21.68,-0.5 21.68,-18.5 76.61,-18.5 76.61,-0.5 21.68,-0.5"/>
<text text-anchor="middle" x="49.15" y="-6.5" font-family="Helvetica,sans-Serif" font-size="10.00">ppht.hpp</text>
</a>
</g>
</g>
<!-- Node1&#45;&gt;Node2 -->
<g id="edge1" class="edge">
<title>Node1&#45;&gt;Node2</title>
<path fill="none" stroke="midnightblue" d="M41.7,-100.79C38.71,-92.77 35.63,-83.06 34.15,-74 30.85,-53.88 39.6,-30.66 45.09,-18.65"/>
<polygon fill="midnightblue" stroke="midnightblue" points="38.48,-102.18 45.43,-110.18 44.99,-99.59 38.48,-102.18"/>
</g>
<!-- Node3 -->
<g id="node3" class="node">
<title>Node3</title>
<g id="a_node3"><a xlink:href="state_8hpp.html" target="_top" xlink:title=" ">
<polygon fill="white" stroke="black" points="43.45,-55.5 43.45,-73.5 122.84,-73.5 122.84,-55.5 43.45,-55.5"/>
<text text-anchor="middle" x="83.15" y="-61.5" font-family="Helvetica,sans-Serif" font-size="10.00">ppht/state.hpp</text>
</a>
</g>
</g>
<!-- Node1&#45;&gt;Node3 -->
<g id="edge2" class="edge">
<title>Node1&#45;&gt;Node3</title>
<path fill="none" stroke="midnightblue" d="M59.95,-101.66C65.98,-92.26 73.21,-80.98 77.98,-73.55"/>
<polygon fill="midnightblue" stroke="midnightblue" points="56.91,-99.91 54.46,-110.22 62.8,-103.69 56.91,-99.91"/>
</g>
<!-- Node3&#45;&gt;Node2 -->
<g id="edge3" class="edge">
<title>Node3&#45;&gt;Node2</title>
<path fill="none" stroke="midnightblue" d="M72.34,-46.66C66.31,-37.26 59.08,-25.98 54.31,-18.55"/>
<polygon fill="midnightblue" stroke="midnightblue" points="69.49,-48.69 77.83,-55.22 75.38,-44.91 69.49,-48.69"/>
</g>
</g>
</svg>
