<?xml version="1.0" encoding="UTF-8" standalone="no"?>
<!DOCTYPE svg PUBLIC "-//W3C//DTD SVG 1.1//EN"
 "http://www.w3.org/Graphics/SVG/1.1/DTD/svg11.dtd">
<!-- Generated by graphviz version 2.40.1 (20161225.0304)
 -->
<!-- Title: ppht/point_set.hpp Pages: 1 -->
<svg width="180pt" height="137pt"
 viewBox="0.00 0.00 180.06 137.00" xmlns="http://www.w3.org/2000/svg" xmlns:xlink="http://www.w3.org/1999/xlink">
<g id="graph0" class="graph" transform="scale(1 1) rotate(0) translate(4 133)">
<title>ppht/point_set.hpp</title>
<polygon fill="#ffffff" stroke="transparent" points="-4,4 -4,-133 176.0615,-133 176.0615,4 -4,4"/>
<!-- Node0 -->
<g id="node1" class="node">
<title>Node0</title>
<polygon fill="#bfbfbf" stroke="#000000" points="71.2466,-110.5 71.2466,-128.5 169.5366,-128.5 169.5366,-110.5 71.2466,-110.5"/>
<text text-anchor="middle" x="120.3916" y="-116.5" font-family="Helvetica,sans-Serif" font-size="10.00" fill="#000000">ppht/point_set.hpp</text>
</g>
<!-- Node1 -->
<g id="node2" class="node">
<title>Node1</title>
<g id="a_node2"><a xlink:href="types_8hpp.html" target="_top" xlink:title="ppht/types.hpp">
<polygon fill="#ffffff" stroke="#000000" points="43.5889,-55.5 43.5889,-73.5 125.1943,-73.5 125.1943,-55.5 43.5889,-55.5"/>
<text text-anchor="middle" x="84.3916" y="-61.5" font-family="Helvetica,sans-Serif" font-size="10.00" fill="#000000">ppht/types.hpp</text>
</a>
</g>
</g>
<!-- Node0&#45;&gt;Node1 -->
<g id="edge1" class="edge">
<title>Node0&#45;&gt;Node1</title>
<path fill="none" stroke="#191970" d="M114.4469,-110.4179C109.4742,-102.8207 102.2297,-91.7527 96.0992,-82.3866"/>
<polygon fill="#191970" stroke="#191970" points="98.8705,-80.2297 90.4654,-73.7795 93.0136,-84.0633 98.8705,-80.2297"/>
</g>
<!-- Node5 -->
<g id="node6" class="node">
<title>Node5</title>
<polygon fill="#ffffff" stroke="#bfbfbf" points="142.7217,-55.5 142.7217,-73.5 172.0615,-73.5 172.0615,-55.5 142.7217,-55.5"/>
<text text-anchor="middle" x="157.3916" y="-61.5" font-family="Helvetica,sans-Serif" font-size="10.00" fill="#000000">set</text>
</g>
<!-- Node0&#45;&gt;Node5 -->
<g id="edge5" class="edge">
<title>Node0&#45;&gt;Node5</title>
<path fill="none" stroke="#191970" d="M126.5014,-110.4179C131.6655,-102.7415 139.2134,-91.5217 145.5553,-82.0945"/>
<polygon fill="#191970" stroke="#191970" points="148.4713,-84.0303 151.1491,-73.7795 142.6632,-80.1231 148.4713,-84.0303"/>
</g>
<!-- Node2 -->
<g id="node3" class="node">
<title>Node2</title>
<polygon fill="#ffffff" stroke="#bfbfbf" points="0,-.5 0,-18.5 38.7832,-18.5 38.7832,-.5 0,-.5"/>
<text text-anchor="middle" x="19.3916" y="-6.5" font-family="Helvetica,sans-Serif" font-size="10.00" fill="#000000">array</text>
</g>
<!-- Node1&#45;&gt;Node2 -->
<g id="edge2" class="edge">
<title>Node1&#45;&gt;Node2</title>
<path fill="none" stroke="#191970" d="M73.6582,-55.4179C64.025,-47.2667 49.6699,-35.1201 38.1434,-25.3669"/>
<polygon fill="#191970" stroke="#191970" points="40.2529,-22.5671 30.3582,-18.7795 35.7313,-27.9108 40.2529,-22.5671"/>
</g>
<!-- Node3 -->
<g id="node4" class="node">
<title>Node3</title>
<polygon fill="#ffffff" stroke="#bfbfbf" points="57.2192,-.5 57.2192,-18.5 111.564,-18.5 111.564,-.5 57.2192,-.5"/>
<text text-anchor="middle" x="84.3916" y="-6.5" font-family="Helvetica,sans-Serif" font-size="10.00" fill="#000000">iostream</text>
</g>
<!-- Node1&#45;&gt;Node3 -->
<g id="edge3" class="edge">
<title>Node1&#45;&gt;Node3</title>
<path fill="none" stroke="#191970" d="M84.3916,-55.4179C84.3916,-48.2164 84.3916,-37.8962 84.3916,-28.8632"/>
<polygon fill="#191970" stroke="#191970" points="87.8917,-28.7794 84.3916,-18.7795 80.8917,-28.7795 87.8917,-28.7794"/>
</g>
<!-- Node4 -->
<g id="node5" class="node">
<title>Node4</title>
<polygon fill="#ffffff" stroke="#bfbfbf" points="130,-.5 130,-18.5 168.7832,-18.5 168.7832,-.5 130,-.5"/>
<text text-anchor="middle" x="149.3916" y="-6.5" font-family="Helvetica,sans-Serif" font-size="10.00" fill="#000000">utility</text>
</g>
<!-- Node1&#45;&gt;Node4 -->
<g id="edge4" class="edge">
<title>Node1&#45;&gt;Node4</title>
<path fill="none" stroke="#191970" d="M95.125,-55.4179C104.7582,-47.2667 119.1133,-35.1201 130.6398,-25.3669"/>
<polygon fill="#191970" stroke="#191970" points="133.0519,-27.9108 138.425,-18.7795 128.5303,-22.5671 133.0519,-27.9108"/>
</g>
</g>
</svg>
