<?xml version="1.0" encoding="UTF-8" standalone="no"?>
<!DOCTYPE svg PUBLIC "-//W3C//DTD SVG 1.1//EN"
 "http://www.w3.org/Graphics/SVG/1.1/DTD/svg11.dtd">
<!-- Generated by graphviz version 2.40.1 (20161225.0304)
 -->
<!-- Title: ppht/point_set.hpp Pages: 1 -->
<svg width="238pt" height="137pt"
 viewBox="0.00 0.00 237.78 137.00" xmlns="http://www.w3.org/2000/svg" xmlns:xlink="http://www.w3.org/1999/xlink">
<g id="graph0" class="graph" transform="scale(1 1) rotate(0) translate(4 133)">
<title>ppht/point_set.hpp</title>
<polygon fill="#ffffff" stroke="transparent" points="-4,4 -4,-133 233.7832,-133 233.7832,4 -4,4"/>
<!-- Node0 -->
<g id="node1" class="node">
<title>Node0</title>
<polygon fill="#bfbfbf" stroke="#000000" points="98.2466,-110.5 98.2466,-128.5 196.5366,-128.5 196.5366,-110.5 98.2466,-110.5"/>
<text text-anchor="middle" x="147.3916" y="-116.5" font-family="Helvetica,sans-Serif" font-size="10.00" fill="#000000">ppht/point_set.hpp</text>
</g>
<!-- Node1 -->
<g id="node2" class="node">
<title>Node1</title>
<g id="a_node2"><a xlink:href="types_8hpp.html" target="_top" xlink:title="ppht/types.hpp">
<polygon fill="#ffffff" stroke="#000000" points="70.5889,-55.5 70.5889,-73.5 152.1943,-73.5 152.1943,-55.5 70.5889,-55.5"/>
<text text-anchor="middle" x="111.3916" y="-61.5" font-family="Helvetica,sans-Serif" font-size="10.00" fill="#000000">ppht/types.hpp</text>
</a>
</g>
</g>
<!-- Node0&#45;&gt;Node1 -->
<g id="edge1" class="edge">
<title>Node0&#45;&gt;Node1</title>
<path fill="none" stroke="#191970" d="M141.4469,-110.4179C136.4742,-102.8207 129.2297,-91.7527 123.0992,-82.3866"/>
<polygon fill="#191970" stroke="#191970" points="125.8705,-80.2297 117.4654,-73.7795 120.0136,-84.0633 125.8705,-80.2297"/>
</g>
<!-- Node6 -->
<g id="node7" class="node">
<title>Node6</title>
<polygon fill="#ffffff" stroke="#bfbfbf" points="169.7217,-55.5 169.7217,-73.5 199.0615,-73.5 199.0615,-55.5 169.7217,-55.5"/>
<text text-anchor="middle" x="184.3916" y="-61.5" font-family="Helvetica,sans-Serif" font-size="10.00" fill="#000000">set</text>
</g>
<!-- Node0&#45;&gt;Node6 -->
<g id="edge6" class="edge">
<title>Node0&#45;&gt;Node6</title>
<path fill="none" stroke="#191970" d="M153.5014,-110.4179C158.6655,-102.7415 166.2134,-91.5217 172.5553,-82.0945"/>
<polygon fill="#191970" stroke="#191970" points="175.4713,-84.0303 178.1491,-73.7795 169.6632,-80.1231 175.4713,-84.0303"/>
</g>
<!-- Node2 -->
<g id="node3" class="node">
<title>Node2</title>
<polygon fill="#ffffff" stroke="#bfbfbf" points="0,-.5 0,-18.5 38.7832,-18.5 38.7832,-.5 0,-.5"/>
<text text-anchor="middle" x="19.3916" y="-6.5" font-family="Helvetica,sans-Serif" font-size="10.00" fill="#000000">array</text>
</g>
<!-- Node1&#45;&gt;Node2 -->
<g id="edge2" class="edge">
<title>Node1&#45;&gt;Node2</title>
<path fill="none" stroke="#191970" d="M96.1997,-55.4179C81.817,-46.8195 59.9977,-33.7754 43.2855,-23.7844"/>
<polygon fill="#191970" stroke="#191970" points="44.9852,-20.7228 34.6061,-18.5956 41.3933,-26.731 44.9852,-20.7228"/>
</g>
<!-- Node3 -->
<g id="node4" class="node">
<title>Node3</title>
<polygon fill="#ffffff" stroke="#bfbfbf" points="56.7759,-.5 56.7759,-18.5 100.0073,-18.5 100.0073,-.5 56.7759,-.5"/>
<text text-anchor="middle" x="78.3916" y="-6.5" font-family="Helvetica,sans-Serif" font-size="10.00" fill="#000000">cmath</text>
</g>
<!-- Node1&#45;&gt;Node3 -->
<g id="edge3" class="edge">
<title>Node1&#45;&gt;Node3</title>
<path fill="none" stroke="#191970" d="M105.9423,-55.4179C101.384,-47.8207 94.7432,-36.7527 89.1236,-27.3866"/>
<polygon fill="#191970" stroke="#191970" points="92.1055,-25.5536 83.9593,-18.7795 86.1031,-29.1552 92.1055,-25.5536"/>
</g>
<!-- Node4 -->
<g id="node5" class="node">
<title>Node4</title>
<polygon fill="#ffffff" stroke="#bfbfbf" points="118.2192,-.5 118.2192,-18.5 172.564,-18.5 172.564,-.5 118.2192,-.5"/>
<text text-anchor="middle" x="145.3916" y="-6.5" font-family="Helvetica,sans-Serif" font-size="10.00" fill="#000000">iostream</text>
</g>
<!-- Node1&#45;&gt;Node4 -->
<g id="edge4" class="edge">
<title>Node1&#45;&gt;Node4</title>
<path fill="none" stroke="#191970" d="M117.006,-55.4179C121.7025,-47.8207 128.5445,-36.7527 134.3344,-27.3866"/>
<polygon fill="#191970" stroke="#191970" points="137.374,-29.1258 139.6552,-18.7795 131.4199,-25.445 137.374,-29.1258"/>
</g>
<!-- Node5 -->
<g id="node6" class="node">
<title>Node5</title>
<polygon fill="#ffffff" stroke="#bfbfbf" points="191,-.5 191,-18.5 229.7832,-18.5 229.7832,-.5 191,-.5"/>
<text text-anchor="middle" x="210.3916" y="-6.5" font-family="Helvetica,sans-Serif" font-size="10.00" fill="#000000">utility</text>
</g>
<!-- Node1&#45;&gt;Node5 -->
<g id="edge5" class="edge">
<title>Node1&#45;&gt;Node5</title>
<path fill="none" stroke="#191970" d="M127.7394,-55.4179C143.3597,-46.7399 167.1314,-33.5334 185.1778,-23.5077"/>
<polygon fill="#191970" stroke="#191970" points="186.9777,-26.5117 194.0195,-18.5956 183.5781,-20.3925 186.9777,-26.5117"/>
</g>
</g>
</svg>
