<?xml version="1.0" encoding="UTF-8" standalone="no"?>
<!DOCTYPE svg PUBLIC "-//W3C//DTD SVG 1.1//EN"
 "http://www.w3.org/Graphics/SVG/1.1/DTD/svg11.dtd">
<!-- Generated by graphviz version 2.40.1 (20161225.0304)
 -->
<!-- Title: ppht/postprocess.hpp Pages: 1 -->
<svg width="359pt" height="192pt"
 viewBox="0.00 0.00 359.01 192.00" xmlns="http://www.w3.org/2000/svg" xmlns:xlink="http://www.w3.org/1999/xlink">
<g id="graph0" class="graph" transform="scale(1 1) rotate(0) translate(4 188)">
<title>ppht/postprocess.hpp</title>
<polygon fill="#ffffff" stroke="transparent" points="-4,4 -4,-188 355.0073,-188 355.0073,4 -4,4"/>
<!-- Node0 -->
<g id="node1" class="node">
<title>Node0</title>
<polygon fill="#bfbfbf" stroke="#000000" points="147.5815,-165.5 147.5815,-183.5 259.2017,-183.5 259.2017,-165.5 147.5815,-165.5"/>
<text text-anchor="middle" x="203.3916" y="-171.5" font-family="Helvetica,sans-Serif" font-size="10.00" fill="#000000">ppht/postprocess.hpp</text>
</g>
<!-- Node1 -->
<g id="node2" class="node">
<title>Node1</title>
<g id="a_node2"><a xlink:href="kd-search_8hpp.html" target="_top" xlink:title="ppht/kd&#45;search.hpp">
<polygon fill="#ffffff" stroke="#000000" points="21.5864,-110.5 21.5864,-128.5 123.1968,-128.5 123.1968,-110.5 21.5864,-110.5"/>
<text text-anchor="middle" x="72.3916" y="-116.5" font-family="Helvetica,sans-Serif" font-size="10.00" fill="#000000">ppht/kd&#45;search.hpp</text>
</a>
</g>
</g>
<!-- Node0&#45;&gt;Node1 -->
<g id="edge1" class="edge">
<title>Node0&#45;&gt;Node1</title>
<path fill="none" stroke="#191970" d="M181.7596,-165.4179C160.4266,-156.4613 127.6037,-142.6806 103.4791,-132.552"/>
<polygon fill="#191970" stroke="#191970" points="104.631,-129.2397 94.0557,-128.5956 101.9211,-135.6939 104.631,-129.2397"/>
</g>
<!-- Node2 -->
<g id="node3" class="node">
<title>Node2</title>
<g id="a_node3"><a xlink:href="types_8hpp.html" target="_top" xlink:title="ppht/types.hpp">
<polygon fill="#ffffff" stroke="#000000" points="70.5889,-55.5 70.5889,-73.5 152.1943,-73.5 152.1943,-55.5 70.5889,-55.5"/>
<text text-anchor="middle" x="111.3916" y="-61.5" font-family="Helvetica,sans-Serif" font-size="10.00" fill="#000000">ppht/types.hpp</text>
</a>
</g>
</g>
<!-- Node0&#45;&gt;Node2 -->
<g id="edge7" class="edge">
<title>Node0&#45;&gt;Node2</title>
<path fill="none" stroke="#191970" d="M195.8629,-165.4982C180.4981,-147.1273 145.3161,-105.0619 125.5457,-81.4233"/>
<polygon fill="#191970" stroke="#191970" points="128.1247,-79.0515 119.0244,-73.6261 122.7552,-83.5424 128.1247,-79.0515"/>
</g>
<!-- Node7 -->
<g id="node8" class="node">
<title>Node7</title>
<polygon fill="#ffffff" stroke="#bfbfbf" points="179.2759,-110.5 179.2759,-128.5 227.5073,-128.5 227.5073,-110.5 179.2759,-110.5"/>
<text text-anchor="middle" x="203.3916" y="-116.5" font-family="Helvetica,sans-Serif" font-size="10.00" fill="#000000">cassert</text>
</g>
<!-- Node0&#45;&gt;Node7 -->
<g id="edge8" class="edge">
<title>Node0&#45;&gt;Node7</title>
<path fill="none" stroke="#191970" d="M203.3916,-165.4179C203.3916,-158.2164 203.3916,-147.8962 203.3916,-138.8632"/>
<polygon fill="#191970" stroke="#191970" points="206.8917,-138.7794 203.3916,-128.7795 199.8917,-138.7795 206.8917,-138.7794"/>
</g>
<!-- Node8 -->
<g id="node9" class="node">
<title>Node8</title>
<polygon fill="#ffffff" stroke="#bfbfbf" points="245.4878,-110.5 245.4878,-128.5 289.2954,-128.5 289.2954,-110.5 245.4878,-110.5"/>
<text text-anchor="middle" x="267.3916" y="-116.5" font-family="Helvetica,sans-Serif" font-size="10.00" fill="#000000">queue</text>
</g>
<!-- Node0&#45;&gt;Node8 -->
<g id="edge9" class="edge">
<title>Node0&#45;&gt;Node8</title>
<path fill="none" stroke="#191970" d="M213.9599,-165.4179C223.4449,-157.2667 237.5791,-145.1201 248.9283,-135.3669"/>
<polygon fill="#191970" stroke="#191970" points="251.2907,-137.9516 256.5937,-128.7795 246.7283,-132.6427 251.2907,-137.9516"/>
</g>
<!-- Node9 -->
<g id="node10" class="node">
<title>Node9</title>
<polygon fill="#ffffff" stroke="#bfbfbf" points="307.7759,-110.5 307.7759,-128.5 351.0073,-128.5 351.0073,-110.5 307.7759,-110.5"/>
<text text-anchor="middle" x="329.3916" y="-116.5" font-family="Helvetica,sans-Serif" font-size="10.00" fill="#000000">vector</text>
</g>
<!-- Node0&#45;&gt;Node9 -->
<g id="edge10" class="edge">
<title>Node0&#45;&gt;Node9</title>
<path fill="none" stroke="#191970" d="M224.1979,-165.4179C244.6255,-156.5011 276.0064,-142.803 299.1808,-132.6873"/>
<polygon fill="#191970" stroke="#191970" points="300.7897,-135.804 308.5544,-128.5956 297.9892,-129.3885 300.7897,-135.804"/>
</g>
<!-- Node1&#45;&gt;Node2 -->
<g id="edge2" class="edge">
<title>Node1&#45;&gt;Node2</title>
<path fill="none" stroke="#191970" d="M78.8317,-110.4179C84.2749,-102.7415 92.2308,-91.5217 98.9155,-82.0945"/>
<polygon fill="#191970" stroke="#191970" points="101.8824,-83.9613 104.8116,-73.7795 96.1722,-79.9123 101.8824,-83.9613"/>
</g>
<!-- Node3 -->
<g id="node4" class="node">
<title>Node3</title>
<polygon fill="#ffffff" stroke="#bfbfbf" points="0,-.5 0,-18.5 38.7832,-18.5 38.7832,-.5 0,-.5"/>
<text text-anchor="middle" x="19.3916" y="-6.5" font-family="Helvetica,sans-Serif" font-size="10.00" fill="#000000">array</text>
</g>
<!-- Node2&#45;&gt;Node3 -->
<g id="edge3" class="edge">
<title>Node2&#45;&gt;Node3</title>
<path fill="none" stroke="#191970" d="M96.1997,-55.4179C81.817,-46.8195 59.9977,-33.7754 43.2855,-23.7844"/>
<polygon fill="#191970" stroke="#191970" points="44.9852,-20.7228 34.6061,-18.5956 41.3933,-26.731 44.9852,-20.7228"/>
</g>
<!-- Node4 -->
<g id="node5" class="node">
<title>Node4</title>
<polygon fill="#ffffff" stroke="#bfbfbf" points="56.7759,-.5 56.7759,-18.5 100.0073,-18.5 100.0073,-.5 56.7759,-.5"/>
<text text-anchor="middle" x="78.3916" y="-6.5" font-family="Helvetica,sans-Serif" font-size="10.00" fill="#000000">cmath</text>
</g>
<!-- Node2&#45;&gt;Node4 -->
<g id="edge4" class="edge">
<title>Node2&#45;&gt;Node4</title>
<path fill="none" stroke="#191970" d="M105.9423,-55.4179C101.384,-47.8207 94.7432,-36.7527 89.1236,-27.3866"/>
<polygon fill="#191970" stroke="#191970" points="92.1055,-25.5536 83.9593,-18.7795 86.1031,-29.1552 92.1055,-25.5536"/>
</g>
<!-- Node5 -->
<g id="node6" class="node">
<title>Node5</title>
<polygon fill="#ffffff" stroke="#bfbfbf" points="118.2192,-.5 118.2192,-18.5 172.564,-18.5 172.564,-.5 118.2192,-.5"/>
<text text-anchor="middle" x="145.3916" y="-6.5" font-family="Helvetica,sans-Serif" font-size="10.00" fill="#000000">iostream</text>
</g>
<!-- Node2&#45;&gt;Node5 -->
<g id="edge5" class="edge">
<title>Node2&#45;&gt;Node5</title>
<path fill="none" stroke="#191970" d="M117.006,-55.4179C121.7025,-47.8207 128.5445,-36.7527 134.3344,-27.3866"/>
<polygon fill="#191970" stroke="#191970" points="137.374,-29.1258 139.6552,-18.7795 131.4199,-25.445 137.374,-29.1258"/>
</g>
<!-- Node6 -->
<g id="node7" class="node">
<title>Node6</title>
<polygon fill="#ffffff" stroke="#bfbfbf" points="191,-.5 191,-18.5 229.7832,-18.5 229.7832,-.5 191,-.5"/>
<text text-anchor="middle" x="210.3916" y="-6.5" font-family="Helvetica,sans-Serif" font-size="10.00" fill="#000000">utility</text>
</g>
<!-- Node2&#45;&gt;Node6 -->
<g id="edge6" class="edge">
<title>Node2&#45;&gt;Node6</title>
<path fill="none" stroke="#191970" d="M127.7394,-55.4179C143.3597,-46.7399 167.1314,-33.5334 185.1778,-23.5077"/>
<polygon fill="#191970" stroke="#191970" points="186.9777,-26.5117 194.0195,-18.5956 183.5781,-20.3925 186.9777,-26.5117"/>
</g>
</g>
</svg>
