<?xml version="1.0" encoding="UTF-8" standalone="no"?>
<!DOCTYPE svg PUBLIC "-//W3C//DTD SVG 1.1//EN"
 "http://www.w3.org/Graphics/SVG/1.1/DTD/svg11.dtd">
<!-- Generated by graphviz version 2.48.0 (20210717.1556)
 -->
<!-- Title: ppht/postprocess.hpp Pages: 1 -->
<svg width="439pt" height="192pt"
 viewBox="0.00 0.00 439.01 192.00" xmlns="http://www.w3.org/2000/svg" xmlns:xlink="http://www.w3.org/1999/xlink">
<g id="graph0" class="graph" transform="scale(1 1) rotate(0) translate(4 188)">
<title>ppht/postprocess.hpp</title>
<polygon fill="white" stroke="transparent" points="-4,4 -4,-188 435.01,-188 435.01,4 -4,4"/>
<!-- Node1 -->
<g id="node1" class="node">
<title>Node1</title>
<g id="a_node1"><a xlink:title=" ">
<polygon fill="#bfbfbf" stroke="black" points="227.58,-165.5 227.58,-183.5 339.2,-183.5 339.2,-165.5 227.58,-165.5"/>
<text text-anchor="middle" x="283.39" y="-171.5" font-family="Helvetica,sans-Serif" font-size="10.00">ppht/postprocess.hpp</text>
</a>
</g>
</g>
<!-- Node2 -->
<g id="node2" class="node">
<title>Node2</title>
<g id="a_node2"><a xlink:href="kd-search_8hpp.html" target="_top" xlink:title=" ">
<polygon fill="white" stroke="black" points="139.59,-110.5 139.59,-128.5 241.2,-128.5 241.2,-110.5 139.59,-110.5"/>
<text text-anchor="middle" x="190.39" y="-116.5" font-family="Helvetica,sans-Serif" font-size="10.00">ppht/kd&#45;search.hpp</text>
</a>
</g>
</g>
<!-- Node1&#45;&gt;Node2 -->
<g id="edge1" class="edge">
<title>Node1&#45;&gt;Node2</title>
<path fill="none" stroke="midnightblue" d="M269.27,-165.45C254.52,-157.05 231.14,-143.72 213.66,-133.76"/>
<polygon fill="midnightblue" stroke="midnightblue" points="215.07,-130.54 204.65,-128.63 211.6,-136.62 215.07,-130.54"/>
</g>
<!-- Node3 -->
<g id="node3" class="node">
<title>Node3</title>
<g id="a_node3"><a xlink:href="types_8hpp.html" target="_top" xlink:title=" ">
<polygon fill="white" stroke="black" points="70.59,-55.5 70.59,-73.5 152.19,-73.5 152.19,-55.5 70.59,-55.5"/>
<text text-anchor="middle" x="111.39" y="-61.5" font-family="Helvetica,sans-Serif" font-size="10.00">ppht/types.hpp</text>
</a>
</g>
</g>
<!-- Node1&#45;&gt;Node3 -->
<g id="edge8" class="edge">
<title>Node1&#45;&gt;Node3</title>
<path fill="none" stroke="midnightblue" d="M227.24,-170.18C194.97,-165.41 155.92,-154.33 130.39,-129 118.4,-117.1 113.92,-97.98 112.27,-83.82"/>
<polygon fill="midnightblue" stroke="midnightblue" points="115.75,-83.46 111.47,-73.77 108.77,-84.01 115.75,-83.46"/>
</g>
<!-- Node9 -->
<g id="node9" class="node">
<title>Node9</title>
<g id="a_node9"><a xlink:title=" ">
<polygon fill="white" stroke="#bfbfbf" points="259.28,-110.5 259.28,-128.5 307.51,-128.5 307.51,-110.5 259.28,-110.5"/>
<text text-anchor="middle" x="283.39" y="-116.5" font-family="Helvetica,sans-Serif" font-size="10.00">cassert</text>
</a>
</g>
</g>
<!-- Node1&#45;&gt;Node9 -->
<g id="edge9" class="edge">
<title>Node1&#45;&gt;Node9</title>
<path fill="none" stroke="midnightblue" d="M283.39,-165.22C283.39,-158.18 283.39,-147.81 283.39,-138.83"/>
<polygon fill="midnightblue" stroke="midnightblue" points="286.89,-138.55 283.39,-128.55 279.89,-138.55 286.89,-138.55"/>
</g>
<!-- Node10 -->
<g id="node10" class="node">
<title>Node10</title>
<g id="a_node10"><a xlink:title=" ">
<polygon fill="white" stroke="#bfbfbf" points="325.49,-110.5 325.49,-128.5 369.3,-128.5 369.3,-110.5 325.49,-110.5"/>
<text text-anchor="middle" x="347.39" y="-116.5" font-family="Helvetica,sans-Serif" font-size="10.00">queue</text>
</a>
</g>
</g>
<!-- Node1&#45;&gt;Node10 -->
<g id="edge10" class="edge">
<title>Node1&#45;&gt;Node10</title>
<path fill="none" stroke="midnightblue" d="M293.11,-165.45C302.79,-157.43 317.87,-144.95 329.68,-135.17"/>
<polygon fill="midnightblue" stroke="midnightblue" points="332.11,-137.7 337.58,-128.63 327.65,-132.31 332.11,-137.7"/>
</g>
<!-- Node11 -->
<g id="node11" class="node">
<title>Node11</title>
<g id="a_node11"><a xlink:title=" ">
<polygon fill="white" stroke="#bfbfbf" points="387.78,-110.5 387.78,-128.5 431.01,-128.5 431.01,-110.5 387.78,-110.5"/>
<text text-anchor="middle" x="409.39" y="-116.5" font-family="Helvetica,sans-Serif" font-size="10.00">vector</text>
</a>
</g>
</g>
<!-- Node1&#45;&gt;Node11 -->
<g id="edge11" class="edge">
<title>Node1&#45;&gt;Node11</title>
<path fill="none" stroke="midnightblue" d="M302.53,-165.45C323.34,-156.7 356.84,-142.61 380.78,-132.53"/>
<polygon fill="midnightblue" stroke="midnightblue" points="382.21,-135.73 390.07,-128.63 379.5,-129.28 382.21,-135.73"/>
</g>
<!-- Node2&#45;&gt;Node3 -->
<g id="edge2" class="edge">
<title>Node2&#45;&gt;Node3</title>
<path fill="none" stroke="midnightblue" d="M178.39,-110.45C166.1,-102.2 146.74,-89.22 131.99,-79.32"/>
<polygon fill="midnightblue" stroke="midnightblue" points="133.76,-76.29 123.5,-73.63 129.86,-82.1 133.76,-76.29"/>
</g>
<!-- Node8 -->
<g id="node8" class="node">
<title>Node8</title>
<g id="a_node8"><a xlink:title=" ">
<polygon fill="white" stroke="#bfbfbf" points="169.83,-55.5 169.83,-73.5 226.96,-73.5 226.96,-55.5 169.83,-55.5"/>
<text text-anchor="middle" x="198.39" y="-61.5" font-family="Helvetica,sans-Serif" font-size="10.00">algorithm</text>
</a>
</g>
</g>
<!-- Node2&#45;&gt;Node8 -->
<g id="edge7" class="edge">
<title>Node2&#45;&gt;Node8</title>
<path fill="none" stroke="midnightblue" d="M191.64,-110.22C192.72,-103.1 194.3,-92.58 195.67,-83.53"/>
<polygon fill="midnightblue" stroke="midnightblue" points="199.14,-83.96 197.18,-73.55 192.22,-82.92 199.14,-83.96"/>
</g>
<!-- Node4 -->
<g id="node4" class="node">
<title>Node4</title>
<g id="a_node4"><a xlink:title=" ">
<polygon fill="white" stroke="#bfbfbf" points="0,-0.5 0,-18.5 38.78,-18.5 38.78,-0.5 0,-0.5"/>
<text text-anchor="middle" x="19.39" y="-6.5" font-family="Helvetica,sans-Serif" font-size="10.00">array</text>
</a>
</g>
</g>
<!-- Node3&#45;&gt;Node4 -->
<g id="edge3" class="edge">
<title>Node3&#45;&gt;Node4</title>
<path fill="none" stroke="midnightblue" d="M97.42,-55.45C82.83,-47.05 59.71,-33.72 42.41,-23.76"/>
<polygon fill="midnightblue" stroke="midnightblue" points="43.91,-20.58 33.5,-18.63 40.41,-26.65 43.91,-20.58"/>
</g>
<!-- Node5 -->
<g id="node5" class="node">
<title>Node5</title>
<g id="a_node5"><a xlink:title=" ">
<polygon fill="white" stroke="#bfbfbf" points="56.78,-0.5 56.78,-18.5 100.01,-18.5 100.01,-0.5 56.78,-0.5"/>
<text text-anchor="middle" x="78.39" y="-6.5" font-family="Helvetica,sans-Serif" font-size="10.00">cmath</text>
</a>
</g>
</g>
<!-- Node3&#45;&gt;Node5 -->
<g id="edge4" class="edge">
<title>Node3&#45;&gt;Node5</title>
<path fill="none" stroke="midnightblue" d="M106.24,-55.22C101.56,-47.71 94.52,-36.41 88.7,-27.05"/>
<polygon fill="midnightblue" stroke="midnightblue" points="91.66,-25.19 83.4,-18.55 85.72,-28.89 91.66,-25.19"/>
</g>
<!-- Node6 -->
<g id="node6" class="node">
<title>Node6</title>
<g id="a_node6"><a xlink:title=" ">
<polygon fill="white" stroke="#bfbfbf" points="118.22,-0.5 118.22,-18.5 172.56,-18.5 172.56,-0.5 118.22,-0.5"/>
<text text-anchor="middle" x="145.39" y="-6.5" font-family="Helvetica,sans-Serif" font-size="10.00">iostream</text>
</a>
</g>
</g>
<!-- Node3&#45;&gt;Node6 -->
<g id="edge5" class="edge">
<title>Node3&#45;&gt;Node6</title>
<path fill="none" stroke="midnightblue" d="M116.7,-55.22C121.52,-47.71 128.77,-36.41 134.77,-27.05"/>
<polygon fill="midnightblue" stroke="midnightblue" points="137.77,-28.86 140.23,-18.55 131.88,-25.08 137.77,-28.86"/>
</g>
<!-- Node7 -->
<g id="node7" class="node">
<title>Node7</title>
<g id="a_node7"><a xlink:title=" ">
<polygon fill="white" stroke="#bfbfbf" points="191,-0.5 191,-18.5 229.78,-18.5 229.78,-0.5 191,-0.5"/>
<text text-anchor="middle" x="210.39" y="-6.5" font-family="Helvetica,sans-Serif" font-size="10.00">utility</text>
</a>
</g>
</g>
<!-- Node3&#45;&gt;Node7 -->
<g id="edge6" class="edge">
<title>Node3&#45;&gt;Node7</title>
<path fill="none" stroke="midnightblue" d="M126.43,-55.45C142.35,-46.93 167.7,-33.35 186.39,-23.35"/>
<polygon fill="midnightblue" stroke="midnightblue" points="188.05,-26.43 195.21,-18.63 184.75,-20.26 188.05,-26.43"/>
</g>
</g>
</svg>
