<?xml version="1.0" encoding="UTF-8" standalone="no"?>
<!DOCTYPE svg PUBLIC "-//W3C//DTD SVG 1.1//EN"
 "http://www.w3.org/Graphics/SVG/1.1/DTD/svg11.dtd">
<!-- Generated by graphviz version 2.40.1 (20161225.0304)
 -->
<!-- Title: ppht.hpp Pages: 1 -->
<svg width="1483pt" height="247pt"
 viewBox="0.00 0.00 1483.08 247.00" xmlns="http://www.w3.org/2000/svg" xmlns:xlink="http://www.w3.org/1999/xlink">
<g id="graph0" class="graph" transform="scale(1 1) rotate(0) translate(4 243)">
<title>ppht.hpp</title>
<polygon fill="#ffffff" stroke="transparent" points="-4,4 -4,-243 1479.0849,-243 1479.0849,4 -4,4"/>
<!-- Node0 -->
<g id="node1" class="node">
<title>Node0</title>
<polygon fill="#bfbfbf" stroke="#000000" points="497.4819,-220.5 497.4819,-238.5 552.4077,-238.5 552.4077,-220.5 497.4819,-220.5"/>
<text text-anchor="middle" x="524.9448" y="-226.5" font-family="Helvetica,sans-Serif" font-size="10.00" fill="#000000">ppht.hpp</text>
</g>
<!-- Node1 -->
<g id="node2" class="node">
<title>Node1</title>
<g id="a_node2"><a xlink:href="raster_8hpp.html" target="_top" xlink:title="ppht/raster.hpp">
<polygon fill="#ffffff" stroke="#000000" points="483.5854,-110.5 483.5854,-128.5 566.3042,-128.5 566.3042,-110.5 483.5854,-110.5"/>
<text text-anchor="middle" x="524.9448" y="-116.5" font-family="Helvetica,sans-Serif" font-size="10.00" fill="#000000">ppht/raster.hpp</text>
</a>
</g>
</g>
<!-- Node0&#45;&gt;Node1 -->
<g id="edge1" class="edge">
<title>Node0&#45;&gt;Node1</title>
<path fill="none" stroke="#191970" d="M524.9448,-220.4982C524.9448,-202.6913 524.9448,-162.6225 524.9448,-138.6515"/>
<polygon fill="#191970" stroke="#191970" points="528.4449,-138.6261 524.9448,-128.6261 521.4449,-138.6262 528.4449,-138.6261"/>
</g>
<!-- Node3 -->
<g id="node4" class="node">
<title>Node3</title>
<g id="a_node4"><a xlink:href="accumulator_8hpp.html" target="_top" xlink:title="ppht/accumulator.hpp">
<polygon fill="#ffffff" stroke="#000000" points="832.1323,-165.5 832.1323,-183.5 943.7573,-183.5 943.7573,-165.5 832.1323,-165.5"/>
<text text-anchor="middle" x="887.9448" y="-171.5" font-family="Helvetica,sans-Serif" font-size="10.00" fill="#000000">ppht/accumulator.hpp</text>
</a>
</g>
</g>
<!-- Node0&#45;&gt;Node3 -->
<g id="edge3" class="edge">
<title>Node0&#45;&gt;Node3</title>
<path fill="none" stroke="#191970" d="M552.5267,-225.3209C609.4878,-216.6905 741.5018,-196.6883 821.8812,-184.5096"/>
<polygon fill="#191970" stroke="#191970" points="822.5386,-187.9501 831.9014,-182.9914 821.4899,-181.0291 822.5386,-187.9501"/>
</g>
<!-- Node4 -->
<g id="node5" class="node">
<title>Node4</title>
<g id="a_node5"><a xlink:href="parameters_8hpp.html" target="_top" xlink:title="ppht/parameters.hpp">
<polygon fill="#ffffff" stroke="#000000" points="1366.8047,-110.5 1366.8047,-128.5 1475.0849,-128.5 1475.0849,-110.5 1366.8047,-110.5"/>
<text text-anchor="middle" x="1420.9448" y="-116.5" font-family="Helvetica,sans-Serif" font-size="10.00" fill="#000000">ppht/parameters.hpp</text>
</a>
</g>
</g>
<!-- Node0&#45;&gt;Node4 -->
<g id="edge34" class="edge">
<title>Node0&#45;&gt;Node4</title>
<path fill="none" stroke="#191970" d="M552.5183,-226.8682C620.5806,-220.3067 802.0007,-202.4204 952.9448,-184 1097.3835,-166.3735 1266.3932,-142.2003 1356.5474,-129.0199"/>
<polygon fill="#191970" stroke="#191970" points="1357.2262,-132.4579 1366.6136,-127.546 1356.212,-125.5318 1357.2262,-132.4579"/>
</g>
<!-- Node24 -->
<g id="node25" class="node">
<title>Node24</title>
<g id="a_node25"><a xlink:href="point__set_8hpp.html" target="_top" xlink:title="ppht/point_set.hpp">
<polygon fill="#ffffff" stroke="#000000" points="13.7998,-110.5 13.7998,-128.5 112.0898,-128.5 112.0898,-110.5 13.7998,-110.5"/>
<text text-anchor="middle" x="62.9448" y="-116.5" font-family="Helvetica,sans-Serif" font-size="10.00" fill="#000000">ppht/point_set.hpp</text>
</a>
</g>
</g>
<!-- Node0&#45;&gt;Node24 -->
<g id="edge35" class="edge">
<title>Node0&#45;&gt;Node24</title>
<path fill="none" stroke="#191970" d="M497.2097,-225.4442C451.1432,-218.4776 356.087,-203.124 276.9448,-184 213.5674,-168.6854 141.1931,-145.6872 98.9363,-131.6896"/>
<polygon fill="#191970" stroke="#191970" points="99.9677,-128.3442 89.3741,-128.5053 97.7559,-134.9856 99.9677,-128.3442"/>
</g>
<!-- Node25 -->
<g id="node26" class="node">
<title>Node25</title>
<g id="a_node26"><a xlink:href="state_8hpp.html" target="_top" xlink:title="ppht/state.hpp">
<polygon fill="#ffffff" stroke="#000000" points="286.2529,-165.5 286.2529,-183.5 365.6367,-183.5 365.6367,-165.5 286.2529,-165.5"/>
<text text-anchor="middle" x="325.9448" y="-171.5" font-family="Helvetica,sans-Serif" font-size="10.00" fill="#000000">ppht/state.hpp</text>
</a>
</g>
</g>
<!-- Node0&#45;&gt;Node25 -->
<g id="edge38" class="edge">
<title>Node0&#45;&gt;Node25</title>
<path fill="none" stroke="#191970" d="M497.2747,-221.8525C463.9425,-212.6401 407.5823,-197.0631 368.6555,-186.3045"/>
<polygon fill="#191970" stroke="#191970" points="369.2373,-182.8341 358.6663,-183.5436 367.3725,-189.5812 369.2373,-182.8341"/>
</g>
<!-- Node2 -->
<g id="node3" class="node">
<title>Node2</title>
<polygon fill="#ffffff" stroke="#bfbfbf" points="824.8882,-55.5 824.8882,-73.5 877.0014,-73.5 877.0014,-55.5 824.8882,-55.5"/>
<text text-anchor="middle" x="850.9448" y="-61.5" font-family="Helvetica,sans-Serif" font-size="10.00" fill="#000000">memory</text>
</g>
<!-- Node1&#45;&gt;Node2 -->
<g id="edge2" class="edge">
<title>Node1&#45;&gt;Node2</title>
<path fill="none" stroke="#191970" d="M566.4018,-111.5426C569.2915,-111.0127 572.1608,-110.4939 574.9448,-110 660.791,-94.7709 761.9708,-78.5244 814.7572,-70.1774"/>
<polygon fill="#191970" stroke="#191970" points="815.3183,-73.6323 824.6503,-68.616 814.2269,-66.7179 815.3183,-73.6323"/>
</g>
<!-- Node3&#45;&gt;Node1 -->
<g id="edge6" class="edge">
<title>Node3&#45;&gt;Node1</title>
<path fill="none" stroke="#191970" d="M831.855,-167.0935C771.2745,-158.9264 671.6717,-145.0138 576.4792,-129.2038"/>
<polygon fill="#191970" stroke="#191970" points="576.8314,-125.7142 566.3913,-127.5183 575.6778,-132.6185 576.8314,-125.7142"/>
</g>
<!-- Node3&#45;&gt;Node2 -->
<g id="edge26" class="edge">
<title>Node3&#45;&gt;Node2</title>
<path fill="none" stroke="#191970" d="M892.3559,-165.3577C897.9058,-152.5004 905.8145,-128.5719 897.9448,-110 892.8726,-98.0302 882.9394,-87.6676 873.5064,-79.8683"/>
<polygon fill="#191970" stroke="#191970" points="875.5415,-77.0181 865.4803,-73.6981 871.2752,-82.5677 875.5415,-77.0181"/>
</g>
<!-- Node3&#45;&gt;Node4 -->
<g id="edge4" class="edge">
<title>Node3&#45;&gt;Node4</title>
<path fill="none" stroke="#191970" d="M943.8556,-169.7799C1031.2623,-162.2315 1205.5401,-146.5008 1352.9448,-129 1354.2099,-128.8498 1355.4879,-128.6956 1356.7754,-128.5379"/>
<polygon fill="#191970" stroke="#191970" points="1357.2987,-131.9997 1366.7803,-127.2724 1356.4201,-125.0551 1357.2987,-131.9997"/>
</g>
<!-- Node5 -->
<g id="node6" class="node">
<title>Node5</title>
<polygon fill="#ffffff" stroke="#bfbfbf" points="1316.4941,-55.5 1316.4941,-73.5 1361.3955,-73.5 1361.3955,-55.5 1316.4941,-55.5"/>
<text text-anchor="middle" x="1338.9448" y="-61.5" font-family="Helvetica,sans-Serif" font-size="10.00" fill="#000000">cstdint</text>
</g>
<!-- Node3&#45;&gt;Node5 -->
<g id="edge23" class="edge">
<title>Node3&#45;&gt;Node5</title>
<path fill="none" stroke="#191970" d="M944.1788,-172.0306C1054.6198,-166.687 1291.6264,-152.5935 1319.9448,-129 1333.0952,-118.0437 1337.4146,-98.4789 1338.7051,-83.7609"/>
<polygon fill="#191970" stroke="#191970" points="1342.2056,-83.8323 1339.1975,-73.6735 1335.214,-83.4909 1342.2056,-83.8323"/>
</g>
<!-- Node6 -->
<g id="node7" class="node">
<title>Node6</title>
<g id="a_node7"><a xlink:href="trig_8hpp.html" target="_top" xlink:title="ppht/trig.hpp">
<polygon fill="#ffffff" stroke="#000000" points="1097.1469,-110.5 1097.1469,-128.5 1168.7426,-128.5 1168.7426,-110.5 1097.1469,-110.5"/>
<text text-anchor="middle" x="1132.9448" y="-116.5" font-family="Helvetica,sans-Serif" font-size="10.00" fill="#000000">ppht/trig.hpp</text>
</a>
</g>
</g>
<!-- Node3&#45;&gt;Node6 -->
<g id="edge7" class="edge">
<title>Node3&#45;&gt;Node6</title>
<path fill="none" stroke="#191970" d="M928.1272,-165.4795C971.7953,-155.6764 1041.4382,-140.0423 1087.1811,-129.7735"/>
<polygon fill="#191970" stroke="#191970" points="1088.1376,-133.146 1097.1281,-127.5405 1086.6043,-126.3159 1088.1376,-133.146"/>
</g>
<!-- Node7 -->
<g id="node8" class="node">
<title>Node7</title>
<g id="a_node8"><a xlink:href="types_8hpp.html" target="_top" xlink:title="ppht/types.hpp">
<polygon fill="#ffffff" stroke="#000000" points="348.1421,-55.5 348.1421,-73.5 429.7475,-73.5 429.7475,-55.5 348.1421,-55.5"/>
<text text-anchor="middle" x="388.9448" y="-61.5" font-family="Helvetica,sans-Serif" font-size="10.00" fill="#000000">ppht/types.hpp</text>
</a>
</g>
</g>
<!-- Node3&#45;&gt;Node7 -->
<g id="edge18" class="edge">
<title>Node3&#45;&gt;Node7</title>
<path fill="none" stroke="#191970" d="M850.386,-165.4816C817.4528,-157.1975 768.4823,-143.9624 726.9448,-129 707.2876,-121.9192 703.9983,-115.8653 683.9448,-110 600.4273,-85.5724 499.5511,-73.6143 440.0213,-68.2773"/>
<polygon fill="#191970" stroke="#191970" points="440.0237,-64.7644 429.7584,-67.3863 439.4182,-71.7382 440.0237,-64.7644"/>
</g>
<!-- Node10 -->
<g id="node11" class="node">
<title>Node10</title>
<polygon fill="#ffffff" stroke="#bfbfbf" points="1164.5532,-.5 1164.5532,-18.5 1203.3364,-18.5 1203.3364,-.5 1164.5532,-.5"/>
<text text-anchor="middle" x="1183.9448" y="-6.5" font-family="Helvetica,sans-Serif" font-size="10.00" fill="#000000">utility</text>
</g>
<!-- Node3&#45;&gt;Node10 -->
<g id="edge32" class="edge">
<title>Node3&#45;&gt;Node10</title>
<path fill="none" stroke="#191970" d="M943.7892,-165.7846C945.5275,-165.5192 947.2493,-165.2571 948.9448,-165 1003.1345,-156.7828 1157.1288,-170.4881 1192.9448,-129 1217.2017,-100.9016 1203.2756,-53.9242 1192.607,-28.0314"/>
<polygon fill="#191970" stroke="#191970" points="1195.7091,-26.3901 1188.4912,-18.6343 1189.2972,-29.1985 1195.7091,-26.3901"/>
</g>
<!-- Node11 -->
<g id="node12" class="node">
<title>Node11</title>
<polygon fill="#ffffff" stroke="#bfbfbf" points="1043.8291,-55.5 1043.8291,-73.5 1092.0605,-73.5 1092.0605,-55.5 1043.8291,-55.5"/>
<text text-anchor="middle" x="1067.9448" y="-61.5" font-family="Helvetica,sans-Serif" font-size="10.00" fill="#000000">cassert</text>
</g>
<!-- Node3&#45;&gt;Node11 -->
<g id="edge20" class="edge">
<title>Node3&#45;&gt;Node11</title>
<path fill="none" stroke="#191970" d="M943.8421,-169.6162C1023.8093,-162.0563 1162.9346,-146.5489 1177.9448,-129 1183.4337,-122.5828 1182.638,-117.0201 1177.9448,-110 1173.3975,-103.1981 1132.383,-87.4003 1101.7585,-76.3391"/>
<polygon fill="#191970" stroke="#191970" points="1102.8346,-73.0068 1092.24,-72.9316 1100.4753,-79.5973 1102.8346,-73.0068"/>
</g>
<!-- Node12 -->
<g id="node13" class="node">
<title>Node12</title>
<polygon fill="#ffffff" stroke="#bfbfbf" points="933.3291,-55.5 933.3291,-73.5 976.5605,-73.5 976.5605,-55.5 933.3291,-55.5"/>
<text text-anchor="middle" x="954.9448" y="-61.5" font-family="Helvetica,sans-Serif" font-size="10.00" fill="#000000">cmath</text>
</g>
<!-- Node3&#45;&gt;Node12 -->
<g id="edge21" class="edge">
<title>Node3&#45;&gt;Node12</title>
<path fill="none" stroke="#191970" d="M893.4277,-165.4982C904.47,-147.369 929.5672,-106.1647 944.0628,-82.3659"/>
<polygon fill="#191970" stroke="#191970" points="947.1733,-83.9873 949.3861,-73.6261 941.195,-80.346 947.1733,-83.9873"/>
</g>
<!-- Node14 -->
<g id="node15" class="node">
<title>Node14</title>
<polygon fill="#ffffff" stroke="#bfbfbf" points="584.3808,-110.5 584.3808,-128.5 641.5088,-128.5 641.5088,-110.5 584.3808,-110.5"/>
<text text-anchor="middle" x="612.9448" y="-116.5" font-family="Helvetica,sans-Serif" font-size="10.00" fill="#000000">algorithm</text>
</g>
<!-- Node3&#45;&gt;Node14 -->
<g id="edge19" class="edge">
<title>Node3&#45;&gt;Node14</title>
<path fill="none" stroke="#191970" d="M839.8901,-165.4208C792.9248,-156.4661 719.4308,-142.2365 655.9448,-129 654.4947,-128.6977 653.0178,-128.3867 651.5265,-128.0701"/>
<polygon fill="#191970" stroke="#191970" points="652.1185,-124.6174 641.6055,-125.9314 650.6434,-131.4602 652.1185,-124.6174"/>
</g>
<!-- Node15 -->
<g id="node16" class="node">
<title>Node15</title>
<polygon fill="#ffffff" stroke="#bfbfbf" points="1262.8242,-110.5 1262.8242,-128.5 1311.0654,-128.5 1311.0654,-110.5 1262.8242,-110.5"/>
<text text-anchor="middle" x="1286.9448" y="-116.5" font-family="Helvetica,sans-Serif" font-size="10.00" fill="#000000">cstddef</text>
</g>
<!-- Node3&#45;&gt;Node15 -->
<g id="edge22" class="edge">
<title>Node3&#45;&gt;Node15</title>
<path fill="none" stroke="#191970" d="M943.9252,-169.5393C1015.1659,-162.7471 1141.8404,-149.0632 1248.9448,-129 1250.1855,-128.7676 1251.4461,-128.5189 1252.7171,-128.2576"/>
<polygon fill="#191970" stroke="#191970" points="1253.5157,-131.6655 1262.5097,-126.0657 1251.9867,-124.8346 1253.5157,-131.6655"/>
</g>
<!-- Node16 -->
<g id="node17" class="node">
<title>Node16</title>
<polygon fill="#ffffff" stroke="#bfbfbf" points="631.7724,-55.5 631.7724,-73.5 676.1172,-73.5 676.1172,-55.5 631.7724,-55.5"/>
<text text-anchor="middle" x="653.9448" y="-61.5" font-family="Helvetica,sans-Serif" font-size="10.00" fill="#000000">cstdlib</text>
</g>
<!-- Node3&#45;&gt;Node16 -->
<g id="edge24" class="edge">
<title>Node3&#45;&gt;Node16</title>
<path fill="none" stroke="#191970" d="M859.0393,-165.3774C833.7436,-157.0264 796.2512,-143.7519 764.9448,-129 733.1899,-114.0368 698.4934,-93.0712 676.4945,-79.1528"/>
<polygon fill="#191970" stroke="#191970" points="678.2012,-76.0899 667.8895,-73.6573 674.4335,-81.9895 678.2012,-76.0899"/>
</g>
<!-- Node17 -->
<g id="node18" class="node">
<title>Node17</title>
<polygon fill="#ffffff" stroke="#bfbfbf" points="773.5581,-110.5 773.5581,-128.5 812.3315,-128.5 812.3315,-110.5 773.5581,-110.5"/>
<text text-anchor="middle" x="792.9448" y="-116.5" font-family="Helvetica,sans-Serif" font-size="10.00" fill="#000000">limits</text>
</g>
<!-- Node3&#45;&gt;Node17 -->
<g id="edge25" class="edge">
<title>Node3&#45;&gt;Node17</title>
<path fill="none" stroke="#191970" d="M872.2575,-165.4179C857.4058,-156.8195 834.875,-143.7754 817.6179,-133.7844"/>
<polygon fill="#191970" stroke="#191970" points="819.0633,-130.577 808.6554,-128.5956 815.5561,-136.635 819.0633,-130.577"/>
</g>
<!-- Node18 -->
<g id="node19" class="node">
<title>Node18</title>
<polygon fill="#ffffff" stroke="#bfbfbf" points="415.9917,-110.5 415.9917,-128.5 465.8979,-128.5 465.8979,-110.5 415.9917,-110.5"/>
<text text-anchor="middle" x="440.9448" y="-116.5" font-family="Helvetica,sans-Serif" font-size="10.00" fill="#000000">random</text>
</g>
<!-- Node3&#45;&gt;Node18 -->
<g id="edge27" class="edge">
<title>Node3&#45;&gt;Node18</title>
<path fill="none" stroke="#191970" d="M832.068,-171.2389C754.2267,-166.0583 608.6888,-154.0609 476.0215,-128.9283"/>
<polygon fill="#191970" stroke="#191970" points="476.5681,-125.4694 466.0869,-127.0167 475.2454,-132.3433 476.5681,-125.4694"/>
</g>
<!-- Node19 -->
<g id="node20" class="node">
<title>Node19</title>
<polygon fill="#ffffff" stroke="#bfbfbf" points="48.2749,-55.5 48.2749,-73.5 77.6147,-73.5 77.6147,-55.5 48.2749,-55.5"/>
<text text-anchor="middle" x="62.9448" y="-61.5" font-family="Helvetica,sans-Serif" font-size="10.00" fill="#000000">set</text>
</g>
<!-- Node3&#45;&gt;Node19 -->
<g id="edge28" class="edge">
<title>Node3&#45;&gt;Node19</title>
<path fill="none" stroke="#191970" d="M832.0605,-166.725C790.2923,-159.8021 732.3061,-147.8091 683.9448,-129 668.1718,-122.8654 667.1157,-114.9921 650.9448,-110 450.7655,-48.2034 389.8022,-90.4061 180.9448,-74 148.7846,-71.4738 111.7017,-68.474 87.8225,-66.5311"/>
<polygon fill="#191970" stroke="#191970" points="88.0964,-63.0419 77.8452,-65.7183 87.528,-70.0188 88.0964,-63.0419"/>
</g>
<!-- Node20 -->
<g id="node21" class="node">
<title>Node20</title>
<polygon fill="#ffffff" stroke="#bfbfbf" points="830.5434,-110.5 830.5434,-128.5 889.3462,-128.5 889.3462,-110.5 830.5434,-110.5"/>
<text text-anchor="middle" x="859.9448" y="-116.5" font-family="Helvetica,sans-Serif" font-size="10.00" fill="#000000">stdexcept</text>
</g>
<!-- Node3&#45;&gt;Node20 -->
<g id="edge29" class="edge">
<title>Node3&#45;&gt;Node20</title>
<path fill="none" stroke="#191970" d="M883.3212,-165.4179C879.5341,-157.9789 874.0529,-147.2123 869.3498,-137.9742"/>
<polygon fill="#191970" stroke="#191970" points="872.3248,-136.1032 864.6689,-128.7795 866.0867,-139.279 872.3248,-136.1032"/>
</g>
<!-- Node21 -->
<g id="node22" class="node">
<title>Node21</title>
<polygon fill="#ffffff" stroke="#bfbfbf" points="982.7182,-110.5 982.7182,-128.5 1023.1714,-128.5 1023.1714,-110.5 982.7182,-110.5"/>
<text text-anchor="middle" x="1002.9448" y="-116.5" font-family="Helvetica,sans-Serif" font-size="10.00" fill="#000000">string</text>
</g>
<!-- Node3&#45;&gt;Node21 -->
<g id="edge30" class="edge">
<title>Node3&#45;&gt;Node21</title>
<path fill="none" stroke="#191970" d="M906.9347,-165.4179C925.4124,-156.5807 953.7096,-143.0473 974.8031,-132.9591"/>
<polygon fill="#191970" stroke="#191970" points="976.4154,-136.0677 983.9267,-128.5956 973.3952,-129.7528 976.4154,-136.0677"/>
</g>
<!-- Node22 -->
<g id="node23" class="node">
<title>Node22</title>
<polygon fill="#ffffff" stroke="#bfbfbf" points="1041.1025,-110.5 1041.1025,-128.5 1078.7871,-128.5 1078.7871,-110.5 1041.1025,-110.5"/>
<text text-anchor="middle" x="1059.9448" y="-116.5" font-family="Helvetica,sans-Serif" font-size="10.00" fill="#000000">tuple</text>
</g>
<!-- Node3&#45;&gt;Node22 -->
<g id="edge31" class="edge">
<title>Node3&#45;&gt;Node22</title>
<path fill="none" stroke="#191970" d="M917.2371,-165.4427C944.4396,-156.9879 986.3,-143.8677 1031.3319,-129.1554"/>
<polygon fill="#191970" stroke="#191970" points="1032.5718,-132.4323 1040.9852,-125.9929 1030.3925,-125.7802 1032.5718,-132.4323"/>
</g>
<!-- Node23 -->
<g id="node24" class="node">
<title>Node23</title>
<polygon fill="#ffffff" stroke="#bfbfbf" points="354.3291,-110.5 354.3291,-128.5 397.5605,-128.5 397.5605,-110.5 354.3291,-110.5"/>
<text text-anchor="middle" x="375.9448" y="-116.5" font-family="Helvetica,sans-Serif" font-size="10.00" fill="#000000">vector</text>
</g>
<!-- Node3&#45;&gt;Node23 -->
<g id="edge33" class="edge">
<title>Node3&#45;&gt;Node23</title>
<path fill="none" stroke="#191970" d="M831.8644,-172.8821C743.4285,-169.5253 566.2047,-159.5356 407.7469,-128.7656"/>
<polygon fill="#191970" stroke="#191970" points="408.3082,-125.3089 397.8196,-126.8054 406.9522,-132.1763 408.3082,-125.3089"/>
</g>
<!-- Node4&#45;&gt;Node5 -->
<g id="edge5" class="edge">
<title>Node4&#45;&gt;Node5</title>
<path fill="none" stroke="#191970" d="M1407.4042,-110.4179C1394.8222,-101.9788 1375.8552,-89.257 1361.0737,-79.3426"/>
<polygon fill="#191970" stroke="#191970" points="1362.7601,-76.2593 1352.5055,-73.5956 1358.8608,-82.0727 1362.7601,-76.2593"/>
</g>
<!-- Node6&#45;&gt;Node2 -->
<g id="edge16" class="edge">
<title>Node6&#45;&gt;Node2</title>
<path fill="none" stroke="#191970" d="M1097.0957,-111.8699C1094.0021,-111.2302 1090.9192,-110.5994 1087.9448,-110 1016.9232,-95.6871 933.7129,-79.95 887.1851,-71.2433"/>
<polygon fill="#191970" stroke="#191970" points="887.7518,-67.7887 877.279,-69.3921 886.4659,-74.6696 887.7518,-67.7887"/>
</g>
<!-- Node6&#45;&gt;Node5 -->
<g id="edge14" class="edge">
<title>Node6&#45;&gt;Node5</title>
<path fill="none" stroke="#191970" d="M1166.9615,-110.4179C1205.6103,-100.099 1268.2415,-83.3771 1306.3081,-73.2137"/>
<polygon fill="#191970" stroke="#191970" points="1307.5944,-76.4929 1316.3531,-70.5318 1305.7887,-69.7298 1307.5944,-76.4929"/>
</g>
<!-- Node6&#45;&gt;Node7 -->
<g id="edge8" class="edge">
<title>Node6&#45;&gt;Node7</title>
<path fill="none" stroke="#191970" d="M1096.6736,-111.3776C1093.7292,-110.8603 1090.7925,-110.3912 1087.9448,-110 962.7454,-92.7997 580.1147,-73.5382 440.568,-66.8992"/>
<polygon fill="#191970" stroke="#191970" points="440.3199,-63.3836 430.1654,-66.4063 439.9885,-70.3757 440.3199,-63.3836"/>
</g>
<!-- Node6&#45;&gt;Node10 -->
<g id="edge17" class="edge">
<title>Node6&#45;&gt;Node10</title>
<path fill="none" stroke="#191970" d="M1140.7807,-110.3065C1147.9457,-101.4955 1158.3959,-87.5675 1164.9448,-74 1172.0015,-59.3803 1176.9982,-41.6112 1180.0906,-28.4282"/>
<polygon fill="#191970" stroke="#191970" points="1183.5219,-29.1204 1182.2437,-18.603 1176.6841,-27.6219 1183.5219,-29.1204"/>
</g>
<!-- Node6&#45;&gt;Node11 -->
<g id="edge12" class="edge">
<title>Node6&#45;&gt;Node11</title>
<path fill="none" stroke="#191970" d="M1122.2114,-110.4179C1112.5782,-102.2667 1098.2231,-90.1201 1086.6966,-80.3669"/>
<polygon fill="#191970" stroke="#191970" points="1088.8061,-77.5671 1078.9114,-73.7795 1084.2845,-82.9108 1088.8061,-77.5671"/>
</g>
<!-- Node6&#45;&gt;Node12 -->
<g id="edge13" class="edge">
<title>Node6&#45;&gt;Node12</title>
<path fill="none" stroke="#191970" d="M1103.5517,-110.4179C1071.247,-100.4361 1019.5512,-84.4627 986.4351,-74.2301"/>
<polygon fill="#191970" stroke="#191970" points="987.3838,-70.8601 976.7962,-71.2518 985.3172,-77.5481 987.3838,-70.8601"/>
</g>
<!-- Node13 -->
<g id="node14" class="node">
<title>Node13</title>
<polygon fill="#ffffff" stroke="#bfbfbf" points="1109.6592,-55.5 1109.6592,-73.5 1156.2304,-73.5 1156.2304,-55.5 1109.6592,-55.5"/>
<text text-anchor="middle" x="1132.9448" y="-61.5" font-family="Helvetica,sans-Serif" font-size="10.00" fill="#000000">math.h</text>
</g>
<!-- Node6&#45;&gt;Node13 -->
<g id="edge15" class="edge">
<title>Node6&#45;&gt;Node13</title>
<path fill="none" stroke="#191970" d="M1132.9448,-110.4179C1132.9448,-103.2164 1132.9448,-92.8962 1132.9448,-83.8632"/>
<polygon fill="#191970" stroke="#191970" points="1136.4449,-83.7794 1132.9448,-73.7795 1129.4449,-83.7795 1136.4449,-83.7794"/>
</g>
<!-- Node8 -->
<g id="node9" class="node">
<title>Node8</title>
<polygon fill="#ffffff" stroke="#bfbfbf" points="401.5532,-.5 401.5532,-18.5 440.3364,-18.5 440.3364,-.5 401.5532,-.5"/>
<text text-anchor="middle" x="420.9448" y="-6.5" font-family="Helvetica,sans-Serif" font-size="10.00" fill="#000000">array</text>
</g>
<!-- Node7&#45;&gt;Node8 -->
<g id="edge9" class="edge">
<title>Node7&#45;&gt;Node8</title>
<path fill="none" stroke="#191970" d="M394.2289,-55.4179C398.6031,-47.8998 404.9548,-36.9829 410.3674,-27.6799"/>
<polygon fill="#191970" stroke="#191970" points="413.5421,-29.1831 415.5458,-18.7795 407.4916,-25.6628 413.5421,-29.1831"/>
</g>
<!-- Node9 -->
<g id="node10" class="node">
<title>Node9</title>
<polygon fill="#ffffff" stroke="#bfbfbf" points="328.7724,-.5 328.7724,-18.5 383.1172,-18.5 383.1172,-.5 328.7724,-.5"/>
<text text-anchor="middle" x="355.9448" y="-6.5" font-family="Helvetica,sans-Serif" font-size="10.00" fill="#000000">iostream</text>
</g>
<!-- Node7&#45;&gt;Node9 -->
<g id="edge10" class="edge">
<title>Node7&#45;&gt;Node9</title>
<path fill="none" stroke="#191970" d="M383.4955,-55.4179C378.9372,-47.8207 372.2964,-36.7527 366.6768,-27.3866"/>
<polygon fill="#191970" stroke="#191970" points="369.6587,-25.5536 361.5125,-18.7795 363.6562,-29.1552 369.6587,-25.5536"/>
</g>
<!-- Node7&#45;&gt;Node10 -->
<g id="edge11" class="edge">
<title>Node7&#45;&gt;Node10</title>
<path fill="none" stroke="#191970" d="M430.0134,-61.6588C570.9082,-51.9113 1032.6567,-19.9665 1154.3356,-11.5484"/>
<polygon fill="#191970" stroke="#191970" points="1154.6708,-15.0337 1164.4053,-10.8518 1154.1876,-8.0504 1154.6708,-15.0337"/>
</g>
<!-- Node24&#45;&gt;Node7 -->
<g id="edge36" class="edge">
<title>Node24&#45;&gt;Node7</title>
<path fill="none" stroke="#191970" d="M112.1033,-111.2064C172.9293,-100.9443 275.9993,-83.5552 337.7506,-73.1371"/>
<polygon fill="#191970" stroke="#191970" points="338.3867,-76.5793 347.6651,-71.4644 337.2221,-69.6768 338.3867,-76.5793"/>
</g>
<!-- Node24&#45;&gt;Node19 -->
<g id="edge37" class="edge">
<title>Node24&#45;&gt;Node19</title>
<path fill="none" stroke="#191970" d="M62.9448,-110.4179C62.9448,-103.2164 62.9448,-92.8962 62.9448,-83.8632"/>
<polygon fill="#191970" stroke="#191970" points="66.4449,-83.7794 62.9448,-73.7795 59.4449,-83.7795 66.4449,-83.7794"/>
</g>
<!-- Node25&#45;&gt;Node1 -->
<g id="edge45" class="edge">
<title>Node25&#45;&gt;Node1</title>
<path fill="none" stroke="#191970" d="M358.8056,-165.4179C392.6094,-156.0751 445.4048,-141.4834 482.3842,-131.263"/>
<polygon fill="#191970" stroke="#191970" points="483.6597,-134.5418 492.3659,-128.5042 481.7949,-127.7947 483.6597,-134.5418"/>
</g>
<!-- Node25&#45;&gt;Node7 -->
<g id="edge46" class="edge">
<title>Node25&#45;&gt;Node7</title>
<path fill="none" stroke="#191970" d="M286.1107,-172.6202C225.9114,-168.3276 122.4448,-154.428 158.9448,-110 181.1114,-83.0187 276.8776,-71.7659 337.632,-67.2783"/>
<polygon fill="#191970" stroke="#191970" points="338.0726,-70.7561 347.8035,-66.5657 337.5833,-63.7732 338.0726,-70.7561"/>
</g>
<!-- Node25&#45;&gt;Node11 -->
<g id="edge48" class="edge">
<title>Node25&#45;&gt;Node11</title>
<path fill="none" stroke="#191970" d="M325.6136,-165.2299C325.6607,-150.8257 328.1115,-123.3421 344.9448,-110 400.8488,-65.6903 914.8723,-80.1074 985.9448,-74 1001.5711,-72.6572 1018.8225,-70.7264 1033.454,-68.9556"/>
<polygon fill="#191970" stroke="#191970" points="1034.0883,-72.404 1043.5842,-67.7053 1033.2307,-65.4567 1034.0883,-72.404"/>
</g>
<!-- Node25&#45;&gt;Node12 -->
<g id="edge49" class="edge">
<title>Node25&#45;&gt;Node12</title>
<path fill="none" stroke="#191970" d="M319.5327,-165.2579C310.7666,-151.3885 297.6672,-125.2011 311.9448,-110 355.694,-63.4209 822.3592,-80.3624 885.9448,-74 898.1047,-72.7833 911.4173,-71.0467 923.0773,-69.3903"/>
<polygon fill="#191970" stroke="#191970" points="923.8498,-72.8147 933.2404,-67.9089 922.8401,-65.8879 923.8498,-72.8147"/>
</g>
<!-- Node25&#45;&gt;Node14 -->
<g id="edge47" class="edge">
<title>Node25&#45;&gt;Node14</title>
<path fill="none" stroke="#191970" d="M365.7761,-168.033C413.0482,-160.1791 494.4678,-146.0913 574.1459,-129.0575"/>
<polygon fill="#191970" stroke="#191970" points="575.3193,-132.385 584.357,-126.856 573.8439,-125.5423 575.3193,-132.385"/>
</g>
<!-- Node25&#45;&gt;Node18 -->
<g id="edge50" class="edge">
<title>Node25&#45;&gt;Node18</title>
<path fill="none" stroke="#191970" d="M344.9347,-165.4179C363.4124,-156.5807 391.7096,-143.0473 412.8031,-132.9591"/>
<polygon fill="#191970" stroke="#191970" points="414.4154,-136.0677 421.9267,-128.5956 411.3952,-129.7528 414.4154,-136.0677"/>
</g>
<!-- Node25&#45;&gt;Node19 -->
<g id="edge51" class="edge">
<title>Node25&#45;&gt;Node19</title>
<path fill="none" stroke="#191970" d="M286.1728,-171.7454C204.3275,-165.6719 23.1652,-149.9851 4.9448,-129 -11.1955,-110.4105 16.9294,-89.2607 39.3676,-76.401"/>
<polygon fill="#191970" stroke="#191970" points="41.0873,-79.4498 48.1876,-71.5861 37.7332,-73.3057 41.0873,-79.4498"/>
</g>
<!-- Node25&#45;&gt;Node23 -->
<g id="edge52" class="edge">
<title>Node25&#45;&gt;Node23</title>
<path fill="none" stroke="#191970" d="M334.2013,-165.4179C341.3956,-157.5041 352.0136,-145.8243 360.7402,-136.2251"/>
<polygon fill="#191970" stroke="#191970" points="363.372,-138.5332 367.5089,-128.7795 358.1924,-133.8245 363.372,-138.5332"/>
</g>
<!-- Node25&#45;&gt;Node24 -->
<g id="edge44" class="edge">
<title>Node25&#45;&gt;Node24</title>
<path fill="none" stroke="#191970" d="M286.0008,-166.1467C240.6957,-156.6722 166.6071,-141.1784 116.3626,-130.671"/>
<polygon fill="#191970" stroke="#191970" points="116.8395,-127.1951 106.3347,-128.5739 115.4065,-134.0469 116.8395,-127.1951"/>
</g>
<!-- Node26 -->
<g id="node27" class="node">
<title>Node26</title>
<g id="a_node27"><a xlink:href="channel_8hpp.html" target="_top" xlink:title="ppht/channel.hpp">
<polygon fill="#ffffff" stroke="#000000" points="167.5781,-110.5 167.5781,-128.5 260.3115,-128.5 260.3115,-110.5 167.5781,-110.5"/>
<text text-anchor="middle" x="213.9448" y="-116.5" font-family="Helvetica,sans-Serif" font-size="10.00" fill="#000000">ppht/channel.hpp</text>
</a>
</g>
</g>
<!-- Node25&#45;&gt;Node26 -->
<g id="edge39" class="edge">
<title>Node25&#45;&gt;Node26</title>
<path fill="none" stroke="#191970" d="M307.4503,-165.4179C289.5356,-156.6205 262.1437,-143.1691 241.6304,-133.0956"/>
<polygon fill="#191970" stroke="#191970" points="242.9857,-129.8619 232.4668,-128.5956 239.9001,-136.1452 242.9857,-129.8619"/>
</g>
<!-- Node26&#45;&gt;Node2 -->
<g id="edge43" class="edge">
<title>Node26&#45;&gt;Node2</title>
<path fill="none" stroke="#191970" d="M260.4083,-111.7751C264.9756,-111.1265 269.546,-110.5209 273.9448,-110 477.6771,-85.876 723.4445,-71.2909 814.616,-66.3736"/>
<polygon fill="#191970" stroke="#191970" points="814.9071,-69.8632 824.7063,-65.835 814.5339,-62.8731 814.9071,-69.8632"/>
</g>
<!-- Node26&#45;&gt;Node7 -->
<g id="edge40" class="edge">
<title>Node26&#45;&gt;Node7</title>
<path fill="none" stroke="#191970" d="M242.8425,-110.4179C272.3153,-101.155 318.2051,-86.7325 350.6803,-76.526"/>
<polygon fill="#191970" stroke="#191970" points="351.8045,-79.8415 360.295,-73.5042 349.7057,-73.1636 351.8045,-79.8415"/>
</g>
<!-- Node26&#45;&gt;Node16 -->
<g id="edge41" class="edge">
<title>Node26&#45;&gt;Node16</title>
<path fill="none" stroke="#191970" d="M260.4323,-111.9615C264.9947,-111.2752 269.5575,-110.6098 273.9448,-110 402.366,-92.1515 555.7995,-75.0763 621.4974,-67.966"/>
<polygon fill="#191970" stroke="#191970" points="622.0675,-71.4249 631.6345,-66.8727 621.3168,-64.4653 622.0675,-71.4249"/>
</g>
<!-- Node27 -->
<g id="node28" class="node">
<title>Node27</title>
<polygon fill="#ffffff" stroke="#bfbfbf" points="190.3833,-55.5 190.3833,-73.5 237.5063,-73.5 237.5063,-55.5 190.3833,-55.5"/>
<text text-anchor="middle" x="213.9448" y="-61.5" font-family="Helvetica,sans-Serif" font-size="10.00" fill="#000000">iterator</text>
</g>
<!-- Node26&#45;&gt;Node27 -->
<g id="edge42" class="edge">
<title>Node26&#45;&gt;Node27</title>
<path fill="none" stroke="#191970" d="M213.9448,-110.4179C213.9448,-103.2164 213.9448,-92.8962 213.9448,-83.8632"/>
<polygon fill="#191970" stroke="#191970" points="217.4449,-83.7794 213.9448,-73.7795 210.4449,-83.7795 217.4449,-83.7794"/>
</g>
</g>
</svg>
