<?xml version="1.0" encoding="UTF-8" standalone="no"?>
<!DOCTYPE svg PUBLIC "-//W3C//DTD SVG 1.1//EN"
 "http://www.w3.org/Graphics/SVG/1.1/DTD/svg11.dtd">
<!-- Generated by graphviz version 2.40.1 (20161225.0304)
 -->
<!-- Title: ppht.hpp Pages: 1 -->
<svg width="1747pt" height="247pt"
 viewBox="0.00 0.00 1747.04 247.00" xmlns="http://www.w3.org/2000/svg" xmlns:xlink="http://www.w3.org/1999/xlink">
<g id="graph0" class="graph" transform="scale(1 1) rotate(0) translate(4 243)">
<title>ppht.hpp</title>
<polygon fill="#ffffff" stroke="transparent" points="-4,4 -4,-243 1743.0368,-243 1743.0368,4 -4,4"/>
<!-- Node0 -->
<g id="node1" class="node">
<title>Node0</title>
<polygon fill="#bfbfbf" stroke="#000000" points="877.6772,-220.5 877.6772,-238.5 932.603,-238.5 932.603,-220.5 877.6772,-220.5"/>
<text text-anchor="middle" x="905.1401" y="-226.5" font-family="Helvetica,sans-Serif" font-size="10.00" fill="#000000">ppht.hpp</text>
</g>
<!-- Node1 -->
<g id="node2" class="node">
<title>Node1</title>
<g id="a_node2"><a xlink:href="raster_8hpp.html" target="_top" xlink:title="ppht/raster.hpp">
<polygon fill="#ffffff" stroke="#000000" points="257.7808,-110.5 257.7808,-128.5 340.4995,-128.5 340.4995,-110.5 257.7808,-110.5"/>
<text text-anchor="middle" x="299.1401" y="-116.5" font-family="Helvetica,sans-Serif" font-size="10.00" fill="#000000">ppht/raster.hpp</text>
</a>
</g>
</g>
<!-- Node0&#45;&gt;Node1 -->
<g id="edge1" class="edge">
<title>Node0&#45;&gt;Node1</title>
<path fill="none" stroke="#191970" d="M877.4969,-227.0896C817.7592,-221.6289 672.3112,-206.975 552.1401,-184 476.1242,-169.4669 388.9672,-145.6289 339.343,-131.3621"/>
<polygon fill="#191970" stroke="#191970" points="340.2156,-127.9711 329.6369,-128.5559 338.2713,-134.6957 340.2156,-127.9711"/>
</g>
<!-- Node3 -->
<g id="node4" class="node">
<title>Node3</title>
<g id="a_node4"><a xlink:href="accumulator_8hpp.html" target="_top" xlink:title="ppht/accumulator.hpp">
<polygon fill="#ffffff" stroke="#000000" points="561.3276,-165.5 561.3276,-183.5 672.9526,-183.5 672.9526,-165.5 561.3276,-165.5"/>
<text text-anchor="middle" x="617.1401" y="-171.5" font-family="Helvetica,sans-Serif" font-size="10.00" fill="#000000">ppht/accumulator.hpp</text>
</a>
</g>
</g>
<!-- Node0&#45;&gt;Node3 -->
<g id="edge3" class="edge">
<title>Node0&#45;&gt;Node3</title>
<path fill="none" stroke="#191970" d="M877.5255,-224.2264C830.9145,-215.325 735.7111,-197.1438 674.2458,-185.4056"/>
<polygon fill="#191970" stroke="#191970" points="674.7874,-181.9458 664.3083,-183.5078 673.4742,-188.8216 674.7874,-181.9458"/>
</g>
<!-- Node4 -->
<g id="node5" class="node">
<title>Node4</title>
<g id="a_node5"><a xlink:href="parameters_8hpp.html" target="_top" xlink:title="ppht/parameters.hpp">
<polygon fill="#ffffff" stroke="#000000" points="0,-110.5 0,-128.5 108.2803,-128.5 108.2803,-110.5 0,-110.5"/>
<text text-anchor="middle" x="54.1401" y="-116.5" font-family="Helvetica,sans-Serif" font-size="10.00" fill="#000000">ppht/parameters.hpp</text>
</a>
</g>
</g>
<!-- Node0&#45;&gt;Node4 -->
<g id="edge35" class="edge">
<title>Node0&#45;&gt;Node4</title>
<path fill="none" stroke="#191970" d="M877.4743,-227.1612C807.8938,-221.167 620.0343,-204.2899 464.1401,-184 340.1142,-167.8578 195.7872,-143.953 115.7067,-130.2333"/>
<polygon fill="#191970" stroke="#191970" points="116.239,-126.7735 105.7908,-128.5302 115.054,-133.6725 116.239,-126.7735"/>
</g>
<!-- Node24 -->
<g id="node25" class="node">
<title>Node24</title>
<g id="a_node25"><a xlink:href="point__set_8hpp.html" target="_top" xlink:title="ppht/point_set.hpp">
<polygon fill="#ffffff" stroke="#000000" points="1402.9951,-110.5 1402.9951,-128.5 1501.2852,-128.5 1501.2852,-110.5 1402.9951,-110.5"/>
<text text-anchor="middle" x="1452.1401" y="-116.5" font-family="Helvetica,sans-Serif" font-size="10.00" fill="#000000">ppht/point_set.hpp</text>
</a>
</g>
</g>
<!-- Node0&#45;&gt;Node24 -->
<g id="edge36" class="edge">
<title>Node0&#45;&gt;Node24</title>
<path fill="none" stroke="#191970" d="M932.8479,-226.4804C986.9003,-220.3505 1110.0605,-205.2076 1212.1401,-184 1283.767,-169.1191 1365.7975,-145.6549 1413.0281,-131.5057"/>
<polygon fill="#191970" stroke="#191970" points="1414.2793,-134.7842 1422.8448,-128.5486 1412.2603,-128.0817 1414.2793,-134.7842"/>
</g>
<!-- Node25 -->
<g id="node26" class="node">
<title>Node25</title>
<g id="a_node26"><a xlink:href="postprocess_8hpp.html" target="_top" xlink:title="ppht/postprocess.hpp">
<polygon fill="#ffffff" stroke="#000000" points="1498.3301,-165.5 1498.3301,-183.5 1609.9502,-183.5 1609.9502,-165.5 1498.3301,-165.5"/>
<text text-anchor="middle" x="1554.1401" y="-171.5" font-family="Helvetica,sans-Serif" font-size="10.00" fill="#000000">ppht/postprocess.hpp</text>
</a>
</g>
</g>
<!-- Node0&#45;&gt;Node25 -->
<g id="edge39" class="edge">
<title>Node0&#45;&gt;Node25</title>
<path fill="none" stroke="#191970" d="M932.6123,-227.1718C1028.1743,-219.0734 1347.8475,-191.9824 1487.6918,-180.1312"/>
<polygon fill="#191970" stroke="#191970" points="1488.1778,-183.6027 1497.8465,-179.2706 1487.5866,-176.6277 1488.1778,-183.6027"/>
</g>
<!-- Node28 -->
<g id="node29" class="node">
<title>Node28</title>
<g id="a_node29"><a xlink:href="state_8hpp.html" target="_top" xlink:title="ppht/state.hpp">
<polygon fill="#ffffff" stroke="#000000" points="1123.4482,-165.5 1123.4482,-183.5 1202.832,-183.5 1202.832,-165.5 1123.4482,-165.5"/>
<text text-anchor="middle" x="1163.1401" y="-171.5" font-family="Helvetica,sans-Serif" font-size="10.00" fill="#000000">ppht/state.hpp</text>
</a>
</g>
</g>
<!-- Node0&#45;&gt;Node28 -->
<g id="edge46" class="edge">
<title>Node0&#45;&gt;Node28</title>
<path fill="none" stroke="#191970" d="M932.7507,-223.614C975.7381,-214.4501 1059.3043,-196.6355 1113.0994,-185.1676"/>
<polygon fill="#191970" stroke="#191970" points="1114.0602,-188.5415 1123.1107,-183.0334 1112.6007,-181.6953 1114.0602,-188.5415"/>
</g>
<!-- Node2 -->
<g id="node3" class="node">
<title>Node2</title>
<polygon fill="#ffffff" stroke="#bfbfbf" points="288.0835,-55.5 288.0835,-73.5 340.1968,-73.5 340.1968,-55.5 288.0835,-55.5"/>
<text text-anchor="middle" x="314.1401" y="-61.5" font-family="Helvetica,sans-Serif" font-size="10.00" fill="#000000">memory</text>
</g>
<!-- Node1&#45;&gt;Node2 -->
<g id="edge2" class="edge">
<title>Node1&#45;&gt;Node2</title>
<path fill="none" stroke="#191970" d="M301.6171,-110.4179C303.6027,-103.1372 306.4577,-92.669 308.9404,-83.5659"/>
<polygon fill="#191970" stroke="#191970" points="312.3548,-84.348 311.6094,-73.7795 305.6015,-82.5062 312.3548,-84.348"/>
</g>
<!-- Node3&#45;&gt;Node1 -->
<g id="edge6" class="edge">
<title>Node3&#45;&gt;Node1</title>
<path fill="none" stroke="#191970" d="M564.985,-165.4795C505.8098,-155.2448 409.8861,-138.6542 350.8825,-128.4491"/>
<polygon fill="#191970" stroke="#191970" points="351.12,-124.9383 340.6697,-126.6828 349.9269,-131.8359 351.12,-124.9383"/>
</g>
<!-- Node3&#45;&gt;Node2 -->
<g id="edge27" class="edge">
<title>Node3&#45;&gt;Node2</title>
<path fill="none" stroke="#191970" d="M561.2322,-166.8687C503.2964,-158.3567 417.1015,-143.825 387.1401,-129 363.6075,-117.356 341.7698,-96.1133 328.2259,-81.1965"/>
<polygon fill="#191970" stroke="#191970" points="330.8299,-78.8576 321.5967,-73.6614 325.5742,-83.4813 330.8299,-78.8576"/>
</g>
<!-- Node3&#45;&gt;Node4 -->
<g id="edge4" class="edge">
<title>Node3&#45;&gt;Node4</title>
<path fill="none" stroke="#191970" d="M561.0043,-170.2071C469.1239,-162.9861 280.9502,-147.3818 122.1401,-129 120.8746,-128.8535 119.5962,-128.7027 118.3083,-128.5482"/>
<polygon fill="#191970" stroke="#191970" points="118.6573,-125.0647 108.3012,-127.3011 117.7916,-132.011 118.6573,-125.0647"/>
</g>
<!-- Node5 -->
<g id="node6" class="node">
<title>Node5</title>
<polygon fill="#ffffff" stroke="#bfbfbf" points="113.6895,-55.5 113.6895,-73.5 158.5908,-73.5 158.5908,-55.5 113.6895,-55.5"/>
<text text-anchor="middle" x="136.1401" y="-61.5" font-family="Helvetica,sans-Serif" font-size="10.00" fill="#000000">cstdint</text>
</g>
<!-- Node3&#45;&gt;Node5 -->
<g id="edge24" class="edge">
<title>Node3&#45;&gt;Node5</title>
<path fill="none" stroke="#191970" d="M561.0348,-172.4502C444.7839,-167.7091 185.8387,-154.401 155.1401,-129 141.9527,-118.0883 137.6387,-98.517 136.3596,-83.7853"/>
<polygon fill="#191970" stroke="#191970" points="139.8504,-83.508 135.8764,-73.6868 132.8584,-83.8427 139.8504,-83.508"/>
</g>
<!-- Node6 -->
<g id="node7" class="node">
<title>Node6</title>
<g id="a_node7"><a xlink:href="trig_8hpp.html" target="_top" xlink:title="ppht/trig.hpp">
<polygon fill="#ffffff" stroke="#000000" points="396.3423,-110.5 396.3423,-128.5 467.938,-128.5 467.938,-110.5 396.3423,-110.5"/>
<text text-anchor="middle" x="432.1401" y="-116.5" font-family="Helvetica,sans-Serif" font-size="10.00" fill="#000000">ppht/trig.hpp</text>
</a>
</g>
</g>
<!-- Node3&#45;&gt;Node6 -->
<g id="edge7" class="edge">
<title>Node3&#45;&gt;Node6</title>
<path fill="none" stroke="#191970" d="M586.5911,-165.4179C555.2998,-156.115 506.5035,-141.608 472.1481,-131.3943"/>
<polygon fill="#191970" stroke="#191970" points="473.0098,-127.9991 462.427,-128.5042 471.015,-134.7089 473.0098,-127.9991"/>
</g>
<!-- Node7 -->
<g id="node8" class="node">
<title>Node7</title>
<g id="a_node8"><a xlink:href="types_8hpp.html" target="_top" xlink:title="ppht/types.hpp">
<polygon fill="#ffffff" stroke="#000000" points="1369.3374,-55.5 1369.3374,-73.5 1450.9429,-73.5 1450.9429,-55.5 1369.3374,-55.5"/>
<text text-anchor="middle" x="1410.1401" y="-61.5" font-family="Helvetica,sans-Serif" font-size="10.00" fill="#000000">ppht/types.hpp</text>
</a>
</g>
</g>
<!-- Node3&#45;&gt;Node7 -->
<g id="edge19" class="edge">
<title>Node3&#45;&gt;Node7</title>
<path fill="none" stroke="#191970" d="M673.0717,-169.1839C727.77,-163.0071 812.9809,-150.7637 884.1401,-129 903.7322,-123.0079 906.3081,-115.1422 926.1401,-110 1110.7155,-62.1418 1167.0445,-99.1872 1359.1439,-74.1295"/>
<polygon fill="#191970" stroke="#191970" points="1359.8442,-77.567 1369.2885,-72.7654 1358.9113,-70.6294 1359.8442,-77.567"/>
</g>
<!-- Node9 -->
<g id="node10" class="node">
<title>Node9</title>
<polygon fill="#ffffff" stroke="#bfbfbf" points="879.5244,-.5 879.5244,-18.5 922.7559,-18.5 922.7559,-.5 879.5244,-.5"/>
<text text-anchor="middle" x="901.1401" y="-6.5" font-family="Helvetica,sans-Serif" font-size="10.00" fill="#000000">cmath</text>
</g>
<!-- Node3&#45;&gt;Node9 -->
<g id="edge22" class="edge">
<title>Node3&#45;&gt;Node9</title>
<path fill="none" stroke="#191970" d="M592.8708,-165.458C565.7652,-153.9748 527.8224,-132.8834 545.1401,-110 584.9184,-57.4375 789.8177,-24.5495 869.4426,-13.5815"/>
<polygon fill="#191970" stroke="#191970" points="869.9431,-17.0458 879.3838,-12.237 869.0049,-10.109 869.9431,-17.0458"/>
</g>
<!-- Node11 -->
<g id="node12" class="node">
<title>Node11</title>
<polygon fill="#ffffff" stroke="#bfbfbf" points="412.7485,-.5 412.7485,-18.5 451.5317,-18.5 451.5317,-.5 412.7485,-.5"/>
<text text-anchor="middle" x="432.1401" y="-6.5" font-family="Helvetica,sans-Serif" font-size="10.00" fill="#000000">utility</text>
</g>
<!-- Node3&#45;&gt;Node11 -->
<g id="edge33" class="edge">
<title>Node3&#45;&gt;Node11</title>
<path fill="none" stroke="#191970" d="M561.1834,-171.5996C463.3091,-165.9499 269.4456,-151.9706 249.1401,-129 228.7846,-105.9727 256.0644,-73.6701 279.1401,-55 315.104,-25.9023 369.2227,-15.4057 402.5269,-11.6239"/>
<polygon fill="#191970" stroke="#191970" points="402.9587,-15.0983 412.5591,-10.617 402.2596,-8.1333 402.9587,-15.0983"/>
</g>
<!-- Node12 -->
<g id="node13" class="node">
<title>Node12</title>
<polygon fill="#ffffff" stroke="#bfbfbf" points="774.0244,-55.5 774.0244,-73.5 822.2559,-73.5 822.2559,-55.5 774.0244,-55.5"/>
<text text-anchor="middle" x="798.1401" y="-61.5" font-family="Helvetica,sans-Serif" font-size="10.00" fill="#000000">cassert</text>
</g>
<!-- Node3&#45;&gt;Node12 -->
<g id="edge21" class="edge">
<title>Node3&#45;&gt;Node12</title>
<path fill="none" stroke="#191970" d="M596.2463,-165.383C571.465,-153.3189 535.5923,-131.1067 553.1401,-110 579.4919,-78.3038 702.3638,-68.584 763.4614,-65.686"/>
<polygon fill="#191970" stroke="#191970" points="763.9271,-69.169 773.7643,-65.2345 763.6206,-62.1757 763.9271,-69.169"/>
</g>
<!-- Node14 -->
<g id="node15" class="node">
<title>Node14</title>
<polygon fill="#ffffff" stroke="#bfbfbf" points="1003.5762,-110.5 1003.5762,-128.5 1060.7041,-128.5 1060.7041,-110.5 1003.5762,-110.5"/>
<text text-anchor="middle" x="1032.1401" y="-116.5" font-family="Helvetica,sans-Serif" font-size="10.00" fill="#000000">algorithm</text>
</g>
<!-- Node3&#45;&gt;Node14 -->
<g id="edge20" class="edge">
<title>Node3&#45;&gt;Node14</title>
<path fill="none" stroke="#191970" d="M673.0429,-169.9515C744.9204,-163.616 873.7232,-150.6196 993.1289,-128.9824"/>
<polygon fill="#191970" stroke="#191970" points="993.9724,-132.3861 1003.1755,-127.1371 992.7078,-125.5013 993.9724,-132.3861"/>
</g>
<!-- Node15 -->
<g id="node16" class="node">
<title>Node15</title>
<polygon fill="#ffffff" stroke="#bfbfbf" points="562.0195,-110.5 562.0195,-128.5 610.2607,-128.5 610.2607,-110.5 562.0195,-110.5"/>
<text text-anchor="middle" x="586.1401" y="-116.5" font-family="Helvetica,sans-Serif" font-size="10.00" fill="#000000">cstddef</text>
</g>
<!-- Node3&#45;&gt;Node15 -->
<g id="edge23" class="edge">
<title>Node3&#45;&gt;Node15</title>
<path fill="none" stroke="#191970" d="M612.0211,-165.4179C607.7837,-157.8998 601.6305,-146.9829 596.387,-137.6799"/>
<polygon fill="#191970" stroke="#191970" points="599.3296,-135.7724 591.3704,-128.7795 593.2315,-139.2096 599.3296,-135.7724"/>
</g>
<!-- Node16 -->
<g id="node17" class="node">
<title>Node16</title>
<polygon fill="#ffffff" stroke="#bfbfbf" points="942.9678,-55.5 942.9678,-73.5 987.3125,-73.5 987.3125,-55.5 942.9678,-55.5"/>
<text text-anchor="middle" x="965.1401" y="-61.5" font-family="Helvetica,sans-Serif" font-size="10.00" fill="#000000">cstdlib</text>
</g>
<!-- Node3&#45;&gt;Node16 -->
<g id="edge25" class="edge">
<title>Node3&#45;&gt;Node16</title>
<path fill="none" stroke="#191970" d="M667.5472,-165.4312C707.3485,-157.6293 764.0044,-145.0933 812.1401,-129 831.9556,-122.3751 835.9297,-118.2159 855.1401,-110 881.3401,-98.7949 911.2277,-86.4607 933.2301,-77.4642"/>
<polygon fill="#191970" stroke="#191970" points="934.8069,-80.601 942.7428,-73.5816 932.1617,-74.12 934.8069,-80.601"/>
</g>
<!-- Node17 -->
<g id="node18" class="node">
<title>Node17</title>
<polygon fill="#ffffff" stroke="#bfbfbf" points="628.7534,-110.5 628.7534,-128.5 667.5269,-128.5 667.5269,-110.5 628.7534,-110.5"/>
<text text-anchor="middle" x="648.1401" y="-116.5" font-family="Helvetica,sans-Serif" font-size="10.00" fill="#000000">limits</text>
</g>
<!-- Node3&#45;&gt;Node17 -->
<g id="edge26" class="edge">
<title>Node3&#45;&gt;Node17</title>
<path fill="none" stroke="#191970" d="M622.2592,-165.4179C626.4966,-157.8998 632.6498,-146.9829 637.8933,-137.6799"/>
<polygon fill="#191970" stroke="#191970" points="641.0488,-139.2096 642.9099,-128.7795 634.9507,-135.7724 641.0488,-139.2096"/>
</g>
<!-- Node18 -->
<g id="node19" class="node">
<title>Node18</title>
<polygon fill="#ffffff" stroke="#bfbfbf" points="935.187,-110.5 935.187,-128.5 985.0933,-128.5 985.0933,-110.5 935.187,-110.5"/>
<text text-anchor="middle" x="960.1401" y="-116.5" font-family="Helvetica,sans-Serif" font-size="10.00" fill="#000000">random</text>
</g>
<!-- Node3&#45;&gt;Node18 -->
<g id="edge28" class="edge">
<title>Node3&#45;&gt;Node18</title>
<path fill="none" stroke="#191970" d="M673.1511,-167.6594C734.3439,-159.8275 835.1272,-145.8769 921.1401,-129 922.4095,-128.7509 923.6999,-128.488 925.0015,-128.2146"/>
<polygon fill="#191970" stroke="#191970" points="926.0447,-131.5678 935.0386,-125.9678 924.5156,-124.7368 926.0447,-131.5678"/>
</g>
<!-- Node19 -->
<g id="node20" class="node">
<title>Node19</title>
<polygon fill="#ffffff" stroke="#bfbfbf" points="1322.4702,-55.5 1322.4702,-73.5 1351.8101,-73.5 1351.8101,-55.5 1322.4702,-55.5"/>
<text text-anchor="middle" x="1337.1401" y="-61.5" font-family="Helvetica,sans-Serif" font-size="10.00" fill="#000000">set</text>
</g>
<!-- Node3&#45;&gt;Node19 -->
<g id="edge29" class="edge">
<title>Node3&#45;&gt;Node19</title>
<path fill="none" stroke="#191970" d="M673.1938,-166.5688C720.235,-159.1653 788.8893,-146.6052 847.1401,-129 868.314,-122.6006 871.6912,-115.4063 893.1401,-110 973.6927,-89.6965 1230.7783,-71.4853 1312.1754,-66.1045"/>
<polygon fill="#191970" stroke="#191970" points="1312.7082,-69.5772 1322.4582,-65.4316 1312.2509,-62.5922 1312.7082,-69.5772"/>
</g>
<!-- Node20 -->
<g id="node21" class="node">
<title>Node20</title>
<polygon fill="#ffffff" stroke="#bfbfbf" points="685.7388,-110.5 685.7388,-128.5 744.5415,-128.5 744.5415,-110.5 685.7388,-110.5"/>
<text text-anchor="middle" x="715.1401" y="-116.5" font-family="Helvetica,sans-Serif" font-size="10.00" fill="#000000">stdexcept</text>
</g>
<!-- Node3&#45;&gt;Node20 -->
<g id="edge30" class="edge">
<title>Node3&#45;&gt;Node20</title>
<path fill="none" stroke="#191970" d="M633.3228,-165.4179C648.7854,-156.7399 672.3169,-143.5334 690.181,-133.5077"/>
<polygon fill="#191970" stroke="#191970" points="691.9258,-136.542 698.9334,-128.5956 688.4999,-130.4377 691.9258,-136.542"/>
</g>
<!-- Node21 -->
<g id="node22" class="node">
<title>Node21</title>
<polygon fill="#ffffff" stroke="#bfbfbf" points="762.9136,-110.5 762.9136,-128.5 803.3667,-128.5 803.3667,-110.5 762.9136,-110.5"/>
<text text-anchor="middle" x="783.1401" y="-116.5" font-family="Helvetica,sans-Serif" font-size="10.00" fill="#000000">string</text>
</g>
<!-- Node3&#45;&gt;Node21 -->
<g id="edge31" class="edge">
<title>Node3&#45;&gt;Node21</title>
<path fill="none" stroke="#191970" d="M644.5517,-165.4179C674.3361,-155.5495 721.7955,-139.825 752.713,-129.5813"/>
<polygon fill="#191970" stroke="#191970" points="754.1227,-132.8014 762.5145,-126.3338 751.9211,-126.1566 754.1227,-132.8014"/>
</g>
<!-- Node22 -->
<g id="node23" class="node">
<title>Node22</title>
<polygon fill="#ffffff" stroke="#bfbfbf" points="164.2979,-110.5 164.2979,-128.5 201.9824,-128.5 201.9824,-110.5 164.2979,-110.5"/>
<text text-anchor="middle" x="183.1401" y="-116.5" font-family="Helvetica,sans-Serif" font-size="10.00" fill="#000000">tuple</text>
</g>
<!-- Node3&#45;&gt;Node22 -->
<g id="edge32" class="edge">
<title>Node3&#45;&gt;Node22</title>
<path fill="none" stroke="#191970" d="M561.2241,-171.1203C483.3105,-165.7403 337.9366,-153.2638 216.1401,-129 214.8575,-128.7445 213.5523,-128.463 212.2379,-128.1618"/>
<polygon fill="#191970" stroke="#191970" points="212.7589,-124.6818 202.2017,-125.5739 211.011,-131.46 212.7589,-124.6818"/>
</g>
<!-- Node23 -->
<g id="node24" class="node">
<title>Node23</title>
<polygon fill="#ffffff" stroke="#bfbfbf" points="1227.5244,-110.5 1227.5244,-128.5 1270.7559,-128.5 1270.7559,-110.5 1227.5244,-110.5"/>
<text text-anchor="middle" x="1249.1401" y="-116.5" font-family="Helvetica,sans-Serif" font-size="10.00" fill="#000000">vector</text>
</g>
<!-- Node3&#45;&gt;Node23 -->
<g id="edge34" class="edge">
<title>Node3&#45;&gt;Node23</title>
<path fill="none" stroke="#191970" d="M673.173,-171.8489C798.047,-165.6901 1096.9713,-149.4965 1217.2249,-128.6887"/>
<polygon fill="#191970" stroke="#191970" points="1218.0647,-132.0934 1227.2755,-126.8577 1216.8101,-125.2067 1218.0647,-132.0934"/>
</g>
<!-- Node4&#45;&gt;Node5 -->
<g id="edge5" class="edge">
<title>Node4&#45;&gt;Node5</title>
<path fill="none" stroke="#191970" d="M67.6808,-110.4179C80.2627,-101.9788 99.2297,-89.257 114.0112,-79.3426"/>
<polygon fill="#191970" stroke="#191970" points="116.2241,-82.0727 122.5794,-73.5956 112.3248,-76.2593 116.2241,-82.0727"/>
</g>
<!-- Node6&#45;&gt;Node2 -->
<g id="edge17" class="edge">
<title>Node6&#45;&gt;Node2</title>
<path fill="none" stroke="#191970" d="M412.6548,-110.4179C393.6097,-101.5409 364.398,-87.9253 342.7239,-77.823"/>
<polygon fill="#191970" stroke="#191970" points="344.1968,-74.648 333.6544,-73.5956 341.2395,-80.9927 344.1968,-74.648"/>
</g>
<!-- Node6&#45;&gt;Node5 -->
<g id="edge15" class="edge">
<title>Node6&#45;&gt;Node5</title>
<path fill="none" stroke="#191970" d="M396.1407,-112.8109C338.0988,-102.0261 224.7113,-80.9575 168.8453,-70.577"/>
<polygon fill="#191970" stroke="#191970" points="169.2619,-67.0945 158.7908,-68.7087 167.9831,-73.9768 169.2619,-67.0945"/>
</g>
<!-- Node6&#45;&gt;Node7 -->
<g id="edge8" class="edge">
<title>Node6&#45;&gt;Node7</title>
<path fill="none" stroke="#191970" d="M468.1209,-116.3546C492.1751,-114.3307 524.5368,-111.7596 553.1401,-110 908.6007,-88.1336 1002.4385,-115.801 1359.2113,-74.0735"/>
<polygon fill="#191970" stroke="#191970" points="1359.7825,-77.5304 1369.3036,-72.8829 1358.9624,-70.5786 1359.7825,-77.5304"/>
</g>
<!-- Node6&#45;&gt;Node9 -->
<g id="edge14" class="edge">
<title>Node6&#45;&gt;Node9</title>
<path fill="none" stroke="#191970" d="M438.012,-110.064C447.6934,-95.4324 468.5091,-67.6429 494.1401,-55 560.114,-22.4574 785.3576,-12.7956 869.2834,-10.2873"/>
<polygon fill="#191970" stroke="#191970" points="869.5832,-13.7803 879.4796,-9.9974 869.3841,-6.7832 869.5832,-13.7803"/>
</g>
<!-- Node6&#45;&gt;Node11 -->
<g id="edge18" class="edge">
<title>Node6&#45;&gt;Node11</title>
<path fill="none" stroke="#191970" d="M432.1401,-110.4982C432.1401,-92.6913 432.1401,-52.6225 432.1401,-28.6515"/>
<polygon fill="#191970" stroke="#191970" points="435.6402,-28.6261 432.1401,-18.6261 428.6402,-28.6262 435.6402,-28.6261"/>
</g>
<!-- Node6&#45;&gt;Node12 -->
<g id="edge13" class="edge">
<title>Node6&#45;&gt;Node12</title>
<path fill="none" stroke="#191970" d="M468.2353,-114.0759C538.9091,-103.4555 694.6645,-80.0496 763.8564,-69.6519"/>
<polygon fill="#191970" stroke="#191970" points="764.4358,-73.1042 773.8047,-68.157 763.3955,-66.182 764.4358,-73.1042"/>
</g>
<!-- Node13 -->
<g id="node14" class="node">
<title>Node13</title>
<polygon fill="#ffffff" stroke="#bfbfbf" points="357.8545,-55.5 357.8545,-73.5 404.4258,-73.5 404.4258,-55.5 357.8545,-55.5"/>
<text text-anchor="middle" x="381.1401" y="-61.5" font-family="Helvetica,sans-Serif" font-size="10.00" fill="#000000">math.h</text>
</g>
<!-- Node6&#45;&gt;Node13 -->
<g id="edge16" class="edge">
<title>Node6&#45;&gt;Node13</title>
<path fill="none" stroke="#191970" d="M423.7185,-110.4179C416.3803,-102.5041 405.55,-90.8243 396.6489,-81.2251"/>
<polygon fill="#191970" stroke="#191970" points="399.1106,-78.7324 389.7447,-73.7795 393.9777,-83.492 399.1106,-78.7324"/>
</g>
<!-- Node8 -->
<g id="node9" class="node">
<title>Node8</title>
<polygon fill="#ffffff" stroke="#bfbfbf" points="1357.7485,-.5 1357.7485,-18.5 1396.5317,-18.5 1396.5317,-.5 1357.7485,-.5"/>
<text text-anchor="middle" x="1377.1401" y="-6.5" font-family="Helvetica,sans-Serif" font-size="10.00" fill="#000000">array</text>
</g>
<!-- Node7&#45;&gt;Node8 -->
<g id="edge9" class="edge">
<title>Node7&#45;&gt;Node8</title>
<path fill="none" stroke="#191970" d="M1404.6909,-55.4179C1400.1325,-47.8207 1393.4917,-36.7527 1387.8721,-27.3866"/>
<polygon fill="#191970" stroke="#191970" points="1390.854,-25.5536 1382.7078,-18.7795 1384.8516,-29.1552 1390.854,-25.5536"/>
</g>
<!-- Node7&#45;&gt;Node9 -->
<g id="edge10" class="edge">
<title>Node7&#45;&gt;Node9</title>
<path fill="none" stroke="#191970" d="M1369.2815,-56.284C1366.531,-55.8218 1363.7982,-55.3883 1361.1401,-55 1201.0645,-31.6173 1007.8583,-16.8466 932.9566,-11.6239"/>
<polygon fill="#191970" stroke="#191970" points="932.999,-8.1186 922.782,-10.9227 932.5177,-15.102 932.999,-8.1186"/>
</g>
<!-- Node10 -->
<g id="node11" class="node">
<title>Node10</title>
<polygon fill="#ffffff" stroke="#bfbfbf" points="1414.9678,-.5 1414.9678,-18.5 1469.3125,-18.5 1469.3125,-.5 1414.9678,-.5"/>
<text text-anchor="middle" x="1442.1401" y="-6.5" font-family="Helvetica,sans-Serif" font-size="10.00" fill="#000000">iostream</text>
</g>
<!-- Node7&#45;&gt;Node10 -->
<g id="edge11" class="edge">
<title>Node7&#45;&gt;Node10</title>
<path fill="none" stroke="#191970" d="M1415.4243,-55.4179C1419.7984,-47.8998 1426.1501,-36.9829 1431.5628,-27.6799"/>
<polygon fill="#191970" stroke="#191970" points="1434.7374,-29.1831 1436.7412,-18.7795 1428.687,-25.6628 1434.7374,-29.1831"/>
</g>
<!-- Node7&#45;&gt;Node11 -->
<g id="edge12" class="edge">
<title>Node7&#45;&gt;Node11</title>
<path fill="none" stroke="#191970" d="M1369.302,-56.1308C1366.5465,-55.7056 1363.807,-55.3222 1361.1401,-55 1180.8613,-33.2219 600.2998,-14.5909 461.9422,-10.3867"/>
<polygon fill="#191970" stroke="#191970" points="461.7923,-6.8806 451.6911,-10.0771 461.5809,-13.8774 461.7923,-6.8806"/>
</g>
<!-- Node24&#45;&gt;Node7 -->
<g id="edge37" class="edge">
<title>Node24&#45;&gt;Node7</title>
<path fill="none" stroke="#191970" d="M1445.2047,-110.4179C1439.2823,-102.6624 1430.598,-91.29 1423.3537,-81.8035"/>
<polygon fill="#191970" stroke="#191970" points="1426.0771,-79.6029 1417.2263,-73.7795 1420.5137,-83.8514 1426.0771,-79.6029"/>
</g>
<!-- Node24&#45;&gt;Node19 -->
<g id="edge38" class="edge">
<title>Node24&#45;&gt;Node19</title>
<path fill="none" stroke="#191970" d="M1433.1502,-110.4179C1413.4554,-100.9986 1382.605,-86.2441 1361.2123,-76.0128"/>
<polygon fill="#191970" stroke="#191970" points="1362.6542,-72.8227 1352.1228,-71.6656 1359.634,-79.1377 1362.6542,-72.8227"/>
</g>
<!-- Node25&#45;&gt;Node7 -->
<g id="edge42" class="edge">
<title>Node25&#45;&gt;Node7</title>
<path fill="none" stroke="#191970" d="M1610.122,-171.9C1674.4995,-166.9006 1766.8814,-152.3349 1730.1401,-110 1712.7777,-89.9942 1546.9335,-74.7467 1461.0922,-68.1221"/>
<polygon fill="#191970" stroke="#191970" points="1461.2723,-64.6258 1451.0357,-67.3572 1460.7414,-71.6056 1461.2723,-64.6258"/>
</g>
<!-- Node25&#45;&gt;Node12 -->
<g id="edge43" class="edge">
<title>Node25&#45;&gt;Node12</title>
<path fill="none" stroke="#191970" d="M1550.9853,-165.4664C1545.3518,-150.8676 1532.0543,-122.4682 1510.1401,-110 1454.4048,-78.2892 998.1251,-78.2342 934.1401,-74 899.7387,-71.7235 860.4546,-68.9619 832.9821,-67.0043"/>
<polygon fill="#191970" stroke="#191970" points="832.9292,-63.4917 822.7052,-66.2703 832.4304,-70.4739 832.9292,-63.4917"/>
</g>
<!-- Node25&#45;&gt;Node23 -->
<g id="edge45" class="edge">
<title>Node25&#45;&gt;Node23</title>
<path fill="none" stroke="#191970" d="M1504.1171,-165.4795C1440.9008,-154.0798 1333.9577,-134.795 1280.9232,-125.2314"/>
<polygon fill="#191970" stroke="#191970" points="1281.5264,-121.7838 1271.064,-123.4535 1280.2841,-128.6727 1281.5264,-121.7838"/>
</g>
<!-- Node26 -->
<g id="node27" class="node">
<title>Node26</title>
<g id="a_node27"><a xlink:href="kd-search_8hpp.html" target="_top" xlink:title="ppht/kd&#45;search.hpp">
<polygon fill="#ffffff" stroke="#000000" points="1619.335,-110.5 1619.335,-128.5 1720.9453,-128.5 1720.9453,-110.5 1619.335,-110.5"/>
<text text-anchor="middle" x="1670.1401" y="-116.5" font-family="Helvetica,sans-Serif" font-size="10.00" fill="#000000">ppht/kd&#45;search.hpp</text>
</a>
</g>
</g>
<!-- Node25&#45;&gt;Node26 -->
<g id="edge40" class="edge">
<title>Node25&#45;&gt;Node26</title>
<path fill="none" stroke="#191970" d="M1573.2952,-165.4179C1591.9336,-156.5807 1620.4768,-143.0473 1641.7537,-132.9591"/>
<polygon fill="#191970" stroke="#191970" points="1643.4203,-136.0424 1650.9566,-128.5956 1640.4213,-129.7174 1643.4203,-136.0424"/>
</g>
<!-- Node27 -->
<g id="node28" class="node">
<title>Node27</title>
<polygon fill="#ffffff" stroke="#bfbfbf" points="1557.2363,-110.5 1557.2363,-128.5 1601.0439,-128.5 1601.0439,-110.5 1557.2363,-110.5"/>
<text text-anchor="middle" x="1579.1401" y="-116.5" font-family="Helvetica,sans-Serif" font-size="10.00" fill="#000000">queue</text>
</g>
<!-- Node25&#45;&gt;Node27 -->
<g id="edge44" class="edge">
<title>Node25&#45;&gt;Node27</title>
<path fill="none" stroke="#191970" d="M1558.2684,-165.4179C1561.6497,-157.9789 1566.5436,-147.2123 1570.7428,-137.9742"/>
<polygon fill="#191970" stroke="#191970" points="1573.9704,-139.3315 1574.9222,-128.7795 1567.5978,-136.4348 1573.9704,-139.3315"/>
</g>
<!-- Node26&#45;&gt;Node7 -->
<g id="edge41" class="edge">
<title>Node26&#45;&gt;Node7</title>
<path fill="none" stroke="#191970" d="M1627.4976,-110.4795C1581.9027,-100.8344 1509.624,-85.5447 1461.072,-75.274"/>
<polygon fill="#191970" stroke="#191970" points="1461.5976,-71.8079 1451.0898,-73.1624 1460.1489,-78.6563 1461.5976,-71.8079"/>
</g>
<!-- Node28&#45;&gt;Node1 -->
<g id="edge53" class="edge">
<title>Node28&#45;&gt;Node1</title>
<path fill="none" stroke="#191970" d="M1123.1104,-172.8458C1008.3803,-167.9553 668.5572,-152.4263 387.1401,-129 375.4145,-128.0239 362.8305,-126.7818 350.9506,-125.5202"/>
<polygon fill="#191970" stroke="#191970" points="351.0502,-122.0106 340.7313,-124.4127 350.2959,-128.9698 351.0502,-122.0106"/>
</g>
<!-- Node28&#45;&gt;Node7 -->
<g id="edge54" class="edge">
<title>Node28&#45;&gt;Node7</title>
<path fill="none" stroke="#191970" d="M1203.0632,-168.862C1238.698,-162.6811 1291.5285,-150.6319 1333.1401,-129 1356.9002,-116.6483 1379.8616,-95.9063 1394.4331,-81.2844"/>
<polygon fill="#191970" stroke="#191970" points="1397.1637,-83.4964 1401.617,-73.8829 1392.1406,-78.621 1397.1637,-83.4964"/>
</g>
<!-- Node28&#45;&gt;Node9 -->
<g id="edge57" class="edge">
<title>Node28&#45;&gt;Node9</title>
<path fill="none" stroke="#191970" d="M1198.6542,-165.4352C1229.4598,-156.7689 1270.5728,-142.9859 1280.1401,-129 1284.9079,-122.0303 1284.1555,-117.4287 1280.1401,-110 1258.9211,-70.7437 1237.8026,-70.9858 1196.1401,-55 1148.4766,-36.7117 999.4338,-19.622 933.2998,-12.7193"/>
<polygon fill="#191970" stroke="#191970" points="933.3638,-9.2074 923.0574,-11.6627 932.6454,-16.1705 933.3638,-9.2074"/>
</g>
<!-- Node28&#45;&gt;Node12 -->
<g id="edge56" class="edge">
<title>Node28&#45;&gt;Node12</title>
<path fill="none" stroke="#191970" d="M1153.1569,-165.2943C1137.0239,-150.9785 1103.6332,-123.6136 1070.1401,-110 1027.5824,-92.7019 895.9893,-75.7706 832.7567,-68.376"/>
<polygon fill="#191970" stroke="#191970" points="832.8351,-64.8618 822.4993,-67.1902 832.0311,-71.8155 832.8351,-64.8618"/>
</g>
<!-- Node28&#45;&gt;Node14 -->
<g id="edge55" class="edge">
<title>Node28&#45;&gt;Node14</title>
<path fill="none" stroke="#191970" d="M1141.5082,-165.4179C1120.1752,-156.4613 1087.3522,-142.6806 1063.2276,-132.552"/>
<polygon fill="#191970" stroke="#191970" points="1064.3795,-129.2397 1053.8043,-128.5956 1061.6697,-135.6939 1064.3795,-129.2397"/>
</g>
<!-- Node28&#45;&gt;Node18 -->
<g id="edge58" class="edge">
<title>Node28&#45;&gt;Node18</title>
<path fill="none" stroke="#191970" d="M1129.1262,-165.4437C1096.9803,-156.8623 1047.1493,-143.5024 995.1205,-129.2522"/>
<polygon fill="#191970" stroke="#191970" points="995.9534,-125.8515 985.3838,-126.582 994.102,-132.6022 995.9534,-125.8515"/>
</g>
<!-- Node28&#45;&gt;Node19 -->
<g id="edge59" class="edge">
<title>Node28&#45;&gt;Node19</title>
<path fill="none" stroke="#191970" d="M1203.1849,-166.552C1241.9657,-158.133 1297.1792,-144.0052 1313.1401,-129 1325.6415,-117.2472 1331.6696,-98.3828 1334.553,-84.0842"/>
<polygon fill="#191970" stroke="#191970" points="1338.0721,-84.2567 1336.2548,-73.8189 1331.1664,-83.1118 1338.0721,-84.2567"/>
</g>
<!-- Node28&#45;&gt;Node23 -->
<g id="edge60" class="edge">
<title>Node28&#45;&gt;Node23</title>
<path fill="none" stroke="#191970" d="M1177.3413,-165.4179C1190.6615,-156.8992 1210.8052,-144.0166 1226.3693,-134.0627"/>
<polygon fill="#191970" stroke="#191970" points="1228.3791,-136.932 1234.9179,-128.5956 1224.6076,-131.0348 1228.3791,-136.932"/>
</g>
<!-- Node28&#45;&gt;Node24 -->
<g id="edge52" class="edge">
<title>Node28&#45;&gt;Node24</title>
<path fill="none" stroke="#191970" d="M1203.0209,-166.9102C1252.686,-157.4584 1337.8899,-141.2431 1394.6155,-130.4476"/>
<polygon fill="#191970" stroke="#191970" points="1395.342,-133.8722 1404.5113,-128.5643 1394.0332,-126.9957 1395.342,-133.8722"/>
</g>
<!-- Node29 -->
<g id="node30" class="node">
<title>Node29</title>
<g id="a_node30"><a xlink:href="channel_8hpp.html" target="_top" xlink:title="ppht/channel.hpp">
<polygon fill="#ffffff" stroke="#000000" points="1116.7734,-110.5 1116.7734,-128.5 1209.5068,-128.5 1209.5068,-110.5 1116.7734,-110.5"/>
<text text-anchor="middle" x="1163.1401" y="-116.5" font-family="Helvetica,sans-Serif" font-size="10.00" fill="#000000">ppht/channel.hpp</text>
</a>
</g>
</g>
<!-- Node28&#45;&gt;Node29 -->
<g id="edge47" class="edge">
<title>Node28&#45;&gt;Node29</title>
<path fill="none" stroke="#191970" d="M1163.1401,-165.4179C1163.1401,-158.2164 1163.1401,-147.8962 1163.1401,-138.8632"/>
<polygon fill="#191970" stroke="#191970" points="1166.6402,-138.7794 1163.1401,-128.7795 1159.6402,-138.7795 1166.6402,-138.7794"/>
</g>
<!-- Node29&#45;&gt;Node2 -->
<g id="edge51" class="edge">
<title>Node29&#45;&gt;Node2</title>
<path fill="none" stroke="#191970" d="M1116.348,-114.2413C1101.5794,-112.7101 1085.1905,-111.1437 1070.1401,-110 753.4993,-85.9387 667.7659,-123.528 350.323,-73.8456"/>
<polygon fill="#191970" stroke="#191970" points="350.8056,-70.3785 340.3816,-72.2732 349.712,-77.2925 350.8056,-70.3785"/>
</g>
<!-- Node29&#45;&gt;Node7 -->
<g id="edge48" class="edge">
<title>Node29&#45;&gt;Node7</title>
<path fill="none" stroke="#191970" d="M1203.6506,-110.4795C1246.3651,-100.9681 1313.731,-85.9676 1359.8232,-75.7042"/>
<polygon fill="#191970" stroke="#191970" points="1360.6074,-79.1154 1369.6076,-73.5255 1359.0859,-72.2827 1360.6074,-79.1154"/>
</g>
<!-- Node29&#45;&gt;Node16 -->
<g id="edge49" class="edge">
<title>Node29&#45;&gt;Node16</title>
<path fill="none" stroke="#191970" d="M1130.4445,-110.4179C1093.4974,-100.1548 1033.7478,-83.5577 997.1048,-73.3791"/>
<polygon fill="#191970" stroke="#191970" points="997.9924,-69.9932 987.4204,-70.689 996.1188,-76.7378 997.9924,-69.9932"/>
</g>
<!-- Node30 -->
<g id="node31" class="node">
<title>Node30</title>
<polygon fill="#ffffff" stroke="#bfbfbf" points="1139.5786,-55.5 1139.5786,-73.5 1186.7017,-73.5 1186.7017,-55.5 1139.5786,-55.5"/>
<text text-anchor="middle" x="1163.1401" y="-61.5" font-family="Helvetica,sans-Serif" font-size="10.00" fill="#000000">iterator</text>
</g>
<!-- Node29&#45;&gt;Node30 -->
<g id="edge50" class="edge">
<title>Node29&#45;&gt;Node30</title>
<path fill="none" stroke="#191970" d="M1163.1401,-110.4179C1163.1401,-103.2164 1163.1401,-92.8962 1163.1401,-83.8632"/>
<polygon fill="#191970" stroke="#191970" points="1166.6402,-83.7794 1163.1401,-73.7795 1159.6402,-83.7795 1166.6402,-83.7794"/>
</g>
</g>
</svg>
