<?xml version="1.0" encoding="UTF-8" standalone="no"?>
<!DOCTYPE svg PUBLIC "-//W3C//DTD SVG 1.1//EN"
 "http://www.w3.org/Graphics/SVG/1.1/DTD/svg11.dtd">
<!-- Generated by graphviz version 2.48.0 (20210717.1556)
 -->
<!-- Title: ppht.hpp Pages: 1 -->
<svg width="1745pt" height="247pt"
 viewBox="0.00 0.00 1745.00 247.00" xmlns="http://www.w3.org/2000/svg" xmlns:xlink="http://www.w3.org/1999/xlink">
<g id="graph0" class="graph" transform="scale(1 1) rotate(0) translate(4 243)">
<title>ppht.hpp</title>
<polygon fill="white" stroke="transparent" points="-4,4 -4,-243 1741,-243 1741,4 -4,4"/>
<!-- Node1 -->
<g id="node1" class="node">
<title>Node1</title>
<g id="a_node1"><a xlink:title=" ">
<polygon fill="#bfbfbf" stroke="black" points="678.44,-220.5 678.44,-238.5 733.37,-238.5 733.37,-220.5 678.44,-220.5"/>
<text text-anchor="middle" x="705.9" y="-226.5" font-family="Helvetica,sans-Serif" font-size="10.00">ppht.hpp</text>
</a>
</g>
</g>
<!-- Node2 -->
<g id="node2" class="node">
<title>Node2</title>
<g id="a_node2"><a xlink:href="accumulator_8hpp.html" target="_top" xlink:title=" ">
<polygon fill="white" stroke="black" points="1067.09,-165.5 1067.09,-183.5 1178.72,-183.5 1178.72,-165.5 1067.09,-165.5"/>
<text text-anchor="middle" x="1122.9" y="-171.5" font-family="Helvetica,sans-Serif" font-size="10.00">ppht/accumulator.hpp</text>
</a>
</g>
</g>
<!-- Node1&#45;&gt;Node2 -->
<g id="edge1" class="edge">
<title>Node1&#45;&gt;Node2</title>
<path fill="none" stroke="midnightblue" d="M733.59,-224.98C798.9,-216.68 964.06,-195.69 1056.91,-183.89"/>
<polygon fill="midnightblue" stroke="midnightblue" points="1057.56,-187.33 1067.04,-182.6 1056.68,-180.39 1057.56,-187.33"/>
</g>
<!-- Node3 -->
<g id="node3" class="node">
<title>Node3</title>
<g id="a_node3"><a xlink:href="parameters_8hpp.html" target="_top" xlink:title=" ">
<polygon fill="white" stroke="black" points="1612.76,-110.5 1612.76,-128.5 1721.04,-128.5 1721.04,-110.5 1612.76,-110.5"/>
<text text-anchor="middle" x="1666.9" y="-116.5" font-family="Helvetica,sans-Serif" font-size="10.00">ppht/parameters.hpp</text>
</a>
</g>
</g>
<!-- Node1&#45;&gt;Node3 -->
<g id="edge34" class="edge">
<title>Node1&#45;&gt;Node3</title>
<path fill="none" stroke="midnightblue" d="M733.39,-226.34C807.09,-220.48 1015.24,-203.38 1187.9,-184 1369.98,-163.57 1417.39,-154.03 1602.54,-129.18"/>
<polygon fill="midnightblue" stroke="midnightblue" points="1603.16,-132.63 1612.61,-127.83 1602.23,-125.69 1603.16,-132.63"/>
</g>
<!-- Node5 -->
<g id="node5" class="node">
<title>Node5</title>
<g id="a_node5"><a xlink:href="raster_8hpp.html" target="_top" xlink:title=" ">
<polygon fill="white" stroke="black" points="811.54,-110.5 811.54,-128.5 894.26,-128.5 894.26,-110.5 811.54,-110.5"/>
<text text-anchor="middle" x="852.9" y="-116.5" font-family="Helvetica,sans-Serif" font-size="10.00">ppht/raster.hpp</text>
</a>
</g>
</g>
<!-- Node1&#45;&gt;Node5 -->
<g id="edge46" class="edge">
<title>Node1&#45;&gt;Node5</title>
<path fill="none" stroke="midnightblue" d="M716.95,-220.38C741.75,-202.17 802.09,-157.83 833.37,-134.85"/>
<polygon fill="midnightblue" stroke="midnightblue" points="835.74,-137.45 841.73,-128.71 831.6,-131.81 835.74,-137.45"/>
</g>
<!-- Node25 -->
<g id="node25" class="node">
<title>Node25</title>
<g id="a_node25"><a xlink:href="point__set_8hpp.html" target="_top" xlink:title=" ">
<polygon fill="white" stroke="black" points="333.76,-110.5 333.76,-128.5 432.05,-128.5 432.05,-110.5 333.76,-110.5"/>
<text text-anchor="middle" x="382.9" y="-116.5" font-family="Helvetica,sans-Serif" font-size="10.00">ppht/point_set.hpp</text>
</a>
</g>
</g>
<!-- Node1&#45;&gt;Node25 -->
<g id="edge35" class="edge">
<title>Node1&#45;&gt;Node25</title>
<path fill="none" stroke="midnightblue" d="M678.19,-224.3C639.85,-218.01 568.8,-204.64 510.9,-184 472.37,-170.26 430.36,-147.87 405.34,-133.67"/>
<polygon fill="midnightblue" stroke="midnightblue" points="407.05,-130.62 396.63,-128.67 403.56,-136.69 407.05,-130.62"/>
</g>
<!-- Node26 -->
<g id="node26" class="node">
<title>Node26</title>
<g id="a_node26"><a xlink:href="postprocess_8hpp.html" target="_top" xlink:title=" ">
<polygon fill="white" stroke="black" points="247.09,-165.5 247.09,-183.5 358.71,-183.5 358.71,-165.5 247.09,-165.5"/>
<text text-anchor="middle" x="302.9" y="-171.5" font-family="Helvetica,sans-Serif" font-size="10.00">ppht/postprocess.hpp</text>
</a>
</g>
</g>
<!-- Node1&#45;&gt;Node26 -->
<g id="edge38" class="edge">
<title>Node1&#45;&gt;Node26</title>
<path fill="none" stroke="midnightblue" d="M678.2,-224.86C615.02,-216.55 458.79,-196 369.09,-184.2"/>
<polygon fill="midnightblue" stroke="midnightblue" points="369.39,-180.71 359.02,-182.88 368.48,-187.65 369.39,-180.71"/>
</g>
<!-- Node29 -->
<g id="node29" class="node">
<title>Node29</title>
<g id="a_node29"><a xlink:href="state_8hpp.html" target="_top" xlink:title=" ">
<polygon fill="white" stroke="black" points="520.21,-165.5 520.21,-183.5 599.6,-183.5 599.6,-165.5 520.21,-165.5"/>
<text text-anchor="middle" x="559.9" y="-171.5" font-family="Helvetica,sans-Serif" font-size="10.00">ppht/state.hpp</text>
</a>
</g>
</g>
<!-- Node1&#45;&gt;Node29 -->
<g id="edge47" class="edge">
<title>Node1&#45;&gt;Node29</title>
<path fill="none" stroke="midnightblue" d="M683.73,-220.45C659.29,-211.58 619.76,-197.23 591.95,-187.13"/>
<polygon fill="midnightblue" stroke="midnightblue" points="592.88,-183.75 582.29,-183.63 590.49,-190.33 592.88,-183.75"/>
</g>
<!-- Node2&#45;&gt;Node3 -->
<g id="edge2" class="edge">
<title>Node2&#45;&gt;Node3</title>
<path fill="none" stroke="midnightblue" d="M1178.9,-169.09C1266.84,-161.98 1442.96,-147.08 1602.62,-129.1"/>
<polygon fill="midnightblue" stroke="midnightblue" points="1603.08,-132.57 1612.63,-127.97 1602.3,-125.62 1603.08,-132.57"/>
</g>
<!-- Node4 -->
<g id="node4" class="node">
<title>Node4</title>
<g id="a_node4"><a xlink:title=" ">
<polygon fill="white" stroke="#bfbfbf" points="1296.45,-55.5 1296.45,-73.5 1341.35,-73.5 1341.35,-55.5 1296.45,-55.5"/>
<text text-anchor="middle" x="1318.9" y="-61.5" font-family="Helvetica,sans-Serif" font-size="10.00">cstdint</text>
</a>
</g>
</g>
<!-- Node2&#45;&gt;Node4 -->
<g id="edge23" class="edge">
<title>Node2&#45;&gt;Node4</title>
<path fill="none" stroke="midnightblue" d="M1158.31,-165.45C1185.02,-158.39 1221.9,-146.5 1250.9,-129 1272.21,-116.15 1292.49,-95.77 1305.27,-81.58"/>
<polygon fill="midnightblue" stroke="midnightblue" points="1308.25,-83.49 1312.2,-73.67 1302.98,-78.88 1308.25,-83.49"/>
</g>
<!-- Node2&#45;&gt;Node5 -->
<g id="edge4" class="edge">
<title>Node2&#45;&gt;Node5</title>
<path fill="none" stroke="midnightblue" d="M1081.9,-165.45C1034.18,-156.08 955.37,-140.61 903.79,-130.49"/>
<polygon fill="midnightblue" stroke="midnightblue" points="904.34,-127.03 893.85,-128.54 902.99,-133.9 904.34,-127.03"/>
</g>
<!-- Node6 -->
<g id="node6" class="node">
<title>Node6</title>
<g id="a_node6"><a xlink:title=" ">
<polygon fill="white" stroke="#bfbfbf" points="1024.85,-55.5 1024.85,-73.5 1076.96,-73.5 1076.96,-55.5 1024.85,-55.5"/>
<text text-anchor="middle" x="1050.9" y="-61.5" font-family="Helvetica,sans-Serif" font-size="10.00">memory</text>
</a>
</g>
</g>
<!-- Node2&#45;&gt;Node6 -->
<g id="edge26" class="edge">
<title>Node2&#45;&gt;Node6</title>
<path fill="none" stroke="midnightblue" d="M1117.49,-165.38C1105.76,-147.79 1077.8,-105.85 1062.1,-82.29"/>
<polygon fill="midnightblue" stroke="midnightblue" points="1064.84,-80.09 1056.38,-73.71 1059.01,-83.97 1064.84,-80.09"/>
</g>
<!-- Node7 -->
<g id="node7" class="node">
<title>Node7</title>
<g id="a_node7"><a xlink:href="trig_8hpp.html" target="_top" xlink:title=" ">
<polygon fill="white" stroke="black" points="1170.11,-110.5 1170.11,-128.5 1241.7,-128.5 1241.7,-110.5 1170.11,-110.5"/>
<text text-anchor="middle" x="1205.9" y="-116.5" font-family="Helvetica,sans-Serif" font-size="10.00">ppht/trig.hpp</text>
</a>
</g>
</g>
<!-- Node2&#45;&gt;Node7 -->
<g id="edge6" class="edge">
<title>Node2&#45;&gt;Node7</title>
<path fill="none" stroke="midnightblue" d="M1135.51,-165.45C1148.55,-157.12 1169.15,-143.97 1184.7,-134.04"/>
<polygon fill="midnightblue" stroke="midnightblue" points="1186.63,-136.96 1193.18,-128.63 1182.87,-131.06 1186.63,-136.96"/>
</g>
<!-- Node8 -->
<g id="node8" class="node">
<title>Node8</title>
<g id="a_node8"><a xlink:href="types_8hpp.html" target="_top" xlink:title=" ">
<polygon fill="white" stroke="black" points="492.1,-55.5 492.1,-73.5 573.71,-73.5 573.71,-55.5 492.1,-55.5"/>
<text text-anchor="middle" x="532.9" y="-61.5" font-family="Helvetica,sans-Serif" font-size="10.00">ppht/types.hpp</text>
</a>
</g>
</g>
<!-- Node2&#45;&gt;Node8 -->
<g id="edge18" class="edge">
<title>Node2&#45;&gt;Node8</title>
<path fill="none" stroke="midnightblue" d="M1066.71,-172.45C952.61,-169.69 697.76,-160.13 616.9,-129 589.59,-118.48 563.59,-96.29 547.94,-81.13"/>
<polygon fill="midnightblue" stroke="midnightblue" points="550.29,-78.54 540.75,-73.95 545.35,-83.49 550.29,-78.54"/>
</g>
<!-- Node10 -->
<g id="node10" class="node">
<title>Node10</title>
<g id="a_node10"><a xlink:title=" ">
<polygon fill="white" stroke="#bfbfbf" points="849.29,-0.5 849.29,-18.5 892.52,-18.5 892.52,-0.5 849.29,-0.5"/>
<text text-anchor="middle" x="870.9" y="-6.5" font-family="Helvetica,sans-Serif" font-size="10.00">cmath</text>
</a>
</g>
</g>
<!-- Node2&#45;&gt;Node10 -->
<g id="edge21" class="edge">
<title>Node2&#45;&gt;Node10</title>
<path fill="none" stroke="midnightblue" d="M1122.99,-165.43C1122.75,-143.95 1118.97,-84.95 1085.9,-55 1059.41,-31 956.31,-18.28 903.09,-13.19"/>
<polygon fill="midnightblue" stroke="midnightblue" points="903.12,-9.68 892.84,-12.25 902.48,-16.65 903.12,-9.68"/>
</g>
<!-- Node12 -->
<g id="node12" class="node">
<title>Node12</title>
<g id="a_node12"><a xlink:title=" ">
<polygon fill="white" stroke="#bfbfbf" points="1249.51,-0.5 1249.51,-18.5 1288.3,-18.5 1288.3,-0.5 1249.51,-0.5"/>
<text text-anchor="middle" x="1268.9" y="-6.5" font-family="Helvetica,sans-Serif" font-size="10.00">utility</text>
</a>
</g>
</g>
<!-- Node2&#45;&gt;Node12 -->
<g id="edge32" class="edge">
<title>Node2&#45;&gt;Node12</title>
<path fill="none" stroke="midnightblue" d="M1178.82,-173.63C1321.94,-173.39 1692.84,-168.88 1729.9,-129 1791.56,-62.66 1409.64,-23.05 1298.56,-13.03"/>
<polygon fill="midnightblue" stroke="midnightblue" points="1298.67,-9.52 1288.4,-12.13 1298.05,-16.5 1298.67,-9.52"/>
</g>
<!-- Node13 -->
<g id="node13" class="node">
<title>Node13</title>
<g id="a_node13"><a xlink:title=" ">
<polygon fill="white" stroke="#bfbfbf" points="909.79,-55.5 909.79,-73.5 958.02,-73.5 958.02,-55.5 909.79,-55.5"/>
<text text-anchor="middle" x="933.9" y="-61.5" font-family="Helvetica,sans-Serif" font-size="10.00">cassert</text>
</a>
</g>
</g>
<!-- Node2&#45;&gt;Node13 -->
<g id="edge20" class="edge">
<title>Node2&#45;&gt;Node13</title>
<path fill="none" stroke="midnightblue" d="M1114.03,-165.19C1099.73,-152.12 1070.31,-126.56 1041.9,-110 1018.36,-96.27 989.76,-84.69 967.91,-76.79"/>
<polygon fill="midnightblue" stroke="midnightblue" points="968.99,-73.46 958.39,-73.42 966.65,-80.05 968.99,-73.46"/>
</g>
<!-- Node15 -->
<g id="node15" class="node">
<title>Node15</title>
<g id="a_node15"><a xlink:title=" ">
<polygon fill="white" stroke="#bfbfbf" points="81.34,-55.5 81.34,-73.5 138.47,-73.5 138.47,-55.5 81.34,-55.5"/>
<text text-anchor="middle" x="109.9" y="-61.5" font-family="Helvetica,sans-Serif" font-size="10.00">algorithm</text>
</a>
</g>
</g>
<!-- Node2&#45;&gt;Node15 -->
<g id="edge19" class="edge">
<title>Node2&#45;&gt;Node15</title>
<path fill="none" stroke="midnightblue" d="M1066.86,-172.77C862.32,-169.89 166.06,-157.98 128.9,-129 115.31,-118.4 111.12,-98.46 109.98,-83.74"/>
<polygon fill="midnightblue" stroke="midnightblue" points="113.48,-83.6 109.6,-73.74 106.49,-83.87 113.48,-83.6"/>
</g>
<!-- Node16 -->
<g id="node16" class="node">
<title>Node16</title>
<g id="a_node16"><a xlink:title=" ">
<polygon fill="white" stroke="#bfbfbf" points="1297.78,-110.5 1297.78,-128.5 1346.02,-128.5 1346.02,-110.5 1297.78,-110.5"/>
<text text-anchor="middle" x="1321.9" y="-116.5" font-family="Helvetica,sans-Serif" font-size="10.00">cstddef</text>
</a>
</g>
</g>
<!-- Node2&#45;&gt;Node16 -->
<g id="edge22" class="edge">
<title>Node2&#45;&gt;Node16</title>
<path fill="none" stroke="midnightblue" d="M1153.13,-165.45C1189.3,-155.82 1249.74,-139.72 1287.62,-129.63"/>
<polygon fill="midnightblue" stroke="midnightblue" points="1288.91,-132.91 1297.67,-126.95 1287.11,-126.15 1288.91,-132.91"/>
</g>
<!-- Node17 -->
<g id="node17" class="node">
<title>Node17</title>
<g id="a_node17"><a xlink:title=" ">
<polygon fill="white" stroke="#bfbfbf" points="750.73,-55.5 750.73,-73.5 795.08,-73.5 795.08,-55.5 750.73,-55.5"/>
<text text-anchor="middle" x="772.9" y="-61.5" font-family="Helvetica,sans-Serif" font-size="10.00">cstdlib</text>
</a>
</g>
</g>
<!-- Node2&#45;&gt;Node17 -->
<g id="edge24" class="edge">
<title>Node2&#45;&gt;Node17</title>
<path fill="none" stroke="midnightblue" d="M1108.14,-165.3C1078.73,-149.02 1014.72,-113.83 1003.9,-110 935.47,-85.77 850.7,-73.74 805.28,-68.64"/>
<polygon fill="midnightblue" stroke="midnightblue" points="805.46,-65.14 795.14,-67.55 804.7,-72.1 805.46,-65.14"/>
</g>
<!-- Node18 -->
<g id="node18" class="node">
<title>Node18</title>
<g id="a_node18"><a xlink:title=" ">
<polygon fill="white" stroke="#bfbfbf" points="1364.52,-110.5 1364.52,-128.5 1403.29,-128.5 1403.29,-110.5 1364.52,-110.5"/>
<text text-anchor="middle" x="1383.9" y="-116.5" font-family="Helvetica,sans-Serif" font-size="10.00">limits</text>
</a>
</g>
</g>
<!-- Node2&#45;&gt;Node18 -->
<g id="edge25" class="edge">
<title>Node2&#45;&gt;Node18</title>
<path fill="none" stroke="midnightblue" d="M1172.08,-165.47C1217.03,-157.82 1285.53,-145.37 1354.19,-128.97"/>
<polygon fill="midnightblue" stroke="midnightblue" points="1355.42,-132.27 1364.32,-126.52 1353.77,-125.47 1355.42,-132.27"/>
</g>
<!-- Node19 -->
<g id="node19" class="node">
<title>Node19</title>
<g id="a_node19"><a xlink:title=" ">
<polygon fill="white" stroke="#bfbfbf" points="911.95,-110.5 911.95,-128.5 961.86,-128.5 961.86,-110.5 911.95,-110.5"/>
<text text-anchor="middle" x="936.9" y="-116.5" font-family="Helvetica,sans-Serif" font-size="10.00">random</text>
</a>
</g>
</g>
<!-- Node2&#45;&gt;Node19 -->
<g id="edge27" class="edge">
<title>Node2&#45;&gt;Node19</title>
<path fill="none" stroke="midnightblue" d="M1094.65,-165.45C1061.82,-156.09 1007.6,-140.65 972.07,-130.52"/>
<polygon fill="midnightblue" stroke="midnightblue" points="972.71,-127.06 962.13,-127.69 970.79,-133.79 972.71,-127.06"/>
</g>
<!-- Node20 -->
<g id="node20" class="node">
<title>Node20</title>
<g id="a_node20"><a xlink:title=" ">
<polygon fill="white" stroke="#bfbfbf" points="591.23,-55.5 591.23,-73.5 620.57,-73.5 620.57,-55.5 591.23,-55.5"/>
<text text-anchor="middle" x="605.9" y="-61.5" font-family="Helvetica,sans-Serif" font-size="10.00">set</text>
</a>
</g>
</g>
<!-- Node2&#45;&gt;Node20 -->
<g id="edge28" class="edge">
<title>Node2&#45;&gt;Node20</title>
<path fill="none" stroke="midnightblue" d="M1097.8,-165.46C1073.37,-157.32 1035.43,-143.85 1003.9,-129 988.59,-121.79 986.99,-115.25 970.9,-110 829.8,-63.99 784.92,-100.58 638.9,-74 636.16,-73.5 633.31,-72.9 630.48,-72.24"/>
<polygon fill="midnightblue" stroke="midnightblue" points="631.14,-68.8 620.59,-69.77 629.44,-75.59 631.14,-68.8"/>
</g>
<!-- Node21 -->
<g id="node21" class="node">
<title>Node21</title>
<g id="a_node21"><a xlink:title=" ">
<polygon fill="white" stroke="#bfbfbf" points="1421.5,-110.5 1421.5,-128.5 1480.31,-128.5 1480.31,-110.5 1421.5,-110.5"/>
<text text-anchor="middle" x="1450.9" y="-116.5" font-family="Helvetica,sans-Serif" font-size="10.00">stdexcept</text>
</a>
</g>
</g>
<!-- Node2&#45;&gt;Node21 -->
<g id="edge29" class="edge">
<title>Node2&#45;&gt;Node21</title>
<path fill="none" stroke="midnightblue" d="M1178.75,-165.94C1234.92,-158.11 1324.24,-145.02 1411.1,-129.05"/>
<polygon fill="midnightblue" stroke="midnightblue" points="1411.94,-132.45 1421.13,-127.19 1410.66,-125.57 1411.94,-132.45"/>
</g>
<!-- Node22 -->
<g id="node22" class="node">
<title>Node22</title>
<g id="a_node22"><a xlink:title=" ">
<polygon fill="white" stroke="#bfbfbf" points="1498.68,-110.5 1498.68,-128.5 1539.13,-128.5 1539.13,-110.5 1498.68,-110.5"/>
<text text-anchor="middle" x="1518.9" y="-116.5" font-family="Helvetica,sans-Serif" font-size="10.00">string</text>
</a>
</g>
</g>
<!-- Node2&#45;&gt;Node22 -->
<g id="edge30" class="edge">
<title>Node2&#45;&gt;Node22</title>
<path fill="none" stroke="midnightblue" d="M1178.83,-169.41C1250.99,-163.52 1380.19,-150.87 1488.9,-129 1489,-128.98 1489.1,-128.96 1489.2,-128.94"/>
<polygon fill="midnightblue" stroke="midnightblue" points="1489.75,-132.41 1498.67,-126.69 1488.14,-125.6 1489.75,-132.41"/>
</g>
<!-- Node23 -->
<g id="node23" class="node">
<title>Node23</title>
<g id="a_node23"><a xlink:title=" ">
<polygon fill="white" stroke="#bfbfbf" points="1557.06,-110.5 1557.06,-128.5 1594.75,-128.5 1594.75,-110.5 1557.06,-110.5"/>
<text text-anchor="middle" x="1575.9" y="-116.5" font-family="Helvetica,sans-Serif" font-size="10.00">tuple</text>
</a>
</g>
</g>
<!-- Node2&#45;&gt;Node23 -->
<g id="edge31" class="edge">
<title>Node2&#45;&gt;Node23</title>
<path fill="none" stroke="midnightblue" d="M1178.77,-171.04C1258.59,-166.79 1409.89,-155.96 1547.19,-128.74"/>
<polygon fill="midnightblue" stroke="midnightblue" points="1547.94,-132.16 1557.05,-126.76 1546.56,-125.3 1547.94,-132.16"/>
</g>
<!-- Node24 -->
<g id="node24" class="node">
<title>Node24</title>
<g id="a_node24"><a xlink:title=" ">
<polygon fill="white" stroke="#bfbfbf" points="450.29,-110.5 450.29,-128.5 493.52,-128.5 493.52,-110.5 450.29,-110.5"/>
<text text-anchor="middle" x="471.9" y="-116.5" font-family="Helvetica,sans-Serif" font-size="10.00">vector</text>
</a>
</g>
</g>
<!-- Node2&#45;&gt;Node24 -->
<g id="edge33" class="edge">
<title>Node2&#45;&gt;Node24</title>
<path fill="none" stroke="midnightblue" d="M1066.84,-168.94C934.73,-158.18 607.27,-131.52 503.78,-123.1"/>
<polygon fill="midnightblue" stroke="midnightblue" points="503.91,-119.59 493.66,-122.27 503.34,-126.57 503.91,-119.59"/>
</g>
<!-- Node3&#45;&gt;Node4 -->
<g id="edge3" class="edge">
<title>Node3&#45;&gt;Node4</title>
<path fill="none" stroke="midnightblue" d="M1614.05,-110.45C1541.23,-99.36 1412.19,-79.71 1351.8,-70.51"/>
<polygon fill="midnightblue" stroke="midnightblue" points="1352.1,-67.02 1341.69,-68.97 1351.05,-73.94 1352.1,-67.02"/>
</g>
<!-- Node5&#45;&gt;Node6 -->
<g id="edge5" class="edge">
<title>Node5&#45;&gt;Node6</title>
<path fill="none" stroke="midnightblue" d="M882.98,-110.45C918.28,-101 976.79,-85.34 1014.59,-75.22"/>
<polygon fill="midnightblue" stroke="midnightblue" points="1015.92,-78.49 1024.67,-72.52 1014.11,-71.73 1015.92,-78.49"/>
</g>
<!-- Node7&#45;&gt;Node4 -->
<g id="edge14" class="edge">
<title>Node7&#45;&gt;Node4</title>
<path fill="none" stroke="midnightblue" d="M1223.07,-110.45C1241.48,-101.81 1270.97,-87.98 1292.38,-77.94"/>
<polygon fill="midnightblue" stroke="midnightblue" points="1294.01,-81.04 1301.58,-73.63 1291.04,-74.7 1294.01,-81.04"/>
</g>
<!-- Node7&#45;&gt;Node6 -->
<g id="edge16" class="edge">
<title>Node7&#45;&gt;Node6</title>
<path fill="none" stroke="midnightblue" d="M1182.36,-110.45C1156.11,-101.47 1113.47,-86.89 1083.9,-76.78"/>
<polygon fill="midnightblue" stroke="midnightblue" points="1085.01,-73.46 1074.41,-73.54 1082.74,-80.09 1085.01,-73.46"/>
</g>
<!-- Node7&#45;&gt;Node8 -->
<g id="edge7" class="edge">
<title>Node7&#45;&gt;Node8</title>
<path fill="none" stroke="midnightblue" d="M1169.91,-117.2C1075.42,-113.52 812.39,-101.54 583.93,-74.14"/>
<polygon fill="midnightblue" stroke="midnightblue" points="584.11,-70.63 573.77,-72.9 583.27,-77.58 584.11,-70.63"/>
</g>
<!-- Node7&#45;&gt;Node10 -->
<g id="edge13" class="edge">
<title>Node7&#45;&gt;Node10</title>
<path fill="none" stroke="midnightblue" d="M1200.42,-110.27C1190.67,-96.35 1168.86,-68.37 1142.9,-55 1063.71,-14.2 955.85,-9.21 902.9,-9.52"/>
<polygon fill="midnightblue" stroke="midnightblue" points="902.72,-6.02 892.76,-9.65 902.81,-13.02 902.72,-6.02"/>
</g>
<!-- Node7&#45;&gt;Node12 -->
<g id="edge17" class="edge">
<title>Node7&#45;&gt;Node12</title>
<path fill="none" stroke="midnightblue" d="M1216.46,-110.42C1226.44,-102.26 1241.15,-88.77 1249.9,-74 1258.17,-60.07 1263.09,-42.26 1265.84,-29.05"/>
<polygon fill="midnightblue" stroke="midnightblue" points="1269.35,-29.31 1267.74,-18.83 1262.47,-28.03 1269.35,-29.31"/>
</g>
<!-- Node7&#45;&gt;Node13 -->
<g id="edge12" class="edge">
<title>Node7&#45;&gt;Node13</title>
<path fill="none" stroke="midnightblue" d="M1170.06,-111.52C1117.43,-101.26 1019.88,-82.25 968.16,-72.18"/>
<polygon fill="midnightblue" stroke="midnightblue" points="968.64,-68.7 958.16,-70.23 967.3,-75.57 968.64,-68.7"/>
</g>
<!-- Node14 -->
<g id="node14" class="node">
<title>Node14</title>
<g id="a_node14"><a xlink:title=" ">
<polygon fill="white" stroke="#bfbfbf" points="1194.62,-55.5 1194.62,-73.5 1241.19,-73.5 1241.19,-55.5 1194.62,-55.5"/>
<text text-anchor="middle" x="1217.9" y="-61.5" font-family="Helvetica,sans-Serif" font-size="10.00">math.h</text>
</a>
</g>
</g>
<!-- Node7&#45;&gt;Node14 -->
<g id="edge15" class="edge">
<title>Node7&#45;&gt;Node14</title>
<path fill="none" stroke="midnightblue" d="M1207.78,-110.22C1209.39,-103.1 1211.77,-92.58 1213.82,-83.53"/>
<polygon fill="midnightblue" stroke="midnightblue" points="1217.29,-84.08 1216.08,-73.55 1210.46,-82.53 1217.29,-84.08"/>
</g>
<!-- Node9 -->
<g id="node9" class="node">
<title>Node9</title>
<g id="a_node9"><a xlink:title=" ">
<polygon fill="white" stroke="#bfbfbf" points="480.51,-0.5 480.51,-18.5 519.3,-18.5 519.3,-0.5 480.51,-0.5"/>
<text text-anchor="middle" x="499.9" y="-6.5" font-family="Helvetica,sans-Serif" font-size="10.00">array</text>
</a>
</g>
</g>
<!-- Node8&#45;&gt;Node9 -->
<g id="edge8" class="edge">
<title>Node8&#45;&gt;Node9</title>
<path fill="none" stroke="midnightblue" d="M527.75,-55.22C523.07,-47.71 516.04,-36.41 510.21,-27.05"/>
<polygon fill="midnightblue" stroke="midnightblue" points="513.17,-25.19 504.92,-18.55 507.23,-28.89 513.17,-25.19"/>
</g>
<!-- Node8&#45;&gt;Node10 -->
<g id="edge9" class="edge">
<title>Node8&#45;&gt;Node10</title>
<path fill="none" stroke="midnightblue" d="M573.8,-56.35C576.54,-55.88 579.26,-55.43 581.9,-55 675.17,-39.73 785.63,-23.14 838.95,-15.22"/>
<polygon fill="midnightblue" stroke="midnightblue" points="839.75,-18.64 849.13,-13.71 838.72,-11.71 839.75,-18.64"/>
</g>
<!-- Node11 -->
<g id="node11" class="node">
<title>Node11</title>
<g id="a_node11"><a xlink:title=" ">
<polygon fill="white" stroke="#bfbfbf" points="537.73,-0.5 537.73,-18.5 592.08,-18.5 592.08,-0.5 537.73,-0.5"/>
<text text-anchor="middle" x="564.9" y="-6.5" font-family="Helvetica,sans-Serif" font-size="10.00">iostream</text>
</a>
</g>
</g>
<!-- Node8&#45;&gt;Node11 -->
<g id="edge10" class="edge">
<title>Node8&#45;&gt;Node11</title>
<path fill="none" stroke="midnightblue" d="M537.9,-55.22C542.39,-47.79 549.12,-36.65 554.73,-27.34"/>
<polygon fill="midnightblue" stroke="midnightblue" points="557.87,-28.92 560.04,-18.55 551.88,-25.3 557.87,-28.92"/>
</g>
<!-- Node8&#45;&gt;Node12 -->
<g id="edge11" class="edge">
<title>Node8&#45;&gt;Node12</title>
<path fill="none" stroke="midnightblue" d="M573.76,-56.08C576.51,-55.68 579.25,-55.32 581.9,-55 835.32,-24.9 1143.93,-14.05 1239.37,-11.28"/>
<polygon fill="midnightblue" stroke="midnightblue" points="1239.54,-14.78 1249.44,-11 1239.34,-7.78 1239.54,-14.78"/>
</g>
<!-- Node25&#45;&gt;Node8 -->
<g id="edge36" class="edge">
<title>Node25&#45;&gt;Node8</title>
<path fill="none" stroke="midnightblue" d="M405.69,-110.45C430.91,-101.54 471.76,-87.1 500.35,-77"/>
<polygon fill="midnightblue" stroke="midnightblue" points="501.64,-80.26 509.91,-73.63 499.31,-73.66 501.64,-80.26"/>
</g>
<!-- Node25&#45;&gt;Node20 -->
<g id="edge37" class="edge">
<title>Node25&#45;&gt;Node20</title>
<path fill="none" stroke="midnightblue" d="M427.04,-110.46C465.7,-103.02 523.52,-90.94 581.27,-74.21"/>
<polygon fill="midnightblue" stroke="midnightblue" points="582.3,-77.55 590.91,-71.37 580.33,-70.84 582.3,-77.55"/>
</g>
<!-- Node26&#45;&gt;Node8 -->
<g id="edge42" class="edge">
<title>Node26&#45;&gt;Node8</title>
<path fill="none" stroke="midnightblue" d="M303.29,-165.08C304.4,-151.38 308.65,-124.37 324.9,-110 347.77,-89.78 427.87,-77.11 481.73,-70.68"/>
<polygon fill="midnightblue" stroke="midnightblue" points="482.26,-74.14 491.79,-69.51 481.46,-67.19 482.26,-74.14"/>
</g>
<!-- Node26&#45;&gt;Node13 -->
<g id="edge43" class="edge">
<title>Node26&#45;&gt;Node13</title>
<path fill="none" stroke="midnightblue" d="M358.8,-170.52C457.8,-164.77 659.84,-150.74 726.9,-129 743,-123.78 744.23,-116.38 759.9,-110 806.69,-90.96 863.95,-78.2 899.68,-71.39"/>
<polygon fill="midnightblue" stroke="midnightblue" points="900.41,-74.82 909.61,-69.55 899.13,-67.93 900.41,-74.82"/>
</g>
<!-- Node26&#45;&gt;Node24 -->
<g id="edge45" class="edge">
<title>Node26&#45;&gt;Node24</title>
<path fill="none" stroke="midnightblue" d="M328.57,-165.45C358.48,-156.07 407.92,-140.57 440.2,-130.44"/>
<polygon fill="midnightblue" stroke="midnightblue" points="441.54,-133.69 450.04,-127.36 439.45,-127.01 441.54,-133.69"/>
</g>
<!-- Node27 -->
<g id="node27" class="node">
<title>Node27</title>
<g id="a_node27"><a xlink:href="kd-search_8hpp.html" target="_top" xlink:title=" ">
<polygon fill="white" stroke="black" points="138.1,-110.5 138.1,-128.5 239.71,-128.5 239.71,-110.5 138.1,-110.5"/>
<text text-anchor="middle" x="188.9" y="-116.5" font-family="Helvetica,sans-Serif" font-size="10.00">ppht/kd&#45;search.hpp</text>
</a>
</g>
</g>
<!-- Node26&#45;&gt;Node27 -->
<g id="edge39" class="edge">
<title>Node26&#45;&gt;Node27</title>
<path fill="none" stroke="midnightblue" d="M285.59,-165.45C267.01,-156.81 237.26,-142.98 215.66,-132.94"/>
<polygon fill="midnightblue" stroke="midnightblue" points="216.92,-129.67 206.38,-128.63 213.97,-136.01 216.92,-129.67"/>
</g>
<!-- Node28 -->
<g id="node28" class="node">
<title>Node28</title>
<g id="a_node28"><a xlink:title=" ">
<polygon fill="white" stroke="#bfbfbf" points="0,-110.5 0,-128.5 43.81,-128.5 43.81,-110.5 0,-110.5"/>
<text text-anchor="middle" x="21.9" y="-116.5" font-family="Helvetica,sans-Serif" font-size="10.00">queue</text>
</a>
</g>
</g>
<!-- Node26&#45;&gt;Node28 -->
<g id="edge44" class="edge">
<title>Node26&#45;&gt;Node28</title>
<path fill="none" stroke="midnightblue" d="M254.41,-165.46C204.88,-157.07 125.83,-143.18 57.9,-129 56.63,-128.73 55.33,-128.46 54.02,-128.17"/>
<polygon fill="midnightblue" stroke="midnightblue" points="54.47,-124.69 43.95,-125.9 52.93,-131.51 54.47,-124.69"/>
</g>
<!-- Node27&#45;&gt;Node8 -->
<g id="edge40" class="edge">
<title>Node27&#45;&gt;Node8</title>
<path fill="none" stroke="midnightblue" d="M240.03,-110.62C305.14,-100.59 416.99,-83.36 481.99,-73.34"/>
<polygon fill="midnightblue" stroke="midnightblue" points="482.66,-76.78 492.01,-71.8 481.59,-69.86 482.66,-76.78"/>
</g>
<!-- Node27&#45;&gt;Node15 -->
<g id="edge41" class="edge">
<title>Node27&#45;&gt;Node15</title>
<path fill="none" stroke="midnightblue" d="M176.91,-110.45C164.61,-102.2 145.25,-89.22 130.5,-79.32"/>
<polygon fill="midnightblue" stroke="midnightblue" points="132.27,-76.29 122.02,-73.63 128.37,-82.1 132.27,-76.29"/>
</g>
<!-- Node29&#45;&gt;Node5 -->
<g id="edge54" class="edge">
<title>Node29&#45;&gt;Node5</title>
<path fill="none" stroke="midnightblue" d="M599.72,-166.3C651.98,-156.85 743.77,-140.24 801.3,-129.83"/>
<polygon fill="midnightblue" stroke="midnightblue" points="802.06,-133.25 811.28,-128.03 800.81,-126.37 802.06,-133.25"/>
</g>
<!-- Node29&#45;&gt;Node8 -->
<g id="edge55" class="edge">
<title>Node29&#45;&gt;Node8</title>
<path fill="none" stroke="midnightblue" d="M557.07,-165.37C554.04,-156.5 549.23,-141.86 545.9,-129 542.02,-113.99 538.55,-96.74 536.17,-84.01"/>
<polygon fill="midnightblue" stroke="midnightblue" points="539.55,-83 534.32,-73.78 532.66,-84.25 539.55,-83"/>
</g>
<!-- Node29&#45;&gt;Node10 -->
<g id="edge58" class="edge">
<title>Node29&#45;&gt;Node10</title>
<path fill="none" stroke="midnightblue" d="M519.88,-171.87C459.41,-168.48 349.21,-158.34 324.9,-129 319.52,-122.5 320.01,-116.88 324.9,-110 385.08,-25.34 731.15,-12.71 838.89,-10.83"/>
<polygon fill="midnightblue" stroke="midnightblue" points="839.18,-14.32 849.13,-10.67 839.07,-7.32 839.18,-14.32"/>
</g>
<!-- Node29&#45;&gt;Node13 -->
<g id="edge57" class="edge">
<title>Node29&#45;&gt;Node13</title>
<path fill="none" stroke="midnightblue" d="M599.61,-167.05C640.42,-159.87 705.5,-146.88 759.9,-129 779.75,-122.48 783.44,-117.59 802.9,-110 835.45,-97.31 873.29,-84.68 899.91,-76.13"/>
<polygon fill="midnightblue" stroke="midnightblue" points="901.06,-79.44 909.53,-73.07 898.94,-72.77 901.06,-79.44"/>
</g>
<!-- Node29&#45;&gt;Node15 -->
<g id="edge56" class="edge">
<title>Node29&#45;&gt;Node15</title>
<path fill="none" stroke="midnightblue" d="M520.16,-171.13C410.39,-164.41 110.12,-144.65 95.9,-129 84.43,-116.37 91.38,-96.53 99,-82.38"/>
<polygon fill="midnightblue" stroke="midnightblue" points="102.08,-84.05 104.17,-73.66 96.06,-80.48 102.08,-84.05"/>
</g>
<!-- Node29&#45;&gt;Node19 -->
<g id="edge59" class="edge">
<title>Node29&#45;&gt;Node19</title>
<path fill="none" stroke="midnightblue" d="M599.75,-169.85C662.12,-163.8 786.73,-150.38 901.7,-129.03"/>
<polygon fill="midnightblue" stroke="midnightblue" points="902.54,-132.43 911.72,-127.14 901.25,-125.55 902.54,-132.43"/>
</g>
<!-- Node29&#45;&gt;Node20 -->
<g id="edge60" class="edge">
<title>Node29&#45;&gt;Node20</title>
<path fill="none" stroke="midnightblue" d="M563.36,-165.38C570.79,-147.95 588.4,-106.59 598.48,-82.92"/>
<polygon fill="midnightblue" stroke="midnightblue" points="601.71,-84.28 602.41,-73.71 595.27,-81.54 601.71,-84.28"/>
</g>
<!-- Node29&#45;&gt;Node24 -->
<g id="edge61" class="edge">
<title>Node29&#45;&gt;Node24</title>
<path fill="none" stroke="midnightblue" d="M546.54,-165.45C532.71,-157.12 510.87,-143.97 494.38,-134.04"/>
<polygon fill="midnightblue" stroke="midnightblue" points="495.77,-130.79 485.39,-128.63 492.16,-136.78 495.77,-130.79"/>
</g>
<!-- Node29&#45;&gt;Node25 -->
<g id="edge53" class="edge">
<title>Node29&#45;&gt;Node25</title>
<path fill="none" stroke="midnightblue" d="M533.02,-165.45C502.78,-156.4 453.5,-141.64 419.7,-131.52"/>
<polygon fill="midnightblue" stroke="midnightblue" points="420.33,-128.05 409.75,-128.54 418.32,-134.76 420.33,-128.05"/>
</g>
<!-- Node30 -->
<g id="node30" class="node">
<title>Node30</title>
<g id="a_node30"><a xlink:href="channel_8hpp.html" target="_top" xlink:title=" ">
<polygon fill="white" stroke="black" points="625.54,-110.5 625.54,-128.5 718.27,-128.5 718.27,-110.5 625.54,-110.5"/>
<text text-anchor="middle" x="671.9" y="-116.5" font-family="Helvetica,sans-Serif" font-size="10.00">ppht/channel.hpp</text>
</a>
</g>
</g>
<!-- Node29&#45;&gt;Node30 -->
<g id="edge48" class="edge">
<title>Node29&#45;&gt;Node30</title>
<path fill="none" stroke="midnightblue" d="M576.91,-165.45C595.17,-156.81 624.4,-142.98 645.62,-132.94"/>
<polygon fill="midnightblue" stroke="midnightblue" points="647.19,-136.07 654.73,-128.63 644.2,-129.74 647.19,-136.07"/>
</g>
<!-- Node30&#45;&gt;Node6 -->
<g id="edge52" class="edge">
<title>Node30&#45;&gt;Node6</title>
<path fill="none" stroke="midnightblue" d="M718.38,-112C794.9,-101.3 945.81,-80.2 1014.87,-70.54"/>
<polygon fill="midnightblue" stroke="midnightblue" points="1015.42,-74 1024.83,-69.15 1014.45,-67.06 1015.42,-74"/>
</g>
<!-- Node30&#45;&gt;Node8 -->
<g id="edge49" class="edge">
<title>Node30&#45;&gt;Node8</title>
<path fill="none" stroke="midnightblue" d="M650.79,-110.45C627.63,-101.62 590.22,-87.35 563.76,-77.27"/>
<polygon fill="midnightblue" stroke="midnightblue" points="564.8,-73.92 554.21,-73.63 562.31,-80.46 564.8,-73.92"/>
</g>
<!-- Node30&#45;&gt;Node17 -->
<g id="edge50" class="edge">
<title>Node30&#45;&gt;Node17</title>
<path fill="none" stroke="midnightblue" d="M687.24,-110.45C703.48,-101.93 729.35,-88.35 748.42,-78.35"/>
<polygon fill="midnightblue" stroke="midnightblue" points="750.19,-81.37 757.42,-73.63 746.94,-75.17 750.19,-81.37"/>
</g>
<!-- Node31 -->
<g id="node31" class="node">
<title>Node31</title>
<g id="a_node31"><a xlink:title=" ">
<polygon fill="white" stroke="#bfbfbf" points="648.34,-55.5 648.34,-73.5 695.47,-73.5 695.47,-55.5 648.34,-55.5"/>
<text text-anchor="middle" x="671.9" y="-61.5" font-family="Helvetica,sans-Serif" font-size="10.00">iterator</text>
</a>
</g>
</g>
<!-- Node30&#45;&gt;Node31 -->
<g id="edge51" class="edge">
<title>Node30&#45;&gt;Node31</title>
<path fill="none" stroke="midnightblue" d="M671.9,-110.22C671.9,-103.18 671.9,-92.81 671.9,-83.83"/>
<polygon fill="midnightblue" stroke="midnightblue" points="675.4,-83.55 671.9,-73.55 668.4,-83.55 675.4,-83.55"/>
</g>
</g>
</svg>
