<?xml version="1.0" encoding="UTF-8" standalone="no"?>
<!DOCTYPE svg PUBLIC "-//W3C//DTD SVG 1.1//EN"
 "http://www.w3.org/Graphics/SVG/1.1/DTD/svg11.dtd">
<!-- Generated by graphviz version 2.40.1 (20161225.0304)
 -->
<!-- Title: ppht/raster.hpp Pages: 1 -->
<svg width="256pt" height="137pt"
 viewBox="0.00 0.00 255.50 137.00" xmlns="http://www.w3.org/2000/svg" xmlns:xlink="http://www.w3.org/1999/xlink">
<g id="graph0" class="graph" transform="scale(1 1) rotate(0) translate(4 133)">
<title>ppht/raster.hpp</title>
<polygon fill="#ffffff" stroke="transparent" points="-4,4 -4,-133 251.5044,-133 251.5044,4 -4,4"/>
<!-- Node2 -->
<g id="node1" class="node">
<title>Node2</title>
<polygon fill="#bfbfbf" stroke="#000000" points="98.4531,-110.5 98.4531,-128.5 181.1719,-128.5 181.1719,-110.5 98.4531,-110.5"/>
<text text-anchor="middle" x="139.8125" y="-116.5" font-family="Helvetica,sans-Serif" font-size="10.00" fill="#000000">ppht/raster.hpp</text>
</g>
<!-- Node3 -->
<g id="node2" class="node">
<title>Node3</title>
<g id="a_node2"><a xlink:href="accumulator_8hpp.html" target="_top" xlink:title="ppht/accumulator.hpp">
<polygon fill="#ffffff" stroke="#000000" points="0,-55.5 0,-73.5 111.625,-73.5 111.625,-55.5 0,-55.5"/>
<text text-anchor="middle" x="55.8125" y="-61.5" font-family="Helvetica,sans-Serif" font-size="10.00" fill="#000000">ppht/accumulator.hpp</text>
</a>
</g>
</g>
<!-- Node2&#45;&gt;Node3 -->
<g id="edge1" class="edge">
<title>Node2&#45;&gt;Node3</title>
<path fill="none" stroke="#191970" d="M117.1681,-104.6733C102.0306,-94.7619 82.5998,-82.0393 69.704,-73.5956"/>
<polygon fill="#191970" stroke="#191970" points="115.6581,-107.8681 125.9416,-110.4179 119.4927,-102.0118 115.6581,-107.8681"/>
</g>
<!-- Node4 -->
<g id="node3" class="node">
<title>Node4</title>
<g id="a_node3"><a xlink:href="ppht_8hpp.html" target="_top" xlink:title="ppht.hpp">
<polygon fill="#ffffff" stroke="#000000" points="112.3496,-.5 112.3496,-18.5 167.2754,-18.5 167.2754,-.5 112.3496,-.5"/>
<text text-anchor="middle" x="139.8125" y="-6.5" font-family="Helvetica,sans-Serif" font-size="10.00" fill="#000000">ppht.hpp</text>
</a>
</g>
</g>
<!-- Node2&#45;&gt;Node4 -->
<g id="edge5" class="edge">
<title>Node2&#45;&gt;Node4</title>
<path fill="none" stroke="#191970" d="M139.8125,-100.1899C139.8125,-76.2569 139.8125,-36.4552 139.8125,-18.6261"/>
<polygon fill="#191970" stroke="#191970" points="136.3126,-100.4982 139.8125,-110.4982 143.3126,-100.4983 136.3126,-100.4982"/>
</g>
<!-- Node5 -->
<g id="node4" class="node">
<title>Node5</title>
<g id="a_node4"><a xlink:href="state_8hpp.html" target="_top" xlink:title="ppht/state.hpp">
<polygon fill="#ffffff" stroke="#000000" points="168.1206,-55.5 168.1206,-73.5 247.5044,-73.5 247.5044,-55.5 168.1206,-55.5"/>
<text text-anchor="middle" x="207.8125" y="-61.5" font-family="Helvetica,sans-Serif" font-size="10.00" fill="#000000">ppht/state.hpp</text>
</a>
</g>
</g>
<!-- Node2&#45;&gt;Node5 -->
<g id="edge3" class="edge">
<title>Node2&#45;&gt;Node5</title>
<path fill="none" stroke="#191970" d="M159.1396,-103.8678C171.15,-94.1535 186.183,-81.9944 196.3397,-73.7795"/>
<polygon fill="#191970" stroke="#191970" points="156.6154,-101.4078 151.0413,-110.4179 161.0175,-106.8504 156.6154,-101.4078"/>
</g>
<!-- Node3&#45;&gt;Node4 -->
<g id="edge2" class="edge">
<title>Node3&#45;&gt;Node4</title>
<path fill="none" stroke="#191970" d="M78.4569,-49.6733C93.5944,-39.7619 113.0252,-27.0393 125.921,-18.5956"/>
<polygon fill="#191970" stroke="#191970" points="76.1323,-47.0118 69.6834,-55.4179 79.9669,-52.8681 76.1323,-47.0118"/>
</g>
<!-- Node5&#45;&gt;Node4 -->
<g id="edge4" class="edge">
<title>Node5&#45;&gt;Node4</title>
<path fill="none" stroke="#191970" d="M188.4854,-48.8678C176.475,-39.1535 161.442,-26.9944 151.2853,-18.7795"/>
<polygon fill="#191970" stroke="#191970" points="186.6075,-51.8504 196.5837,-55.4179 191.0096,-46.4078 186.6075,-51.8504"/>
</g>
</g>
</svg>
