<?xml version="1.0" encoding="UTF-8" standalone="no"?>
<!DOCTYPE svg PUBLIC "-//W3C//DTD SVG 1.1//EN"
 "http://www.w3.org/Graphics/SVG/1.1/DTD/svg11.dtd">
<!-- Generated by graphviz version 2.48.0 (20210717.1556)
 -->
<!-- Title: ppht/raster.hpp Pages: 1 -->
<svg width="230pt" height="137pt"
 viewBox="0.00 0.00 229.62 137.00" xmlns="http://www.w3.org/2000/svg" xmlns:xlink="http://www.w3.org/1999/xlink">
<g id="graph0" class="graph" transform="scale(1 1) rotate(0) translate(4 133)">
<title>ppht/raster.hpp</title>
<polygon fill="white" stroke="transparent" points="-4,4 -4,-133 225.62,-133 225.62,4 -4,4"/>
<!-- Node1 -->
<g id="node1" class="node">
<title>Node1</title>
<g id="a_node1"><a xlink:title=" ">
<polygon fill="#bfbfbf" stroke="black" points="26.57,-110.5 26.57,-128.5 109.29,-128.5 109.29,-110.5 26.57,-110.5"/>
<text text-anchor="middle" x="67.93" y="-116.5" font-family="Helvetica,sans-Serif" font-size="10.00">ppht/raster.hpp</text>
</a>
</g>
</g>
<!-- Node2 -->
<g id="node2" class="node">
<title>Node2</title>
<g id="a_node2"><a xlink:href="ppht_8hpp.html" target="_top" xlink:title=" ">
<polygon fill="white" stroke="black" points="40.46,-0.5 40.46,-18.5 95.39,-18.5 95.39,-0.5 40.46,-0.5"/>
<text text-anchor="middle" x="67.93" y="-6.5" font-family="Helvetica,sans-Serif" font-size="10.00">ppht.hpp</text>
</a>
</g>
</g>
<!-- Node1&#45;&gt;Node2 -->
<g id="edge1" class="edge">
<title>Node1&#45;&gt;Node2</title>
<path fill="none" stroke="midnightblue" d="M37.47,-105.7C24.34,-98.46 10.32,-88.02 2.93,-74 -9.8,-49.86 24.36,-29.35 47.84,-18.58"/>
<polygon fill="midnightblue" stroke="midnightblue" points="36.26,-109.01 46.76,-110.4 39.42,-102.76 36.26,-109.01"/>
</g>
<!-- Node3 -->
<g id="node3" class="node">
<title>Node3</title>
<g id="a_node3"><a xlink:href="accumulator_8hpp.html" target="_top" xlink:title=" ">
<polygon fill="white" stroke="black" points="12.11,-55.5 12.11,-73.5 123.74,-73.5 123.74,-55.5 12.11,-55.5"/>
<text text-anchor="middle" x="67.93" y="-61.5" font-family="Helvetica,sans-Serif" font-size="10.00">ppht/accumulator.hpp</text>
</a>
</g>
</g>
<!-- Node1&#45;&gt;Node3 -->
<g id="edge2" class="edge">
<title>Node1&#45;&gt;Node3</title>
<path fill="none" stroke="midnightblue" d="M67.93,-100.17C67.93,-91.09 67.93,-80.59 67.93,-73.55"/>
<polygon fill="midnightblue" stroke="midnightblue" points="64.43,-100.22 67.93,-110.22 71.43,-100.22 64.43,-100.22"/>
</g>
<!-- Node4 -->
<g id="node4" class="node">
<title>Node4</title>
<g id="a_node4"><a xlink:href="state_8hpp.html" target="_top" xlink:title=" ">
<polygon fill="white" stroke="black" points="142.23,-55.5 142.23,-73.5 221.62,-73.5 221.62,-55.5 142.23,-55.5"/>
<text text-anchor="middle" x="181.93" y="-61.5" font-family="Helvetica,sans-Serif" font-size="10.00">ppht/state.hpp</text>
</a>
</g>
</g>
<!-- Node1&#45;&gt;Node4 -->
<g id="edge4" class="edge">
<title>Node1&#45;&gt;Node4</title>
<path fill="none" stroke="midnightblue" d="M94.49,-106.15C116.04,-96.13 145.8,-82.29 164.45,-73.63"/>
<polygon fill="midnightblue" stroke="midnightblue" points="92.83,-103.06 85.24,-110.45 95.78,-109.41 92.83,-103.06"/>
</g>
<!-- Node3&#45;&gt;Node2 -->
<g id="edge3" class="edge">
<title>Node3&#45;&gt;Node2</title>
<path fill="none" stroke="midnightblue" d="M67.93,-45.17C67.93,-36.09 67.93,-25.59 67.93,-18.55"/>
<polygon fill="midnightblue" stroke="midnightblue" points="64.43,-45.22 67.93,-55.22 71.43,-45.22 64.43,-45.22"/>
</g>
<!-- Node4&#45;&gt;Node2 -->
<g id="edge5" class="edge">
<title>Node4&#45;&gt;Node2</title>
<path fill="none" stroke="midnightblue" d="M155.36,-51.15C133.81,-41.13 104.05,-27.29 85.4,-18.63"/>
<polygon fill="midnightblue" stroke="midnightblue" points="154.07,-54.41 164.61,-55.45 157.02,-48.06 154.07,-54.41"/>
</g>
</g>
</svg>
