<?xml version="1.0" encoding="UTF-8" standalone="no"?>
<!DOCTYPE svg PUBLIC "-//W3C//DTD SVG 1.1//EN"
 "http://www.w3.org/Graphics/SVG/1.1/DTD/svg11.dtd">
<!-- Generated by graphviz version 2.48.0 (20210717.1556)
 -->
<!-- Title: ppht/state.hpp Pages: 1 -->
<svg width="709pt" height="192pt"
 viewBox="0.00 0.00 708.79 192.00" xmlns="http://www.w3.org/2000/svg" xmlns:xlink="http://www.w3.org/1999/xlink">
<g id="graph0" class="graph" transform="scale(1 1) rotate(0) translate(4 188)">
<title>ppht/state.hpp</title>
<polygon fill="white" stroke="transparent" points="-4,4 -4,-188 704.79,-188 704.79,4 -4,4"/>
<!-- Node1 -->
<g id="node1" class="node">
<title>Node1</title>
<g id="a_node1"><a xlink:title=" ">
<polygon fill="#bfbfbf" stroke="black" points="295.48,-165.5 295.48,-183.5 374.86,-183.5 374.86,-165.5 295.48,-165.5"/>
<text text-anchor="middle" x="335.17" y="-171.5" font-family="Helvetica,sans-Serif" font-size="10.00">ppht/state.hpp</text>
</a>
</g>
</g>
<!-- Node2 -->
<g id="node2" class="node">
<title>Node2</title>
<g id="a_node2"><a xlink:href="channel_8hpp.html" target="_top" xlink:title=" ">
<polygon fill="white" stroke="black" points="235.81,-110.5 235.81,-128.5 328.54,-128.5 328.54,-110.5 235.81,-110.5"/>
<text text-anchor="middle" x="282.17" y="-116.5" font-family="Helvetica,sans-Serif" font-size="10.00">ppht/channel.hpp</text>
</a>
</g>
</g>
<!-- Node1&#45;&gt;Node2 -->
<g id="edge1" class="edge">
<title>Node1&#45;&gt;Node2</title>
<path fill="none" stroke="midnightblue" d="M326.89,-165.22C319.07,-157.39 307.14,-145.46 297.56,-135.89"/>
<polygon fill="midnightblue" stroke="midnightblue" points="299.77,-133.15 290.22,-128.55 294.82,-138.1 299.77,-133.15"/>
</g>
<!-- Node3 -->
<g id="node3" class="node">
<title>Node3</title>
<g id="a_node3"><a xlink:href="types_8hpp.html" target="_top" xlink:title=" ">
<polygon fill="white" stroke="black" points="51.37,-55.5 51.37,-73.5 132.98,-73.5 132.98,-55.5 51.37,-55.5"/>
<text text-anchor="middle" x="92.17" y="-61.5" font-family="Helvetica,sans-Serif" font-size="10.00">ppht/types.hpp</text>
</a>
</g>
</g>
<!-- Node1&#45;&gt;Node3 -->
<g id="edge15" class="edge">
<title>Node1&#45;&gt;Node3</title>
<path fill="none" stroke="midnightblue" d="M295.35,-173.73C221.62,-173.21 68.32,-167.42 35.17,-129 19.93,-111.33 45.02,-91.37 66.58,-78.62"/>
<polygon fill="midnightblue" stroke="midnightblue" points="68.47,-81.57 75.48,-73.63 65.05,-75.47 68.47,-81.57"/>
</g>
<!-- Node5 -->
<g id="node5" class="node">
<title>Node5</title>
<g id="a_node5"><a xlink:title=" ">
<polygon fill="white" stroke="#bfbfbf" points="186.56,-0.5 186.56,-18.5 229.79,-18.5 229.79,-0.5 186.56,-0.5"/>
<text text-anchor="middle" x="208.17" y="-6.5" font-family="Helvetica,sans-Serif" font-size="10.00">cmath</text>
</a>
</g>
</g>
<!-- Node1&#45;&gt;Node5 -->
<g id="edge18" class="edge">
<title>Node1&#45;&gt;Node5</title>
<path fill="none" stroke="midnightblue" d="M295.4,-167.07C271.98,-161.17 243.78,-149.99 227.17,-129 204.19,-99.95 203.96,-54.1 205.97,-28.8"/>
<polygon fill="midnightblue" stroke="midnightblue" points="209.46,-29.05 206.98,-18.75 202.5,-28.35 209.46,-29.05"/>
</g>
<!-- Node11 -->
<g id="node11" class="node">
<title>Node11</title>
<g id="a_node11"><a xlink:href="point__set_8hpp.html" target="_top" xlink:title=" ">
<polygon fill="white" stroke="black" points="44.03,-110.5 44.03,-128.5 142.32,-128.5 142.32,-110.5 44.03,-110.5"/>
<text text-anchor="middle" x="93.17" y="-116.5" font-family="Helvetica,sans-Serif" font-size="10.00">ppht/point_set.hpp</text>
</a>
</g>
</g>
<!-- Node1&#45;&gt;Node11 -->
<g id="edge10" class="edge">
<title>Node1&#45;&gt;Node11</title>
<path fill="none" stroke="midnightblue" d="M298.42,-165.45C255.92,-156.14 185.89,-140.81 139.65,-130.68"/>
<polygon fill="midnightblue" stroke="midnightblue" points="140.39,-127.26 129.88,-128.54 138.9,-134.1 140.39,-127.26"/>
</g>
<!-- Node12 -->
<g id="node12" class="node">
<title>Node12</title>
<g id="a_node12"><a xlink:title=" ">
<polygon fill="white" stroke="#bfbfbf" points="150.5,-55.5 150.5,-73.5 179.84,-73.5 179.84,-55.5 150.5,-55.5"/>
<text text-anchor="middle" x="165.17" y="-61.5" font-family="Helvetica,sans-Serif" font-size="10.00">set</text>
</a>
</g>
</g>
<!-- Node1&#45;&gt;Node12 -->
<g id="edge20" class="edge">
<title>Node1&#45;&gt;Node12</title>
<path fill="none" stroke="midnightblue" d="M295.31,-169.71C264.45,-164.88 222.34,-153.91 194.17,-129 180.85,-117.22 173.27,-98.07 169.23,-83.88"/>
<polygon fill="midnightblue" stroke="midnightblue" points="172.53,-82.65 166.7,-73.8 165.74,-84.35 172.53,-82.65"/>
</g>
<!-- Node13 -->
<g id="node13" class="node">
<title>Node13</title>
<g id="a_node13"><a xlink:href="raster_8hpp.html" target="_top" xlink:title=" ">
<polygon fill="white" stroke="black" points="346.81,-110.5 346.81,-128.5 429.53,-128.5 429.53,-110.5 346.81,-110.5"/>
<text text-anchor="middle" x="388.17" y="-116.5" font-family="Helvetica,sans-Serif" font-size="10.00">ppht/raster.hpp</text>
</a>
</g>
</g>
<!-- Node1&#45;&gt;Node13 -->
<g id="edge13" class="edge">
<title>Node1&#45;&gt;Node13</title>
<path fill="none" stroke="midnightblue" d="M343.45,-165.22C351.28,-157.39 363.21,-145.46 372.78,-135.89"/>
<polygon fill="midnightblue" stroke="midnightblue" points="375.53,-138.1 380.12,-128.55 370.58,-133.15 375.53,-138.1"/>
</g>
<!-- Node14 -->
<g id="node14" class="node">
<title>Node14</title>
<g id="a_node14"><a xlink:title=" ">
<polygon fill="white" stroke="#bfbfbf" points="447.61,-110.5 447.61,-128.5 504.74,-128.5 504.74,-110.5 447.61,-110.5"/>
<text text-anchor="middle" x="476.17" y="-116.5" font-family="Helvetica,sans-Serif" font-size="10.00">algorithm</text>
</a>
</g>
</g>
<!-- Node1&#45;&gt;Node14 -->
<g id="edge16" class="edge">
<title>Node1&#45;&gt;Node14</title>
<path fill="none" stroke="midnightblue" d="M356.59,-165.45C380.09,-156.62 418.03,-142.35 444.87,-132.27"/>
<polygon fill="midnightblue" stroke="midnightblue" points="446.43,-135.42 454.56,-128.63 443.96,-128.87 446.43,-135.42"/>
</g>
<!-- Node15 -->
<g id="node15" class="node">
<title>Node15</title>
<g id="a_node15"><a xlink:title=" ">
<polygon fill="white" stroke="#bfbfbf" points="523.06,-110.5 523.06,-128.5 571.29,-128.5 571.29,-110.5 523.06,-110.5"/>
<text text-anchor="middle" x="547.17" y="-116.5" font-family="Helvetica,sans-Serif" font-size="10.00">cassert</text>
</a>
</g>
</g>
<!-- Node1&#45;&gt;Node15 -->
<g id="edge17" class="edge">
<title>Node1&#45;&gt;Node15</title>
<path fill="none" stroke="midnightblue" d="M367.86,-165.46C401.79,-157.1 456.68,-143.51 513.21,-129.23"/>
<polygon fill="midnightblue" stroke="midnightblue" points="514.19,-132.59 523.03,-126.74 512.47,-125.8 514.19,-132.59"/>
</g>
<!-- Node16 -->
<g id="node16" class="node">
<title>Node16</title>
<g id="a_node16"><a xlink:title=" ">
<polygon fill="white" stroke="#bfbfbf" points="589.22,-110.5 589.22,-128.5 639.13,-128.5 639.13,-110.5 589.22,-110.5"/>
<text text-anchor="middle" x="614.17" y="-116.5" font-family="Helvetica,sans-Serif" font-size="10.00">random</text>
</a>
</g>
</g>
<!-- Node1&#45;&gt;Node16 -->
<g id="edge19" class="edge">
<title>Node1&#45;&gt;Node16</title>
<path fill="none" stroke="midnightblue" d="M375.22,-167.05C421.87,-159.36 501.46,-145.67 579.03,-129.13"/>
<polygon fill="midnightblue" stroke="midnightblue" points="579.92,-132.52 588.96,-127 578.45,-125.68 579.92,-132.52"/>
</g>
<!-- Node17 -->
<g id="node17" class="node">
<title>Node17</title>
<g id="a_node17"><a xlink:title=" ">
<polygon fill="white" stroke="#bfbfbf" points="657.56,-110.5 657.56,-128.5 700.79,-128.5 700.79,-110.5 657.56,-110.5"/>
<text text-anchor="middle" x="679.17" y="-116.5" font-family="Helvetica,sans-Serif" font-size="10.00">vector</text>
</a>
</g>
</g>
<!-- Node1&#45;&gt;Node17 -->
<g id="edge21" class="edge">
<title>Node1&#45;&gt;Node17</title>
<path fill="none" stroke="midnightblue" d="M374.98,-169.47C432.84,-163.26 543.69,-150.03 647.24,-128.95"/>
<polygon fill="midnightblue" stroke="midnightblue" points="648.15,-132.33 657.24,-126.88 646.74,-125.48 648.15,-132.33"/>
</g>
<!-- Node2&#45;&gt;Node3 -->
<g id="edge2" class="edge">
<title>Node2&#45;&gt;Node3</title>
<path fill="none" stroke="midnightblue" d="M253.32,-110.45C220.58,-101.32 167.04,-86.38 130.74,-76.26"/>
<polygon fill="midnightblue" stroke="midnightblue" points="131.56,-72.85 120.99,-73.54 129.68,-79.6 131.56,-72.85"/>
</g>
<!-- Node8 -->
<g id="node8" class="node">
<title>Node8</title>
<g id="a_node8"><a xlink:title=" ">
<polygon fill="white" stroke="#bfbfbf" points="236,-55.5 236,-73.5 280.34,-73.5 280.34,-55.5 236,-55.5"/>
<text text-anchor="middle" x="258.17" y="-61.5" font-family="Helvetica,sans-Serif" font-size="10.00">cstdlib</text>
</a>
</g>
</g>
<!-- Node2&#45;&gt;Node8 -->
<g id="edge7" class="edge">
<title>Node2&#45;&gt;Node8</title>
<path fill="none" stroke="midnightblue" d="M278.42,-110.22C275.13,-102.94 270.22,-92.11 266.07,-82.93"/>
<polygon fill="midnightblue" stroke="midnightblue" points="269.13,-81.22 261.82,-73.55 262.75,-84.1 269.13,-81.22"/>
</g>
<!-- Node9 -->
<g id="node9" class="node">
<title>Node9</title>
<g id="a_node9"><a xlink:title=" ">
<polygon fill="white" stroke="#bfbfbf" points="298.61,-55.5 298.61,-73.5 345.73,-73.5 345.73,-55.5 298.61,-55.5"/>
<text text-anchor="middle" x="322.17" y="-61.5" font-family="Helvetica,sans-Serif" font-size="10.00">iterator</text>
</a>
</g>
</g>
<!-- Node2&#45;&gt;Node9 -->
<g id="edge8" class="edge">
<title>Node2&#45;&gt;Node9</title>
<path fill="none" stroke="midnightblue" d="M288.42,-110.22C294.15,-102.63 302.79,-91.18 309.9,-81.76"/>
<polygon fill="midnightblue" stroke="midnightblue" points="312.87,-83.64 316.1,-73.55 307.28,-79.42 312.87,-83.64"/>
</g>
<!-- Node10 -->
<g id="node10" class="node">
<title>Node10</title>
<g id="a_node10"><a xlink:title=" ">
<polygon fill="white" stroke="#bfbfbf" points="364.12,-55.5 364.12,-73.5 416.23,-73.5 416.23,-55.5 364.12,-55.5"/>
<text text-anchor="middle" x="390.17" y="-61.5" font-family="Helvetica,sans-Serif" font-size="10.00">memory</text>
</a>
</g>
</g>
<!-- Node2&#45;&gt;Node10 -->
<g id="edge9" class="edge">
<title>Node2&#45;&gt;Node10</title>
<path fill="none" stroke="midnightblue" d="M298.58,-110.45C316.1,-101.85 344.11,-88.1 364.55,-78.08"/>
<polygon fill="midnightblue" stroke="midnightblue" points="366.18,-81.17 373.62,-73.63 363.1,-74.89 366.18,-81.17"/>
</g>
<!-- Node4 -->
<g id="node4" class="node">
<title>Node4</title>
<g id="a_node4"><a xlink:title=" ">
<polygon fill="white" stroke="#bfbfbf" points="129.78,-0.5 129.78,-18.5 168.56,-18.5 168.56,-0.5 129.78,-0.5"/>
<text text-anchor="middle" x="149.17" y="-6.5" font-family="Helvetica,sans-Serif" font-size="10.00">array</text>
</a>
</g>
</g>
<!-- Node3&#45;&gt;Node4 -->
<g id="edge3" class="edge">
<title>Node3&#45;&gt;Node4</title>
<path fill="none" stroke="midnightblue" d="M101.08,-55.22C109.58,-47.32 122.58,-35.22 132.93,-25.61"/>
<polygon fill="midnightblue" stroke="midnightblue" points="135.58,-27.92 140.52,-18.55 130.81,-22.8 135.58,-27.92"/>
</g>
<!-- Node3&#45;&gt;Node5 -->
<g id="edge4" class="edge">
<title>Node3&#45;&gt;Node5</title>
<path fill="none" stroke="midnightblue" d="M109.79,-55.45C128.78,-46.77 159.24,-32.86 181.24,-22.8"/>
<polygon fill="midnightblue" stroke="midnightblue" points="182.75,-25.96 190.39,-18.63 179.84,-19.6 182.75,-25.96"/>
</g>
<!-- Node6 -->
<g id="node6" class="node">
<title>Node6</title>
<g id="a_node6"><a xlink:title=" ">
<polygon fill="white" stroke="#bfbfbf" points="0,-0.5 0,-18.5 54.34,-18.5 54.34,-0.5 0,-0.5"/>
<text text-anchor="middle" x="27.17" y="-6.5" font-family="Helvetica,sans-Serif" font-size="10.00">iostream</text>
</a>
</g>
</g>
<!-- Node3&#45;&gt;Node6 -->
<g id="edge5" class="edge">
<title>Node3&#45;&gt;Node6</title>
<path fill="none" stroke="midnightblue" d="M82.3,-55.45C72.47,-47.43 57.15,-34.95 45.16,-25.17"/>
<polygon fill="midnightblue" stroke="midnightblue" points="47.1,-22.23 37.14,-18.63 42.68,-27.66 47.1,-22.23"/>
</g>
<!-- Node7 -->
<g id="node7" class="node">
<title>Node7</title>
<g id="a_node7"><a xlink:title=" ">
<polygon fill="white" stroke="#bfbfbf" points="72.78,-0.5 72.78,-18.5 111.56,-18.5 111.56,-0.5 72.78,-0.5"/>
<text text-anchor="middle" x="92.17" y="-6.5" font-family="Helvetica,sans-Serif" font-size="10.00">utility</text>
</a>
</g>
</g>
<!-- Node3&#45;&gt;Node7 -->
<g id="edge6" class="edge">
<title>Node3&#45;&gt;Node7</title>
<path fill="none" stroke="midnightblue" d="M92.17,-55.22C92.17,-48.18 92.17,-37.81 92.17,-28.83"/>
<polygon fill="midnightblue" stroke="midnightblue" points="95.67,-28.55 92.17,-18.55 88.67,-28.55 95.67,-28.55"/>
</g>
<!-- Node11&#45;&gt;Node3 -->
<g id="edge11" class="edge">
<title>Node11&#45;&gt;Node3</title>
<path fill="none" stroke="midnightblue" d="M93.02,-110.22C92.88,-103.18 92.69,-92.81 92.52,-83.83"/>
<polygon fill="midnightblue" stroke="midnightblue" points="96.01,-83.48 92.32,-73.55 89.01,-83.61 96.01,-83.48"/>
</g>
<!-- Node11&#45;&gt;Node12 -->
<g id="edge12" class="edge">
<title>Node11&#45;&gt;Node12</title>
<path fill="none" stroke="midnightblue" d="M104.11,-110.45C115.21,-102.28 132.62,-89.46 146.02,-79.6"/>
<polygon fill="midnightblue" stroke="midnightblue" points="148.16,-82.37 154.13,-73.63 144.01,-76.73 148.16,-82.37"/>
</g>
<!-- Node13&#45;&gt;Node10 -->
<g id="edge14" class="edge">
<title>Node13&#45;&gt;Node10</title>
<path fill="none" stroke="midnightblue" d="M388.48,-110.22C388.75,-103.18 389.14,-92.81 389.48,-83.83"/>
<polygon fill="midnightblue" stroke="midnightblue" points="392.99,-83.67 389.87,-73.55 385.99,-83.41 392.99,-83.67"/>
</g>
</g>
</svg>
