<?xml version="1.0" encoding="UTF-8" standalone="no"?>
<!DOCTYPE svg PUBLIC "-//W3C//DTD SVG 1.1//EN"
 "http://www.w3.org/Graphics/SVG/1.1/DTD/svg11.dtd">
<!-- Generated by graphviz version 2.40.1 (20161225.0304)
 -->
<!-- Title: ppht/state.hpp Pages: 1 -->
<svg width="709pt" height="192pt"
 viewBox="0.00 0.00 708.79 192.00" xmlns="http://www.w3.org/2000/svg" xmlns:xlink="http://www.w3.org/1999/xlink">
<g id="graph0" class="graph" transform="scale(1 1) rotate(0) translate(4 188)">
<title>ppht/state.hpp</title>
<polygon fill="#ffffff" stroke="transparent" points="-4,4 -4,-188 704.7881,-188 704.7881,4 -4,4"/>
<!-- Node0 -->
<g id="node1" class="node">
<title>Node0</title>
<polygon fill="#bfbfbf" stroke="#000000" points="295.4805,-165.5 295.4805,-183.5 374.8643,-183.5 374.8643,-165.5 295.4805,-165.5"/>
<text text-anchor="middle" x="335.1724" y="-171.5" font-family="Helvetica,sans-Serif" font-size="10.00" fill="#000000">ppht/state.hpp</text>
</g>
<!-- Node1 -->
<g id="node2" class="node">
<title>Node1</title>
<g id="a_node2"><a xlink:href="channel_8hpp.html" target="_top" xlink:title="ppht/channel.hpp">
<polygon fill="#ffffff" stroke="#000000" points="235.8057,-110.5 235.8057,-128.5 328.5391,-128.5 328.5391,-110.5 235.8057,-110.5"/>
<text text-anchor="middle" x="282.1724" y="-116.5" font-family="Helvetica,sans-Serif" font-size="10.00" fill="#000000">ppht/channel.hpp</text>
</a>
</g>
</g>
<!-- Node0&#45;&gt;Node1 -->
<g id="edge1" class="edge">
<title>Node0&#45;&gt;Node1</title>
<path fill="none" stroke="#191970" d="M326.4205,-165.4179C318.7945,-157.5041 307.5394,-145.8243 298.2893,-136.2251"/>
<polygon fill="#191970" stroke="#191970" points="300.5736,-133.5516 291.1144,-128.7795 295.5331,-138.4089 300.5736,-133.5516"/>
</g>
<!-- Node2 -->
<g id="node3" class="node">
<title>Node2</title>
<g id="a_node3"><a xlink:href="types_8hpp.html" target="_top" xlink:title="ppht/types.hpp">
<polygon fill="#ffffff" stroke="#000000" points="51.3696,-55.5 51.3696,-73.5 132.9751,-73.5 132.9751,-55.5 51.3696,-55.5"/>
<text text-anchor="middle" x="92.1724" y="-61.5" font-family="Helvetica,sans-Serif" font-size="10.00" fill="#000000">ppht/types.hpp</text>
</a>
</g>
</g>
<!-- Node0&#45;&gt;Node2 -->
<g id="edge15" class="edge">
<title>Node0&#45;&gt;Node2</title>
<path fill="none" stroke="#191970" d="M295.3404,-171.3233C217.6399,-164.7215 51.9363,-148.4981 35.1724,-129 20.1689,-111.5494 43.8435,-91.753 65.091,-78.748"/>
<polygon fill="#191970" stroke="#191970" points="67.038,-81.6648 73.9287,-73.6169 63.5232,-75.6111 67.038,-81.6648"/>
</g>
<!-- Node4 -->
<g id="node5" class="node">
<title>Node4</title>
<polygon fill="#ffffff" stroke="#bfbfbf" points="186.5566,-.5 186.5566,-18.5 229.7881,-18.5 229.7881,-.5 186.5566,-.5"/>
<text text-anchor="middle" x="208.1724" y="-6.5" font-family="Helvetica,sans-Serif" font-size="10.00" fill="#000000">cmath</text>
</g>
<!-- Node0&#45;&gt;Node4 -->
<g id="edge18" class="edge">
<title>Node0&#45;&gt;Node4</title>
<path fill="none" stroke="#191970" d="M295.3654,-167.6929C271.9379,-161.5727 243.7419,-150.1362 227.1724,-129 204.3669,-99.9092 203.9355,-54.352 205.895,-28.7086"/>
<polygon fill="#191970" stroke="#191970" points="209.3792,-29.0407 206.8573,-18.7504 202.4116,-28.3674 209.3792,-29.0407"/>
</g>
<!-- Node10 -->
<g id="node11" class="node">
<title>Node10</title>
<g id="a_node11"><a xlink:href="point__set_8hpp.html" target="_top" xlink:title="ppht/point_set.hpp">
<polygon fill="#ffffff" stroke="#000000" points="44.0273,-110.5 44.0273,-128.5 142.3174,-128.5 142.3174,-110.5 44.0273,-110.5"/>
<text text-anchor="middle" x="93.1724" y="-116.5" font-family="Helvetica,sans-Serif" font-size="10.00" fill="#000000">ppht/point_set.hpp</text>
</a>
</g>
</g>
<!-- Node0&#45;&gt;Node10 -->
<g id="edge10" class="edge">
<title>Node0&#45;&gt;Node10</title>
<path fill="none" stroke="#191970" d="M295.482,-165.4795C253.7199,-155.9881 187.9065,-141.0305 142.755,-130.7688"/>
<polygon fill="#191970" stroke="#191970" points="143.4115,-127.3288 132.8844,-128.5255 141.8601,-134.1547 143.4115,-127.3288"/>
</g>
<!-- Node11 -->
<g id="node12" class="node">
<title>Node11</title>
<polygon fill="#ffffff" stroke="#bfbfbf" points="150.5024,-55.5 150.5024,-73.5 179.8423,-73.5 179.8423,-55.5 150.5024,-55.5"/>
<text text-anchor="middle" x="165.1724" y="-61.5" font-family="Helvetica,sans-Serif" font-size="10.00" fill="#000000">set</text>
</g>
<!-- Node0&#45;&gt;Node11 -->
<g id="edge20" class="edge">
<title>Node0&#45;&gt;Node11</title>
<path fill="none" stroke="#191970" d="M295.2598,-170.4438C264.3656,-165.4032 222.2476,-154.1354 194.1724,-129 180.9059,-117.1227 173.3634,-98.0015 169.3172,-83.6562"/>
<polygon fill="#191970" stroke="#191970" points="172.6798,-82.6747 166.8677,-73.8163 165.8871,-84.3657 172.6798,-82.6747"/>
</g>
<!-- Node12 -->
<g id="node13" class="node">
<title>Node12</title>
<g id="a_node13"><a xlink:href="raster_8hpp.html" target="_top" xlink:title="ppht/raster.hpp">
<polygon fill="#ffffff" stroke="#000000" points="346.813,-110.5 346.813,-128.5 429.5317,-128.5 429.5317,-110.5 346.813,-110.5"/>
<text text-anchor="middle" x="388.1724" y="-116.5" font-family="Helvetica,sans-Serif" font-size="10.00" fill="#000000">ppht/raster.hpp</text>
</a>
</g>
</g>
<!-- Node0&#45;&gt;Node12 -->
<g id="edge13" class="edge">
<title>Node0&#45;&gt;Node12</title>
<path fill="none" stroke="#191970" d="M343.9242,-165.4179C351.5502,-157.5041 362.8053,-145.8243 372.0555,-136.2251"/>
<polygon fill="#191970" stroke="#191970" points="374.8117,-138.4089 379.2303,-128.7795 369.7711,-133.5516 374.8117,-138.4089"/>
</g>
<!-- Node13 -->
<g id="node14" class="node">
<title>Node13</title>
<polygon fill="#ffffff" stroke="#bfbfbf" points="447.6084,-110.5 447.6084,-128.5 504.7363,-128.5 504.7363,-110.5 447.6084,-110.5"/>
<text text-anchor="middle" x="476.1724" y="-116.5" font-family="Helvetica,sans-Serif" font-size="10.00" fill="#000000">algorithm</text>
</g>
<!-- Node0&#45;&gt;Node13 -->
<g id="edge16" class="edge">
<title>Node0&#45;&gt;Node13</title>
<path fill="none" stroke="#191970" d="M358.4556,-165.4179C381.6212,-156.3817 417.3746,-142.4353 443.402,-132.2828"/>
<polygon fill="#191970" stroke="#191970" points="444.8101,-135.4904 452.8545,-128.5956 442.2662,-128.969 444.8101,-135.4904"/>
</g>
<!-- Node14 -->
<g id="node15" class="node">
<title>Node14</title>
<polygon fill="#ffffff" stroke="#bfbfbf" points="523.0566,-110.5 523.0566,-128.5 571.2881,-128.5 571.2881,-110.5 523.0566,-110.5"/>
<text text-anchor="middle" x="547.1724" y="-116.5" font-family="Helvetica,sans-Serif" font-size="10.00" fill="#000000">cassert</text>
</g>
<!-- Node0&#45;&gt;Node14 -->
<g id="edge17" class="edge">
<title>Node0&#45;&gt;Node14</title>
<path fill="none" stroke="#191970" d="M372.286,-165.4267C406.4955,-156.9832 458.9134,-143.8444 513.243,-129.1944"/>
<polygon fill="#191970" stroke="#191970" points="514.3087,-132.532 523.0463,-126.5399 512.4791,-125.7753 514.3087,-132.532"/>
</g>
<!-- Node15 -->
<g id="node16" class="node">
<title>Node15</title>
<polygon fill="#ffffff" stroke="#bfbfbf" points="589.2192,-110.5 589.2192,-128.5 639.1255,-128.5 639.1255,-110.5 589.2192,-110.5"/>
<text text-anchor="middle" x="614.1724" y="-116.5" font-family="Helvetica,sans-Serif" font-size="10.00" fill="#000000">random</text>
</g>
<!-- Node0&#45;&gt;Node15 -->
<g id="edge19" class="edge">
<title>Node0&#45;&gt;Node15</title>
<path fill="none" stroke="#191970" d="M375.2882,-168.1745C422.0006,-160.5611 501.6569,-146.8137 579.068,-129.1005"/>
<polygon fill="#191970" stroke="#191970" points="580.0317,-132.4701 588.9855,-126.8061 578.4539,-125.6502 580.0317,-132.4701"/>
</g>
<!-- Node16 -->
<g id="node17" class="node">
<title>Node16</title>
<polygon fill="#ffffff" stroke="#bfbfbf" points="657.5566,-110.5 657.5566,-128.5 700.7881,-128.5 700.7881,-110.5 657.5566,-110.5"/>
<text text-anchor="middle" x="679.1724" y="-116.5" font-family="Helvetica,sans-Serif" font-size="10.00" fill="#000000">vector</text>
</g>
<!-- Node0&#45;&gt;Node16 -->
<g id="edge21" class="edge">
<title>Node0&#45;&gt;Node16</title>
<path fill="none" stroke="#191970" d="M375.0558,-170.6788C433.0146,-164.6959 543.9825,-151.624 647.296,-128.8961"/>
<polygon fill="#191970" stroke="#191970" points="648.2729,-132.2642 657.2682,-126.6664 646.7454,-125.4329 648.2729,-132.2642"/>
</g>
<!-- Node1&#45;&gt;Node2 -->
<g id="edge2" class="edge">
<title>Node1&#45;&gt;Node2</title>
<path fill="none" stroke="#191970" d="M250.7977,-110.4179C218.6607,-101.115 168.5456,-86.608 133.2616,-76.3943"/>
<polygon fill="#191970" stroke="#191970" points="133.8567,-72.9229 123.2778,-73.5042 131.9102,-79.6468 133.8567,-72.9229"/>
</g>
<!-- Node7 -->
<g id="node8" class="node">
<title>Node7</title>
<polygon fill="#ffffff" stroke="#bfbfbf" points="236,-55.5 236,-73.5 280.3447,-73.5 280.3447,-55.5 236,-55.5"/>
<text text-anchor="middle" x="258.1724" y="-61.5" font-family="Helvetica,sans-Serif" font-size="10.00" fill="#000000">cstdlib</text>
</g>
<!-- Node1&#45;&gt;Node7 -->
<g id="edge7" class="edge">
<title>Node1&#45;&gt;Node7</title>
<path fill="none" stroke="#191970" d="M278.2093,-110.4179C274.9632,-102.9789 270.265,-92.2123 266.2338,-82.9742"/>
<polygon fill="#191970" stroke="#191970" points="269.429,-81.545 262.2216,-73.7795 263.0132,-84.3447 269.429,-81.545"/>
</g>
<!-- Node8 -->
<g id="node9" class="node">
<title>Node8</title>
<polygon fill="#ffffff" stroke="#bfbfbf" points="298.6108,-55.5 298.6108,-73.5 345.7339,-73.5 345.7339,-55.5 298.6108,-55.5"/>
<text text-anchor="middle" x="322.1724" y="-61.5" font-family="Helvetica,sans-Serif" font-size="10.00" fill="#000000">iterator</text>
</g>
<!-- Node1&#45;&gt;Node8 -->
<g id="edge8" class="edge">
<title>Node1&#45;&gt;Node8</title>
<path fill="none" stroke="#191970" d="M288.7775,-110.4179C294.3603,-102.7415 302.5202,-91.5217 309.3764,-82.0945"/>
<polygon fill="#191970" stroke="#191970" points="312.3725,-83.9255 315.4237,-73.7795 306.7113,-79.8082 312.3725,-83.9255"/>
</g>
<!-- Node9 -->
<g id="node10" class="node">
<title>Node9</title>
<polygon fill="#ffffff" stroke="#bfbfbf" points="364.1157,-55.5 364.1157,-73.5 416.229,-73.5 416.229,-55.5 364.1157,-55.5"/>
<text text-anchor="middle" x="390.1724" y="-61.5" font-family="Helvetica,sans-Serif" font-size="10.00" fill="#000000">memory</text>
</g>
<!-- Node1&#45;&gt;Node9 -->
<g id="edge9" class="edge">
<title>Node1&#45;&gt;Node9</title>
<path fill="none" stroke="#191970" d="M300.0064,-110.4179C317.203,-101.6603 343.456,-88.2907 363.2066,-78.2326"/>
<polygon fill="#191970" stroke="#191970" points="364.9892,-81.2526 372.3119,-73.5956 361.8125,-75.0148 364.9892,-81.2526"/>
</g>
<!-- Node3 -->
<g id="node4" class="node">
<title>Node3</title>
<polygon fill="#ffffff" stroke="#bfbfbf" points="129.7808,-.5 129.7808,-18.5 168.564,-18.5 168.564,-.5 129.7808,-.5"/>
<text text-anchor="middle" x="149.1724" y="-6.5" font-family="Helvetica,sans-Serif" font-size="10.00" fill="#000000">array</text>
</g>
<!-- Node2&#45;&gt;Node3 -->
<g id="edge3" class="edge">
<title>Node2&#45;&gt;Node3</title>
<path fill="none" stroke="#191970" d="M101.5848,-55.4179C109.8683,-47.425 122.1333,-35.5903 132.1369,-25.9377"/>
<polygon fill="#191970" stroke="#191970" points="134.7896,-28.2419 139.5555,-18.7795 129.929,-23.2045 134.7896,-28.2419"/>
</g>
<!-- Node2&#45;&gt;Node4 -->
<g id="edge4" class="edge">
<title>Node2&#45;&gt;Node4</title>
<path fill="none" stroke="#191970" d="M111.3274,-55.4179C129.9658,-46.5807 158.509,-33.0473 179.786,-22.9591"/>
<polygon fill="#191970" stroke="#191970" points="181.4526,-26.0424 188.9889,-18.5956 178.4536,-19.7174 181.4526,-26.0424"/>
</g>
<!-- Node5 -->
<g id="node6" class="node">
<title>Node5</title>
<polygon fill="#ffffff" stroke="#bfbfbf" points="0,-.5 0,-18.5 54.3447,-18.5 54.3447,-.5 0,-.5"/>
<text text-anchor="middle" x="27.1724" y="-6.5" font-family="Helvetica,sans-Serif" font-size="10.00" fill="#000000">iostream</text>
</g>
<!-- Node2&#45;&gt;Node5 -->
<g id="edge5" class="edge">
<title>Node2&#45;&gt;Node5</title>
<path fill="none" stroke="#191970" d="M81.4389,-55.4179C71.8057,-47.2667 57.4507,-35.1201 45.9242,-25.3669"/>
<polygon fill="#191970" stroke="#191970" points="48.0337,-22.5671 38.139,-18.7795 43.5121,-27.9108 48.0337,-22.5671"/>
</g>
<!-- Node6 -->
<g id="node7" class="node">
<title>Node6</title>
<polygon fill="#ffffff" stroke="#bfbfbf" points="72.7808,-.5 72.7808,-18.5 111.564,-18.5 111.564,-.5 72.7808,-.5"/>
<text text-anchor="middle" x="92.1724" y="-6.5" font-family="Helvetica,sans-Serif" font-size="10.00" fill="#000000">utility</text>
</g>
<!-- Node2&#45;&gt;Node6 -->
<g id="edge6" class="edge">
<title>Node2&#45;&gt;Node6</title>
<path fill="none" stroke="#191970" d="M92.1724,-55.4179C92.1724,-48.2164 92.1724,-37.8962 92.1724,-28.8632"/>
<polygon fill="#191970" stroke="#191970" points="95.6725,-28.7794 92.1724,-18.7795 88.6725,-28.7795 95.6725,-28.7794"/>
</g>
<!-- Node10&#45;&gt;Node2 -->
<g id="edge11" class="edge">
<title>Node10&#45;&gt;Node2</title>
<path fill="none" stroke="#191970" d="M93.0072,-110.4179C92.8763,-103.2164 92.6887,-92.8962 92.5244,-83.8632"/>
<polygon fill="#191970" stroke="#191970" points="96.0224,-83.7141 92.3411,-73.7795 89.0235,-83.8415 96.0224,-83.7141"/>
</g>
<!-- Node10&#45;&gt;Node11 -->
<g id="edge12" class="edge">
<title>Node10&#45;&gt;Node11</title>
<path fill="none" stroke="#191970" d="M105.0617,-110.4179C115.8359,-102.1876 131.9425,-89.8839 144.7721,-80.0836"/>
<polygon fill="#191970" stroke="#191970" points="147.2026,-82.6313 153.0247,-73.7795 142.9533,-77.0685 147.2026,-82.6313"/>
</g>
<!-- Node12&#45;&gt;Node9 -->
<g id="edge14" class="edge">
<title>Node12&#45;&gt;Node9</title>
<path fill="none" stroke="#191970" d="M388.5026,-110.4179C388.7645,-103.2164 389.1398,-92.8962 389.4682,-83.8632"/>
<polygon fill="#191970" stroke="#191970" points="392.9691,-83.9001 389.8349,-73.7795 385.9737,-83.6456 392.9691,-83.9001"/>
</g>
</g>
</svg>
