<?xml version="1.0" encoding="UTF-8" standalone="no"?>
<!DOCTYPE svg PUBLIC "-//W3C//DTD SVG 1.1//EN"
 "http://www.w3.org/Graphics/SVG/1.1/DTD/svg11.dtd">
<!-- Generated by graphviz version 2.40.1 (20161225.0304)
 -->
<!-- Title: ppht/state.hpp Pages: 1 -->
<svg width="726pt" height="192pt"
 viewBox="0.00 0.00 726.01 192.00" xmlns="http://www.w3.org/2000/svg" xmlns:xlink="http://www.w3.org/1999/xlink">
<g id="graph0" class="graph" transform="scale(1 1) rotate(0) translate(4 188)">
<title>ppht/state.hpp</title>
<polygon fill="#ffffff" stroke="transparent" points="-4,4 -4,-188 722.0073,-188 722.0073,4 -4,4"/>
<!-- Node0 -->
<g id="node1" class="node">
<title>Node0</title>
<polygon fill="#bfbfbf" stroke="#000000" points="347.6997,-165.5 347.6997,-183.5 427.0835,-183.5 427.0835,-165.5 347.6997,-165.5"/>
<text text-anchor="middle" x="387.3916" y="-171.5" font-family="Helvetica,sans-Serif" font-size="10.00" fill="#000000">ppht/state.hpp</text>
</g>
<!-- Node1 -->
<g id="node2" class="node">
<title>Node1</title>
<g id="a_node2"><a xlink:href="channel_8hpp.html" target="_top" xlink:title="ppht/channel.hpp">
<polygon fill="#ffffff" stroke="#000000" points="191.0249,-110.5 191.0249,-128.5 283.7583,-128.5 283.7583,-110.5 191.0249,-110.5"/>
<text text-anchor="middle" x="237.3916" y="-116.5" font-family="Helvetica,sans-Serif" font-size="10.00" fill="#000000">ppht/channel.hpp</text>
</a>
</g>
</g>
<!-- Node0&#45;&gt;Node1 -->
<g id="edge1" class="edge">
<title>Node0&#45;&gt;Node1</title>
<path fill="none" stroke="#191970" d="M362.6222,-165.4179C337.7953,-156.3147 299.3777,-142.2283 271.6397,-132.0576"/>
<polygon fill="#191970" stroke="#191970" points="272.5422,-128.6608 261.9485,-128.5042 270.1324,-135.2329 272.5422,-128.6608"/>
</g>
<!-- Node2 -->
<g id="node3" class="node">
<title>Node2</title>
<g id="a_node3"><a xlink:href="types_8hpp.html" target="_top" xlink:title="ppht/types.hpp">
<polygon fill="#ffffff" stroke="#000000" points="43.5889,-55.5 43.5889,-73.5 125.1943,-73.5 125.1943,-55.5 43.5889,-55.5"/>
<text text-anchor="middle" x="84.3916" y="-61.5" font-family="Helvetica,sans-Serif" font-size="10.00" fill="#000000">ppht/types.hpp</text>
</a>
</g>
</g>
<!-- Node0&#45;&gt;Node2 -->
<g id="edge14" class="edge">
<title>Node0&#45;&gt;Node2</title>
<path fill="none" stroke="#191970" d="M347.6901,-172.3816C258.6731,-167.2265 49.2641,-152.6849 28.3916,-129 13.2066,-111.7689 36.8909,-91.7797 57.972,-78.6762"/>
<polygon fill="#191970" stroke="#191970" points="59.8929,-81.6066 66.7264,-73.5101 56.3353,-75.578 59.8929,-81.6066"/>
</g>
<!-- Node9 -->
<g id="node10" class="node">
<title>Node9</title>
<g id="a_node10"><a xlink:href="point__set_8hpp.html" target="_top" xlink:title="ppht/point_set.hpp">
<polygon fill="#ffffff" stroke="#000000" points="37.2466,-110.5 37.2466,-128.5 135.5366,-128.5 135.5366,-110.5 37.2466,-110.5"/>
<text text-anchor="middle" x="86.3916" y="-116.5" font-family="Helvetica,sans-Serif" font-size="10.00" fill="#000000">ppht/point_set.hpp</text>
</a>
</g>
</g>
<!-- Node0&#45;&gt;Node9 -->
<g id="edge9" class="edge">
<title>Node0&#45;&gt;Node9</title>
<path fill="none" stroke="#191970" d="M347.4211,-167.1964C295.7958,-157.7632 205.4993,-141.2639 145.8208,-130.3592"/>
<polygon fill="#191970" stroke="#191970" points="146.2505,-126.8798 135.7842,-128.5252 144.9922,-133.7658 146.2505,-126.8798"/>
</g>
<!-- Node10 -->
<g id="node11" class="node">
<title>Node10</title>
<polygon fill="#ffffff" stroke="#bfbfbf" points="142.7217,-55.5 142.7217,-73.5 172.0615,-73.5 172.0615,-55.5 142.7217,-55.5"/>
<text text-anchor="middle" x="157.3916" y="-61.5" font-family="Helvetica,sans-Serif" font-size="10.00" fill="#000000">set</text>
</g>
<!-- Node0&#45;&gt;Node10 -->
<g id="edge19" class="edge">
<title>Node0&#45;&gt;Node10</title>
<path fill="none" stroke="#191970" d="M347.4211,-170.1268C294.9949,-163.6491 206.7961,-149.9644 182.3916,-129 169.0343,-117.5255 162.7767,-98.0361 159.8679,-83.4771"/>
<polygon fill="#191970" stroke="#191970" points="163.3071,-82.8206 158.2341,-73.5192 156.3994,-83.954 163.3071,-82.8206"/>
</g>
<!-- Node11 -->
<g id="node12" class="node">
<title>Node11</title>
<g id="a_node12"><a xlink:href="raster_8hpp.html" target="_top" xlink:title="ppht/raster.hpp">
<polygon fill="#ffffff" stroke="#000000" points="302.0322,-110.5 302.0322,-128.5 384.751,-128.5 384.751,-110.5 302.0322,-110.5"/>
<text text-anchor="middle" x="343.3916" y="-116.5" font-family="Helvetica,sans-Serif" font-size="10.00" fill="#000000">ppht/raster.hpp</text>
</a>
</g>
</g>
<!-- Node0&#45;&gt;Node11 -->
<g id="edge12" class="edge">
<title>Node0&#45;&gt;Node11</title>
<path fill="none" stroke="#191970" d="M380.1259,-165.4179C373.9215,-157.6624 364.8236,-146.29 357.2344,-136.8035"/>
<polygon fill="#191970" stroke="#191970" points="359.7952,-134.4017 350.8152,-128.7795 354.3291,-138.7746 359.7952,-134.4017"/>
</g>
<!-- Node12 -->
<g id="node13" class="node">
<title>Node12</title>
<polygon fill="#ffffff" stroke="#bfbfbf" points="402.8276,-110.5 402.8276,-128.5 459.9556,-128.5 459.9556,-110.5 402.8276,-110.5"/>
<text text-anchor="middle" x="431.3916" y="-116.5" font-family="Helvetica,sans-Serif" font-size="10.00" fill="#000000">algorithm</text>
</g>
<!-- Node0&#45;&gt;Node12 -->
<g id="edge15" class="edge">
<title>Node0&#45;&gt;Node12</title>
<path fill="none" stroke="#191970" d="M394.6573,-165.4179C400.8617,-157.6624 409.9596,-146.29 417.5488,-136.8035"/>
<polygon fill="#191970" stroke="#191970" points="420.4541,-138.7746 423.968,-128.7795 414.988,-134.4017 420.4541,-138.7746"/>
</g>
<!-- Node13 -->
<g id="node14" class="node">
<title>Node13</title>
<polygon fill="#ffffff" stroke="#bfbfbf" points="478.2759,-110.5 478.2759,-128.5 526.5073,-128.5 526.5073,-110.5 478.2759,-110.5"/>
<text text-anchor="middle" x="502.3916" y="-116.5" font-family="Helvetica,sans-Serif" font-size="10.00" fill="#000000">cassert</text>
</g>
<!-- Node0&#45;&gt;Node13 -->
<g id="edge16" class="edge">
<title>Node0&#45;&gt;Node13</title>
<path fill="none" stroke="#191970" d="M406.3815,-165.4179C424.8592,-156.5807 453.1564,-143.0473 474.2499,-132.9591"/>
<polygon fill="#191970" stroke="#191970" points="475.8622,-136.0677 483.3735,-128.5956 472.842,-129.7528 475.8622,-136.0677"/>
</g>
<!-- Node14 -->
<g id="node15" class="node">
<title>Node14</title>
<polygon fill="#ffffff" stroke="#bfbfbf" points="544.7759,-110.5 544.7759,-128.5 588.0073,-128.5 588.0073,-110.5 544.7759,-110.5"/>
<text text-anchor="middle" x="566.3916" y="-116.5" font-family="Helvetica,sans-Serif" font-size="10.00" fill="#000000">cmath</text>
</g>
<!-- Node0&#45;&gt;Node14 -->
<g id="edge17" class="edge">
<title>Node0&#45;&gt;Node14</title>
<path fill="none" stroke="#191970" d="M416.9498,-165.4179C449.526,-155.4084 501.7104,-139.3741 535.0007,-129.1452"/>
<polygon fill="#191970" stroke="#191970" points="536.1521,-132.453 544.683,-126.1702 534.0961,-125.7618 536.1521,-132.453"/>
</g>
<!-- Node15 -->
<g id="node16" class="node">
<title>Node15</title>
<polygon fill="#ffffff" stroke="#bfbfbf" points="606.4385,-110.5 606.4385,-128.5 656.3447,-128.5 656.3447,-110.5 606.4385,-110.5"/>
<text text-anchor="middle" x="631.3916" y="-116.5" font-family="Helvetica,sans-Serif" font-size="10.00" fill="#000000">random</text>
</g>
<!-- Node0&#45;&gt;Node15 -->
<g id="edge18" class="edge">
<title>Node0&#45;&gt;Node15</title>
<path fill="none" stroke="#191970" d="M427.4214,-166.5602C467.7272,-158.4029 531.9004,-144.9737 596.2725,-129.1735"/>
<polygon fill="#191970" stroke="#191970" points="597.3174,-132.5206 606.1845,-126.7219 595.6366,-125.7254 597.3174,-132.5206"/>
</g>
<!-- Node16 -->
<g id="node17" class="node">
<title>Node16</title>
<polygon fill="#ffffff" stroke="#bfbfbf" points="674.7759,-110.5 674.7759,-128.5 718.0073,-128.5 718.0073,-110.5 674.7759,-110.5"/>
<text text-anchor="middle" x="696.3916" y="-116.5" font-family="Helvetica,sans-Serif" font-size="10.00" fill="#000000">vector</text>
</g>
<!-- Node0&#45;&gt;Node16 -->
<g id="edge20" class="edge">
<title>Node0&#45;&gt;Node16</title>
<path fill="none" stroke="#191970" d="M427.3149,-169.691C479.7019,-163.0034 574.607,-149.5924 664.6545,-128.9071"/>
<polygon fill="#191970" stroke="#191970" points="665.5321,-132.2964 674.4761,-126.617 663.9425,-125.4793 665.5321,-132.2964"/>
</g>
<!-- Node1&#45;&gt;Node2 -->
<g id="edge2" class="edge">
<title>Node1&#45;&gt;Node2</title>
<path fill="none" stroke="#191970" d="M212.1268,-110.4179C186.6923,-101.2748 147.2735,-87.1046 118.953,-76.924"/>
<polygon fill="#191970" stroke="#191970" points="120.0341,-73.5935 109.4397,-73.5042 117.6661,-80.1808 120.0341,-73.5935"/>
</g>
<!-- Node6 -->
<g id="node7" class="node">
<title>Node6</title>
<polygon fill="#ffffff" stroke="#bfbfbf" points="255.2192,-55.5 255.2192,-73.5 299.564,-73.5 299.564,-55.5 255.2192,-55.5"/>
<text text-anchor="middle" x="277.3916" y="-61.5" font-family="Helvetica,sans-Serif" font-size="10.00" fill="#000000">cstdlib</text>
</g>
<!-- Node1&#45;&gt;Node6 -->
<g id="edge6" class="edge">
<title>Node1&#45;&gt;Node6</title>
<path fill="none" stroke="#191970" d="M243.9968,-110.4179C249.5796,-102.7415 257.7394,-91.5217 264.5956,-82.0945"/>
<polygon fill="#191970" stroke="#191970" points="267.5917,-83.9255 270.6429,-73.7795 261.9306,-79.8082 267.5917,-83.9255"/>
</g>
<!-- Node7 -->
<g id="node8" class="node">
<title>Node7</title>
<polygon fill="#ffffff" stroke="#bfbfbf" points="189.8301,-55.5 189.8301,-73.5 236.9531,-73.5 236.9531,-55.5 189.8301,-55.5"/>
<text text-anchor="middle" x="213.3916" y="-61.5" font-family="Helvetica,sans-Serif" font-size="10.00" fill="#000000">iterator</text>
</g>
<!-- Node1&#45;&gt;Node7 -->
<g id="edge7" class="edge">
<title>Node1&#45;&gt;Node7</title>
<path fill="none" stroke="#191970" d="M233.4285,-110.4179C230.1824,-102.9789 225.4843,-92.2123 221.4531,-82.9742"/>
<polygon fill="#191970" stroke="#191970" points="224.6482,-81.545 217.4408,-73.7795 218.2324,-84.3447 224.6482,-81.545"/>
</g>
<!-- Node8 -->
<g id="node9" class="node">
<title>Node8</title>
<polygon fill="#ffffff" stroke="#bfbfbf" points="317.335,-55.5 317.335,-73.5 369.4482,-73.5 369.4482,-55.5 317.335,-55.5"/>
<text text-anchor="middle" x="343.3916" y="-61.5" font-family="Helvetica,sans-Serif" font-size="10.00" fill="#000000">memory</text>
</g>
<!-- Node1&#45;&gt;Node8 -->
<g id="edge8" class="edge">
<title>Node1&#45;&gt;Node8</title>
<path fill="none" stroke="#191970" d="M254.8953,-110.4179C271.7736,-101.6603 297.5404,-88.2907 316.9252,-78.2326"/>
<polygon fill="#191970" stroke="#191970" points="318.5975,-81.308 325.8619,-73.5956 315.3736,-75.0946 318.5975,-81.308"/>
</g>
<!-- Node3 -->
<g id="node4" class="node">
<title>Node3</title>
<polygon fill="#ffffff" stroke="#bfbfbf" points="0,-.5 0,-18.5 38.7832,-18.5 38.7832,-.5 0,-.5"/>
<text text-anchor="middle" x="19.3916" y="-6.5" font-family="Helvetica,sans-Serif" font-size="10.00" fill="#000000">array</text>
</g>
<!-- Node2&#45;&gt;Node3 -->
<g id="edge3" class="edge">
<title>Node2&#45;&gt;Node3</title>
<path fill="none" stroke="#191970" d="M73.6582,-55.4179C64.025,-47.2667 49.6699,-35.1201 38.1434,-25.3669"/>
<polygon fill="#191970" stroke="#191970" points="40.2529,-22.5671 30.3582,-18.7795 35.7313,-27.9108 40.2529,-22.5671"/>
</g>
<!-- Node4 -->
<g id="node5" class="node">
<title>Node4</title>
<polygon fill="#ffffff" stroke="#bfbfbf" points="57.2192,-.5 57.2192,-18.5 111.564,-18.5 111.564,-.5 57.2192,-.5"/>
<text text-anchor="middle" x="84.3916" y="-6.5" font-family="Helvetica,sans-Serif" font-size="10.00" fill="#000000">iostream</text>
</g>
<!-- Node2&#45;&gt;Node4 -->
<g id="edge4" class="edge">
<title>Node2&#45;&gt;Node4</title>
<path fill="none" stroke="#191970" d="M84.3916,-55.4179C84.3916,-48.2164 84.3916,-37.8962 84.3916,-28.8632"/>
<polygon fill="#191970" stroke="#191970" points="87.8917,-28.7794 84.3916,-18.7795 80.8917,-28.7795 87.8917,-28.7794"/>
</g>
<!-- Node5 -->
<g id="node6" class="node">
<title>Node5</title>
<polygon fill="#ffffff" stroke="#bfbfbf" points="130,-.5 130,-18.5 168.7832,-18.5 168.7832,-.5 130,-.5"/>
<text text-anchor="middle" x="149.3916" y="-6.5" font-family="Helvetica,sans-Serif" font-size="10.00" fill="#000000">utility</text>
</g>
<!-- Node2&#45;&gt;Node5 -->
<g id="edge5" class="edge">
<title>Node2&#45;&gt;Node5</title>
<path fill="none" stroke="#191970" d="M95.125,-55.4179C104.7582,-47.2667 119.1133,-35.1201 130.6398,-25.3669"/>
<polygon fill="#191970" stroke="#191970" points="133.0519,-27.9108 138.425,-18.7795 128.5303,-22.5671 133.0519,-27.9108"/>
</g>
<!-- Node9&#45;&gt;Node2 -->
<g id="edge10" class="edge">
<title>Node9&#45;&gt;Node2</title>
<path fill="none" stroke="#191970" d="M86.0613,-110.4179C85.7995,-103.2164 85.4242,-92.8962 85.0957,-83.8632"/>
<polygon fill="#191970" stroke="#191970" points="88.5902,-83.6456 84.729,-73.7795 81.5948,-83.9001 88.5902,-83.6456"/>
</g>
<!-- Node9&#45;&gt;Node10 -->
<g id="edge11" class="edge">
<title>Node9&#45;&gt;Node10</title>
<path fill="none" stroke="#191970" d="M98.1158,-110.4179C108.7404,-102.1876 124.6233,-89.8839 137.2747,-80.0836"/>
<polygon fill="#191970" stroke="#191970" points="139.6506,-82.6704 145.4127,-73.7795 135.3637,-77.1365 139.6506,-82.6704"/>
</g>
<!-- Node11&#45;&gt;Node8 -->
<g id="edge13" class="edge">
<title>Node11&#45;&gt;Node8</title>
<path fill="none" stroke="#191970" d="M343.3916,-110.4179C343.3916,-103.2164 343.3916,-92.8962 343.3916,-83.8632"/>
<polygon fill="#191970" stroke="#191970" points="346.8917,-83.7794 343.3916,-73.7795 339.8917,-83.7795 346.8917,-83.7794"/>
</g>
</g>
</svg>
