<?xml version="1.0" encoding="UTF-8" standalone="no"?>
<!DOCTYPE svg PUBLIC "-//W3C//DTD SVG 1.1//EN"
 "http://www.w3.org/Graphics/SVG/1.1/DTD/svg11.dtd">
<!-- Generated by graphviz version 2.40.1 (20161225.0304)
 -->
<!-- Title: ppht::bresenham_scanner&lt; Ind, Increment &gt; Pages: 1 -->
<svg width="206pt" height="158pt"
 viewBox="0.00 0.00 205.52 158.00" xmlns="http://www.w3.org/2000/svg" xmlns:xlink="http://www.w3.org/1999/xlink">
<g id="graph0" class="graph" transform="scale(1 1) rotate(0) translate(4 154)">
<title>ppht::bresenham_scanner&lt; Ind, Increment &gt;</title>
<polygon fill="#ffffff" stroke="transparent" points="-4,4 -4,-154 201.5225,-154 201.5225,4 -4,4"/>
<!-- Node2 -->
<g id="node1" class="node">
<title>Node2</title>
<polygon fill="#bfbfbf" stroke="#000000" points="0,-.5 0,-28.5 132.1865,-28.5 132.1865,-.5 0,-.5"/>
<text text-anchor="start" x="8" y="-16.5" font-family="Helvetica,sans-Serif" font-size="10.00" fill="#000000">ppht::bresenham_scanner</text>
<text text-anchor="middle" x="66.0933" y="-6.5" font-family="Helvetica,sans-Serif" font-size="10.00" fill="#000000">&lt; Ind, Increment &gt;</text>
</g>
<!-- Node3 -->
<g id="node2" class="node">
<title>Node3</title>
<g id="a_node2"><a xlink:href="structppht_1_1scanner.html" target="_top" xlink:title="A class for tracking the state required to advance a point along a segment. ">
<polygon fill="#ffffff" stroke="#000000" points="11.7954,-75.5 11.7954,-93.5 88.3911,-93.5 88.3911,-75.5 11.7954,-75.5"/>
<text text-anchor="middle" x="50.0933" y="-81.5" font-family="Helvetica,sans-Serif" font-size="10.00" fill="#000000">ppht::scanner</text>
</a>
</g>
</g>
<!-- Node3&#45;&gt;Node2 -->
<g id="edge1" class="edge">
<title>Node3&#45;&gt;Node2</title>
<path fill="none" stroke="#191970" d="M54.4629,-65.383C57.1068,-53.8156 60.4223,-39.3105 62.8361,-28.7499"/>
<polygon fill="#191970" stroke="#191970" points="51.0013,-64.8202 52.185,-75.3487 57.8253,-66.38 51.0013,-64.8202"/>
</g>
<!-- Node4 -->
<g id="node3" class="node">
<title>Node4</title>
<g id="a_node3"><a xlink:href="structppht_1_1vec2d.html" target="_top" xlink:title="Simple type representing a two&#45;dimensional vector. ">
<polygon fill="#ffffff" stroke="#000000" points="106.7446,-75.5 106.7446,-93.5 197.4419,-93.5 197.4419,-75.5 106.7446,-75.5"/>
<text text-anchor="middle" x="152.0933" y="-81.5" font-family="Helvetica,sans-Serif" font-size="10.00" fill="#000000">ppht::vec2d&lt; T &gt;</text>
</a>
</g>
</g>
<!-- Node4&#45;&gt;Node2 -->
<g id="edge2" class="edge">
<title>Node4&#45;&gt;Node2</title>
<path fill="none" stroke="#9a32cd" stroke-dasharray="5,2" d="M132.8777,-68.8594C118.1211,-56.8482 97.9122,-40.3992 83.6003,-28.7499"/>
<polygon fill="#9a32cd" stroke="#9a32cd" points="130.8852,-71.7504 140.8503,-75.3487 135.3041,-66.3215 130.8852,-71.7504"/>
<text text-anchor="middle" x="128.3247" y="-49" font-family="Helvetica,sans-Serif" font-size="10.00" fill="#000000"> delta</text>
</g>
<!-- Node5 -->
<g id="node4" class="node">
<title>Node5</title>
<polygon fill="#ffffff" stroke="#bfbfbf" points="106.6641,-131.5 106.6641,-149.5 197.5225,-149.5 197.5225,-131.5 106.6641,-131.5"/>
<text text-anchor="middle" x="152.0933" y="-137.5" font-family="Helvetica,sans-Serif" font-size="10.00" fill="#000000">std::array&lt; T, 2 &gt;</text>
</g>
<!-- Node5&#45;&gt;Node4 -->
<g id="edge3" class="edge">
<title>Node5&#45;&gt;Node4</title>
<path fill="none" stroke="#191970" d="M152.0933,-121.2065C152.0933,-111.8384 152.0933,-101.0262 152.0933,-93.5752"/>
<polygon fill="#191970" stroke="#191970" points="148.5934,-121.2527 152.0933,-131.2527 155.5934,-121.2528 148.5934,-121.2527"/>
</g>
</g>
</svg>
