<?xml version="1.0" encoding="UTF-8" standalone="no"?>
<!DOCTYPE svg PUBLIC "-//W3C//DTD SVG 1.1//EN"
 "http://www.w3.org/Graphics/SVG/1.1/DTD/svg11.dtd">
<!-- Generated by graphviz version 2.40.1 (20161225.0304)
 -->
<!-- Title: ppht::scanner Pages: 1 -->
<svg width="258pt" height="92pt"
 viewBox="0.00 0.00 258.06 92.00" xmlns="http://www.w3.org/2000/svg" xmlns:xlink="http://www.w3.org/1999/xlink">
<g id="graph0" class="graph" transform="scale(1 1) rotate(0) translate(4 88)">
<title>ppht::scanner</title>
<polygon fill="#ffffff" stroke="transparent" points="-4,4 -4,-88 254.0635,-88 254.0635,4 -4,4"/>
<!-- Node0 -->
<g id="node1" class="node">
<title>Node0</title>
<polygon fill="#bfbfbf" stroke="#000000" points="78.6724,-65.5 78.6724,-83.5 155.2681,-83.5 155.2681,-65.5 78.6724,-65.5"/>
<text text-anchor="middle" x="116.9702" y="-71.5" font-family="Helvetica,sans-Serif" font-size="10.00" fill="#000000">ppht::scanner</text>
</g>
<!-- Node1 -->
<g id="node2" class="node">
<title>Node1</title>
<g id="a_node2"><a xlink:href="structppht_1_1axis__scanner.html" target="_top" xlink:title="A scanner optimized for lines parallel to an axis. ">
<polygon fill="#ffffff" stroke="#000000" points="0,-.5 0,-28.5 99.9404,-28.5 99.9404,-.5 0,-.5"/>
<text text-anchor="start" x="8" y="-16.5" font-family="Helvetica,sans-Serif" font-size="10.00" fill="#000000">ppht::axis_scanner</text>
<text text-anchor="middle" x="49.9702" y="-6.5" font-family="Helvetica,sans-Serif" font-size="10.00" fill="#000000">&lt; Ind &gt;</text>
</a>
</g>
</g>
<!-- Node0&#45;&gt;Node1 -->
<g id="edge1" class="edge">
<title>Node0&#45;&gt;Node1</title>
<path fill="none" stroke="#191970" d="M99.1228,-58.5172C88.7316,-49.2117 75.7486,-37.5851 65.7356,-28.6183"/>
<polygon fill="#191970" stroke="#191970" points="97.0099,-61.3234 106.7944,-65.3873 101.6798,-56.1087 97.0099,-61.3234"/>
</g>
<!-- Node2 -->
<g id="node3" class="node">
<title>Node2</title>
<g id="a_node3"><a xlink:href="structppht_1_1bresenham__scanner.html" target="_top" xlink:title="A scanner based on Bresenham&#39;s line algorithm. ">
<polygon fill="#ffffff" stroke="#000000" points="117.877,-.5 117.877,-28.5 250.0635,-28.5 250.0635,-.5 117.877,-.5"/>
<text text-anchor="start" x="125.877" y="-16.5" font-family="Helvetica,sans-Serif" font-size="10.00" fill="#000000">ppht::bresenham_scanner</text>
<text text-anchor="middle" x="183.9702" y="-6.5" font-family="Helvetica,sans-Serif" font-size="10.00" fill="#000000">&lt; Ind, Dep, Increment &gt;</text>
</a>
</g>
</g>
<!-- Node0&#45;&gt;Node2 -->
<g id="edge2" class="edge">
<title>Node0&#45;&gt;Node2</title>
<path fill="none" stroke="#191970" d="M134.8176,-58.5172C145.2088,-49.2117 158.1918,-37.5851 168.2048,-28.6183"/>
<polygon fill="#191970" stroke="#191970" points="132.2607,-56.1087 127.1461,-65.3873 136.9305,-61.3234 132.2607,-56.1087"/>
</g>
</g>
</svg>
