<?xml version="1.0" encoding="UTF-8" standalone="no"?>
<!DOCTYPE svg PUBLIC "-//W3C//DTD SVG 1.1//EN"
 "http://www.w3.org/Graphics/SVG/1.1/DTD/svg11.dtd">
<!-- Generated by graphviz version 2.48.0 (20210717.1556)
 -->
<!-- Title: ppht::bresenham_scanner&lt; Ind, Increment &gt; Pages: 1 -->
<svg width="203pt" height="158pt"
 viewBox="0.00 0.00 202.56 158.00" xmlns="http://www.w3.org/2000/svg" xmlns:xlink="http://www.w3.org/1999/xlink">
<g id="graph0" class="graph" transform="scale(1 1) rotate(0) translate(4 154)">
<title>ppht::bresenham_scanner&lt; Ind, Increment &gt;</title>
<polygon fill="white" stroke="transparent" points="-4,4 -4,-154 198.56,-154 198.56,4 -4,4"/>
<!-- Node1 -->
<g id="node1" class="node">
<title>Node1</title>
<g id="a_node1"><a xlink:title="A scanner based on Bresenham&#39;s line algorithm.">
<polygon fill="#bfbfbf" stroke="black" points="0,-0.5 0,-28.5 132.19,-28.5 132.19,-0.5 0,-0.5"/>
<text text-anchor="start" x="8" y="-16.5" font-family="Helvetica,sans-Serif" font-size="10.00">ppht::bresenham_scanner</text>
<text text-anchor="middle" x="66.09" y="-6.5" font-family="Helvetica,sans-Serif" font-size="10.00">&lt; Ind, Increment &gt;</text>
</a>
</g>
</g>
<!-- Node2 -->
<g id="node2" class="node">
<title>Node2</title>
<g id="a_node2"><a xlink:href="structppht_1_1scanner.html" target="_top" xlink:title="A class for tracking the state required to advance a point along a segment.">
<polygon fill="white" stroke="black" points="11.8,-75.5 11.8,-93.5 88.39,-93.5 88.39,-75.5 11.8,-75.5"/>
<text text-anchor="middle" x="50.09" y="-81.5" font-family="Helvetica,sans-Serif" font-size="10.00">ppht::scanner</text>
</a>
</g>
</g>
<!-- Node2&#45;&gt;Node1 -->
<g id="edge1" class="edge">
<title>Node2&#45;&gt;Node1</title>
<path fill="none" stroke="midnightblue" d="M54.31,-65.57C57.04,-53.99 60.52,-39.19 62.99,-28.69"/>
<polygon fill="midnightblue" stroke="midnightblue" points="50.88,-64.9 51.99,-75.43 57.69,-66.5 50.88,-64.9"/>
</g>
<!-- Node3 -->
<g id="node3" class="node">
<title>Node3</title>
<g id="a_node3"><a xlink:href="structppht_1_1point__t.html" target="_top" xlink:title="A basic integral point.">
<polygon fill="white" stroke="black" points="106.57,-75.5 106.57,-93.5 177.62,-93.5 177.62,-75.5 106.57,-75.5"/>
<text text-anchor="middle" x="142.09" y="-81.5" font-family="Helvetica,sans-Serif" font-size="10.00">ppht::point_t</text>
</a>
</g>
</g>
<!-- Node3&#45;&gt;Node1 -->
<g id="edge2" class="edge">
<title>Node3&#45;&gt;Node1</title>
<path fill="none" stroke="#9a32cd" stroke-dasharray="5,2" d="M125.55,-68.7C112.22,-56.78 93.66,-40.16 80.83,-28.69"/>
<polygon fill="#9a32cd" stroke="#9a32cd" points="123.29,-71.37 133.08,-75.43 127.96,-66.16 123.29,-71.37"/>
<text text-anchor="middle" x="122.32" y="-49" font-family="Helvetica,sans-Serif" font-size="10.00"> delta</text>
</g>
<!-- Node4 -->
<g id="node4" class="node">
<title>Node4</title>
<g id="a_node4"><a xlink:title=" ">
<polygon fill="white" stroke="#bfbfbf" points="89.62,-131.5 89.62,-149.5 194.56,-149.5 194.56,-131.5 89.62,-131.5"/>
<text text-anchor="middle" x="142.09" y="-137.5" font-family="Helvetica,sans-Serif" font-size="10.00">std::array&lt; long, 2 &gt;</text>
</a>
</g>
</g>
<!-- Node4&#45;&gt;Node3 -->
<g id="edge3" class="edge">
<title>Node4&#45;&gt;Node3</title>
<path fill="none" stroke="midnightblue" d="M142.09,-120.83C142.09,-111.58 142.09,-100.88 142.09,-93.7"/>
<polygon fill="midnightblue" stroke="midnightblue" points="138.59,-121.06 142.09,-131.06 145.59,-121.06 138.59,-121.06"/>
</g>
</g>
</svg>
