<?xml version="1.0" encoding="UTF-8" standalone="no"?>
<!DOCTYPE svg PUBLIC "-//W3C//DTD SVG 1.1//EN"
 "http://www.w3.org/Graphics/SVG/1.1/DTD/svg11.dtd">
<!-- Generated by graphviz version 2.48.0 (20210717.1556)
 -->
<!-- Title: ppht::scanner Pages: 1 -->
<svg width="258pt" height="92pt"
 viewBox="0.00 0.00 258.06 92.00" xmlns="http://www.w3.org/2000/svg" xmlns:xlink="http://www.w3.org/1999/xlink">
<g id="graph0" class="graph" transform="scale(1 1) rotate(0) translate(4 88)">
<title>ppht::scanner</title>
<polygon fill="white" stroke="transparent" points="-4,4 -4,-88 254.06,-88 254.06,4 -4,4"/>
<!-- Node1 -->
<g id="node1" class="node">
<title>Node1</title>
<g id="a_node1"><a xlink:title="A class for tracking the state required to advance a point along a segment.">
<polygon fill="#bfbfbf" stroke="black" points="78.67,-65.5 78.67,-83.5 155.27,-83.5 155.27,-65.5 78.67,-65.5"/>
<text text-anchor="middle" x="116.97" y="-71.5" font-family="Helvetica,sans-Serif" font-size="10.00">ppht::scanner</text>
</a>
</g>
</g>
<!-- Node2 -->
<g id="node2" class="node">
<title>Node2</title>
<g id="a_node2"><a xlink:href="structppht_1_1axis__scanner.html" target="_top" xlink:title="A scanner optimized for lines parallel to an axis.">
<polygon fill="white" stroke="black" points="0,-0.5 0,-28.5 99.94,-28.5 99.94,-0.5 0,-0.5"/>
<text text-anchor="start" x="8" y="-16.5" font-family="Helvetica,sans-Serif" font-size="10.00">ppht::axis_scanner</text>
<text text-anchor="middle" x="49.97" y="-6.5" font-family="Helvetica,sans-Serif" font-size="10.00">&lt; Ind &gt;</text>
</a>
</g>
</g>
<!-- Node1&#45;&gt;Node2 -->
<g id="edge1" class="edge">
<title>Node1&#45;&gt;Node2</title>
<path fill="none" stroke="midnightblue" d="M99.82,-58.65C89.11,-49.38 75.44,-37.55 65.13,-28.62"/>
<polygon fill="midnightblue" stroke="midnightblue" points="97.8,-61.54 107.65,-65.44 102.38,-56.24 97.8,-61.54"/>
</g>
<!-- Node3 -->
<g id="node3" class="node">
<title>Node3</title>
<g id="a_node3"><a xlink:href="structppht_1_1bresenham__scanner.html" target="_top" xlink:title="A scanner based on Bresenham&#39;s line algorithm.">
<polygon fill="white" stroke="black" points="117.88,-0.5 117.88,-28.5 250.06,-28.5 250.06,-0.5 117.88,-0.5"/>
<text text-anchor="start" x="125.88" y="-16.5" font-family="Helvetica,sans-Serif" font-size="10.00">ppht::bresenham_scanner</text>
<text text-anchor="middle" x="183.97" y="-6.5" font-family="Helvetica,sans-Serif" font-size="10.00">&lt; Ind, Increment &gt;</text>
</a>
</g>
</g>
<!-- Node1&#45;&gt;Node3 -->
<g id="edge2" class="edge">
<title>Node1&#45;&gt;Node3</title>
<path fill="none" stroke="midnightblue" d="M134.12,-58.65C144.84,-49.38 158.5,-37.55 168.81,-28.62"/>
<polygon fill="midnightblue" stroke="midnightblue" points="131.56,-56.24 126.29,-65.44 136.14,-61.54 131.56,-56.24"/>
</g>
</g>
</svg>
