<?xml version="1.0" encoding="UTF-8" standalone="no"?>
<!DOCTYPE svg PUBLIC "-//W3C//DTD SVG 1.1//EN"
 "http://www.w3.org/Graphics/SVG/1.1/DTD/svg11.dtd">
<!-- Generated by graphviz version 2.40.1 (20161225.0304)
 -->
<!-- Title: ppht::bresenham_scanner&lt; Ind, Increment &gt; Pages: 1 -->
<svg width="203pt" height="158pt"
 viewBox="0.00 0.00 202.56 158.00" xmlns="http://www.w3.org/2000/svg" xmlns:xlink="http://www.w3.org/1999/xlink">
<g id="graph0" class="graph" transform="scale(1 1) rotate(0) translate(4 154)">
<title>ppht::bresenham_scanner&lt; Ind, Increment &gt;</title>
<polygon fill="#ffffff" stroke="transparent" points="-4,4 -4,-154 198.5635,-154 198.5635,4 -4,4"/>
<!-- Node2 -->
<g id="node1" class="node">
<title>Node2</title>
<polygon fill="#bfbfbf" stroke="#000000" points="0,-.5 0,-28.5 132.1865,-28.5 132.1865,-.5 0,-.5"/>
<text text-anchor="start" x="8" y="-16.5" font-family="Helvetica,sans-Serif" font-size="10.00" fill="#000000">ppht::bresenham_scanner</text>
<text text-anchor="middle" x="66.0933" y="-6.5" font-family="Helvetica,sans-Serif" font-size="10.00" fill="#000000">&lt; Ind, Increment &gt;</text>
</g>
<!-- Node3 -->
<g id="node2" class="node">
<title>Node3</title>
<g id="a_node2"><a xlink:href="structppht_1_1scanner.html" target="_top" xlink:title="A class for tracking the state required to advance a point along a segment. ">
<polygon fill="#ffffff" stroke="#000000" points="11.7954,-75.5 11.7954,-93.5 88.3911,-93.5 88.3911,-75.5 11.7954,-75.5"/>
<text text-anchor="middle" x="50.0933" y="-81.5" font-family="Helvetica,sans-Serif" font-size="10.00" fill="#000000">ppht::scanner</text>
</a>
</g>
</g>
<!-- Node3&#45;&gt;Node2 -->
<g id="edge1" class="edge">
<title>Node3&#45;&gt;Node2</title>
<path fill="none" stroke="#191970" d="M54.4629,-65.383C57.1068,-53.8156 60.4223,-39.3105 62.8361,-28.7499"/>
<polygon fill="#191970" stroke="#191970" points="51.0013,-64.8202 52.185,-75.3487 57.8253,-66.38 51.0013,-64.8202"/>
</g>
<!-- Node4 -->
<g id="node3" class="node">
<title>Node4</title>
<g id="a_node3"><a xlink:href="structppht_1_1point__t.html" target="_top" xlink:title="A basic integral point. ">
<polygon fill="#ffffff" stroke="#000000" points="106.5713,-75.5 106.5713,-93.5 177.6152,-93.5 177.6152,-75.5 106.5713,-75.5"/>
<text text-anchor="middle" x="142.0933" y="-81.5" font-family="Helvetica,sans-Serif" font-size="10.00" fill="#000000">ppht::point_t</text>
</a>
</g>
</g>
<!-- Node4&#45;&gt;Node2 -->
<g id="edge2" class="edge">
<title>Node4&#45;&gt;Node2</title>
<path fill="none" stroke="#9a32cd" stroke-dasharray="5,2" d="M124.7452,-68.5215C111.738,-56.5412 94.0942,-40.2903 81.5646,-28.7499"/>
<polygon fill="#9a32cd" stroke="#9a32cd" points="122.4309,-71.1483 132.1576,-75.3487 127.1733,-65.9995 122.4309,-71.1483"/>
<text text-anchor="middle" x="122.3247" y="-49" font-family="Helvetica,sans-Serif" font-size="10.00" fill="#000000"> delta</text>
</g>
<!-- Node5 -->
<g id="node4" class="node">
<title>Node5</title>
<polygon fill="#ffffff" stroke="#bfbfbf" points="89.623,-131.5 89.623,-149.5 194.5635,-149.5 194.5635,-131.5 89.623,-131.5"/>
<text text-anchor="middle" x="142.0933" y="-137.5" font-family="Helvetica,sans-Serif" font-size="10.00" fill="#000000">std::array&lt; long, 2 &gt;</text>
</g>
<!-- Node5&#45;&gt;Node4 -->
<g id="edge3" class="edge">
<title>Node5&#45;&gt;Node4</title>
<path fill="none" stroke="#191970" d="M142.0933,-121.2065C142.0933,-111.8384 142.0933,-101.0262 142.0933,-93.5752"/>
<polygon fill="#191970" stroke="#191970" points="138.5934,-121.2527 142.0933,-131.2527 145.5934,-121.2528 138.5934,-121.2527"/>
</g>
</g>
</svg>
