<?xml version="1.0" encoding="UTF-8" standalone="no"?>
<!DOCTYPE svg PUBLIC "-//W3C//DTD SVG 1.1//EN"
 "http://www.w3.org/Graphics/SVG/1.1/DTD/svg11.dtd">
<!-- Generated by graphviz version 2.40.1 (20161225.0304)
 -->
<!-- Title: ppht::bresenham_scanner&lt; Ind, Dep, Increment &gt; Pages: 1 -->
<svg width="174pt" height="102pt"
 viewBox="0.00 0.00 173.82 102.00" xmlns="http://www.w3.org/2000/svg" xmlns:xlink="http://www.w3.org/1999/xlink">
<g id="graph0" class="graph" transform="scale(1 1) rotate(0) translate(4 98)">
<title>ppht::bresenham_scanner&lt; Ind, Dep, Increment &gt;</title>
<polygon fill="#ffffff" stroke="transparent" points="-4,4 -4,-98 169.8198,-98 169.8198,4 -4,4"/>
<!-- Node2 -->
<g id="node1" class="node">
<title>Node2</title>
<polygon fill="#bfbfbf" stroke="#000000" points="18.2046,-.5 18.2046,-28.5 150.3911,-28.5 150.3911,-.5 18.2046,-.5"/>
<text text-anchor="start" x="26.2046" y="-16.5" font-family="Helvetica,sans-Serif" font-size="10.00" fill="#000000">ppht::bresenham_scanner</text>
<text text-anchor="middle" x="84.2979" y="-6.5" font-family="Helvetica,sans-Serif" font-size="10.00" fill="#000000">&lt; Ind, Dep, Increment &gt;</text>
</g>
<!-- Node3 -->
<g id="node2" class="node">
<title>Node3</title>
<g id="a_node2"><a xlink:href="structppht_1_1scanner.html" target="_top" xlink:title="A class for tracking the state required to advance a point along a segment. ">
<polygon fill="#ffffff" stroke="#000000" points="0,-75.5 0,-93.5 76.5957,-93.5 76.5957,-75.5 0,-75.5"/>
<text text-anchor="middle" x="38.2979" y="-81.5" font-family="Helvetica,sans-Serif" font-size="10.00" fill="#000000">ppht::scanner</text>
</a>
</g>
</g>
<!-- Node3&#45;&gt;Node2 -->
<g id="edge1" class="edge">
<title>Node3&#45;&gt;Node2</title>
<path fill="none" stroke="#191970" d="M49.9302,-66.7986C57.6714,-55.0186 67.7077,-39.7459 74.9336,-28.7499"/>
<polygon fill="#191970" stroke="#191970" points="46.8784,-65.0695 44.3115,-75.3487 52.7283,-68.9138 46.8784,-65.0695"/>
</g>
<!-- Node4 -->
<g id="node3" class="node">
<title>Node4</title>
<g id="a_node3"><a xlink:href="structppht_1_1point__t.html" target="_top" xlink:title="A basic integral point. ">
<polygon fill="#ffffff" stroke="#000000" points="94.7759,-75.5 94.7759,-93.5 165.8198,-93.5 165.8198,-75.5 94.7759,-75.5"/>
<text text-anchor="middle" x="130.2979" y="-81.5" font-family="Helvetica,sans-Serif" font-size="10.00" fill="#000000">ppht::point_t</text>
</a>
</g>
</g>
<!-- Node4&#45;&gt;Node2 -->
<g id="edge2" class="edge">
<title>Node4&#45;&gt;Node2</title>
<path fill="none" stroke="#9a32cd" stroke-dasharray="5,2" d="M118.6655,-66.7986C110.9243,-55.0186 100.888,-39.7459 93.6621,-28.7499"/>
<polygon fill="#9a32cd" stroke="#9a32cd" points="115.8674,-68.9138 124.2842,-75.3487 121.7173,-65.0695 115.8674,-68.9138"/>
<text text-anchor="middle" x="123.5293" y="-49" font-family="Helvetica,sans-Serif" font-size="10.00" fill="#000000"> delta</text>
</g>
</g>
</svg>
