<?xml version="1.0" encoding="UTF-8" standalone="no"?>
<!DOCTYPE svg PUBLIC "-//W3C//DTD SVG 1.1//EN"
 "http://www.w3.org/Graphics/SVG/1.1/DTD/svg11.dtd">
<!-- Generated by graphviz version 2.40.1 (20161225.0304)
 -->
<!-- Title: ppht/trig.hpp Pages: 1 -->
<svg width="480pt" height="137pt"
 viewBox="0.00 0.00 479.67 137.00" xmlns="http://www.w3.org/2000/svg" xmlns:xlink="http://www.w3.org/1999/xlink">
<g id="graph0" class="graph" transform="scale(1 1) rotate(0) translate(4 133)">
<title>ppht/trig.hpp</title>
<polygon fill="#ffffff" stroke="transparent" points="-4,4 -4,-133 475.6724,-133 475.6724,4 -4,4"/>
<!-- Node0 -->
<g id="node1" class="node">
<title>Node0</title>
<polygon fill="#bfbfbf" stroke="#000000" points="213.8179,-110.5 213.8179,-128.5 285.4136,-128.5 285.4136,-110.5 213.8179,-110.5"/>
<text text-anchor="middle" x="249.6157" y="-116.5" font-family="Helvetica,sans-Serif" font-size="10.00" fill="#000000">ppht/trig.hpp</text>
</g>
<!-- Node1 -->
<g id="node2" class="node">
<title>Node1</title>
<g id="a_node2"><a xlink:href="types_8hpp.html" target="_top" xlink:title="ppht/types.hpp">
<polygon fill="#ffffff" stroke="#000000" points="87.813,-55.5 87.813,-73.5 169.4185,-73.5 169.4185,-55.5 87.813,-55.5"/>
<text text-anchor="middle" x="128.6157" y="-61.5" font-family="Helvetica,sans-Serif" font-size="10.00" fill="#000000">ppht/types.hpp</text>
</a>
</g>
</g>
<!-- Node0&#45;&gt;Node1 -->
<g id="edge1" class="edge">
<title>Node0&#45;&gt;Node1</title>
<path fill="none" stroke="#191970" d="M229.635,-110.4179C210.1057,-101.5409 180.1513,-87.9253 157.9262,-77.823"/>
<polygon fill="#191970" stroke="#191970" points="159.1781,-74.5474 148.6261,-73.5956 156.2814,-80.92 159.1781,-74.5474"/>
</g>
<!-- Node3 -->
<g id="node4" class="node">
<title>Node3</title>
<polygon fill="#ffffff" stroke="#bfbfbf" points="0,-.5 0,-18.5 43.2314,-18.5 43.2314,-.5 0,-.5"/>
<text text-anchor="middle" x="21.6157" y="-6.5" font-family="Helvetica,sans-Serif" font-size="10.00" fill="#000000">cmath</text>
</g>
<!-- Node0&#45;&gt;Node3 -->
<g id="edge7" class="edge">
<title>Node0&#45;&gt;Node3</title>
<path fill="none" stroke="#191970" d="M213.4903,-116.0501C177.1242,-111.2242 120.5588,-99.921 78.6157,-74 59.4282,-62.142 43.0518,-41.845 32.8418,-27.1824"/>
<polygon fill="#191970" stroke="#191970" points="35.5156,-24.8834 27.0552,-18.5059 29.6919,-28.7674 35.5156,-24.8834"/>
</g>
<!-- Node5 -->
<g id="node6" class="node">
<title>Node5</title>
<polygon fill="#ffffff" stroke="#bfbfbf" points="191.2241,-.5 191.2241,-18.5 230.0073,-18.5 230.0073,-.5 191.2241,-.5"/>
<text text-anchor="middle" x="210.6157" y="-6.5" font-family="Helvetica,sans-Serif" font-size="10.00" fill="#000000">utility</text>
</g>
<!-- Node0&#45;&gt;Node5 -->
<g id="edge11" class="edge">
<title>Node0&#45;&gt;Node5</title>
<path fill="none" stroke="#191970" d="M240.596,-110.2842C232.7776,-101.6724 221.9113,-88.0637 216.6157,-74 211.1597,-59.5102 209.8367,-41.9512 209.7794,-28.8146"/>
<polygon fill="#191970" stroke="#191970" points="213.2829,-28.6648 209.9827,-18.5971 206.2843,-28.5254 213.2829,-28.6648"/>
</g>
<!-- Node6 -->
<g id="node7" class="node">
<title>Node6</title>
<polygon fill="#ffffff" stroke="#bfbfbf" points="225.5,-55.5 225.5,-73.5 273.7314,-73.5 273.7314,-55.5 225.5,-55.5"/>
<text text-anchor="middle" x="249.6157" y="-61.5" font-family="Helvetica,sans-Serif" font-size="10.00" fill="#000000">cassert</text>
</g>
<!-- Node0&#45;&gt;Node6 -->
<g id="edge6" class="edge">
<title>Node0&#45;&gt;Node6</title>
<path fill="none" stroke="#191970" d="M249.6157,-110.4179C249.6157,-103.2164 249.6157,-92.8962 249.6157,-83.8632"/>
<polygon fill="#191970" stroke="#191970" points="253.1158,-83.7794 249.6157,-73.7795 246.1158,-83.7795 253.1158,-83.7794"/>
</g>
<!-- Node7 -->
<g id="node8" class="node">
<title>Node7</title>
<polygon fill="#ffffff" stroke="#bfbfbf" points="292.165,-55.5 292.165,-73.5 337.0664,-73.5 337.0664,-55.5 292.165,-55.5"/>
<text text-anchor="middle" x="314.6157" y="-61.5" font-family="Helvetica,sans-Serif" font-size="10.00" fill="#000000">cstdint</text>
</g>
<!-- Node0&#45;&gt;Node7 -->
<g id="edge8" class="edge">
<title>Node0&#45;&gt;Node7</title>
<path fill="none" stroke="#191970" d="M260.3492,-110.4179C269.9823,-102.2667 284.3374,-90.1201 295.8639,-80.3669"/>
<polygon fill="#191970" stroke="#191970" points="298.276,-82.9108 303.6491,-73.7795 293.7544,-77.5671 298.276,-82.9108"/>
</g>
<!-- Node8 -->
<g id="node9" class="node">
<title>Node8</title>
<polygon fill="#ffffff" stroke="#bfbfbf" points="355.3301,-55.5 355.3301,-73.5 401.9014,-73.5 401.9014,-55.5 355.3301,-55.5"/>
<text text-anchor="middle" x="378.6157" y="-61.5" font-family="Helvetica,sans-Serif" font-size="10.00" fill="#000000">math.h</text>
</g>
<!-- Node0&#45;&gt;Node8 -->
<g id="edge9" class="edge">
<title>Node0&#45;&gt;Node8</title>
<path fill="none" stroke="#191970" d="M270.9174,-110.4179C291.9247,-101.4613 324.2466,-87.6806 348.0029,-77.552"/>
<polygon fill="#191970" stroke="#191970" points="349.4562,-80.7372 357.2823,-73.5956 346.7108,-74.2981 349.4562,-80.7372"/>
</g>
<!-- Node9 -->
<g id="node10" class="node">
<title>Node9</title>
<polygon fill="#ffffff" stroke="#bfbfbf" points="419.5591,-55.5 419.5591,-73.5 471.6724,-73.5 471.6724,-55.5 419.5591,-55.5"/>
<text text-anchor="middle" x="445.6157" y="-61.5" font-family="Helvetica,sans-Serif" font-size="10.00" fill="#000000">memory</text>
</g>
<!-- Node0&#45;&gt;Node9 -->
<g id="edge10" class="edge">
<title>Node0&#45;&gt;Node9</title>
<path fill="none" stroke="#191970" d="M281.9811,-110.4179C317.1636,-100.5452 373.2335,-84.8113 409.7373,-74.5679"/>
<polygon fill="#191970" stroke="#191970" points="410.7983,-77.9055 419.4808,-71.8338 408.907,-71.1658 410.7983,-77.9055"/>
</g>
<!-- Node2 -->
<g id="node3" class="node">
<title>Node2</title>
<polygon fill="#ffffff" stroke="#bfbfbf" points="61.2241,-.5 61.2241,-18.5 100.0073,-18.5 100.0073,-.5 61.2241,-.5"/>
<text text-anchor="middle" x="80.6157" y="-6.5" font-family="Helvetica,sans-Serif" font-size="10.00" fill="#000000">array</text>
</g>
<!-- Node1&#45;&gt;Node2 -->
<g id="edge2" class="edge">
<title>Node1&#45;&gt;Node2</title>
<path fill="none" stroke="#191970" d="M120.6895,-55.4179C113.852,-47.5833 103.7932,-36.0575 95.464,-26.5137"/>
<polygon fill="#191970" stroke="#191970" points="97.9265,-24.0123 88.7142,-18.7795 92.6525,-28.6151 97.9265,-24.0123"/>
</g>
<!-- Node1&#45;&gt;Node3 -->
<g id="edge3" class="edge">
<title>Node1&#45;&gt;Node3</title>
<path fill="none" stroke="#191970" d="M110.9468,-55.4179C93.9094,-46.6603 67.8995,-33.2907 48.3318,-23.2326"/>
<polygon fill="#191970" stroke="#191970" points="49.8048,-20.0544 39.3108,-18.5956 46.6046,-26.2801 49.8048,-20.0544"/>
</g>
<!-- Node4 -->
<g id="node5" class="node">
<title>Node4</title>
<polygon fill="#ffffff" stroke="#bfbfbf" points="118.4434,-.5 118.4434,-18.5 172.7881,-18.5 172.7881,-.5 118.4434,-.5"/>
<text text-anchor="middle" x="145.6157" y="-6.5" font-family="Helvetica,sans-Serif" font-size="10.00" fill="#000000">iostream</text>
</g>
<!-- Node1&#45;&gt;Node4 -->
<g id="edge4" class="edge">
<title>Node1&#45;&gt;Node4</title>
<path fill="none" stroke="#191970" d="M131.4229,-55.4179C133.6733,-48.1372 136.9089,-37.669 139.7226,-28.5659"/>
<polygon fill="#191970" stroke="#191970" points="143.1383,-29.3671 142.7475,-18.7795 136.4505,-27.2999 143.1383,-29.3671"/>
</g>
<!-- Node1&#45;&gt;Node5 -->
<g id="edge5" class="edge">
<title>Node1&#45;&gt;Node5</title>
<path fill="none" stroke="#191970" d="M142.1564,-55.4179C154.7383,-46.9788 173.7053,-34.257 188.4868,-24.3426"/>
<polygon fill="#191970" stroke="#191970" points="190.6997,-27.0727 197.055,-18.5956 186.8004,-21.2593 190.6997,-27.0727"/>
</g>
</g>
</svg>
