<?xml version="1.0" encoding="UTF-8" standalone="no"?>
<!DOCTYPE svg PUBLIC "-//W3C//DTD SVG 1.1//EN"
 "http://www.w3.org/Graphics/SVG/1.1/DTD/svg11.dtd">
<!-- Generated by graphviz version 2.48.0 (20210717.1556)
 -->
<!-- Title: ppht/trig.hpp Pages: 1 -->
<svg width="480pt" height="137pt"
 viewBox="0.00 0.00 479.67 137.00" xmlns="http://www.w3.org/2000/svg" xmlns:xlink="http://www.w3.org/1999/xlink">
<g id="graph0" class="graph" transform="scale(1 1) rotate(0) translate(4 133)">
<title>ppht/trig.hpp</title>
<polygon fill="white" stroke="transparent" points="-4,4 -4,-133 475.67,-133 475.67,4 -4,4"/>
<!-- Node1 -->
<g id="node1" class="node">
<title>Node1</title>
<g id="a_node1"><a xlink:title=" ">
<polygon fill="#bfbfbf" stroke="black" points="213.82,-110.5 213.82,-128.5 285.41,-128.5 285.41,-110.5 213.82,-110.5"/>
<text text-anchor="middle" x="249.62" y="-116.5" font-family="Helvetica,sans-Serif" font-size="10.00">ppht/trig.hpp</text>
</a>
</g>
</g>
<!-- Node2 -->
<g id="node2" class="node">
<title>Node2</title>
<g id="a_node2"><a xlink:href="types_8hpp.html" target="_top" xlink:title=" ">
<polygon fill="white" stroke="black" points="87.81,-55.5 87.81,-73.5 169.42,-73.5 169.42,-55.5 87.81,-55.5"/>
<text text-anchor="middle" x="128.62" y="-61.5" font-family="Helvetica,sans-Serif" font-size="10.00">ppht/types.hpp</text>
</a>
</g>
</g>
<!-- Node1&#45;&gt;Node2 -->
<g id="edge1" class="edge">
<title>Node1&#45;&gt;Node2</title>
<path fill="none" stroke="midnightblue" d="M231.24,-110.45C211.34,-101.73 179.37,-87.73 156.4,-77.67"/>
<polygon fill="midnightblue" stroke="midnightblue" points="157.73,-74.43 147.17,-73.63 154.92,-80.84 157.73,-74.43"/>
</g>
<!-- Node4 -->
<g id="node4" class="node">
<title>Node4</title>
<g id="a_node4"><a xlink:title=" ">
<polygon fill="white" stroke="#bfbfbf" points="0,-0.5 0,-18.5 43.23,-18.5 43.23,-0.5 0,-0.5"/>
<text text-anchor="middle" x="21.62" y="-6.5" font-family="Helvetica,sans-Serif" font-size="10.00">cmath</text>
</a>
</g>
</g>
<!-- Node1&#45;&gt;Node4 -->
<g id="edge7" class="edge">
<title>Node1&#45;&gt;Node4</title>
<path fill="none" stroke="midnightblue" d="M213.54,-115.23C177.21,-110.6 120.67,-99.61 78.62,-74 59.31,-62.24 42.77,-41.94 32.56,-27.46"/>
<polygon fill="midnightblue" stroke="midnightblue" points="35.29,-25.26 26.79,-18.93 29.49,-29.18 35.29,-25.26"/>
</g>
<!-- Node6 -->
<g id="node6" class="node">
<title>Node6</title>
<g id="a_node6"><a xlink:title=" ">
<polygon fill="white" stroke="#bfbfbf" points="191.22,-0.5 191.22,-18.5 230.01,-18.5 230.01,-0.5 191.22,-0.5"/>
<text text-anchor="middle" x="210.62" y="-6.5" font-family="Helvetica,sans-Serif" font-size="10.00">utility</text>
</a>
</g>
</g>
<!-- Node1&#45;&gt;Node6 -->
<g id="edge11" class="edge">
<title>Node1&#45;&gt;Node6</title>
<path fill="none" stroke="midnightblue" d="M241.5,-110.48C233.64,-102.16 222.13,-88.37 216.62,-74 211.04,-59.45 209.78,-41.7 209.78,-28.67"/>
<polygon fill="midnightblue" stroke="midnightblue" points="213.28,-28.72 210.02,-18.63 206.28,-28.54 213.28,-28.72"/>
</g>
<!-- Node7 -->
<g id="node7" class="node">
<title>Node7</title>
<g id="a_node7"><a xlink:title=" ">
<polygon fill="white" stroke="#bfbfbf" points="225.5,-55.5 225.5,-73.5 273.73,-73.5 273.73,-55.5 225.5,-55.5"/>
<text text-anchor="middle" x="249.62" y="-61.5" font-family="Helvetica,sans-Serif" font-size="10.00">cassert</text>
</a>
</g>
</g>
<!-- Node1&#45;&gt;Node7 -->
<g id="edge6" class="edge">
<title>Node1&#45;&gt;Node7</title>
<path fill="none" stroke="midnightblue" d="M249.62,-110.22C249.62,-103.18 249.62,-92.81 249.62,-83.83"/>
<polygon fill="midnightblue" stroke="midnightblue" points="253.12,-83.55 249.62,-73.55 246.12,-83.55 253.12,-83.55"/>
</g>
<!-- Node8 -->
<g id="node8" class="node">
<title>Node8</title>
<g id="a_node8"><a xlink:title=" ">
<polygon fill="white" stroke="#bfbfbf" points="292.17,-55.5 292.17,-73.5 337.07,-73.5 337.07,-55.5 292.17,-55.5"/>
<text text-anchor="middle" x="314.62" y="-61.5" font-family="Helvetica,sans-Serif" font-size="10.00">cstdint</text>
</a>
</g>
</g>
<!-- Node1&#45;&gt;Node8 -->
<g id="edge8" class="edge">
<title>Node1&#45;&gt;Node8</title>
<path fill="none" stroke="midnightblue" d="M259.49,-110.45C269.32,-102.43 284.63,-89.95 296.63,-80.17"/>
<polygon fill="midnightblue" stroke="midnightblue" points="299.11,-82.66 304.65,-73.63 294.69,-77.23 299.11,-82.66"/>
</g>
<!-- Node9 -->
<g id="node9" class="node">
<title>Node9</title>
<g id="a_node9"><a xlink:title=" ">
<polygon fill="white" stroke="#bfbfbf" points="355.33,-55.5 355.33,-73.5 401.9,-73.5 401.9,-55.5 355.33,-55.5"/>
<text text-anchor="middle" x="378.62" y="-61.5" font-family="Helvetica,sans-Serif" font-size="10.00">math.h</text>
</a>
</g>
</g>
<!-- Node1&#45;&gt;Node9 -->
<g id="edge9" class="edge">
<title>Node1&#45;&gt;Node9</title>
<path fill="none" stroke="midnightblue" d="M269.21,-110.45C290.52,-101.7 324.81,-87.61 349.32,-77.53"/>
<polygon fill="midnightblue" stroke="midnightblue" points="350.92,-80.66 358.84,-73.63 348.26,-74.19 350.92,-80.66"/>
</g>
<!-- Node10 -->
<g id="node10" class="node">
<title>Node10</title>
<g id="a_node10"><a xlink:title=" ">
<polygon fill="white" stroke="#bfbfbf" points="419.56,-55.5 419.56,-73.5 471.67,-73.5 471.67,-55.5 419.56,-55.5"/>
<text text-anchor="middle" x="445.62" y="-61.5" font-family="Helvetica,sans-Serif" font-size="10.00">memory</text>
</a>
</g>
</g>
<!-- Node1&#45;&gt;Node10 -->
<g id="edge10" class="edge">
<title>Node1&#45;&gt;Node10</title>
<path fill="none" stroke="midnightblue" d="M279.38,-110.45C314.23,-101.03 371.93,-85.42 409.36,-75.3"/>
<polygon fill="midnightblue" stroke="midnightblue" points="410.6,-78.59 419.34,-72.6 408.77,-71.84 410.6,-78.59"/>
</g>
<!-- Node3 -->
<g id="node3" class="node">
<title>Node3</title>
<g id="a_node3"><a xlink:title=" ">
<polygon fill="white" stroke="#bfbfbf" points="61.22,-0.5 61.22,-18.5 100.01,-18.5 100.01,-0.5 61.22,-0.5"/>
<text text-anchor="middle" x="80.62" y="-6.5" font-family="Helvetica,sans-Serif" font-size="10.00">array</text>
</a>
</g>
</g>
<!-- Node2&#45;&gt;Node3 -->
<g id="edge2" class="edge">
<title>Node2&#45;&gt;Node3</title>
<path fill="none" stroke="midnightblue" d="M121.12,-55.22C114.1,-47.47 103.44,-35.7 94.82,-26.18"/>
<polygon fill="midnightblue" stroke="midnightblue" points="97.21,-23.61 87.91,-18.55 92.02,-28.31 97.21,-23.61"/>
</g>
<!-- Node2&#45;&gt;Node4 -->
<g id="edge3" class="edge">
<title>Node2&#45;&gt;Node4</title>
<path fill="none" stroke="midnightblue" d="M112.36,-55.45C95,-46.85 67.25,-33.1 47,-23.08"/>
<polygon fill="midnightblue" stroke="midnightblue" points="48.53,-19.93 38.02,-18.63 45.43,-26.2 48.53,-19.93"/>
</g>
<!-- Node5 -->
<g id="node5" class="node">
<title>Node5</title>
<g id="a_node5"><a xlink:title=" ">
<polygon fill="white" stroke="#bfbfbf" points="118.44,-0.5 118.44,-18.5 172.79,-18.5 172.79,-0.5 118.44,-0.5"/>
<text text-anchor="middle" x="145.62" y="-6.5" font-family="Helvetica,sans-Serif" font-size="10.00">iostream</text>
</a>
</g>
</g>
<!-- Node2&#45;&gt;Node5 -->
<g id="edge4" class="edge">
<title>Node2&#45;&gt;Node5</title>
<path fill="none" stroke="midnightblue" d="M131.27,-55.22C133.58,-48.02 137,-37.35 139.93,-28.23"/>
<polygon fill="midnightblue" stroke="midnightblue" points="143.31,-29.14 143.03,-18.55 136.65,-27 143.31,-29.14"/>
</g>
<!-- Node2&#45;&gt;Node6 -->
<g id="edge5" class="edge">
<title>Node2&#45;&gt;Node6</title>
<path fill="none" stroke="midnightblue" d="M141.07,-55.45C153.83,-47.2 173.92,-34.22 189.24,-24.32"/>
<polygon fill="midnightblue" stroke="midnightblue" points="191.55,-26.99 198.04,-18.63 187.75,-21.11 191.55,-26.99"/>
</g>
</g>
</svg>
