<?xml version="1.0" encoding="UTF-8" standalone="no"?>
<!DOCTYPE svg PUBLIC "-//W3C//DTD SVG 1.1//EN"
 "http://www.w3.org/Graphics/SVG/1.1/DTD/svg11.dtd">
<!-- Generated by graphviz version 2.40.1 (20161225.0304)
 -->
<!-- Title: ppht/trig.hpp Pages: 1 -->
<svg width="495pt" height="137pt"
 viewBox="0.00 0.00 495.45 137.00" xmlns="http://www.w3.org/2000/svg" xmlns:xlink="http://www.w3.org/1999/xlink">
<g id="graph0" class="graph" transform="scale(1 1) rotate(0) translate(4 133)">
<title>ppht/trig.hpp</title>
<polygon fill="#ffffff" stroke="transparent" points="-4,4 -4,-133 491.4482,-133 491.4482,4 -4,4"/>
<!-- Node0 -->
<g id="node1" class="node">
<title>Node0</title>
<polygon fill="#bfbfbf" stroke="#000000" points="232.5938,-110.5 232.5938,-128.5 304.1895,-128.5 304.1895,-110.5 232.5938,-110.5"/>
<text text-anchor="middle" x="268.3916" y="-116.5" font-family="Helvetica,sans-Serif" font-size="10.00" fill="#000000">ppht/trig.hpp</text>
</g>
<!-- Node1 -->
<g id="node2" class="node">
<title>Node1</title>
<g id="a_node2"><a xlink:href="types_8hpp.html" target="_top" xlink:title="ppht/types.hpp">
<polygon fill="#ffffff" stroke="#000000" points="42.5889,-55.5 42.5889,-73.5 124.1943,-73.5 124.1943,-55.5 42.5889,-55.5"/>
<text text-anchor="middle" x="83.3916" y="-61.5" font-family="Helvetica,sans-Serif" font-size="10.00" fill="#000000">ppht/types.hpp</text>
</a>
</g>
</g>
<!-- Node0&#45;&gt;Node1 -->
<g id="edge1" class="edge">
<title>Node0&#45;&gt;Node1</title>
<path fill="none" stroke="#191970" d="M237.8426,-110.4179C206.5513,-101.115 157.755,-86.608 123.3995,-76.3943"/>
<polygon fill="#191970" stroke="#191970" points="124.2613,-72.9991 113.6785,-73.5042 122.2664,-79.7089 124.2613,-72.9991"/>
</g>
<!-- Node4 -->
<g id="node5" class="node">
<title>Node4</title>
<polygon fill="#ffffff" stroke="#bfbfbf" points="132,-.5 132,-18.5 170.7832,-18.5 170.7832,-.5 132,-.5"/>
<text text-anchor="middle" x="151.3916" y="-6.5" font-family="Helvetica,sans-Serif" font-size="10.00" fill="#000000">utility</text>
</g>
<!-- Node0&#45;&gt;Node4 -->
<g id="edge10" class="edge">
<title>Node0&#45;&gt;Node4</title>
<path fill="none" stroke="#191970" d="M232.5688,-110.5363C212.037,-103.6846 187.2714,-92.2363 171.3916,-74 160.335,-61.3027 155.3895,-42.5534 153.1782,-28.538"/>
<polygon fill="#191970" stroke="#191970" points="156.6392,-28.0077 151.9264,-18.5188 149.6932,-28.8756 156.6392,-28.0077"/>
</g>
<!-- Node5 -->
<g id="node6" class="node">
<title>Node5</title>
<polygon fill="#ffffff" stroke="#bfbfbf" points="180.2759,-55.5 180.2759,-73.5 228.5073,-73.5 228.5073,-55.5 180.2759,-55.5"/>
<text text-anchor="middle" x="204.3916" y="-61.5" font-family="Helvetica,sans-Serif" font-size="10.00" fill="#000000">cassert</text>
</g>
<!-- Node0&#45;&gt;Node5 -->
<g id="edge5" class="edge">
<title>Node0&#45;&gt;Node5</title>
<path fill="none" stroke="#191970" d="M257.8233,-110.4179C248.3383,-102.2667 234.2041,-90.1201 222.855,-80.3669"/>
<polygon fill="#191970" stroke="#191970" points="225.0549,-77.6427 215.1895,-73.7795 220.4925,-82.9516 225.0549,-77.6427"/>
</g>
<!-- Node6 -->
<g id="node7" class="node">
<title>Node6</title>
<polygon fill="#ffffff" stroke="#bfbfbf" points="246.7759,-55.5 246.7759,-73.5 290.0073,-73.5 290.0073,-55.5 246.7759,-55.5"/>
<text text-anchor="middle" x="268.3916" y="-61.5" font-family="Helvetica,sans-Serif" font-size="10.00" fill="#000000">cmath</text>
</g>
<!-- Node0&#45;&gt;Node6 -->
<g id="edge6" class="edge">
<title>Node0&#45;&gt;Node6</title>
<path fill="none" stroke="#191970" d="M268.3916,-110.4179C268.3916,-103.2164 268.3916,-92.8962 268.3916,-83.8632"/>
<polygon fill="#191970" stroke="#191970" points="271.8917,-83.7794 268.3916,-73.7795 264.8917,-83.7795 271.8917,-83.7794"/>
</g>
<!-- Node7 -->
<g id="node8" class="node">
<title>Node7</title>
<polygon fill="#ffffff" stroke="#bfbfbf" points="307.9409,-55.5 307.9409,-73.5 352.8423,-73.5 352.8423,-55.5 307.9409,-55.5"/>
<text text-anchor="middle" x="330.3916" y="-61.5" font-family="Helvetica,sans-Serif" font-size="10.00" fill="#000000">cstdint</text>
</g>
<!-- Node0&#45;&gt;Node7 -->
<g id="edge7" class="edge">
<title>Node0&#45;&gt;Node7</title>
<path fill="none" stroke="#191970" d="M278.6296,-110.4179C287.729,-102.3458 301.2453,-90.3556 312.1842,-80.6517"/>
<polygon fill="#191970" stroke="#191970" points="314.773,-83.0339 319.9311,-73.7795 310.1277,-77.7974 314.773,-83.0339"/>
</g>
<!-- Node8 -->
<g id="node9" class="node">
<title>Node8</title>
<polygon fill="#ffffff" stroke="#bfbfbf" points="371.106,-55.5 371.106,-73.5 417.6772,-73.5 417.6772,-55.5 371.106,-55.5"/>
<text text-anchor="middle" x="394.3916" y="-61.5" font-family="Helvetica,sans-Serif" font-size="10.00" fill="#000000">math.h</text>
</g>
<!-- Node0&#45;&gt;Node8 -->
<g id="edge8" class="edge">
<title>Node0&#45;&gt;Node8</title>
<path fill="none" stroke="#191970" d="M289.1979,-110.4179C309.6255,-101.5011 341.0064,-87.803 364.1808,-77.6873"/>
<polygon fill="#191970" stroke="#191970" points="365.7897,-80.804 373.5544,-73.5956 362.9892,-74.3885 365.7897,-80.804"/>
</g>
<!-- Node9 -->
<g id="node10" class="node">
<title>Node9</title>
<polygon fill="#ffffff" stroke="#bfbfbf" points="435.335,-55.5 435.335,-73.5 487.4482,-73.5 487.4482,-55.5 435.335,-55.5"/>
<text text-anchor="middle" x="461.3916" y="-61.5" font-family="Helvetica,sans-Serif" font-size="10.00" fill="#000000">memory</text>
</g>
<!-- Node0&#45;&gt;Node9 -->
<g id="edge9" class="edge">
<title>Node0&#45;&gt;Node9</title>
<path fill="none" stroke="#191970" d="M300.2616,-110.4179C334.5627,-100.643 389.0262,-85.1223 424.9892,-74.8737"/>
<polygon fill="#191970" stroke="#191970" points="426.4034,-78.1102 435.0613,-72.0035 424.4849,-71.3782 426.4034,-78.1102"/>
</g>
<!-- Node2 -->
<g id="node3" class="node">
<title>Node2</title>
<polygon fill="#ffffff" stroke="#bfbfbf" points="0,-.5 0,-18.5 38.7832,-18.5 38.7832,-.5 0,-.5"/>
<text text-anchor="middle" x="19.3916" y="-6.5" font-family="Helvetica,sans-Serif" font-size="10.00" fill="#000000">array</text>
</g>
<!-- Node1&#45;&gt;Node2 -->
<g id="edge2" class="edge">
<title>Node1&#45;&gt;Node2</title>
<path fill="none" stroke="#191970" d="M72.8233,-55.4179C63.3383,-47.2667 49.2041,-35.1201 37.855,-25.3669"/>
<polygon fill="#191970" stroke="#191970" points="40.0549,-22.6427 30.1895,-18.7795 35.4925,-27.9516 40.0549,-22.6427"/>
</g>
<!-- Node3 -->
<g id="node4" class="node">
<title>Node3</title>
<polygon fill="#ffffff" stroke="#bfbfbf" points="57.2192,-.5 57.2192,-18.5 111.564,-18.5 111.564,-.5 57.2192,-.5"/>
<text text-anchor="middle" x="84.3916" y="-6.5" font-family="Helvetica,sans-Serif" font-size="10.00" fill="#000000">iostream</text>
</g>
<!-- Node1&#45;&gt;Node3 -->
<g id="edge3" class="edge">
<title>Node1&#45;&gt;Node3</title>
<path fill="none" stroke="#191970" d="M83.5567,-55.4179C83.6877,-48.2164 83.8753,-37.8962 84.0395,-28.8632"/>
<polygon fill="#191970" stroke="#191970" points="87.5404,-28.8415 84.2229,-18.7795 80.5416,-28.7141 87.5404,-28.8415"/>
</g>
<!-- Node1&#45;&gt;Node4 -->
<g id="edge4" class="edge">
<title>Node1&#45;&gt;Node4</title>
<path fill="none" stroke="#191970" d="M94.6204,-55.4179C104.7961,-47.1876 120.0079,-34.8839 132.1247,-25.0836"/>
<polygon fill="#191970" stroke="#191970" points="134.3447,-27.7895 139.9188,-18.7795 129.9426,-22.3469 134.3447,-27.7895"/>
</g>
</g>
</svg>
