<?xml version="1.0" encoding="UTF-8" standalone="no"?>
<!DOCTYPE svg PUBLIC "-//W3C//DTD SVG 1.1//EN"
 "http://www.w3.org/Graphics/SVG/1.1/DTD/svg11.dtd">
<!-- Generated by graphviz version 2.40.1 (20161225.0304)
 -->
<!-- Title: ppht/types.hpp Pages: 1 -->
<svg width="382pt" height="192pt"
 viewBox="0.00 0.00 381.94 192.00" xmlns="http://www.w3.org/2000/svg" xmlns:xlink="http://www.w3.org/1999/xlink">
<g id="graph0" class="graph" transform="scale(1 1) rotate(0) translate(4 188)">
<title>ppht/types.hpp</title>
<polygon fill="#ffffff" stroke="transparent" points="-4,4 -4,-188 377.9429,-188 377.9429,4 -4,4"/>
<!-- Node4 -->
<g id="node1" class="node">
<title>Node4</title>
<polygon fill="#bfbfbf" stroke="#000000" points="132.9951,-165.5 132.9951,-183.5 214.6006,-183.5 214.6006,-165.5 132.9951,-165.5"/>
<text text-anchor="middle" x="173.7979" y="-171.5" font-family="Helvetica,sans-Serif" font-size="10.00" fill="#000000">ppht/types.hpp</text>
</g>
<!-- Node5 -->
<g id="node2" class="node">
<title>Node5</title>
<g id="a_node2"><a xlink:href="trig_8hpp.html" target="_top" xlink:title="ppht/trig.hpp">
<polygon fill="#ffffff" stroke="#000000" points="0,-110.5 0,-128.5 71.5957,-128.5 71.5957,-110.5 0,-110.5"/>
<text text-anchor="middle" x="35.7979" y="-116.5" font-family="Helvetica,sans-Serif" font-size="10.00" fill="#000000">ppht/trig.hpp</text>
</a>
</g>
</g>
<!-- Node4&#45;&gt;Node5 -->
<g id="edge1" class="edge">
<title>Node4&#45;&gt;Node5</title>
<path fill="none" stroke="#191970" d="M141.4257,-161.598C115.9906,-151.4609 81.2046,-137.5969 58.6196,-128.5956"/>
<polygon fill="#191970" stroke="#191970" points="140.4247,-164.9668 151.01,-165.4179 143.0164,-158.4642 140.4247,-164.9668"/>
</g>
<!-- Node6 -->
<g id="node3" class="node">
<title>Node6</title>
<g id="a_node3"><a xlink:href="accumulator_8hpp.html" target="_top" xlink:title="ppht/accumulator.hpp">
<polygon fill="#ffffff" stroke="#000000" points="43.9854,-55.5 43.9854,-73.5 155.6104,-73.5 155.6104,-55.5 43.9854,-55.5"/>
<text text-anchor="middle" x="99.7979" y="-61.5" font-family="Helvetica,sans-Serif" font-size="10.00" fill="#000000">ppht/accumulator.hpp</text>
</a>
</g>
</g>
<!-- Node4&#45;&gt;Node6 -->
<g id="edge4" class="edge">
<title>Node4&#45;&gt;Node6</title>
<path fill="none" stroke="#191970" d="M149.7612,-159.4855C138.9096,-151.6084 126.7659,-141.0811 118.7979,-129 107.2288,-111.4591 102.5354,-86.6973 100.7683,-73.5409"/>
<polygon fill="#191970" stroke="#191970" points="147.8608,-162.4264 158.0825,-165.2136 151.83,-156.6604 147.8608,-162.4264"/>
</g>
<!-- Node8 -->
<g id="node5" class="node">
<title>Node8</title>
<g id="a_node5"><a xlink:href="channel_8hpp.html" target="_top" xlink:title="ppht/channel.hpp">
<polygon fill="#ffffff" stroke="#000000" points="127.4312,-110.5 127.4312,-128.5 220.1646,-128.5 220.1646,-110.5 127.4312,-110.5"/>
<text text-anchor="middle" x="173.7979" y="-116.5" font-family="Helvetica,sans-Serif" font-size="10.00" fill="#000000">ppht/channel.hpp</text>
</a>
</g>
</g>
<!-- Node4&#45;&gt;Node8 -->
<g id="edge5" class="edge">
<title>Node4&#45;&gt;Node8</title>
<path fill="none" stroke="#191970" d="M173.7979,-155.383C173.7979,-146.3738 173.7979,-136.0373 173.7979,-128.7795"/>
<polygon fill="#191970" stroke="#191970" points="170.298,-155.4178 173.7979,-165.4179 177.298,-155.4179 170.298,-155.4178"/>
</g>
<!-- Node9 -->
<g id="node6" class="node">
<title>Node9</title>
<g id="a_node6"><a xlink:href="state_8hpp.html" target="_top" xlink:title="ppht/state.hpp">
<polygon fill="#ffffff" stroke="#000000" points="208.106,-55.5 208.106,-73.5 287.4897,-73.5 287.4897,-55.5 208.106,-55.5"/>
<text text-anchor="middle" x="247.7979" y="-61.5" font-family="Helvetica,sans-Serif" font-size="10.00" fill="#000000">ppht/state.hpp</text>
</a>
</g>
</g>
<!-- Node4&#45;&gt;Node9 -->
<g id="edge11" class="edge">
<title>Node4&#45;&gt;Node9</title>
<path fill="none" stroke="#191970" d="M197.8345,-159.4855C208.6861,-151.6084 220.8298,-141.0811 228.7979,-129 240.3669,-111.4591 245.0603,-86.6973 246.8274,-73.5409"/>
<polygon fill="#191970" stroke="#191970" points="195.7657,-156.6604 189.5132,-165.2136 199.7349,-162.4264 195.7657,-156.6604"/>
</g>
<!-- Node10 -->
<g id="node7" class="node">
<title>Node10</title>
<g id="a_node7"><a xlink:href="point__set_8hpp.html" target="_top" xlink:title="ppht/point_set.hpp">
<polygon fill="#ffffff" stroke="#000000" points="275.6528,-110.5 275.6528,-128.5 373.9429,-128.5 373.9429,-110.5 275.6528,-110.5"/>
<text text-anchor="middle" x="324.7979" y="-116.5" font-family="Helvetica,sans-Serif" font-size="10.00" fill="#000000">ppht/point_set.hpp</text>
</a>
</g>
</g>
<!-- Node4&#45;&gt;Node10 -->
<g id="edge8" class="edge">
<title>Node4&#45;&gt;Node10</title>
<path fill="none" stroke="#191970" d="M208.1463,-161.989C236.1587,-151.7858 275.0539,-137.6186 300.0772,-128.5042"/>
<polygon fill="#191970" stroke="#191970" points="206.9307,-158.7067 198.7324,-165.4179 209.3264,-165.284 206.9307,-158.7067"/>
</g>
<!-- Node5&#45;&gt;Node6 -->
<g id="edge2" class="edge">
<title>Node5&#45;&gt;Node6</title>
<path fill="none" stroke="#191970" d="M53.9881,-103.8678C65.292,-94.1535 79.4407,-81.9944 88.9999,-73.7795"/>
<polygon fill="#191970" stroke="#191970" points="51.6692,-101.2457 46.3661,-110.4179 56.2316,-106.5546 51.6692,-101.2457"/>
</g>
<!-- Node7 -->
<g id="node4" class="node">
<title>Node7</title>
<g id="a_node4"><a xlink:href="ppht_8hpp.html" target="_top" xlink:title="ppht.hpp">
<polygon fill="#ffffff" stroke="#000000" points="220.335,-.5 220.335,-18.5 275.2607,-18.5 275.2607,-.5 220.335,-.5"/>
<text text-anchor="middle" x="247.7979" y="-6.5" font-family="Helvetica,sans-Serif" font-size="10.00" fill="#000000">ppht.hpp</text>
</a>
</g>
</g>
<!-- Node6&#45;&gt;Node7 -->
<g id="edge3" class="edge">
<title>Node6&#45;&gt;Node7</title>
<path fill="none" stroke="#191970" d="M133.794,-51.8663C161.1327,-41.7066 198.8864,-27.6765 223.3224,-18.5956"/>
<polygon fill="#191970" stroke="#191970" points="132.3915,-48.6536 124.237,-55.4179 134.8299,-55.2151 132.3915,-48.6536"/>
</g>
<!-- Node8&#45;&gt;Node9 -->
<g id="edge6" class="edge">
<title>Node8&#45;&gt;Node9</title>
<path fill="none" stroke="#191970" d="M194.1249,-104.392C207.4043,-94.5222 224.3067,-81.9596 235.5601,-73.5956"/>
<polygon fill="#191970" stroke="#191970" points="191.9556,-101.6435 186.0174,-110.4179 196.1313,-107.2617 191.9556,-101.6435"/>
</g>
<!-- Node9&#45;&gt;Node7 -->
<g id="edge7" class="edge">
<title>Node9&#45;&gt;Node7</title>
<path fill="none" stroke="#191970" d="M247.7979,-45.383C247.7979,-36.3738 247.7979,-26.0373 247.7979,-18.7795"/>
<polygon fill="#191970" stroke="#191970" points="244.298,-45.4178 247.7979,-55.4179 251.298,-45.4179 244.298,-45.4178"/>
</g>
<!-- Node10&#45;&gt;Node7 -->
<g id="edge10" class="edge">
<title>Node10&#45;&gt;Node7</title>
<path fill="none" stroke="#191970" d="M318.8889,-100.4945C314.1687,-87.0482 306.7041,-68.9945 296.7979,-55 286.6028,-40.5976 271.24,-27.2576 260.4403,-18.7957"/>
<polygon fill="#191970" stroke="#191970" points="315.6122,-101.7334 322.0802,-110.1248 322.2568,-99.5314 315.6122,-101.7334"/>
</g>
<!-- Node10&#45;&gt;Node9 -->
<g id="edge9" class="edge">
<title>Node10&#45;&gt;Node9</title>
<path fill="none" stroke="#191970" d="M303.6467,-104.392C289.8289,-94.5222 272.2413,-81.9596 260.5317,-73.5956"/>
<polygon fill="#191970" stroke="#191970" points="301.9112,-107.4535 312.0829,-110.4179 305.9799,-101.7574 301.9112,-107.4535"/>
</g>
</g>
</svg>
