<?xml version="1.0" encoding="UTF-8" standalone="no"?>
<!DOCTYPE svg PUBLIC "-//W3C//DTD SVG 1.1//EN"
 "http://www.w3.org/Graphics/SVG/1.1/DTD/svg11.dtd">
<!-- Generated by graphviz version 2.40.1 (20161225.0304)
 -->
<!-- Title: ppht/types.hpp Pages: 1 -->
<svg width="238pt" height="82pt"
 viewBox="0.00 0.00 237.78 82.00" xmlns="http://www.w3.org/2000/svg" xmlns:xlink="http://www.w3.org/1999/xlink">
<g id="graph0" class="graph" transform="scale(1 1) rotate(0) translate(4 78)">
<title>ppht/types.hpp</title>
<polygon fill="#ffffff" stroke="transparent" points="-4,4 -4,-78 233.7832,-78 233.7832,4 -4,4"/>
<!-- Node0 -->
<g id="node1" class="node">
<title>Node0</title>
<polygon fill="#bfbfbf" stroke="#000000" points="70.5889,-55.5 70.5889,-73.5 152.1943,-73.5 152.1943,-55.5 70.5889,-55.5"/>
<text text-anchor="middle" x="111.3916" y="-61.5" font-family="Helvetica,sans-Serif" font-size="10.00" fill="#000000">ppht/types.hpp</text>
</g>
<!-- Node1 -->
<g id="node2" class="node">
<title>Node1</title>
<polygon fill="#ffffff" stroke="#bfbfbf" points="0,-.5 0,-18.5 38.7832,-18.5 38.7832,-.5 0,-.5"/>
<text text-anchor="middle" x="19.3916" y="-6.5" font-family="Helvetica,sans-Serif" font-size="10.00" fill="#000000">array</text>
</g>
<!-- Node0&#45;&gt;Node1 -->
<g id="edge1" class="edge">
<title>Node0&#45;&gt;Node1</title>
<path fill="none" stroke="#191970" d="M96.1997,-55.4179C81.817,-46.8195 59.9977,-33.7754 43.2855,-23.7844"/>
<polygon fill="#191970" stroke="#191970" points="44.9852,-20.7228 34.6061,-18.5956 41.3933,-26.731 44.9852,-20.7228"/>
</g>
<!-- Node2 -->
<g id="node3" class="node">
<title>Node2</title>
<polygon fill="#ffffff" stroke="#bfbfbf" points="56.7759,-.5 56.7759,-18.5 100.0073,-18.5 100.0073,-.5 56.7759,-.5"/>
<text text-anchor="middle" x="78.3916" y="-6.5" font-family="Helvetica,sans-Serif" font-size="10.00" fill="#000000">cmath</text>
</g>
<!-- Node0&#45;&gt;Node2 -->
<g id="edge2" class="edge">
<title>Node0&#45;&gt;Node2</title>
<path fill="none" stroke="#191970" d="M105.9423,-55.4179C101.384,-47.8207 94.7432,-36.7527 89.1236,-27.3866"/>
<polygon fill="#191970" stroke="#191970" points="92.1055,-25.5536 83.9593,-18.7795 86.1031,-29.1552 92.1055,-25.5536"/>
</g>
<!-- Node3 -->
<g id="node4" class="node">
<title>Node3</title>
<polygon fill="#ffffff" stroke="#bfbfbf" points="118.2192,-.5 118.2192,-18.5 172.564,-18.5 172.564,-.5 118.2192,-.5"/>
<text text-anchor="middle" x="145.3916" y="-6.5" font-family="Helvetica,sans-Serif" font-size="10.00" fill="#000000">iostream</text>
</g>
<!-- Node0&#45;&gt;Node3 -->
<g id="edge3" class="edge">
<title>Node0&#45;&gt;Node3</title>
<path fill="none" stroke="#191970" d="M117.006,-55.4179C121.7025,-47.8207 128.5445,-36.7527 134.3344,-27.3866"/>
<polygon fill="#191970" stroke="#191970" points="137.374,-29.1258 139.6552,-18.7795 131.4199,-25.445 137.374,-29.1258"/>
</g>
<!-- Node4 -->
<g id="node5" class="node">
<title>Node4</title>
<polygon fill="#ffffff" stroke="#bfbfbf" points="191,-.5 191,-18.5 229.7832,-18.5 229.7832,-.5 191,-.5"/>
<text text-anchor="middle" x="210.3916" y="-6.5" font-family="Helvetica,sans-Serif" font-size="10.00" fill="#000000">utility</text>
</g>
<!-- Node0&#45;&gt;Node4 -->
<g id="edge4" class="edge">
<title>Node0&#45;&gt;Node4</title>
<path fill="none" stroke="#191970" d="M127.7394,-55.4179C143.3597,-46.7399 167.1314,-33.5334 185.1778,-23.5077"/>
<polygon fill="#191970" stroke="#191970" points="186.9777,-26.5117 194.0195,-18.5956 183.5781,-20.3925 186.9777,-26.5117"/>
</g>
</g>
</svg>
