<?xml version="1.0" encoding="UTF-8" standalone="no"?>
<!DOCTYPE svg PUBLIC "-//W3C//DTD SVG 1.1//EN"
 "http://www.w3.org/Graphics/SVG/1.1/DTD/svg11.dtd">
<!-- Generated by graphviz version 2.48.0 (20210717.1556)
 -->
<!-- Title: ppht/types.hpp Pages: 1 -->
<svg width="541pt" height="192pt"
 viewBox="0.00 0.00 540.60 192.00" xmlns="http://www.w3.org/2000/svg" xmlns:xlink="http://www.w3.org/1999/xlink">
<g id="graph0" class="graph" transform="scale(1 1) rotate(0) translate(4 188)">
<title>ppht/types.hpp</title>
<polygon fill="white" stroke="transparent" points="-4,4 -4,-188 536.6,-188 536.6,4 -4,4"/>
<!-- Node1 -->
<g id="node1" class="node">
<title>Node1</title>
<g id="a_node1"><a xlink:title=" ">
<polygon fill="#bfbfbf" stroke="black" points="171,-165.5 171,-183.5 252.6,-183.5 252.6,-165.5 171,-165.5"/>
<text text-anchor="middle" x="211.8" y="-171.5" font-family="Helvetica,sans-Serif" font-size="10.00">ppht/types.hpp</text>
</a>
</g>
</g>
<!-- Node2 -->
<g id="node2" class="node">
<title>Node2</title>
<g id="a_node2"><a xlink:href="accumulator_8hpp.html" target="_top" xlink:title=" ">
<polygon fill="white" stroke="black" points="43.99,-55.5 43.99,-73.5 155.61,-73.5 155.61,-55.5 43.99,-55.5"/>
<text text-anchor="middle" x="99.8" y="-61.5" font-family="Helvetica,sans-Serif" font-size="10.00">ppht/accumulator.hpp</text>
</a>
</g>
</g>
<!-- Node1&#45;&gt;Node2 -->
<g id="edge1" class="edge">
<title>Node1&#45;&gt;Node2</title>
<path fill="none" stroke="midnightblue" d="M189.8,-159.53C177.69,-151.35 162.74,-140.4 150.8,-129 132.18,-111.23 114.26,-86.63 105.45,-73.9"/>
<polygon fill="midnightblue" stroke="midnightblue" points="188.14,-162.63 198.41,-165.22 191.99,-156.79 188.14,-162.63"/>
</g>
<!-- Node4 -->
<g id="node4" class="node">
<title>Node4</title>
<g id="a_node4"><a xlink:href="channel_8hpp.html" target="_top" xlink:title=" ">
<polygon fill="white" stroke="black" points="165.43,-110.5 165.43,-128.5 258.16,-128.5 258.16,-110.5 165.43,-110.5"/>
<text text-anchor="middle" x="211.8" y="-116.5" font-family="Helvetica,sans-Serif" font-size="10.00">ppht/channel.hpp</text>
</a>
</g>
</g>
<!-- Node1&#45;&gt;Node4 -->
<g id="edge3" class="edge">
<title>Node1&#45;&gt;Node4</title>
<path fill="none" stroke="midnightblue" d="M211.8,-155.17C211.8,-146.09 211.8,-135.59 211.8,-128.55"/>
<polygon fill="midnightblue" stroke="midnightblue" points="208.3,-155.22 211.8,-165.22 215.3,-155.22 208.3,-155.22"/>
</g>
<!-- Node5 -->
<g id="node5" class="node">
<title>Node5</title>
<g id="a_node5"><a xlink:href="state_8hpp.html" target="_top" xlink:title=" ">
<polygon fill="white" stroke="black" points="184.11,-55.5 184.11,-73.5 263.49,-73.5 263.49,-55.5 184.11,-55.5"/>
<text text-anchor="middle" x="223.8" y="-61.5" font-family="Helvetica,sans-Serif" font-size="10.00">ppht/state.hpp</text>
</a>
</g>
</g>
<!-- Node1&#45;&gt;Node5 -->
<g id="edge13" class="edge">
<title>Node1&#45;&gt;Node5</title>
<path fill="none" stroke="midnightblue" d="M186.73,-160.23C167.66,-148.24 146.32,-129.53 156.8,-110 166.24,-92.4 186.04,-80.58 201.68,-73.57"/>
<polygon fill="midnightblue" stroke="midnightblue" points="185.1,-163.33 195.49,-165.4 188.65,-157.3 185.1,-163.33"/>
</g>
<!-- Node6 -->
<g id="node6" class="node">
<title>Node6</title>
<g id="a_node6"><a xlink:href="kd-search_8hpp.html" target="_top" xlink:title=" ">
<polygon fill="white" stroke="black" points="430.99,-110.5 430.99,-128.5 532.6,-128.5 532.6,-110.5 430.99,-110.5"/>
<text text-anchor="middle" x="481.8" y="-116.5" font-family="Helvetica,sans-Serif" font-size="10.00">ppht/kd&#45;search.hpp</text>
</a>
</g>
</g>
<!-- Node1&#45;&gt;Node6 -->
<g id="edge6" class="edge">
<title>Node1&#45;&gt;Node6</title>
<path fill="none" stroke="midnightblue" d="M262.75,-163.5C314.35,-153.37 393.16,-137.9 440.85,-128.54"/>
<polygon fill="midnightblue" stroke="midnightblue" points="261.94,-160.09 252.81,-165.45 263.29,-166.96 261.94,-160.09"/>
</g>
<!-- Node7 -->
<g id="node7" class="node">
<title>Node7</title>
<g id="a_node7"><a xlink:href="postprocess_8hpp.html" target="_top" xlink:title=" ">
<polygon fill="white" stroke="black" points="346.99,-55.5 346.99,-73.5 458.61,-73.5 458.61,-55.5 346.99,-55.5"/>
<text text-anchor="middle" x="402.8" y="-61.5" font-family="Helvetica,sans-Serif" font-size="10.00">ppht/postprocess.hpp</text>
</a>
</g>
</g>
<!-- Node1&#45;&gt;Node7 -->
<g id="edge12" class="edge">
<title>Node1&#45;&gt;Node7</title>
<path fill="none" stroke="midnightblue" d="M263.05,-173.12C301.09,-170.1 351.71,-159.9 383.8,-129 399.21,-114.15 402.26,-87.36 402.77,-73.82"/>
<polygon fill="midnightblue" stroke="midnightblue" points="262.44,-169.65 252.69,-173.79 262.89,-176.64 262.44,-169.65"/>
</g>
<!-- Node8 -->
<g id="node8" class="node">
<title>Node8</title>
<g id="a_node8"><a xlink:href="point__set_8hpp.html" target="_top" xlink:title=" ">
<polygon fill="white" stroke="black" points="276.65,-110.5 276.65,-128.5 374.94,-128.5 374.94,-110.5 276.65,-110.5"/>
<text text-anchor="middle" x="325.8" y="-116.5" font-family="Helvetica,sans-Serif" font-size="10.00">ppht/point_set.hpp</text>
</a>
</g>
</g>
<!-- Node1&#45;&gt;Node8 -->
<g id="edge9" class="edge">
<title>Node1&#45;&gt;Node8</title>
<path fill="none" stroke="midnightblue" d="M238.37,-161.15C259.92,-151.13 289.67,-137.29 308.32,-128.63"/>
<polygon fill="midnightblue" stroke="midnightblue" points="236.7,-158.06 229.11,-165.45 239.66,-164.41 236.7,-158.06"/>
</g>
<!-- Node9 -->
<g id="node9" class="node">
<title>Node9</title>
<g id="a_node9"><a xlink:href="trig_8hpp.html" target="_top" xlink:title=" ">
<polygon fill="white" stroke="black" points="0,-110.5 0,-128.5 71.6,-128.5 71.6,-110.5 0,-110.5"/>
<text text-anchor="middle" x="35.8" y="-116.5" font-family="Helvetica,sans-Serif" font-size="10.00">ppht/trig.hpp</text>
</a>
</g>
</g>
<!-- Node1&#45;&gt;Node9 -->
<g id="edge14" class="edge">
<title>Node1&#45;&gt;Node9</title>
<path fill="none" stroke="midnightblue" d="M175.17,-162.47C141.55,-152.35 92.54,-137.59 62.49,-128.54"/>
<polygon fill="midnightblue" stroke="midnightblue" points="174.48,-165.92 185.07,-165.45 176.5,-159.22 174.48,-165.92"/>
</g>
<!-- Node3 -->
<g id="node3" class="node">
<title>Node3</title>
<g id="a_node3"><a xlink:href="ppht_8hpp.html" target="_top" xlink:title=" ">
<polygon fill="white" stroke="black" points="230.33,-0.5 230.33,-18.5 285.26,-18.5 285.26,-0.5 230.33,-0.5"/>
<text text-anchor="middle" x="257.8" y="-6.5" font-family="Helvetica,sans-Serif" font-size="10.00">ppht.hpp</text>
</a>
</g>
</g>
<!-- Node2&#45;&gt;Node3 -->
<g id="edge2" class="edge">
<title>Node2&#45;&gt;Node3</title>
<path fill="none" stroke="midnightblue" d="M133.47,-52.21C163.62,-42.09 207.09,-27.51 233.83,-18.54"/>
<polygon fill="midnightblue" stroke="midnightblue" points="132.16,-48.95 123.79,-55.45 134.39,-55.59 132.16,-48.95"/>
</g>
<!-- Node4&#45;&gt;Node5 -->
<g id="edge4" class="edge">
<title>Node4&#45;&gt;Node5</title>
<path fill="none" stroke="midnightblue" d="M215.95,-100.17C218,-91.09 220.38,-80.59 221.98,-73.55"/>
<polygon fill="midnightblue" stroke="midnightblue" points="212.47,-99.69 213.67,-110.22 219.29,-101.24 212.47,-99.69"/>
</g>
<!-- Node5&#45;&gt;Node3 -->
<g id="edge5" class="edge">
<title>Node5&#45;&gt;Node3</title>
<path fill="none" stroke="midnightblue" d="M234.6,-46.66C240.63,-37.26 247.87,-25.98 252.63,-18.55"/>
<polygon fill="midnightblue" stroke="midnightblue" points="231.56,-44.91 229.11,-55.22 237.46,-48.69 231.56,-44.91"/>
</g>
<!-- Node6&#45;&gt;Node7 -->
<g id="edge7" class="edge">
<title>Node6&#45;&gt;Node7</title>
<path fill="none" stroke="midnightblue" d="M461.34,-104.77C446.61,-94.89 427.25,-81.9 414.91,-73.63"/>
<polygon fill="midnightblue" stroke="midnightblue" points="459.55,-107.79 469.8,-110.45 463.45,-101.97 459.55,-107.79"/>
</g>
<!-- Node7&#45;&gt;Node3 -->
<g id="edge8" class="edge">
<title>Node7&#45;&gt;Node3</title>
<path fill="none" stroke="midnightblue" d="M371.2,-51.95C343.65,-41.88 304.39,-27.53 280.03,-18.63"/>
<polygon fill="midnightblue" stroke="midnightblue" points="370.18,-55.3 380.78,-55.45 372.58,-48.73 370.18,-55.3"/>
</g>
<!-- Node8&#45;&gt;Node3 -->
<g id="edge10" class="edge">
<title>Node8&#45;&gt;Node3</title>
<path fill="none" stroke="midnightblue" d="M315.31,-101.84C300.52,-78.35 274.1,-36.39 262.97,-18.71"/>
<polygon fill="midnightblue" stroke="midnightblue" points="312.4,-103.78 320.69,-110.38 318.32,-100.06 312.4,-103.78"/>
</g>
<!-- Node8&#45;&gt;Node5 -->
<g id="edge11" class="edge">
<title>Node8&#45;&gt;Node5</title>
<path fill="none" stroke="midnightblue" d="M301.24,-105.74C282.03,-95.76 255.89,-82.18 239.44,-73.63"/>
<polygon fill="midnightblue" stroke="midnightblue" points="299.82,-108.95 310.31,-110.45 303.05,-102.73 299.82,-108.95"/>
</g>
<!-- Node9&#45;&gt;Node2 -->
<g id="edge15" class="edge">
<title>Node9&#45;&gt;Node2</title>
<path fill="none" stroke="midnightblue" d="M53.4,-103.93C65.19,-94.16 80.27,-81.67 89.99,-73.63"/>
<polygon fill="midnightblue" stroke="midnightblue" points="50.99,-101.38 45.52,-110.45 55.45,-106.77 50.99,-101.38"/>
</g>
</g>
</svg>
