<?xml version="1.0" encoding="UTF-8" standalone="no"?>
<!DOCTYPE svg PUBLIC "-//W3C//DTD SVG 1.1//EN"
 "http://www.w3.org/Graphics/SVG/1.1/DTD/svg11.dtd">
<!-- Generated by graphviz version 2.40.1 (20161225.0304)
 -->
<!-- Title: ppht/types.hpp Pages: 1 -->
<svg width="523pt" height="192pt"
 viewBox="0.00 0.00 522.62 192.00" xmlns="http://www.w3.org/2000/svg" xmlns:xlink="http://www.w3.org/1999/xlink">
<g id="graph0" class="graph" transform="scale(1 1) rotate(0) translate(4 188)">
<title>ppht/types.hpp</title>
<polygon fill="#ffffff" stroke="transparent" points="-4,4 -4,-188 518.6177,-188 518.6177,4 -4,4"/>
<!-- Node5 -->
<g id="node1" class="node">
<title>Node5</title>
<polygon fill="#bfbfbf" stroke="#000000" points="153.0098,-165.5 153.0098,-183.5 234.6152,-183.5 234.6152,-165.5 153.0098,-165.5"/>
<text text-anchor="middle" x="193.8125" y="-171.5" font-family="Helvetica,sans-Serif" font-size="10.00" fill="#000000">ppht/types.hpp</text>
</g>
<!-- Node6 -->
<g id="node2" class="node">
<title>Node6</title>
<g id="a_node2"><a xlink:href="trig_8hpp.html" target="_top" xlink:title="ppht/trig.hpp">
<polygon fill="#ffffff" stroke="#000000" points="20.0146,-110.5 20.0146,-128.5 91.6104,-128.5 91.6104,-110.5 20.0146,-110.5"/>
<text text-anchor="middle" x="55.8125" y="-116.5" font-family="Helvetica,sans-Serif" font-size="10.00" fill="#000000">ppht/trig.hpp</text>
</a>
</g>
</g>
<!-- Node5&#45;&gt;Node6 -->
<g id="edge1" class="edge">
<title>Node5&#45;&gt;Node6</title>
<path fill="none" stroke="#191970" d="M161.4403,-161.598C136.0052,-151.4609 101.2192,-137.5969 78.6342,-128.5956"/>
<polygon fill="#191970" stroke="#191970" points="160.4394,-164.9668 171.0246,-165.4179 163.031,-158.4642 160.4394,-164.9668"/>
</g>
<!-- Node7 -->
<g id="node3" class="node">
<title>Node7</title>
<g id="a_node3"><a xlink:href="accumulator_8hpp.html" target="_top" xlink:title="ppht/accumulator.hpp">
<polygon fill="#ffffff" stroke="#000000" points="0,-55.5 0,-73.5 111.625,-73.5 111.625,-55.5 0,-55.5"/>
<text text-anchor="middle" x="55.8125" y="-61.5" font-family="Helvetica,sans-Serif" font-size="10.00" fill="#000000">ppht/accumulator.hpp</text>
</a>
</g>
</g>
<!-- Node5&#45;&gt;Node7 -->
<g id="edge4" class="edge">
<title>Node5&#45;&gt;Node7</title>
<path fill="none" stroke="#191970" d="M142.8164,-168.8218C94.4892,-162.2658 26.955,-149.6475 10.8125,-129 -4.0726,-109.9607 23.1375,-86.4154 41.3488,-73.6967"/>
<polygon fill="#191970" stroke="#191970" points="142.4424,-172.3026 152.8119,-170.1295 143.3504,-165.3618 142.4424,-172.3026"/>
</g>
<!-- Node9 -->
<g id="node5" class="node">
<title>Node9</title>
<g id="a_node5"><a xlink:href="channel_8hpp.html" target="_top" xlink:title="ppht/channel.hpp">
<polygon fill="#ffffff" stroke="#000000" points="147.4458,-110.5 147.4458,-128.5 240.1792,-128.5 240.1792,-110.5 147.4458,-110.5"/>
<text text-anchor="middle" x="193.8125" y="-116.5" font-family="Helvetica,sans-Serif" font-size="10.00" fill="#000000">ppht/channel.hpp</text>
</a>
</g>
</g>
<!-- Node5&#45;&gt;Node9 -->
<g id="edge5" class="edge">
<title>Node5&#45;&gt;Node9</title>
<path fill="none" stroke="#191970" d="M193.8125,-155.383C193.8125,-146.3738 193.8125,-136.0373 193.8125,-128.7795"/>
<polygon fill="#191970" stroke="#191970" points="190.3126,-155.4178 193.8125,-165.4179 197.3126,-155.4179 190.3126,-155.4178"/>
</g>
<!-- Node10 -->
<g id="node6" class="node">
<title>Node10</title>
<g id="a_node6"><a xlink:href="state_8hpp.html" target="_top" xlink:title="ppht/state.hpp">
<polygon fill="#ffffff" stroke="#000000" points="164.1206,-55.5 164.1206,-73.5 243.5044,-73.5 243.5044,-55.5 164.1206,-55.5"/>
<text text-anchor="middle" x="203.8125" y="-61.5" font-family="Helvetica,sans-Serif" font-size="10.00" fill="#000000">ppht/state.hpp</text>
</a>
</g>
</g>
<!-- Node5&#45;&gt;Node10 -->
<g id="edge15" class="edge">
<title>Node5&#45;&gt;Node10</title>
<path fill="none" stroke="#191970" d="M167.5177,-160.1815C148.8393,-147.9791 128.7213,-129.3817 138.8125,-110 147.7184,-92.8949 166.3231,-80.8907 181.3551,-73.524"/>
<polygon fill="#191970" stroke="#191970" points="165.8027,-163.2355 176.158,-165.4756 169.4599,-157.2667 165.8027,-163.2355"/>
</g>
<!-- Node11 -->
<g id="node7" class="node">
<title>Node11</title>
<g id="a_node7"><a xlink:href="kd-search_8hpp.html" target="_top" xlink:title="ppht/kd&#45;search.hpp">
<polygon fill="#ffffff" stroke="#000000" points="413.0073,-110.5 413.0073,-128.5 514.6177,-128.5 514.6177,-110.5 413.0073,-110.5"/>
<text text-anchor="middle" x="463.8125" y="-116.5" font-family="Helvetica,sans-Serif" font-size="10.00" fill="#000000">ppht/kd&#45;search.hpp</text>
</a>
</g>
</g>
<!-- Node5&#45;&gt;Node11 -->
<g id="edge8" class="edge">
<title>Node5&#45;&gt;Node11</title>
<path fill="none" stroke="#191970" d="M244.8357,-164.1064C295.1617,-153.8548 371.3152,-138.3421 419.2677,-128.5739"/>
<polygon fill="#191970" stroke="#191970" points="243.9198,-160.721 234.8197,-166.1467 245.3171,-167.5801 243.9198,-160.721"/>
</g>
<!-- Node12 -->
<g id="node8" class="node">
<title>Node12</title>
<g id="a_node8"><a xlink:href="postprocess_8hpp.html" target="_top" xlink:title="ppht/postprocess.hpp">
<polygon fill="#ffffff" stroke="#000000" points="329.0024,-55.5 329.0024,-73.5 440.6226,-73.5 440.6226,-55.5 329.0024,-55.5"/>
<text text-anchor="middle" x="384.8125" y="-61.5" font-family="Helvetica,sans-Serif" font-size="10.00" fill="#000000">ppht/postprocess.hpp</text>
</a>
</g>
</g>
<!-- Node5&#45;&gt;Node12 -->
<g id="edge14" class="edge">
<title>Node5&#45;&gt;Node12</title>
<path fill="none" stroke="#191970" d="M244.6532,-166.6944C288.9138,-158.9162 348.6076,-145.7322 365.8125,-129 381.0435,-114.1875 384.2212,-87.8362 384.7856,-73.8395"/>
<polygon fill="#191970" stroke="#191970" points="243.8843,-163.2751 234.6185,-168.4128 245.0659,-170.1746 243.8843,-163.2751"/>
</g>
<!-- Node13 -->
<g id="node9" class="node">
<title>Node13</title>
<g id="a_node9"><a xlink:href="point__set_8hpp.html" target="_top" xlink:title="ppht/point_set.hpp">
<polygon fill="#ffffff" stroke="#000000" points="258.6675,-110.5 258.6675,-128.5 356.9575,-128.5 356.9575,-110.5 258.6675,-110.5"/>
<text text-anchor="middle" x="307.8125" y="-116.5" font-family="Helvetica,sans-Serif" font-size="10.00" fill="#000000">ppht/point_set.hpp</text>
</a>
</g>
</g>
<!-- Node5&#45;&gt;Node13 -->
<g id="edge11" class="edge">
<title>Node5&#45;&gt;Node13</title>
<path fill="none" stroke="#191970" d="M221.6776,-161.0563C242.5804,-150.9716 270.6328,-137.4376 288.9598,-128.5956"/>
<polygon fill="#191970" stroke="#191970" points="220.123,-157.9202 212.6373,-165.4179 223.1647,-164.2248 220.123,-157.9202"/>
</g>
<!-- Node6&#45;&gt;Node7 -->
<g id="edge2" class="edge">
<title>Node6&#45;&gt;Node7</title>
<path fill="none" stroke="#191970" d="M55.8125,-100.383C55.8125,-91.3738 55.8125,-81.0373 55.8125,-73.7795"/>
<polygon fill="#191970" stroke="#191970" points="52.3126,-100.4178 55.8125,-110.4179 59.3126,-100.4179 52.3126,-100.4178"/>
</g>
<!-- Node8 -->
<g id="node4" class="node">
<title>Node8</title>
<g id="a_node4"><a xlink:href="ppht_8hpp.html" target="_top" xlink:title="ppht.hpp">
<polygon fill="#ffffff" stroke="#000000" points="229.3496,-.5 229.3496,-18.5 284.2754,-18.5 284.2754,-.5 229.3496,-.5"/>
<text text-anchor="middle" x="256.8125" y="-6.5" font-family="Helvetica,sans-Serif" font-size="10.00" fill="#000000">ppht.hpp</text>
</a>
</g>
</g>
<!-- Node7&#45;&gt;Node8 -->
<g id="edge3" class="edge">
<title>Node7&#45;&gt;Node8</title>
<path fill="none" stroke="#191970" d="M98.8634,-52.7199C138.2681,-41.9375 195.4139,-26.3006 229.0786,-17.0889"/>
<polygon fill="#191970" stroke="#191970" points="97.7252,-49.4026 89.0036,-55.4179 99.5728,-56.1544 97.7252,-49.4026"/>
</g>
<!-- Node9&#45;&gt;Node10 -->
<g id="edge6" class="edge">
<title>Node9&#45;&gt;Node10</title>
<path fill="none" stroke="#191970" d="M197.2883,-100.383C198.9263,-91.3738 200.8057,-81.0373 202.1253,-73.7795"/>
<polygon fill="#191970" stroke="#191970" points="193.8092,-99.953 195.4638,-110.4179 200.6963,-101.2053 193.8092,-99.953"/>
</g>
<!-- Node10&#45;&gt;Node8 -->
<g id="edge7" class="edge">
<title>Node10&#45;&gt;Node8</title>
<path fill="none" stroke="#191970" d="M219.7001,-48.0129C228.9166,-38.4485 240.1848,-26.7552 247.8705,-18.7795"/>
<polygon fill="#191970" stroke="#191970" points="216.9831,-45.7884 212.5644,-55.4179 222.0236,-50.6457 216.9831,-45.7884"/>
</g>
<!-- Node11&#45;&gt;Node12 -->
<g id="edge9" class="edge">
<title>Node11&#45;&gt;Node12</title>
<path fill="none" stroke="#191970" d="M442.5159,-104.6733C428.2795,-94.7619 410.0053,-82.0393 397.8771,-73.5956"/>
<polygon fill="#191970" stroke="#191970" points="440.5605,-107.5766 450.7673,-110.4179 444.5601,-101.8317 440.5605,-107.5766"/>
</g>
<!-- Node12&#45;&gt;Node8 -->
<g id="edge10" class="edge">
<title>Node12&#45;&gt;Node8</title>
<path fill="none" stroke="#191970" d="M354.4724,-51.4633C330.9088,-41.3383 298.8362,-27.5571 277.9805,-18.5956"/>
<polygon fill="#191970" stroke="#191970" points="353.1064,-54.6857 363.6759,-55.4179 355.8699,-48.2542 353.1064,-54.6857"/>
</g>
<!-- Node13&#45;&gt;Node8 -->
<g id="edge13" class="edge">
<title>Node13&#45;&gt;Node8</title>
<path fill="none" stroke="#191970" d="M299.3094,-101.16C288.2686,-77.3464 269.4226,-36.6983 261.0437,-18.6261"/>
<polygon fill="#191970" stroke="#191970" points="296.2573,-102.8981 303.639,-110.4982 302.608,-99.9537 296.2573,-102.8981"/>
</g>
<!-- Node13&#45;&gt;Node10 -->
<g id="edge12" class="edge">
<title>Node13&#45;&gt;Node10</title>
<path fill="none" stroke="#191970" d="M281.6151,-105.6456C262.6324,-95.6067 237.5049,-82.3181 221.0115,-73.5956"/>
<polygon fill="#191970" stroke="#191970" points="280.1628,-108.8368 290.639,-110.4179 283.4353,-102.6489 280.1628,-108.8368"/>
</g>
</g>
</svg>
